<svg xmlns="http://www.w3.org/2000/svg" width="60" height="60" viewBox="0 0 60 60">
  <g id="service_process03" transform="translate(-44 -567)">
    <circle id="base" cx="30" cy="30" r="30" transform="translate(44 567)" fill="#fee"/>
    <g id="ic" transform="translate(-55.103 -20.32)">
      <rect id="base-2" data-name="base" width="30" height="30" transform="translate(114.103 602.32)" fill="#fff" opacity="0"/>
      <g id="그룹_3545" data-name="그룹 3545" transform="translate(116.853 605.501)">
        <g id="패스_22218" data-name="패스 22218" transform="translate(12.345 12.679)" fill="#fff" stroke-linejoin="round">
          <path d="M -0.4999963641166687 11.66630172729492 L -0.4999963641166687 10.95887184143066 L -0.4999963641166687 -3.839308500289917 L -0.4999963641166687 -4.19269847869873 L -0.1668663620948792 -4.310638427734375 L 11.98877334594727 -8.614178657531738 L 12.65564346313477 -8.850278854370117 L 12.65564346313477 -8.142848968505859 L 12.65564346313477 6.655321598052979 L 12.65564346313477 7.008711338043213 L 12.32251358032227 7.126651287078857 L 0.1668736338615417 11.43020153045654 L -0.4999963641166687 11.66630172729492 Z" stroke="none"/>
          <path d="M 12.15564346313477 -8.142848968505859 L 3.814697265625e-06 -3.839308738708496 L 3.814697265625e-06 10.95887184143066 L 12.15564346313477 6.65532112121582 L 12.15564346313477 -8.142848968505859 M 12.15556716918945 -9.142855644226074 C 12.35964870452881 -9.142855644226074 12.56173133850098 -9.080392837524414 12.73281383514404 -8.959468841552734 C 12.99798393249512 -8.772058486938477 13.15564346313477 -8.467558860778809 13.15564346313477 -8.142848968505859 L 13.15564346313477 6.65532112121582 C 13.15564346313477 7.078951358795166 12.88872337341309 7.456611633300781 12.48938369750977 7.597991466522217 L 0.3337440490722656 11.9015417098999 C 0.02765178680419922 12.00990009307861 -0.3120059967041016 11.96291160583496 -0.5771665573120117 11.77549171447754 C -0.8423366546630859 11.58808135986328 -0.9999961853027344 11.28358173370361 -0.9999961853027344 10.95887184143066 L -0.9999961853027344 -3.839308738708496 C -0.9999961853027344 -4.262938499450684 -0.7330760955810547 -4.640598773956299 -0.3337364196777344 -4.781978607177734 L 11.82190322875977 -9.085518836975098 C 11.93050670623779 -9.123964309692383 12.04334259033203 -9.142855644226074 12.15556716918945 -9.142855644226074 Z" stroke="none" fill="#777"/>
        </g>
        <g id="패스_22219" data-name="패스 22219" transform="translate(0 12.679)" fill="#fff" stroke-linejoin="round">
          <path d="M 12.65564346313477 11.66630172729492 L 11.98877334594727 11.43020153045654 L -0.1668663620948792 7.126651287078857 L -0.4999963641166687 7.008711338043213 L -0.4999963641166687 6.655321598052979 L -0.4999963641166687 -8.142848968505859 L -0.4999963641166687 -8.850278854370117 L 0.1668736338615417 -8.614178657531738 L 12.32251358032227 -4.310638427734375 L 12.65564346313477 -4.19269847869873 L 12.65564346313477 -3.839308500289917 L 12.65564346313477 10.95887184143066 L 12.65564346313477 11.66630172729492 Z" stroke="none"/>
          <path d="M 3.814697265625e-06 -8.142848968505859 L 3.814697265625e-06 6.65532112121582 L 12.15564346313477 10.95887184143066 L 12.15564346313477 -3.839308738708496 L 3.814697265625e-06 -8.142848968505859 M 8.0108642578125e-05 -9.142855644226074 C 0.1123237609863281 -9.142855644226074 0.2251214981079102 -9.123970985412598 0.3337440490722656 -9.085518836975098 L 12.48938369750977 -4.781978607177734 C 12.88872337341309 -4.640598773956299 13.15564346313477 -4.262938499450684 13.15564346313477 -3.839308738708496 L 13.15564346313477 10.95887184143066 C 13.15564346313477 11.28358173370361 12.99798393249512 11.58808135986328 12.73281383514404 11.77549171447754 C 12.46765327453613 11.96291160583496 12.1279935836792 12.00990009307861 11.82190322875977 11.9015417098999 L -0.3337364196777344 7.597991466522217 C -0.7330760955810547 7.456611633300781 -0.9999961853027344 7.078951358795166 -0.9999961853027344 6.65532112121582 L -0.9999961853027344 -8.142848968505859 C -0.9999961853027344 -8.467558860778809 -0.8423366546630859 -8.772058486938477 -0.5771665573120117 -8.959468841552734 C -0.4061002731323242 -9.080381393432617 -0.2039823532104492 -9.142855644226074 8.0108642578125e-05 -9.142855644226074 Z" stroke="none" fill="#777"/>
        </g>
        <g id="패스_22220" data-name="패스 22220" transform="translate(0 -12.274)" fill="#fff" stroke-linejoin="round">
          <path d="M 12.14890193939209 21.11321830749512 L 11.98878192901611 21.05652809143066 L -0.1668679714202881 16.75298881530762 L -1.554337978363037 16.26177787780762 L -0.1547579765319824 15.80620861053467 L 12.15817165374756 11.79836845397949 L 12.31968212127686 11.74579811096191 L 12.47980213165283 11.80248832702637 L 24.63545227050781 16.10602760314941 L 26.02292251586914 16.59723854064941 L 24.62334251403809 17.05280876159668 L 12.31041240692139 21.06064796447754 L 12.14890193939209 21.11321830749512 Z" stroke="none"/>
          <path d="M 12.15565204620361 20.58519744873047 L 24.46858215332031 16.57735824584961 L 12.31293201446533 12.27381801605225 L 2.030334371738718e-06 16.28165817260742 L 12.15565204620361 20.58519744873047 M 12.15565013885498 21.58519744873047 C 12.04269599914551 21.58519744873047 11.92982292175293 21.56606864929199 11.82191181182861 21.52786827087402 L -0.3337379693984985 17.22432899475098 C -0.7374979853630066 17.08137893676758 -1.005397915840149 16.69715881347656 -0.9999179840087891 16.26886749267578 C -0.9944379925727844 15.84057807922363 -0.7168079614639282 15.46333789825439 -0.3095079660415649 15.33076858520508 L 12.00342178344727 11.3229284286499 C 12.21289253234863 11.25473880767822 12.43901252746582 11.25763893127441 12.64667224884033 11.33114814758301 L 24.80232238769531 15.63468837738037 C 25.20608139038086 15.77763843536377 25.4739818572998 16.16185760498047 25.46850204467773 16.59014892578125 C 25.46302223205566 17.0184383392334 25.18539237976074 17.39567756652832 24.77809143066406 17.52824783325195 L 12.46516227722168 21.53608894348145 C 12.36454391479492 21.56884384155273 12.26006031036377 21.58519744873047 12.15565013885498 21.58519744873047 Z" stroke="none" fill="#777"/>
        </g>
        <g id="패스_22223" data-name="패스 22223" transform="translate(4.67 4.812)" fill="#ff9797" stroke-linejoin="round">
          <path d="M 2.228314876556396 7.82995080947876 L 0.3215349316596985 7.078791618347168 L 0.3215349316596985 1.41620934009552 L 4.788115501403809 -0.3625034689903259 L 6.21819019317627 0.2704910933971405 L 2.536005020141602 1.804734826087952 L 2.228314876556396 1.932944893836975 L 2.228314876556396 2.266274929046631 L 2.228314876556396 7.82995080947876 Z" stroke="none"/>
          <path d="M 4.77787446975708 0.1797585487365723 L 0.8215351104736328 1.755280017852783 L 0.8215351104736328 6.738354682922363 L 1.728314876556396 7.095572471618652 L 1.728314876556396 2.266274929046631 C 1.728314876556396 1.862575054168701 1.971055030822754 1.498465061187744 2.343694686889648 1.343194961547852 L 4.951498508453369 0.2566099166870117 L 4.77787446975708 0.1797585487365723 M 4.798344612121582 -0.9047651290893555 L 7.484874725341797 0.2843747138977051 L 2.728314876556396 2.266274929046631 L 2.728314876556396 8.564314842224121 L -0.1784648895263672 7.419214725494385 L -0.1784648895263672 1.07713508605957 L 4.798344612121582 -0.9047651290893555 Z" stroke="none" fill="#ff9797"/>
        </g>
      </g>
    </g>
  </g>
</svg>
