<svg xmlns="http://www.w3.org/2000/svg" width="60" height="60" viewBox="0 0 60 60">
  <g id="service_process01" transform="translate(-44 -567)">
    <circle id="base" cx="30" cy="30" r="30" transform="translate(44 567)" fill="#dceaff"/>
    <g id="ic" transform="translate(-54.77 -19.987)">
      <rect id="base-2" data-name="base" width="30" height="30" transform="translate(113.77 601.987)" fill="#fff" opacity="0"/>
      <g id="그룹_3569" data-name="그룹 3569" transform="translate(2.762 383.318)">
        <g id="그룹_3568" data-name="그룹 3568" transform="translate(116.051 234)">
          <path id="패스_22295" data-name="패스 22295" d="M140.544,246.757l-1.418,11.009a2.572,2.572,0,0,1-2.316,2.322H123.362a2.572,2.572,0,0,1-2.316-2.322l-1.419-11.009" transform="translate(-120.087 -249.088)" fill="#fff"/>
          <path id="패스_22292" data-name="패스 22292" d="M139.719,246.757l-1.363,9.084a2.327,2.327,0,0,1-2.225,1.916H123.215a2.327,2.327,0,0,1-2.225-1.916l-1.363-9.084" transform="translate(-119.627 -246.757)" fill="#fff" stroke="#777" stroke-linecap="round" stroke-linejoin="round" stroke-width="1"/>
          <g id="그룹_3567" data-name="그룹 3567" transform="translate(5.585 2.68)">
            <line id="선_381" data-name="선 381" y2="3.346" fill="none" stroke="#7ba5e3" stroke-linecap="round" stroke-linejoin="round" stroke-width="1"/>
            <line id="선_382" data-name="선 382" y2="3.346" transform="translate(4.461)" fill="none" stroke="#7ba5e3" stroke-linecap="round" stroke-linejoin="round" stroke-width="1"/>
            <line id="선_383" data-name="선 383" y2="3.346" transform="translate(8.923)" fill="none" stroke="#7ba5e3" stroke-linecap="round" stroke-linejoin="round" stroke-width="1"/>
          </g>
        </g>
        <path id="패스_22293" data-name="패스 22293" d="M134.744,235.2h2.882a1.791,1.791,0,0,1,.7.14,1.8,1.8,0,0,1,.786.648,1.8,1.8,0,0,1,.165.3,1.784,1.784,0,0,1,.14.7h0a1.793,1.793,0,0,1-.036.36,1.773,1.773,0,0,1-.1.335,1.8,1.8,0,0,1-.647.786,1.823,1.823,0,0,1-.3.165,1.764,1.764,0,0,1-.335.1,1.832,1.832,0,0,1-.36.036H114.568a1.819,1.819,0,0,1-.36-.036,1.768,1.768,0,0,1-.336-.1,1.823,1.823,0,0,1-.3-.165,1.842,1.842,0,0,1-.265-.218,1.759,1.759,0,0,1-.218-.265,1.8,1.8,0,0,1-.165-.3,1.774,1.774,0,0,1-.1-.335,1.827,1.827,0,0,1-.036-.36h0a1.818,1.818,0,0,1,.036-.36,1.768,1.768,0,0,1,.1-.336,1.8,1.8,0,0,1,.165-.3,1.782,1.782,0,0,1,.218-.265,1.842,1.842,0,0,1,.265-.218,1.823,1.823,0,0,1,.3-.165,1.8,1.8,0,0,1,.7-.14h2.883" transform="translate(0 -6.718)" fill="#fff" stroke="#777" stroke-linecap="round" stroke-linejoin="round" stroke-width="1"/>
        <path id="패스_22294" data-name="패스 22294" d="M131.655,222.412l-3.062,6.067h11.529l-2.8-6.141" transform="translate(-8.26)" fill="none" stroke="#777" stroke-linecap="round" stroke-linejoin="round" stroke-width="1"/>
      </g>
    </g>
  </g>
</svg>
