<svg xmlns="http://www.w3.org/2000/svg" width="65" height="65" viewBox="0 0 65 65">
  <g id="solution_iconlist01" transform="translate(-53 -874)">
    <circle id="base" cx="32.5" cy="32.5" r="32.5" transform="translate(53 874)" fill="#eff5f5"/>
    <g id="그룹_3570" data-name="그룹 3570" transform="translate(-75.86 72.19)">
      <path id="패스_22296" data-name="패스 22296" d="M640.037,512.37v-4.022a8.744,8.744,0,0,1,8.728-8.738h13.35a1.482,1.482,0,0,0,0-2.964H645.562a7.738,7.738,0,0,1-7.725-7.734v-.161a7.738,7.738,0,0,1,7.725-7.734h7.773a1.7,1.7,0,0,0,1.7-1.7h0V477.37h6.245v1.943a7.959,7.959,0,0,1-7.946,7.955h-7.773a1.483,1.483,0,0,0-1.48,1.482v.161a1.482,1.482,0,0,0,1.48,1.482h16.552a7.734,7.734,0,0,1,0,15.467h-13.35a2.488,2.488,0,0,0-2.483,2.487v4.022Z" transform="translate(-491.979 338.96)" fill="#fff"/>
      <path id="패스_22296-2" data-name="패스 22296" d="M148.058,851.33v-4.022a8.743,8.743,0,0,1,8.728-8.738h13.35a1.482,1.482,0,0,0,0-2.964H153.583a7.738,7.738,0,0,1-7.725-7.734v-.161a7.738,7.738,0,0,1,7.725-7.734h7.773a1.7,1.7,0,0,0,1.7-1.7V816.33" transform="translate(0 0)" fill="none" stroke="#096a77" stroke-miterlimit="10" stroke-width="1"/>
      <path id="패스_22297" data-name="패스 22297" d="M179.057,816.33v1.943a7.959,7.959,0,0,1-7.946,7.955h-7.773a1.483,1.483,0,0,0-1.48,1.482v.161a1.483,1.483,0,0,0,1.48,1.482H179.89a7.734,7.734,0,0,1,0,15.467h-13.35a2.488,2.488,0,0,0-2.483,2.487v4.022" transform="translate(-9.756 0)" fill="none" stroke="#096a77" stroke-miterlimit="10" stroke-width="1"/>
    </g>
    <g id="그룹_3571" data-name="그룹 3571" transform="translate(-29.254 859.896)">
      <g id="타원_139" data-name="타원 139" transform="translate(113.254 44.104)" fill="#a6dfdf" stroke="#096a77" stroke-width="1">
        <circle cx="12" cy="12" r="12" stroke="none"/>
        <circle cx="12" cy="12" r="11.5" fill="none"/>
      </g>
      <g id="패스_22301" data-name="패스 22301" transform="translate(7.734 3.518)" fill="#f167de">
        <path d="M 117.750732421875 48.51669692993164 C 117.7506866455078 48.51669692993164 117.7507019042969 48.51669692993164 117.7506484985352 48.51669692993164 C 117.6652297973633 48.51668930053711 117.5789489746094 48.51004791259766 117.4942245483398 48.4969482421875 C 117.054557800293 48.42821884155273 116.6697235107422 48.19158935546875 116.4089584350586 47.83038711547852 C 116.149055480957 47.47037887573242 116.0451278686523 47.03216552734375 116.1159362792969 46.59574508666992 C 116.183235168457 46.16521453857422 116.4169540405273 45.7833366394043 116.7746200561523 45.51979064941406 C 117.0587005615234 45.31143951416016 117.3958129882812 45.20199966430664 117.7512817382812 45.20199966430664 C 117.8084259033203 45.20199966430664 117.9130477905273 45.20199966430664 118.040771484375 45.22602081298828 C 118.4642105102539 45.30233001708984 118.8373870849609 45.53448486328125 119.0923843383789 45.88052749633789 L 119.1011810302734 45.8924674987793 L 119.109619140625 45.90465927124023 C 119.3548812866211 46.25902938842773 119.4551010131836 46.68801879882812 119.3918151855469 47.11259841918945 L 119.3905410766602 47.12109756469727 L 119.3891296386719 47.12958908081055 C 119.2551574707031 47.93333053588867 118.5660934448242 48.51669692993164 117.750732421875 48.51669692993164 Z" stroke="none"/>
        <path d="M 117.7507019042969 47.51669692993164 C 118.0702896118164 47.5167121887207 118.3489227294922 47.28803253173828 118.4027404785156 46.96516799926758 C 118.4288177490234 46.79019927978516 118.3878326416016 46.61893844604492 118.287353515625 46.47375869750977 C 118.1830978393555 46.33229064941406 118.0304641723633 46.23922729492188 117.859245300293 46.20943069458008 C 117.8219985961914 46.20199966430664 117.7847747802734 46.20199966430664 117.7512817382812 46.20199966430664 C 117.6135177612305 46.20199966430664 117.4794921875 46.24295043945312 117.3678131103516 46.32485961914062 C 117.2263488769531 46.4290885925293 117.1295318603516 46.58171844482422 117.1035079956055 46.75296020507812 C 117.0439453125 47.11034774780273 117.289665222168 47.45282745361328 117.6470184326172 47.50868988037109 C 117.681884765625 47.51408004760742 117.7165451049805 47.51669311523438 117.7507019042969 47.51669692993164 M 117.7507247924805 49.51669692993164 C 117.6143341064453 49.51669692993164 117.4766540527344 49.50610733032227 117.3414993286133 49.4852180480957 C 116.6343307495117 49.37467956542969 116.0163879394531 48.99503707885742 115.5981750488281 48.41571807861328 C 115.1821441650391 47.83945846557617 115.0155639648438 47.13777160644531 115.12841796875 46.43824768066406 C 115.2372894287109 45.74679946899414 115.6108474731445 45.1351432800293 116.1814422607422 44.71472930908203 C 116.6399993896484 44.37839889526367 117.1816177368164 44.20199966430664 117.7512817382812 44.20199966430664 C 117.828125 44.20199966430664 118.0036697387695 44.20199966430664 118.2211227416992 44.24241638183594 C 118.8959197998047 44.36477661132812 119.4906387329102 44.73529815673828 119.8974151611328 45.28730010986328 L 119.9318923950195 45.3355598449707 C 120.3223190307617 45.89968872070312 120.4817810058594 46.58313751220703 120.3808898925781 47.26001739501953 L 120.3755187988281 47.29402923583984 C 120.1608352661133 48.58192825317383 119.0569381713867 49.51669692993164 117.7507247924805 49.51669692993164 Z" stroke="none" fill="#fff"/>
      </g>
      <g id="패스_22298" data-name="패스 22298" transform="translate(2.343 5.511)" fill="#fdc960">
        <path d="M 117.8129959106445 54.05881118774414 C 116.8314056396484 54.05879974365234 116.0158081054688 53.38182067871094 115.8736572265625 52.44911193847656 L 115.8729553222656 52.44448089599609 L 115.8722991943359 52.43984985351562 C 115.6904449462891 51.16677093505859 115.2164611816406 49.99549102783203 114.4634780883789 48.95854949951172 L 114.4592666625977 48.95275115966797 L 114.4551467895508 48.94689178466797 C 113.896240234375 48.15354156494141 114.0438690185547 47.04994201660156 114.7985458374023 46.37982940673828 C 115.1203079223633 46.09284973144531 115.5602951049805 45.93399047851562 116.0358047485352 45.93399047851562 L 116.0652465820312 45.93399047851562 L 116.0946273803711 45.93572235107422 L 116.2212295532227 45.94318008422852 L 116.2405166625977 45.94432067871094 L 116.2597579956055 45.94620132446289 C 116.8916549682617 46.00800704956055 117.4653396606445 46.33983612060547 117.8345565795898 46.8569221496582 C 118.8613204956055 48.27497863769531 119.5070648193359 49.87128829956055 119.7539291381836 51.60166549682617 C 119.8475341796875 52.2259521484375 119.6675872802734 52.8611946105957 119.2597961425781 53.34594345092773 C 118.8980178833008 53.78091430664062 118.4004592895508 54.04012298583984 117.8938903808594 54.05731964111328 C 117.8697662353516 54.05826950073242 117.8412475585938 54.05881118774414 117.8129959106445 54.05881118774414 Z" stroke="none"/>
        <path d="M 117.8130111694336 53.05881500244141 C 117.828498840332 53.05881500244141 117.8441314697266 53.05851364135742 117.8599472045898 53.05789947509766 C 118.0795974731445 53.05044174194336 118.3141250610352 52.92015075683594 118.4928359985352 52.70423889160156 C 118.7162017822266 52.43991088867188 118.8167114257812 52.08998870849609 118.7646102905273 51.74750900268555 C 118.5412216186523 50.1765022277832 117.9530258178711 48.72463989257812 117.022346496582 47.44029235839844 C 116.8212966918945 47.15737152099609 116.5049057006836 46.97494888305664 116.1624069213867 46.94145202636719 L 116.0358047485352 46.93399047851562 C 115.8087387084961 46.93399047851562 115.6002655029297 47.00473022460938 115.462516784668 47.12759017944336 C 115.0306854248047 47.51103210449219 115.0418548583984 48.04336929321289 115.2726516723633 48.3709716796875 C 116.121467590332 49.53990173339844 116.6575317382812 50.86521148681641 116.8622512817383 52.2984504699707 C 116.9201889038086 52.67862701416016 117.2633666992188 53.05880737304688 117.8130111694336 53.05881500244141 M 117.8130187988281 55.05881118774414 C 116.333610534668 55.05881118774414 115.1022262573242 54.02463912963867 114.8850784301758 52.59976959228516 L 114.8823471069336 52.58124923706055 C 114.7237701416016 51.4710807800293 114.3106002807617 50.44990921020508 113.6543121337891 49.5461311340332 L 113.6376419067383 49.52281188964844 C 112.7853698730469 48.31304931640625 112.9990081787109 46.6403923034668 114.1345748901367 45.63207244873047 C 114.6381301879883 45.18294906616211 115.3144989013672 44.93399047851562 116.0358047485352 44.93399047851562 L 116.0946807861328 44.93399047851562 L 116.3571014404297 44.95095062255859 C 117.2754669189453 45.04077529907227 118.1092224121094 45.52240753173828 118.6463775634766 46.27301025390625 C 119.7679061889648 47.82279205322266 120.4734802246094 49.56731033325195 120.7435989379883 51.45832443237305 C 120.8780136108398 52.36411666870117 120.6170349121094 53.28482818603516 120.0266494750977 53.98777389526367 C 119.4832916259766 54.6397590637207 118.7200164794922 55.02908706665039 117.9303817749023 55.05666351318359 C 117.8908615112305 55.05810928344727 117.8517456054688 55.05881118774414 117.8130187988281 55.05881118774414 Z" stroke="none" fill="#fff"/>
      </g>
      <g id="패스_22304" data-name="패스 22304" transform="translate(1.086 11.503)" fill="#2ed1a2">
        <path d="M 127.3943099975586 51.9398307800293 C 127.3942184448242 51.9398307800293 127.3942565917969 51.9398307800293 127.3941650390625 51.9398307800293 C 127.3686447143555 51.9398307800293 127.3429718017578 51.93946838378906 127.3173446655273 51.93875122070312 C 126.6459274291992 51.92480850219727 126.0354537963867 51.66056823730469 125.6337356567383 51.21145248413086 L 125.6263046264648 51.20401000976562 L 125.6020584106445 51.17577743530273 C 124.68701171875 50.11038970947266 124.9193801879883 48.75505828857422 125.6025848388672 48.02072906494141 L 125.6046447753906 48.01852035522461 L 125.6067047119141 48.01633071899414 C 126.6946792602539 46.86101913452148 127.4604187011719 45.50717926025391 127.8826751708984 43.99239730834961 L 127.8836669921875 43.98881912231445 L 127.8846969604492 43.9852409362793 C 128.1722412109375 42.98262786865234 129.0839691162109 42.30899810791016 130.1534118652344 42.30899810791016 C 130.2902374267578 42.30899810791016 130.4336547851562 42.32040023803711 130.5796508789062 42.34286880493164 L 130.5876312255859 42.34410095214844 L 130.5955810546875 42.3454475402832 C 131.2016906738281 42.44878768920898 131.7614288330078 42.84231948852539 132.1312408447266 43.42514038085938 C 132.5441436767578 44.07065963745117 132.6638641357422 44.86816787719727 132.4577789306641 45.610107421875 C 131.8739624023438 47.68764877319336 130.8327178955078 49.52980804443359 129.3621520996094 51.08828735351562 C 128.8556671142578 51.62856292724609 128.1375274658203 51.9398307800293 127.3943099975586 51.9398307800293 Z" stroke="none"/>
        <path d="M 127.3942184448242 50.9398307800293 C 127.867561340332 50.93985366821289 128.313232421875 50.74503707885742 128.6348266601562 50.4019889831543 C 129.9978637695312 48.95746994018555 130.9571838378906 47.25366973876953 131.4942626953125 45.34246063232422 C 131.6239013671875 44.87575912475586 131.5498352050781 44.37202835083008 131.286865234375 43.96089935302734 C 131.0682983398438 43.61642837524414 130.7534790039062 43.38679885864258 130.4275207519531 43.33123016357422 C 130.3312377929688 43.31641006469727 130.2386169433594 43.30899810791016 130.1534118652344 43.30899810791016 C 129.471923828125 43.30899810791016 128.9904174804688 43.75717926025391 128.845947265625 44.26091766357422 C 128.3792724609375 45.93507766723633 127.5310974121094 47.43146896362305 126.334716796875 48.70190048217773 C 125.9384155273438 49.12784957885742 125.8198547363281 49.89456939697266 126.3606567382812 50.52421951293945 L 126.3643493652344 50.52791976928711 C 126.5791549682617 50.77978897094727 126.9384460449219 50.93164825439453 127.3422012329102 50.93904876708984 C 127.3595428466797 50.93957138061523 127.3769378662109 50.9398307800293 127.3942184448242 50.9398307800293 M 127.394287109375 52.9398307800293 C 127.3606719970703 52.9398307800293 127.3269882202148 52.93937301635742 127.2933578491211 52.9384651184082 C 126.3566360473633 52.9182014465332 125.4940338134766 52.5416259765625 124.9085845947266 51.90047836303711 L 124.891960144043 51.88380813598633 L 124.8434600830078 51.82732772827148 C 123.7082290649414 50.50558853149414 123.719841003418 48.57627868652344 124.8704605102539 47.33956909179688 L 124.8787078857422 47.33076095581055 C 125.8544998168945 46.29457092285156 126.5410842895508 45.08103942871094 126.9193954467773 43.7238883972168 L 126.9234466552734 43.70956039428711 C 127.1129302978516 43.04887771606445 127.5185775756836 42.4492301940918 128.0656585693359 42.02106094360352 C 128.6608734130859 41.55522918701172 129.3828125 41.30899810791016 130.1534118652344 41.30899810791016 C 130.3410034179688 41.30899810791016 130.5355987548828 41.32431030273438 130.7317810058594 41.35450744628906 L 130.7636260986328 41.35968017578125 C 131.6468200683594 41.51023864746094 132.4518585205078 42.06620788574219 132.9730834960938 42.88540649414062 C 133.5397796630859 43.77269744873047 133.703125 44.86317443847656 133.4212951660156 45.87775039672852 L 133.419677734375 45.88351821899414 C 132.7927856445312 48.11438751220703 131.6729278564453 50.09578704833984 130.0914001464844 51.77252960205078 C 129.3945159912109 52.51438903808594 128.4116516113281 52.9398307800293 127.394287109375 52.9398307800293 Z" stroke="none" fill="#fff"/>
      </g>
    </g>
  </g>
</svg>
