<svg xmlns="http://www.w3.org/2000/svg" width="65" height="65" viewBox="0 0 65 65">
  <g id="solution_iconlist03" transform="translate(-53 -871)">
    <circle id="base" cx="32.5" cy="32.5" r="32.5" transform="translate(53 871)" fill="#eff5f5"/>
    <g id="그룹_3598" data-name="그룹 3598" transform="translate(22.249 805.759)">
      <path id="패스_22352" data-name="패스 22352" d="M45.9,95.565a18,18,0,1,0,18-18A18.02,18.02,0,0,0,45.9,95.565Z" transform="translate(-0.647 2.174)" fill="#fff" stroke="#096a77" stroke-width="1"/>
      <g id="그룹_3597" data-name="그룹 3597" transform="translate(49.777 83.886)">
        <path id="패스_22404" data-name="패스 22404" d="M420.46,529.3a2.319,2.319,0,0,0,1.546.587,2.655,2.655,0,0,0,.718-.087,13.17,13.17,0,0,1,3.563-.429h.012a13.167,13.167,0,0,1,3.56.538,2.66,2.66,0,0,0,.717.109,2.383,2.383,0,1,0,.071-4.765,2.663,2.663,0,0,0-.718.087,13.179,13.179,0,0,1-3.563.429h-.013a13.162,13.162,0,0,1-3.56-.538,2.645,2.645,0,0,0-.717-.109h0a2.45,2.45,0,0,0-1.616,4.178Z" transform="translate(-419.745 -511.198)" fill="#2ed1a2"/>
        <path id="패스_22405" data-name="패스 22405" d="M419.752,405.7a1.9,1.9,0,0,0,.612,1.207,2.182,2.182,0,0,0,.483.343,10.772,10.772,0,0,1,2.392,1.7l.007.007a10.786,10.786,0,0,1,1.858,2.287,2.166,2.166,0,0,0,.374.462,1.95,1.95,0,1,0,2.668-2.844,2.177,2.177,0,0,0-.483-.343,10.775,10.775,0,0,1-2.392-1.7l-.008-.007a10.78,10.78,0,0,1-1.857-2.287,2.173,2.173,0,0,0-.374-.461h0a2,2,0,0,0-3.279,1.638Z" transform="translate(-419.745 -398.915)" fill="#00b8e3"/>
        <path id="패스_22406" data-name="패스 22406" d="M647.813,567.516a2.028,2.028,0,0,0,1.266-.7,2.311,2.311,0,0,0,.348-.529,11.525,11.525,0,0,1,1.73-2.62l.007-.008a11.524,11.524,0,0,1,2.374-2.071,2.324,2.324,0,0,0,.479-.417,2.085,2.085,0,1,0-3.14-2.743,2.326,2.326,0,0,0-.348.529,11.535,11.535,0,0,1-1.73,2.62l-.007.008a11.522,11.522,0,0,1-2.374,2.071,2.332,2.332,0,0,0-.479.417h0a2.144,2.144,0,0,0,1.874,3.442Z" transform="translate(-627.973 -541.147)" fill="#2ed1a2"/>
        <path id="패스_22407" data-name="패스 22407" d="M565.381,443.926a2.272,2.272,0,0,0-.509-1.536,2.6,2.6,0,0,0-.51-.491,12.891,12.891,0,0,1-2.525-2.442l-.008-.01a12.9,12.9,0,0,1-1.789-3.036,2.59,2.59,0,0,0-.359-.613,2.332,2.332,0,1,0-3.663,2.888,2.61,2.61,0,0,0,.51.492,12.883,12.883,0,0,1,2.526,2.441l.008.01a12.894,12.894,0,0,1,1.789,3.036,2.6,2.6,0,0,0,.36.613h0a2.4,2.4,0,0,0,4.171-1.352Z" transform="translate(-545.016 -427.856)" fill="#00b8e3"/>
        <path id="패스_22408" data-name="패스 22408" d="M546.571,602.124a1.292,1.292,0,0,0,.873.3,1.478,1.478,0,0,0,.4-.063,7.333,7.333,0,0,1,1.976-.312h.007a7.342,7.342,0,0,1,1.994.227,1.475,1.475,0,0,0,.4.047,1.328,1.328,0,1,0-.058-2.656,1.467,1.467,0,0,0-.4.063,7.344,7.344,0,0,1-1.976.312h-.007a7.347,7.347,0,0,1-1.994-.227,1.48,1.48,0,0,0-.4-.046h0a1.366,1.366,0,0,0-.815,2.36Z" transform="translate(-536.404 -580.052)" fill="#00b8e3"/>
        <path id="패스_22409" data-name="패스 22409" d="M503.857,365.56a1.333,1.333,0,0,0,.788-.531,1.518,1.518,0,0,0,.2-.366,7.568,7.568,0,0,1,.979-1.815l0-.006a7.573,7.573,0,0,1,1.432-1.493,1.53,1.53,0,0,0,.289-.3,1.369,1.369,0,1,0-2.213-1.612,1.524,1.524,0,0,0-.2.366,7.568,7.568,0,0,1-.979,1.814l0,.006a7.568,7.568,0,0,1-1.432,1.493,1.526,1.526,0,0,0-.289.3h0a1.408,1.408,0,0,0,1.426,2.143Z" transform="translate(-495.829 -357.74)" fill="#2ed1a2"/>
        <path id="패스_22410" data-name="패스 22410" d="M683.889,462.116a1.4,1.4,0,0,0,.984-.185,1.611,1.611,0,0,0,.343-.272,7.978,7.978,0,0,1,1.7-1.346l.006,0a7.978,7.978,0,0,1,2.009-.846,1.613,1.613,0,0,0,.405-.17,1.442,1.442,0,1,0-1.468-2.483,1.6,1.6,0,0,0-.343.272,7.976,7.976,0,0,1-1.7,1.346l-.006,0a7.982,7.982,0,0,1-2.009.846,1.615,1.615,0,0,0-.4.17h0a1.483,1.483,0,0,0,.484,2.668Z" transform="translate(-662.465 -447.931)" fill="#2ed1a2"/>
        <path id="패스_22411" data-name="패스 22411" d="M609.926,345.372a1.875,1.875,0,0,0,.307,1.3,2.15,2.15,0,0,0,.384.441,10.618,10.618,0,0,1,1.9,2.189l.006.008a10.636,10.636,0,0,1,1.251,2.624,2.14,2.14,0,0,0,.251.529,1.924,1.924,0,1,0,3.219-2.109,2.149,2.149,0,0,0-.384-.441,10.639,10.639,0,0,1-1.9-2.189l-.005-.009a10.637,10.637,0,0,1-1.251-2.624,2.148,2.148,0,0,0-.251-.529h0a1.978,1.978,0,0,0-3.525.81Z" transform="translate(-595.261 -343.705)" fill="#00b8e3"/>
        <path id="패스_22412" data-name="패스 22412" d="M450.625,605.393a2.087,2.087,0,0,0,.974,1.124,2.374,2.374,0,0,0,.606.237,11.85,11.85,0,0,1,3.006,1.18l.01.005a11.856,11.856,0,0,1,2.592,1.945,2.388,2.388,0,0,0,.521.393,2.145,2.145,0,1,0,2.089-3.746,2.4,2.4,0,0,0-.607-.237,11.857,11.857,0,0,1-3.006-1.18l-.01-.006a11.867,11.867,0,0,1-2.591-1.945,2.389,2.389,0,0,0-.522-.393h0a2.2,2.2,0,0,0-3.063,2.621Z" transform="translate(-448.21 -582.557)" fill="#00b8e3"/>
      </g>
    </g>
  </g>
</svg>
