<svg xmlns="http://www.w3.org/2000/svg" xmlns:xlink="http://www.w3.org/1999/xlink" width="65" height="65" viewBox="0 0 65 65">
  <defs>
    <clipPath id="clip-path">
      <circle id="base" cx="32.5" cy="32.5" r="32.5" transform="translate(0 0)" fill="#ff9595"/>
    </clipPath>
  </defs>
  <g id="solution_speech02" clip-path="url(#clip-path)">
    <g id="그룹_3623" data-name="그룹 3623" transform="translate(-122.388 -82.575)">
      <path id="패스_22493" data-name="패스 22493" d="M217.57,408.1l-.058.006c-.015-8.865-.272-17.851.019-26.566l-18.448,6.144c1.072,18.488.573,63.983-.078,72.654L198.767,462c4.85,2.576,11.018.85,16.183,1.023C217.358,446.684,217.969,424.293,217.57,408.1Z" transform="translate(-40.109 -123.593)" fill="#594c45"/>
      <g id="그룹_3609" data-name="그룹 3609" transform="translate(155.474 326.386)">
        <path id="패스_22494" data-name="패스 22494" d="M197.819,503.815a4.621,4.621,0,0,0-.747.75,9.506,9.506,0,0,0-1.349,3.016c-.637,2.017-1.365,4.02-1.935,6.063a14.662,14.662,0,0,0-.172,7.239,8.383,8.383,0,0,0,5.529,5.8c4.592,1.7,10.617,1.767,14.755-1.5a7.612,7.612,0,0,0,2.861-7.5,87.743,87.743,0,0,0-2.107-9.429,5.7,5.7,0,0,0-1.183-2.3c-.521-.53-1.2-.8-1.741-1.293-1-.909-1.445-2.478-2.424-3.416-1.54-1.477-3.794-.935-5.676-.213q-1.982.76-3.92,1.674A9.333,9.333,0,0,0,197.819,503.815Z" transform="translate(-193.24 -500.314)" fill="#dfdfdf"/>
        <path id="패스_22495" data-name="패스 22495" d="M195.924,532.63c1.361,4.316,6.58,4.748,9.87,5.036,4.311.288,7.6-1.007,11.118-4.029" transform="translate(-194.377 -514.01)" fill="none" stroke="#9c9c9c" stroke-miterlimit="10" stroke-width="0.5"/>
        <path id="패스_22496" data-name="패스 22496" d="M209.758,509.823a9.025,9.025,0,0,0-2.72-.506,1.612,1.612,0,0,0-1.6.692,2.532,2.532,0,0,0-.2.714,2.459,2.459,0,0,0,.24,2.059,1.254,1.254,0,0,0,1.109.295,4.293,4.293,0,0,0,2.7-1.667,5.112,5.112,0,0,1,.74-.847,2.834,2.834,0,0,1,1-.445,4.68,4.68,0,0,1,2.259-.243,2.19,2.19,0,0,1,1.676,1.634,1.142,1.142,0,0,1-.084.825,1.077,1.077,0,0,1-.335.311,3,3,0,0,1-1.953.649c-1.124-.129-1.941-1.268-2.787-2.16-.1-.1-.225-.211-.349-.158-.1.042-.145.164-.186.275a14.884,14.884,0,0,1-2.439,4.277" transform="translate(-198.281 -504.129)" fill="none" stroke="#9c9c9c" stroke-miterlimit="10" stroke-width="0.5"/>
        <path id="패스_22497" data-name="패스 22497" d="M213.341,512.228a8.868,8.868,0,0,0,1.915,4.013" transform="translate(-201.759 -505.363)" fill="none" stroke="#9c9c9c" stroke-miterlimit="10" stroke-width="0.5"/>
        <path id="패스_22498" data-name="패스 22498" d="M199.262,520.682A4.439,4.439,0,0,0,202.237,522a31.8,31.8,0,0,0,8.269.081,8.142,8.142,0,0,0,3.129-.876,4.332,4.332,0,0,0,2.1-2.768" transform="translate(-195.792 -507.994)" fill="none" stroke="#9c9c9c" stroke-miterlimit="10" stroke-width="0.5"/>
        <path id="패스_22499" data-name="패스 22499" d="M201.176,527.768a2.663,2.663,0,0,0,1.913.986,24.569,24.569,0,0,0,12.254-1.023" transform="translate(-196.603 -511.933)" fill="none" stroke="#9c9c9c" stroke-miterlimit="10" stroke-width="0.5"/>
      </g>
      <path id="패스_22500" data-name="패스 22500" d="M153.667,408.1l.058.006c.015-8.865.273-17.851-.019-26.566l18.448,6.144c-1.072,18.488-.573,63.983.078,72.654L172.47,462c-4.85,2.576-11.018.85-16.183,1.023C153.878,446.684,153.268,424.293,153.667,408.1Z" transform="translate(-20.947 -123.593)" fill="#594c45"/>
      <g id="그룹_3610" data-name="그룹 3610" transform="translate(131.043 326.386)">
        <path id="패스_22501" data-name="패스 22501" d="M169.925,503.815a4.621,4.621,0,0,1,.747.75,9.506,9.506,0,0,1,1.349,3.016c.637,2.017,1.365,4.02,1.935,6.063a14.662,14.662,0,0,1,.172,7.239,8.383,8.383,0,0,1-5.529,5.8c-4.592,1.7-10.617,1.767-14.755-1.5a7.612,7.612,0,0,1-2.861-7.5,87.736,87.736,0,0,1,2.107-9.429,5.7,5.7,0,0,1,1.183-2.3c.521-.53,1.2-.8,1.741-1.293,1-.909,1.445-2.478,2.424-3.416,1.54-1.477,3.794-.935,5.676-.213q1.982.76,3.92,1.674A9.317,9.317,0,0,1,169.925,503.815Z" transform="translate(-150.84 -500.314)" fill="#dfdfdf"/>
        <path id="패스_22502" data-name="패스 22502" d="M173.788,532.63c-1.361,4.316-6.58,4.748-9.87,5.036-4.311.288-7.6-1.007-11.118-4.029" transform="translate(-151.671 -514.01)" fill="none" stroke="#9c9c9c" stroke-miterlimit="10" stroke-width="0.5"/>
        <path id="패스_22503" data-name="패스 22503" d="M168.135,509.823a9.025,9.025,0,0,1,2.72-.506,1.612,1.612,0,0,1,1.6.692,2.532,2.532,0,0,1,.2.714,2.459,2.459,0,0,1-.24,2.059,1.254,1.254,0,0,1-1.109.295,4.293,4.293,0,0,1-2.7-1.667,5.114,5.114,0,0,0-.74-.847,2.834,2.834,0,0,0-1-.445,4.68,4.68,0,0,0-2.259-.243,2.19,2.19,0,0,0-1.676,1.634,1.142,1.142,0,0,0,.084.825,1.077,1.077,0,0,0,.335.311,3,3,0,0,0,1.953.649c1.124-.129,1.941-1.268,2.787-2.16.1-.1.225-.211.349-.158.1.042.145.164.186.275a14.884,14.884,0,0,0,2.439,4.277" transform="translate(-155.948 -504.129)" fill="none" stroke="#9c9c9c" stroke-miterlimit="10" stroke-width="0.5"/>
        <path id="패스_22504" data-name="패스 22504" d="M170.4,512.228a8.862,8.862,0,0,1-1.915,4.013" transform="translate(-158.317 -505.363)" fill="none" stroke="#9c9c9c" stroke-miterlimit="10" stroke-width="0.5"/>
        <path id="패스_22505" data-name="패스 22505" d="M173.771,520.682A4.437,4.437,0,0,1,170.8,522a31.8,31.8,0,0,1-8.269.081,8.142,8.142,0,0,1-3.129-.876,4.33,4.33,0,0,1-2.1-2.768" transform="translate(-153.577 -507.994)" fill="none" stroke="#9c9c9c" stroke-miterlimit="10" stroke-width="0.5"/>
        <path id="패스_22506" data-name="패스 22506" d="M173.553,527.768a2.663,2.663,0,0,1-1.913.986,24.569,24.569,0,0,1-12.254-1.023" transform="translate(-154.462 -511.933)" fill="none" stroke="#9c9c9c" stroke-miterlimit="10" stroke-width="0.5"/>
      </g>
      <path id="패스_22507" data-name="패스 22507" d="M194.381,129.288c-.025-5.829.391-11.632.94-17.451a16.9,16.9,0,0,0-.052-3.572,17.988,17.988,0,0,0-7-12.38c-3.112-2.205-6.349-4.4-10.062-5.374a21.98,21.98,0,0,0-10.131-.018,42,42,0,0,0-6.776,2.138c-1.7.676-3.068,1.786-4.763,2.447a12.055,12.055,0,0,0-4.458,3.458,22.528,22.528,0,0,0-4.727,10.007c-1.223,5.637-.967,11.474-1.667,17.2-.335,2.735,1.048,4.632,3.2,6.35a28.815,28.815,0,0,0,13.519,5.655,36.073,36.073,0,0,0,10.347.195c5.674-.758,9.237,3.62,13.089,7.011,1.538,1.354,3.168,2.824,5.149,1.551a8.041,8.041,0,0,0,3.189-4.663,24.439,24.439,0,0,0,.341-7.66Q194.387,131.728,194.381,129.288Z" transform="translate(-17.589 0)" fill="#413939"/>
      <path id="패스_22508" data-name="패스 22508" d="M106.258,211.125c.813-1.734,1.793-3.405,2.772-5.05,3.315-5.568,6.772-11.148,11.436-15.646a57.872,57.872,0,0,1,9.824-7.359c.966-.6,9.566-4.176,9.709-4.814l-6.353,28.475c-3.181.955-2.876.884-5.43,3.51-2.178,2.24-5.639,7.133-5.688,10.432-.093,6.126,3.975,13.7,9.69,16.18,3.266,2.177,1.358,3.929-.869,6.8-2.426,3.129-4.86,6.053-6.613,9.566a.708.708,0,0,1-.335.387c-.273.1-.54-.146-.727-.369a107.348,107.348,0,0,0-9.077-8.93c-1.94-1.832-3.38-4.383-4.922-6.546a28.667,28.667,0,0,1-5.135-21.507A21.023,21.023,0,0,1,106.258,211.125Z" transform="translate(0 -37.441)" fill="#ab97d3"/>
      <path id="패스_22509" data-name="패스 22509" d="M147.83,287.456c-2.462,13.055-2.951,59.4-1.79,71.687,27.147,6.308,52.777-1.189,52.777-1.189s-1.137-51.948-4.4-74.64" transform="translate(-17.509 -81.964)" fill="#2b2b2b"/>
      <path id="패스_22510" data-name="패스 22510" d="M193.421,231.448a135.01,135.01,0,0,1,.02-20.469,54.065,54.065,0,0,0,.381-9.76c-.543-5.61-2.414-10.328-4.082-15.619-.834-2.644.491-6.191-1.383-8.418-1.382-1.643-3.135-2.062-5.135-2.671a29.674,29.674,0,0,0-8.21-1.715,77.866,77.866,0,0,0-12.676.949,26.586,26.586,0,0,0-8.444,2.484c-2.548,1.357-2.747,4.487-3.317,7.218q-1.092,5.244-2.536,10.407a16.736,16.736,0,0,1-3.871,7.04c-3.619,4.524-1.022,11.5.1,16.621.57,2.612,1.351,5.683.981,8.367-.275,2-.917,3.681-.96,5.757-.131,6.3-.089,12.6-.134,18.9a3.231,3.231,0,0,0,.595,2.326,3.083,3.083,0,0,0,1.848.713c5.241.734,10.567.337,15.844-.062l30.818-2.327a1.714,1.714,0,0,0,1.853-2.381C194.441,243.013,193.807,237.235,193.421,231.448Z" transform="translate(-16.183 -35.126)" fill="#ab97d3"/>
      <g id="그룹_3611" data-name="그룹 3611" transform="translate(123.799 197.712)">
        <path id="패스_22511" data-name="패스 22511" d="M138.283,291.775a15.616,15.616,0,0,1,2.33-8.742l.011-.021,0,0h0a13.1,13.1,0,0,1,2.926-3.714c4.891-8.939,14.671,11.377,7.182,8.289,1.069,2.437,1.069,5.363-2.292,4.551,1.528,2.275-.153,4.876-2.6,3.25.153,2.763-1,3.083-2.834,1.783-.226-.147-.454-.317-.682-.5a1.529,1.529,0,0,1-2.04.415C138.7,296.359,138.17,293.343,138.283,291.775Z" transform="translate(-138.268 -277.002)" fill="#f1d3c0"/>
        <path id="패스_22512" data-name="패스 22512" d="M154.833,287.424a10.7,10.7,0,0,1,2.269,3.539" transform="translate(-145.288 -281.419)" fill="none" stroke="#ba8a76" stroke-linecap="round" stroke-linejoin="round" stroke-width="0.5"/>
        <path id="패스_22513" data-name="패스 22513" d="M149.584,294.4a10.145,10.145,0,0,1,2.874,3.861" transform="translate(-143.064 -284.376)" fill="none" stroke="#ba8a76" stroke-linecap="round" stroke-linejoin="round" stroke-width="0.5"/>
        <path id="패스_22514" data-name="패스 22514" d="M145.908,301.1c.908,1.126,1.664,2.253,2.42,3.378" transform="translate(-141.506 -287.216)" fill="none" stroke="#ba8a76" stroke-linecap="round" stroke-linejoin="round" stroke-width="0.5"/>
      </g>
      <path id="패스_22515" data-name="패스 22515" d="M270.143,139.706a11.1,11.1,0,0,1-6.634-7.245,2.44,2.44,0,0,1,.565-3.007q.926-.932,1.916-1.785a8.133,8.133,0,0,0,1.551-1.567c.925-1.381.088-3.891.079-5.52q-.017-3.218-.034-6.437a6.6,6.6,0,0,1,.354-2.669,1.948,1.948,0,0,1,2.005-1.306c1.133.243,1.536,1.735,1.716,2.963l.888,6.037c-.054-1.61,2.2-2.282,3.375-1.286s1.445,2.778,1.517,4.387a2.261,2.261,0,0,1,2.988-.941,2.624,2.624,0,0,1,1.042,3.158,1.777,1.777,0,0,1,2.568.127,4.286,4.286,0,0,1,.956,2.827,9.517,9.517,0,0,1-.928,4.446c-.537,1.111-1.292,2.1-1.719,3.264-.455,1.242-.516,2.626-1.025,3.843a4.894,4.894,0,0,1-7.063,2.239" transform="translate(-67.451 -8.575)" fill="#f1d3c0"/>
      <path id="패스_22516" data-name="패스 22516" d="M218.18,200.2a132.206,132.206,0,0,0,17.649-.485c5.454-.516,11.313-1.589,15.064-5.582,5.989-6.374,4.013-16.017,4.859-23.884a2.858,2.858,0,0,1,.36-1.309c.232-.346.6-.575.86-.9a3.5,3.5,0,0,0,.49-2.225l-.039-5.468a3.457,3.457,0,0,0-.462-2.084c-.65-.87-1.91-.925-3-.9l-12.844.294a1.471,1.471,0,0,0-.682.127,1.449,1.449,0,0,0-.558,1.1c-1.141,6.819.6,20.435-10.07,18.92a16.351,16.351,0,0,1-5.875-2.439c-5.546-3.283-7.758-6.724-20.649-9.116" transform="translate(-42.025 -28.582)" fill="#ab97d3"/>
      <path id="패스_22517" data-name="패스 22517" d="M276.174,138.4c.919-.523,2.057-.96,2.959-.4,1.025.633,1.135,2.271.569,3.388a8.5,8.5,0,0,1-2.543,2.61,3.132,3.132,0,0,1,2.782,1.633" transform="translate(-72.913 -20.268)" fill="none" stroke="#ba8a76" stroke-linecap="round" stroke-linejoin="round" stroke-width="0.5"/>
      <path id="패스_22518" data-name="패스 22518" d="M284.9,135.32a2.278,2.278,0,0,1-.944,2.617" transform="translate(-76.21 -19.245)" fill="none" stroke="#ba8a76" stroke-linecap="round" stroke-linejoin="round" stroke-width="0.5"/>
      <path id="패스_22519" data-name="패스 22519" d="M278.639,131.759a12.874,12.874,0,0,1-.737,3.39" transform="translate(-73.646 -17.736)" fill="none" stroke="#ba8a76" stroke-linecap="round" stroke-linejoin="round" stroke-width="0.5"/>
      <path id="패스_22520" data-name="패스 22520" d="M287.7,140.929a3.085,3.085,0,0,1-1.766,2.913,2.719,2.719,0,0,1-3.131-.86" transform="translate(-75.721 -21.622)" fill="none" stroke="#c28f86" stroke-linecap="round" stroke-linejoin="round" stroke-width="0.5"/>
      <path id="패스_22521" data-name="패스 22521" d="M293.245,147.971a1.929,1.929,0,0,1-2.271.38,2.239,2.239,0,0,1-1.083-2.181" transform="translate(-78.72 -23.843)" fill="none" stroke="#ba8a76" stroke-linecap="round" stroke-linejoin="round" stroke-width="0.5"/>
      <path id="패스_22522" data-name="패스 22522" d="M173.372,171.936a43.317,43.317,0,0,0-10.06.932,37.662,37.662,0,0,0-5.109,2.041c-1.9.807-5.079,1.588-6.386,3.3-2.788,3.65,3.746,12.414,5.813,15.412a1.559,1.559,0,0,0,2.64.505,55.065,55.065,0,0,0,12.552-11.93c3.843,3.714,7.717,7.454,12.2,10.358a2.124,2.124,0,0,0,3.364-.381,43.008,43.008,0,0,0,8.4-13.575,1.283,1.283,0,0,0,.1-.959,1.3,1.3,0,0,0-.736-.569c-4.63-2.014-11.116-5.842-16.273-5.37C177.792,171.89,175.59,171.906,173.372,171.936Z" transform="translate(-19.923 -34.646)" fill="#9785c1"/>
      <path id="패스_22523" data-name="패스 22523" d="M181.132,161.311c.557,1.671.37,4.641,0,6.683,3.156,2.414,9.024,2.494,12.139-.405-.371-2.785-1-4.607-1-7.392" transform="translate(-32.635 -29.788)" fill="#ddb3a6"/>
      <g id="그룹_3612" data-name="그룹 3612" transform="translate(127.416 109.522)">
        <path id="패스_22524" data-name="패스 22524" d="M161.4,132.377a8.43,8.43,0,1,1-8.43-8.43A8.43,8.43,0,0,1,161.4,132.377Z" transform="translate(-144.545 -123.947)" fill="#f2c7b7"/>
        <line id="선_391" data-name="선 391" x2="3.746" transform="translate(4.059 8.43)" fill="none" stroke="#ba8a76" stroke-linecap="round" stroke-linejoin="round" stroke-width="1"/>
      </g>
      <g id="그룹_3613" data-name="그룹 3613" transform="translate(164.043 109.522)">
        <path id="패스_22525" data-name="패스 22525" d="M208.112,132.377a8.43,8.43,0,1,0,8.43-8.43A8.43,8.43,0,0,0,208.112,132.377Z" transform="translate(-208.112 -123.947)" fill="#f2c7b7"/>
        <line id="선_392" data-name="선 392" x1="3.747" transform="translate(9.055 8.43)" fill="none" stroke="#ba8a76" stroke-linecap="round" stroke-linejoin="round" stroke-width="1"/>
      </g>
      <path id="패스_22526" data-name="패스 22526" d="M196.446,115.577a20.77,20.77,0,1,1-20.765-21.231A21,21,0,0,1,196.446,115.577Z" transform="translate(-21.525 -1.88)" fill="#f8d9c9"/>
      <g id="그룹_3614" data-name="그룹 3614" transform="translate(145.394 113.361)">
        <path id="패스_22527" data-name="패스 22527" d="M178.245,132.418c0,1-.56,1.808-1.249,1.808s-1.249-.809-1.249-1.808.56-1.808,1.249-1.808S178.245,131.42,178.245,132.418Z" transform="translate(-175.747 -130.61)" fill="#70544f"/>
        <path id="패스_22528" data-name="패스 22528" d="M203.712,132.418c0,1-.558,1.808-1.249,1.808s-1.249-.809-1.249-1.808.558-1.808,1.249-1.808S203.712,131.42,203.712,132.418Z" transform="translate(-186.54 -130.61)" fill="#70544f"/>
      </g>
      <path id="패스_22529" data-name="패스 22529" d="M183.243,92.839c-5.116-4.183-13.023-3.271-19.689-.671-4.008,1.564-7.568,4-9.684,7.84a16.882,16.882,0,0,0-1.9,5.843c-.183,1.319-1.149,4.232-.525,5.455,1.022,2,3.907.641,5.35-.116a151.864,151.864,0,0,1,21.96-9.4,6.926,6.926,0,0,1,3.171-.528,6.727,6.727,0,0,1,2.766,1.325,67.1,67.1,0,0,1,6.45,5.111c1.673,1.5,4.378,3.806,4.5.145.066-1.987-.955-4.346-1.789-6.114A17.616,17.616,0,0,0,183.243,92.839Z" transform="translate(-19.968 -0.022)" fill="#413939"/>
      <path id="패스_22530" data-name="패스 22530" d="M200.356,125.5c1.362-1.362,3.59-.619,5.075.495" transform="translate(-40.782 -14.772)" fill="none" stroke="#413939" stroke-miterlimit="10" stroke-width="0.5"/>
      <path id="패스_22531" data-name="패스 22531" d="M177.722,125.5c-1.362-1.362-3.589-.619-5.075.495" transform="translate(-29.039 -14.772)" fill="none" stroke="#413939" stroke-miterlimit="10" stroke-width="0.5"/>
      <path id="패스_22532" data-name="패스 22532" d="M188.961,134.414a1.6,1.6,0,0,0-.658,2.841" transform="translate(-35.407 -18.861)" fill="none" stroke="#ba8a76" stroke-linecap="round" stroke-linejoin="round" stroke-width="0.5"/>
      <path id="패스_22533" data-name="패스 22533" d="M181.61,142.875a78.247,78.247,0,0,1,9.086.173,3.684,3.684,0,0,1-.4,3.559,4.477,4.477,0,0,1-3.133,1.795,4.991,4.991,0,0,1-5.543-5.43" transform="translate(-32.835 -22.422)" fill="#ca6f63"/>
      <path id="패스_22534" data-name="패스 22534" d="M233.142,199.483,231.612,213" transform="translate(-54.028 -46.437)" fill="none" stroke="#9785c1" stroke-miterlimit="10" stroke-width="0.5"/>
      <path id="패스_22535" data-name="패스 22535" d="M263.874,191.079a6.8,6.8,0,0,1,7.215,7.083,2.147,2.147,0,0,1-1.737-.707l-3.678-3.058" transform="translate(-67.701 -42.87)" fill="none" stroke="#9785c1" stroke-miterlimit="10" stroke-width="0.5"/>
      <path id="패스_22536" data-name="패스 22536" d="M269.69,173.423a15.841,15.841,0,0,1,11.43-.865" transform="translate(-70.165 -34.737)" fill="none" stroke="#9785c1" stroke-miterlimit="10" stroke-width="0.5"/>
      <path id="패스_22537" data-name="패스 22537" d="M137.968,209.841c.09-.3.511.052.569.358l2.154,11.406" transform="translate(-14.342 -50.779)" fill="none" stroke="#9785c1" stroke-miterlimit="10" stroke-width="0.5"/>
      <path id="패스_22538" data-name="패스 22538" d="M117.669,244.993a5.033,5.033,0,0,1,6.746,1.47,1,1,0,0,1,.2.686c-.056.3-.339.493-.6.649a36.414,36.414,0,0,1-4.926,2.469" transform="translate(-5.74 -65.416)" fill="none" stroke="#9785c1" stroke-miterlimit="10" stroke-width="0.5"/>
      <path id="패스_22539" data-name="패스 22539" d="M122.691,261.521a16.768,16.768,0,0,1,4.557-2.4" transform="translate(-7.868 -71.713)" fill="none" stroke="#9785c1" stroke-miterlimit="10" stroke-width="0.5"/>
      <path id="패스_22540" data-name="패스 22540" d="M160.358,161.622a36.951,36.951,0,0,1,1.232,9.892,16.637,16.637,0,0,1-1.56,7.56,10.852,10.852,0,0,1-7.963,5.617c-2.674.377-6.029-.9-6.279-3.588-3.307.467-6.934-.32-9.265-2.712s-2.917-6.539-.791-9.115c-1.513-.884-1.733-3.076-1.058-4.692a19.988,19.988,0,0,1,3.067-4.243c2.085-2.685,3.211-7.995,3.332-11.392" transform="translate(-12.793 -25.022)" fill="#413939"/>
      <circle id="타원_162" data-name="타원 162" cx="2.069" cy="2.069" r="2.069" transform="translate(150.852 151.979)" fill="#2b2b2b"/>
      <circle id="타원_163" data-name="타원 163" cx="2.069" cy="2.069" r="2.069" transform="translate(150.852 160.749)" fill="#2b2b2b"/>
    </g>
  </g>
</svg>
