<svg xmlns="http://www.w3.org/2000/svg" width="61" height="61" viewBox="0 0 61 61">
  <g id="solution_item03" transform="translate(-3289.33 -1548.54)">
    <path id="합치기_3" data-name="합치기 3" d="M30,0A30,30,0,1,1,0,30,30,30,0,0,1,30,0Z" transform="translate(3289.83 1549.04)" fill="#fff" stroke="#937ab6" stroke-miterlimit="10" stroke-width="1"/>
    <path id="패스_2" data-name="패스 2" d="M396.888,606.386a2.586,2.586,0,0,1-.117-.559h.483a4.481,4.481,0,0,0,0-1.32v-.291c0-.134-.083-.246-.083-.425v-4.026q-.216-4.186-.783-8.32c0-.693-.15-3.668-.15-6.285q.024-.592,0-1.185h.083c.133,0,.133,0,.133-.358v-3.824a8.384,8.384,0,0,0-.1-1.3h.1a4.579,4.579,0,0,0-.15-.671.845.845,0,0,0-.1-.2v-.268a.289.289,0,0,1,0-.246c.25-.246.4-.6.783-2.237a43.346,43.346,0,0,0,.383-7.067,1.773,1.773,0,0,0-.35-1.074h-.2a6.7,6.7,0,0,1-1.667-.85c-.083-.224-.617-.514-.75-.783s-.167-.246-.217-.246h0a1.072,1.072,0,0,0-.217-.358h0a5.037,5.037,0,0,1,0-.6.94.94,0,0,1,.083-.492c.083-.089,0,0,.183-.291a1.928,1.928,0,0,0,.217-.671c0-.246,0-.984-.15-.984a11.89,11.89,0,0,0,.1-1.185,1.462,1.462,0,0,0-.2-1.1,1.887,1.887,0,0,0-1.933-.85c-.95.313-1.35.626-1.567,1.454a2.569,2.569,0,0,0,0,1.454c0,.38,0,.783.117.805h0v.783a1.625,1.625,0,0,0,.2.6c0,.179.117.134.15,0a2.231,2.231,0,0,0,.183.827,8.2,8.2,0,0,1,.45.693,1.709,1.709,0,0,1,0,.313,4.2,4.2,0,0,0-.183.38h0l-.683.671a10.542,10.542,0,0,0-1.467.805,8.641,8.641,0,0,0-.5,1.364c-.117.537-.517,2.8-.567,3.467s-.25,1.968-.267,2.237,0,.224-.083.358,0,.179,0,.313a.774.774,0,0,0,0,.335l.167,1.163a.875.875,0,0,0,.417.76,8.6,8.6,0,0,0,1.083,0,5.858,5.858,0,0,0-.217.716h.15c-.133.4-.5,4.339-.55,4.607a.643.643,0,0,0,0,.358l.2.179h0c0,1.387,0,2.885.083,4.16s.367,5.9.45,6.866.317,6.285.333,7.671c-.026.529-.026,1.059,0,1.588h0a.328.328,0,0,1,0,.112s-.1,0-.117.179.117.112.133.2a1.964,1.964,0,0,1,0,.313c0,.09-.1.581-.083.716h.317l-.117.157c-.25.38-.633,1.051-.9,1.409a9.465,9.465,0,0,1-1.167.895.385.385,0,0,0,0,.6,5.607,5.607,0,0,0,2.033,0c.55,0,.933-.6,1.15-.738s1.35,0,1.35-.179a2.012,2.012,0,0,0,0-.537h0a2.54,2.54,0,0,0,0-.895,7.583,7.583,0,0,0-.133-.805h.1a7.826,7.826,0,0,0-.117-.872c0-.224.133-.447.083-.649s0-1.633,0-2.706v-2.237c-.033-1.028-.116-2.051-.25-3.064q-.06-2.786.1-5.569h0c0-1.051.083-1.879.15-2.773a4.466,4.466,0,0,1,0-.47h0q.969,3.121,1.667,6.374c.133.961.833,7.023.833,8.208,0,.492.1.984.1,1.5v1.364a.325.325,0,0,1,0,.179v.134c0,.134.083.134.083.268v.179q-.025.525,0,1.051a1.045,1.045,0,0,0,.4.179,5.038,5.038,0,0,1-.1.939,7.466,7.466,0,0,0-.133,1.073,4.439,4.439,0,0,0,0,.47v.2a.384.384,0,0,0,0,.2c0,.134.267.2.367.224a3.227,3.227,0,0,0,.65,0,2.046,2.046,0,0,0,1.1-.358h0v-.492a4.4,4.4,0,0,0,0-.47A2.708,2.708,0,0,1,396.888,606.386ZM394.1,565.121a1.4,1.4,0,0,0,0-.358.743.743,0,0,1,0,.358ZM390.771,562.348Z" transform="translate(2927.107 995.162)" fill="#937ab6"/>
    <path id="패스_3" data-name="패스 3" d="M419.169,564.45c4,.75,6.477,1.767,6.477,2.9s-2.473,2.15-6.477,2.9a101.892,101.892,0,0,1-31.185,0c-3.981-.75-6.454-1.766-6.454-2.9s2.473-2.15,6.454-2.9" transform="translate(2916.3 1003.997)" fill="none" stroke="#937ab6" stroke-miterlimit="10" stroke-width="0.22"/>
    <path id="패스_4" data-name="패스 4" d="M362.45,375.31l3.367,1.45.733-1.05Z" transform="translate(2967.723 1191.408)" fill="#937ab6"/>
    <path id="패스_5" data-name="패스 5" d="M419.169,571.65c4,.733,6.477,1.766,6.477,2.9s-2.473,2.15-6.477,2.883a101.883,101.883,0,0,1-31.185,0c-3.981-.733-6.454-1.667-6.454-2.883s2.473-2.167,6.454-2.9" transform="translate(2916.3 1012.654)" fill="none" stroke="#937ab6" stroke-miterlimit="10" stroke-width="0.22"/>
    <path id="패스_6" data-name="패스 6" d="M362.45,382.51l3.367,1.433.733-1.033Z" transform="translate(2967.723 1199.597)" fill="#937ab6"/>
  </g>
</svg>
