<svg xmlns="http://www.w3.org/2000/svg" width="65" height="65" viewBox="0 0 65 65">
  <g id="solution_iconlist06" transform="translate(-52 -873)">
    <path id="base" d="M32.5,0A32.5,32.5,0,1,1,0,32.5,32.5,32.5,0,0,1,32.5,0Z" transform="translate(52 873)" fill="#eff5f5"/>
    <g id="그룹_3579" data-name="그룹 3579" transform="translate(-478.809 500.202)">
      <g id="그룹_3578" data-name="그룹 3578" transform="translate(543.476 408.088)">
        <path id="패스_22353" data-name="패스 22353" d="M562.686,427.655a2.959,2.959,0,0,0,0-5.918h-4.374v5.918Z" transform="translate(-550.977 -421.737)" fill="#fff" stroke="#096a77" stroke-linecap="round" stroke-linejoin="round" stroke-width="1"/>
        <path id="패스_22354" data-name="패스 22354" d="M556.465,421.737h-4.374a2.959,2.959,0,0,0,0,5.918h4.374Z" transform="translate(-549.131 -421.737)" fill="#fff" stroke="#096a77" stroke-linecap="round" stroke-linejoin="round" stroke-width="1"/>
        <path id="패스_22355" data-name="패스 22355" d="M562.686,427.655a2.959,2.959,0,0,0,0-5.918h-4.374v5.918Z" transform="translate(-550.977 -421.737)" fill="#2ed1a2" stroke="#096a77" stroke-linecap="round" stroke-linejoin="round" stroke-width="1"/>
      </g>
      <path id="패스_22357" data-name="패스 22357" d="M552.27,399.382l2.948,1.388,13.45-2.223" transform="translate(-4.859 -2.958)" fill="none" stroke="#096a77" stroke-linecap="round" stroke-linejoin="round" stroke-width="1"/>
      <path id="패스_22359" data-name="패스 22359" d="M602.6,399.382l-2.948,1.388-13.45-2.223" transform="translate(-22.397 -2.958)" fill="none" stroke="#096a77" stroke-linecap="round" stroke-linejoin="round" stroke-width="1"/>
      <path id="패스_22362" data-name="패스 22362" d="M0,0V27.166" transform="translate(563.809 395.465)" fill="none" stroke="#096a77" stroke-width="1"/>
      <path id="패스_22368" data-name="패스 22368" d="M0,0V6" transform="translate(550.809 399.815)" fill="none" stroke="#096a77" stroke-linecap="round" stroke-width="1"/>
      <path id="패스_22369" data-name="패스 22369" d="M0,0V12" transform="translate(569.809 422.63) rotate(90)" fill="none" stroke="#096a77" stroke-linecap="round" stroke-width="1"/>
      <g id="타원_147" data-name="타원 147" transform="translate(561.309 388.965)" fill="#fff" stroke="#096a77" stroke-width="1">
        <circle cx="2.5" cy="2.5" r="2.5" stroke="none"/>
        <circle cx="2.5" cy="2.5" r="2" fill="none"/>
      </g>
      <path id="패스_22394" data-name="패스 22394" d="M0,0V6" transform="translate(576.809 399.815)" fill="none" stroke="#096a77" stroke-linecap="round" stroke-width="1"/>
    </g>
    <g id="그룹_3591" data-name="그룹 3591" transform="translate(75.322 834.759) rotate(50)">
      <path id="패스_22380" data-name="패스 22380" d="M70.681,32.908c.761-.66,1.624-1.407,1.122-3.851-.348-1.694-.16-2.976.559-3.811a3.027,3.027,0,0,1,2.289-.967c.046,0,.091,0,.138,0a4.222,4.222,0,0,1,4.235,3.475,7.064,7.064,0,0,1-1.678,5.61,8.947,8.947,0,0,1-4.3,2.879,4.691,4.691,0,0,1-1.23.182,1.823,1.823,0,0,1-1.851-1.04A1.854,1.854,0,0,1,70.681,32.908Z" transform="translate(-0.178 -0.168)" fill="#a6dfdf" stroke="#096a77" stroke-width="1"/>
      <path id="패스_22381" data-name="패스 22381" d="M72.937,36.946a.4.4,0,1,0-.4-.4A.4.4,0,0,0,72.937,36.946Z" transform="translate(-0.685 -2.058)" fill="#fdc960"/>
      <path id="패스_22382" data-name="패스 22382" d="M73.157,36.019c2.745-.753,6.231-3.935,5.633-7.954A3.74,3.74,0,0,0,75.03,25l-.137,0h-.057a2.565,2.565,0,0,0-1.873.806c-.614.716-.765,1.858-.449,3.4.559,2.72-.5,3.64-1.278,4.311-.634.55-1.017.882-.589,1.93C70.938,36.154,71.876,36.371,73.157,36.019Zm3.357-3.53a.9.9,0,1,1,.9-.9A.9.9,0,0,1,76.514,32.489ZM75.1,26.327A2.072,2.072,0,1,1,73.024,28.4,2.074,2.074,0,0,1,75.1,26.327Zm-1.419,5.02a.95.95,0,1,1-.95.95A.951.951,0,0,1,73.676,31.347Zm-1.052,2.636a.88.88,0,1,1-.88.879A.881.881,0,0,1,72.624,33.983Z" transform="translate(-0.372 -0.373)" fill="#8decec"/>
      <path id="패스_22383" data-name="패스 22383" d="M77.516,32.264a.421.421,0,1,0,.421.421A.421.421,0,0,0,77.516,32.264Z" transform="translate(-1.374 -1.471)" fill="#fdc960"/>
      <path id="패스_22384" data-name="패스 22384" d="M75.835,29.39a.469.469,0,1,0-.469-.469A.47.47,0,0,0,75.835,29.39Z" transform="translate(-1.113 -0.895)" fill="#fdc960"/>
      <path id="패스_22385" data-name="패스 22385" d="M75.636,30.312a1.591,1.591,0,1,0-1.591-1.591A1.593,1.593,0,0,0,75.636,30.312Zm0-2.541a.95.95,0,1,1-.95.95A.951.951,0,0,1,75.636,27.771Z" transform="translate(-0.913 -0.695)" fill="#fd9d4c"/>
      <path id="패스_22386" data-name="패스 22386" d="M74.163,33.982a.469.469,0,1,0-.469-.469A.47.47,0,0,0,74.163,33.982Z" transform="translate(-0.86 -1.589)" fill="#fdc960"/>
      <path id="패스_22389" data-name="패스 22389" d="M75.55,30.706a2.072,2.072,0,1,0-2.071-2.071A2.073,2.073,0,0,0,75.55,30.706Zm0-3.662a1.591,1.591,0,1,1-1.591,1.591A1.592,1.592,0,0,1,75.55,27.044Z" transform="translate(-0.828 -0.609)" fill="#0a5733"/>
      <path id="패스_22390" data-name="패스 22390" d="M75.75,29.785a.95.95,0,1,0-.95-.95A.951.951,0,0,0,75.75,29.785Zm0-1.419a.469.469,0,1,1-.469.469A.47.47,0,0,1,75.75,28.365Z" transform="translate(-1.027 -0.809)" fill="#0a5733"/>
      <path id="패스_22391" data-name="패스 22391" d="M74.078,34.377a.95.95,0,1,0-.95-.95A.951.951,0,0,0,74.078,34.377Zm0-1.419a.469.469,0,1,1-.469.469A.47.47,0,0,1,74.078,32.957Z" transform="translate(-0.775 -1.503)" fill="#0a5733"/>
      <path id="패스_22392" data-name="패스 22392" d="M77.431,31.7a.9.9,0,1,0,.9.9A.9.9,0,0,0,77.431,31.7Zm0,1.323a.421.421,0,1,1,.421-.421A.422.422,0,0,1,77.431,33.021Z" transform="translate(-1.289 -1.385)" fill="#0a5733"/>
      <path id="패스_22393" data-name="패스 22393" d="M72.851,37.342a.88.88,0,1,0-.88-.88A.881.881,0,0,0,72.851,37.342Zm0-1.279a.4.4,0,1,1-.4.4A.4.4,0,0,1,72.851,36.062Z" transform="translate(-0.6 -1.972)" fill="#0a5733"/>
    </g>
  </g>
</svg>
