<svg xmlns="http://www.w3.org/2000/svg" width="65" height="65" viewBox="0 0 65 65">
  <g id="solution_iconlist04" transform="translate(-52 -874)">
    <circle id="base" cx="32.5" cy="32.5" r="32.5" transform="translate(52 874)" fill="#eff5f5"/>
    <g id="그룹_3573" data-name="그룹 3573" transform="translate(22.788 812.116)">
      <path id="패스_22322" data-name="패스 22322" d="M49.914,76.2h.013Z" transform="translate(9.571 2.275)" fill="red"/>
      <path id="패스_22323" data-name="패스 22323" d="M49.84,76.231l.1-.016.086-.013C49.96,76.21,49.9,76.223,49.84,76.231Z" transform="translate(9.452 2.278)" fill="red"/>
      <path id="패스_22324" data-name="패스 22324" d="M49.9,75.709l-.01,0,.068-.01Z" transform="translate(9.538 1.47)" fill="red"/>
      <path id="패스_22325" data-name="패스 22325" d="M51.907,76.248c.1.018.209.034.314.057h0C52.119,76.285,52.012,76.266,51.907,76.248Z" transform="translate(12.786 2.352)" fill="red"/>
      <path id="패스_22352" data-name="패스 22352" d="M45.9,90.285a12.72,12.72,0,1,0,12.72-12.72A12.734,12.734,0,0,0,45.9,90.285Z" transform="translate(3.094 4.476)" fill="#a6dfdf"/>
      <g id="패스_22327" data-name="패스 22327" transform="translate(13.391 12.831)" fill="#f167de">
        <path d="M 53.61214447021484 90.56529998779297 C 53.61210250854492 90.56529998779297 53.61215209960938 90.56529998779297 53.61211013793945 90.56529998779297 C 53.59220886230469 90.56529998779297 53.57225036621094 90.5650634765625 53.55231857299805 90.56461334228516 C 52.89512252807617 90.54692840576172 52.29788970947266 90.28610992431641 51.90255737304688 89.84717559814453 L 51.89707946777344 89.8416748046875 L 51.87010955810547 89.81063842773438 C 50.97296905517578 88.76402282714844 51.19429016113281 87.46890258789062 51.8765983581543 86.73049926757812 L 51.88019943237305 86.72659301757812 L 51.88385009765625 86.72273254394531 C 52.78182983398438 85.77137756347656 53.41542053222656 84.65031433105469 53.76699829101562 83.39069366455078 L 53.76791000366211 83.38741302490234 L 53.76884841918945 83.38414001464844 C 54.04972076416016 82.40371704101562 54.93902969360352 81.7449951171875 55.9818000793457 81.7449951171875 C 56.10939788818359 81.7449951171875 56.24623870849609 81.75560760498047 56.38853073120117 81.77651977539062 L 56.39999008178711 81.77820587158203 L 56.41141128540039 81.78015899658203 C 57.01338577270508 81.88294219970703 57.5623664855957 82.26587677001953 57.91841888427734 82.83115386962891 C 58.31590270996094 83.45462799072266 58.42962265014648 84.22023010253906 58.23040008544922 84.93232727050781 C 57.72502136230469 86.74826812744141 56.81064987182617 88.36831665039062 55.51303863525391 89.74615478515625 C 55.02072143554688 90.26715087890625 54.32823944091797 90.56529998779297 53.61214447021484 90.56529998779297 Z" stroke="none"/>
        <path d="M 53.61212158203125 89.56529998779297 C 54.0537109375 89.5653076171875 54.4799690246582 89.3834228515625 54.78504943847656 89.06056976318359 C 55.96871948242188 87.80370330810547 56.80487823486328 86.32476806640625 57.26737976074219 84.66290283203125 C 57.39019012451172 84.22392272949219 57.31964111328125 83.75098419189453 57.07402038574219 83.36687469482422 C 56.86758804321289 83.03764343261719 56.56449127197266 82.82076263427734 56.24308776855469 82.76588439941406 C 56.15425109863281 82.75282287597656 56.06541061401367 82.7449951171875 55.9818000793457 82.7449951171875 C 55.33116912841797 82.7449951171875 54.86865997314453 83.1761474609375 54.73017883300781 83.65953826904297 C 54.33562088012695 85.07314300537109 53.62226867675781 86.33783721923828 52.61106109619141 87.40914916992188 C 52.22956848144531 87.82200622558594 52.11196899414062 88.55624389648438 52.62934875488281 89.15982818603516 L 52.6319580078125 89.16244506835938 C 52.84362030029297 89.40807342529297 53.18590927124023 89.55439758300781 53.57524871826172 89.56487274169922 C 53.58754348754883 89.56515502929688 53.599853515625 89.56529998779297 53.61212158203125 89.56529998779297 M 53.61215972900391 91.56529998779297 C 53.58465957641602 91.56529998779297 53.55715942382812 91.56498718261719 53.52970123291016 91.56435394287109 L 53.52143096923828 91.56415557861328 C 52.60464477539062 91.53947448730469 51.7562370300293 91.16639709472656 51.17835235595703 90.53711700439453 L 51.16220855712891 90.52090454101562 L 51.11087036132812 90.46144866943359 C 50.54452133178711 89.80073547363281 50.25111770629883 88.97384643554688 50.28472137451172 88.13309478759766 C 50.31578826904297 87.35573577880859 50.62030029296875 86.61660003662109 51.14213943481445 86.05183410644531 L 51.15663909912109 86.03631591796875 C 51.94210815429688 85.20416259765625 52.49629974365234 84.22359466552734 52.80381011962891 83.12185668945312 L 52.80751800537109 83.10873413085938 C 53.20621871948242 81.71700286865234 54.51152801513672 80.7449951171875 55.9818000793457 80.7449951171875 C 56.15790939331055 80.7449951171875 56.34368896484375 80.75917816162109 56.53398132324219 80.78715515136719 L 56.57971954345703 80.79441833496094 C 57.46127700805664 80.94495391845703 58.25710296630859 81.49273681640625 58.76436996459961 82.29788208007812 C 59.31230926513672 83.16001129150391 59.46870803833008 84.21776580810547 59.19342803955078 85.20174407958984 C 58.64450073242188 87.17416381835938 57.65092086791992 88.93467712402344 56.24102020263672 90.43175506591797 C 55.55947113037109 91.15302276611328 54.60213088989258 91.56529998779297 53.61215972900391 91.56529998779297 Z" stroke="none" fill="#fff"/>
      </g>
      <g id="패스_22328" data-name="패스 22328" transform="translate(5.379 10.181)" fill="#fdc960">
        <path d="M 50.01134872436523 91.43227386474609 C 50.01130676269531 91.43227386474609 50.01131820678711 91.43227386474609 50.01127243041992 91.43227386474609 C 49.60159683227539 91.43227386474609 49.18262100219727 91.33846282958984 48.79938125610352 91.16097259521484 C 48.00362396240234 90.79682159423828 47.39599227905273 90.10548400878906 47.13199234008789 89.26370239257812 C 46.49310302734375 87.23641204833984 46.22660446166992 85.12961578369141 46.34028244018555 83.00312042236328 C 46.38631439208984 82.12062072753906 46.80428314208984 81.29784393310547 47.48696136474609 80.74703216552734 C 48.00181198120117 80.33118438720703 48.62863159179688 80.10198211669922 49.25154113769531 80.10198211669922 C 49.39263153076172 80.10198211669922 49.52422332763672 80.11215209960938 49.65383148193359 80.13306427001953 C 51.14849472045898 80.36965179443359 52.22283172607422 81.63601684570312 52.14989471435547 83.07825469970703 C 52.06697463989258 84.66617584228516 52.26473236083984 86.23401641845703 52.73759460449219 87.73986053466797 C 53.16697311401367 89.12523651123047 52.44148254394531 90.61997985839844 51.05113220214844 91.22034454345703 C 50.72746276855469 91.36073303222656 50.37708282470703 91.43227386474609 50.01134872436523 91.43227386474609 Z" stroke="none"/>
        <path d="M 49.25154113769531 81.10198211669922 C 48.85698318481445 81.10198211669922 48.45459365844727 81.25092315673828 48.11489105224609 81.52530670166016 C 47.65501403808594 81.89634704589844 47.37020111083984 82.45552062988281 47.33885192871094 83.05650329589844 C 47.23171234130859 85.06065368652344 47.48256301879883 87.04911041259766 48.08616256713867 88.96444702148438 C 48.26645278930664 89.53929138183594 48.67931365966797 90.00701141357422 49.21757125854492 90.25261688232422 C 49.69576263427734 90.47474670410156 50.22095108032227 90.49042510986328 50.65471267700195 90.30227661132812 C 51.57448196411133 89.90511322021484 52.06049346923828 88.93309020996094 51.78352355957031 88.03945159912109 C 51.27398300170898 86.41678619384766 51.06234359741211 84.72879028320312 51.15117263793945 83.02775573730469 C 51.19820404052734 82.0975341796875 50.4848747253418 81.27705383300781 49.49455261230469 81.12029266357422 C 49.41354370117188 81.10722351074219 49.33516311645508 81.10198211669922 49.25154113769531 81.10198211669922 M 49.25154113769531 79.10198211669922 C 49.44656372070312 79.10198211669922 49.63025283813477 79.11632537841797 49.81311416625977 79.14582061767578 C 51.81373977661133 79.46540069580078 53.24731826782227 81.17665100097656 53.14862442016602 83.12874603271484 C 53.07185363769531 84.59896087646484 53.25461196899414 86.04845428466797 53.6916618347168 87.44027709960938 L 53.69387435913086 87.44737243652344 C 54.27375411987305 89.31833648681641 53.30804443359375 91.33504486083984 51.44756317138672 92.13840484619141 C 50.99906158447266 92.33296203613281 50.51480102539062 92.43227386474609 50.01129150390625 92.43227386474609 C 49.45867538452148 92.43227386474609 48.89569091796875 92.30702209472656 48.38253784179688 92.06995391845703 C 47.32986831665039 91.58797454833984 46.52643203735352 90.67448425292969 46.17781448364258 89.56295013427734 C 45.50319290161133 87.4222412109375 45.22160339355469 85.19635009765625 45.34170150756836 82.94972991943359 C 45.4024543762207 81.78517150878906 45.95555114746094 80.69771575927734 46.85904312133789 79.96875 C 47.55075454711914 79.41005706787109 48.40072250366211 79.10198211669922 49.25154113769531 79.10198211669922 Z" stroke="none" fill="#fff"/>
      </g>
      <g id="패스_22329" data-name="패스 22329" transform="translate(10.513 13.16)" fill="#fdc960">
        <path d="M 51.19827270507812 85.34954071044922 C 50.26073455810547 85.34954071044922 49.49799346923828 84.58679962158203 49.49799346923828 83.64926910400391 C 49.49799346923828 82.71173095703125 50.26073455810547 81.94898223876953 51.19827270507812 81.94898223876953 C 52.13581085205078 81.94898223876953 52.89855194091797 82.71173095703125 52.89855194091797 83.64926910400391 C 52.89855194091797 84.58679962158203 52.13581085205078 85.34954071044922 51.19827270507812 85.34954071044922 Z" stroke="none"/>
        <path d="M 51.19827270507812 82.94898223876953 C 50.81155395507812 82.94898223876953 50.49799346923828 83.26254272460938 50.49799346923828 83.64926910400391 C 50.49799346923828 84.03598022460938 50.81155395507812 84.34954071044922 51.19827270507812 84.34954071044922 C 51.58237457275391 84.34954071044922 51.89855194091797 84.03598022460938 51.89855194091797 83.64926910400391 C 51.89855194091797 83.26254272460938 51.58237457275391 82.94898223876953 51.19827270507812 82.94898223876953 M 51.19827270507812 80.94898223876953 C 52.68721389770508 80.94898223876953 53.89855194091797 82.16033172607422 53.89855194091797 83.64926910400391 C 53.89855194091797 85.13819885253906 52.68721389770508 86.34954071044922 51.19827270507812 86.34954071044922 C 49.70933151245117 86.34954071044922 48.49799346923828 85.13819885253906 48.49799346923828 83.64926910400391 C 48.49799346923828 82.16033172607422 49.70933151245117 80.94898223876953 51.19827270507812 80.94898223876953 Z" stroke="none" fill="#fff"/>
      </g>
      <g id="패스_22330" data-name="패스 22330" transform="translate(10.782 6.554)" fill="#2ed1a2">
        <path d="M 53.85719680786133 86.94756317138672 C 53.85672760009766 86.94756317138672 53.85625457763672 86.94756317138672 53.85578536987305 86.94756317138672 C 52.51180267333984 86.94747924804688 51.66286468505859 85.97743988037109 51.51889419555664 85.01926422119141 L 51.51839447021484 85.01592254638672 L 51.51791381835938 85.01258850097656 C 51.33181381225586 83.71445465087891 50.84919357299805 82.52092742919922 50.0834846496582 81.46516418457031 L 50.07978439331055 81.46007537841797 L 50.07614517211914 81.45492553710938 C 49.49452209472656 80.63136291503906 49.44221496582031 79.31550598144531 50.46756362915039 78.39402770996094 C 50.85576248168945 78.04513549804688 51.3845329284668 77.85298919677734 51.95646286010742 77.85298919677734 C 52.04433441162109 77.85298919677734 52.13252258300781 77.85714721679688 52.21858215332031 77.86534881591797 L 52.22542190551758 77.86599731445312 L 52.23225402832031 77.86674499511719 C 52.96989440917969 77.94729614257812 53.63969421386719 78.33698272705078 54.06991195678711 78.93589782714844 C 55.17489242553711 80.46058654785156 55.87285232543945 82.18467712402344 56.14196395874023 84.05686950683594 C 56.24799346923828 84.78631591796875 56.03648376464844 85.53154754638672 55.56143188476562 86.09990692138672 C 55.12788391113281 86.61477661132812 54.53410339355469 86.92230987548828 53.92998504638672 86.94643402099609 L 53.91978454589844 86.94684600830078 L 53.90957260131836 86.94704437255859 C 53.89196014404297 86.9473876953125 53.87461090087891 86.94756317138672 53.85719680786133 86.94756317138672 Z" stroke="none"/>
        <path d="M 53.85585403442383 85.94757080078125 C 53.86723709106445 85.94757080078125 53.87855911254883 85.94746398925781 53.89006423950195 85.94723510742188 C 54.21668243408203 85.93418884277344 54.54330444335938 85.75648498535156 54.79415512084961 85.45858764648438 C 55.0868034362793 85.10845947265625 55.21746444702148 84.64857482910156 55.15213394165039 84.19914245605469 C 54.90650177001953 82.49027252197266 54.26894378662109 80.91462707519531 53.25773239135742 79.51930236816406 C 52.99120330810547 79.14826965332031 52.57834243774414 78.91048431396484 52.12369537353516 78.86083984375 C 52.06882476806641 78.85560607910156 52.01133346557617 78.85298919677734 51.95646286010742 78.85298919677734 C 51.63506317138672 78.85298919677734 51.34241485595703 78.95228576660156 51.13599395751953 79.13780975341797 C 50.54284286499023 79.67086791992188 50.56635284423828 80.41555786132812 50.89298248291016 80.87805938720703 C 51.75526428222656 82.06695556640625 52.29876327514648 83.41263580322266 52.50779342651367 84.87067413330078 C 52.59022521972656 85.41927337646484 53.07384872436523 85.94751739501953 53.85585403442383 85.94757080078125 M 53.85717391967773 87.94756317138672 L 53.85409545898438 87.94756317138672 C 52.17066192626953 87.94745635986328 50.77199554443359 86.77841949462891 50.52999496459961 85.1678466796875 L 50.52803421020508 85.15450286865234 C 50.3652229309082 84.01887512207031 49.94330215454102 82.97514343261719 49.27397537231445 82.05228424072266 L 49.25931549072266 82.03179931640625 C 48.81570434570312 81.40365600585938 48.60901260375977 80.63179779052734 48.67732238769531 79.85841369628906 C 48.7515754699707 79.01785278320312 49.14997482299805 78.233642578125 49.79913330078125 77.65025329589844 C 50.37116241455078 77.13614654541016 51.13733291625977 76.85298919677734 51.95646286010742 76.85298919677734 C 52.07588195800781 76.85298919677734 52.19599533081055 76.85866546630859 52.3134651184082 76.86985778808594 L 52.34081268310547 76.87265777587891 C 53.35825347900391 76.98377227783203 54.28291320800781 77.52129364013672 54.87861633300781 78.34767150878906 C 56.08135223388672 80.00796508789062 56.8394889831543 81.88102722167969 57.13178253173828 83.91459655761719 C 57.2784538269043 84.92352294921875 56.98590469360352 85.95493316650391 56.32870483398438 86.74121856689453 L 56.32401275634766 86.74681854248047 C 55.71222305297852 87.47335815429688 54.85418319702148 87.91030883789062 53.96991348266602 87.94564819335938 L 53.92828369140625 87.94686889648438 C 53.90436553955078 87.94732666015625 53.88081359863281 87.94756317138672 53.85717391967773 87.94756317138672 Z" stroke="none" fill="#fff"/>
      </g>
      <circle id="타원_140" data-name="타원 140" cx="1.171" cy="1.171" r="1.171" transform="translate(69.568 90.301)" fill="#fff"/>
      <circle id="타원_141" data-name="타원 141" cx="1.401" cy="1.401" r="1.401" transform="translate(55.404 84.575)" fill="#fff"/>
      <path id="패스_22332" data-name="패스 22332" d="M48.794,88.927h0Z" transform="translate(7.764 22.803)" fill="#332195"/>
      <path id="패스_22333" data-name="패스 22333" d="M48.541,88.846l-.029-.013-.013,0Z" transform="translate(7.289 22.646)" fill="#332195"/>
      <path id="패스_22334" data-name="패스 22334" d="M48.825,88.937h0l-.052-.016Z" transform="translate(7.731 22.793)" fill="#332195"/>
      <path id="패스_22340" data-name="패스 22340" d="M49.871,75.714l.057-.008.01,0Z" transform="translate(9.502 1.474)" fill="#332195"/>
      <path id="패스_22343" data-name="패스 22343" d="M48.8,88.931l.052.016h0l-.1-.031Z" transform="translate(7.704 22.783)" fill="#332195"/>
    </g>
    <g id="그룹_3593" data-name="그룹 3593" transform="translate(22.788 811.416)">
      <path id="교차_1" data-name="교차 1" d="M-2199.556-4065.009a17.525,17.525,0,0,0,15.768-17.416,17.523,17.523,0,0,0-15.768-17.413v-1a18.525,18.525,0,0,1,16.768,18.418A18.528,18.528,0,0,1-2199.556-4064Z" transform="translate(2262.769 4177.508)" fill="#096a77"/>
      <path id="교차_2" data-name="교차 2" d="M1,35.9A17.526,17.526,0,0,0,16.769,18.484,17.524,17.524,0,0,0,1,1.071v-1A18.526,18.526,0,0,1,17.769,18.484,18.527,18.527,0,0,1,1,36.905Z" transform="translate(60.981 113.57) rotate(180)" fill="#096a77"/>
      <path id="패스_22400" data-name="패스 22400" d="M110.212,98.946l2.5-2.5,2.5,2.5" transform="translate(-33.235 225.51) rotate(-90)" fill="none" stroke="#096a77" stroke-linecap="round" stroke-width="1"/>
      <path id="패스_22401" data-name="패스 22401" d="M0,2.5,2.5,0,5,2.5" transform="translate(59.981 74.871) rotate(90)" fill="none" stroke="#096a77" stroke-linecap="round" stroke-width="1"/>
    </g>
  </g>
</svg>
