<?xml version="1.0" standalone="no"?>
<!DOCTYPE svg PUBLIC "-//W3C//DTD SVG 20010904//EN"
 "http://www.w3.org/TR/2001/REC-SVG-20010904/DTD/svg10.dtd">
<svg version="1.0" xmlns="http://www.w3.org/2000/svg"
 width="192.000000pt" height="192.000000pt" viewBox="0 0 192.000000 192.000000"
 preserveAspectRatio="xMidYMid meet">

<g transform="translate(0.000000,192.000000) scale(0.100000,-0.100000)"
fill="#000000" stroke="none">
<path d="M0 960 l0 -960 960 0 960 0 0 960 0 960 -960 0 -960 0 0 -960z m486
95 l53 -160 0 113 1 112 35 0 c19 0 35 -4 35 -9 0 -6 12 -3 28 5 36 19 55 18
83 -5 22 -18 25 -18 42 -3 26 24 83 20 110 -6 20 -20 22 -35 26 -137 l3 -115
-41 0 -40 0 -3 98 c-3 96 -3 97 -28 97 -30 0 -38 -24 -39 -122 l-1 -73 -35 0
-34 0 -3 97 c-3 87 -5 98 -22 101 -33 7 -46 -25 -46 -115 l0 -83 -74 0 -73 0
-9 33 c-9 31 -12 32 -66 35 l-57 3 -7 -36 c-6 -34 -8 -35 -50 -35 -24 0 -44 2
-44 5 0 5 67 222 103 333 10 32 13 33 56 30 l45 -3 52 -160z m882 59 c13 -9
22 -11 22 -4 0 7 25 10 72 8 l72 -3 17 -73 c9 -40 19 -75 21 -78 3 -2 13 32
22 76 l18 80 38 0 38 0 -22 -77 c-13 -43 -32 -109 -44 -148 -11 -38 -23 -77
-27 -86 -5 -14 5 -19 65 -30 39 -7 73 -16 76 -21 3 -5 -5 -6 -18 -4 -86 19
-141 24 -164 16 -37 -15 -74 -12 -74 4 0 23 -109 29 -390 23 -268 -6 -451 -25
-710 -73 -198 -37 -200 -38 -200 -27 0 20 25 30 112 47 345 67 753 97 1027 77
95 -7 156 -8 160 -3 3 5 15 11 26 13 30 6 29 34 -9 149 l-34 105 -1 -117 -1
-118 -35 0 c-19 0 -35 5 -35 10 0 6 -11 3 -25 -6 -30 -19 -84 -13 -108 14 -15
17 -34 76 -40 122 -1 16 -10 -5 -23 -55 l-20 -80 -36 -3 -36 -3 -18 83 -18 83
-12 -45 c-7 -25 -15 -62 -19 -82 -6 -36 -8 -38 -43 -38 l-38 0 -28 113 c-15
61 -30 122 -33 135 -5 20 -1 22 30 22 33 0 37 -3 46 -37 6 -21 11 -47 12 -58
0 -11 4 -29 8 -40 6 -14 12 1 26 58 18 76 18 77 50 77 31 0 32 -1 50 -77 10
-43 20 -71 22 -63 2 8 9 42 16 75 l12 60 39 3 c36 3 38 2 32 -20 -4 -13 -9
-36 -11 -53 l-5 -30 11 30 c28 73 88 103 137 69z"/>
<path d="M376 1088 c-3 -18 -9 -45 -12 -60 -6 -26 -4 -28 26 -28 25 0 30 3 26
18 -3 9 -10 36 -16 60 -6 23 -12 42 -14 42 -2 0 -6 -15 -10 -32z"/>
<path d="M1311 1046 c-19 -22 -23 -78 -9 -106 17 -31 48 -38 65 -14 16 21 17
88 3 115 -12 22 -43 25 -59 5z"/>
</g>
</svg>
