<svg xmlns="http://www.w3.org/2000/svg" width="60" height="60" viewBox="0 0 60 60">
  <g id="service_process05" transform="translate(-44 -567)">
    <circle id="base" cx="30" cy="30" r="30" transform="translate(44 567)" fill="#fff4e1"/>
    <g id="ic" transform="translate(-55.103 -20.32)">
      <rect id="base-2" data-name="base" width="30" height="30" transform="translate(114.103 602.32)" fill="#fff" opacity="0"/>
      <g id="그룹_3566" data-name="그룹 3566" transform="translate(-616.809 379.06)">
        <path id="패스_22289" data-name="패스 22289" d="M746.6,237.995c-.182,0-.364.007-.544.015-.171-.008-.344-.015-.518-.015l.04.046A12.507,12.507,0,0,0,734.094,250.5c0,.09.01.178.013.268H759.1c0-.09.014-.178.014-.268A12.509,12.509,0,0,0,746.6,237.995Z" transform="translate(-0.824 -5.585)" fill="#fff" stroke="#777" stroke-linecap="round" stroke-linejoin="round" stroke-width="1"/>
        <path id="패스_22290" data-name="패스 22290" d="M759.112,228.644a1.819,1.819,0,1,1-1.82-1.819A1.82,1.82,0,0,1,759.112,228.644Z" transform="translate(-11.514)" fill="#efba5e"/>
        <line id="선_380" data-name="선 380" x2="26.667" transform="translate(732.445 247.695)" fill="none" stroke="#777" stroke-linecap="round" stroke-linejoin="round" stroke-width="1"/>
        <path id="패스_22291" data-name="패스 22291" d="M765.459,247.512s2.807,1.053,3.86,3.158" transform="translate(-16.507 -10.343)" fill="#efba5e" stroke="#efba5e" stroke-linecap="round" stroke-linejoin="round" stroke-width="1"/>
      </g>
    </g>
  </g>
</svg>
