<svg xmlns="http://www.w3.org/2000/svg" xmlns:xlink="http://www.w3.org/1999/xlink" width="66" height="66" viewBox="0 0 66 66">
  <defs>
    <clipPath id="clip-path">
      <circle id="base" cx="33" cy="33" r="33" transform="translate(0 0)" fill="#ff9595"/>
    </clipPath>
  </defs>
  <g id="solution_speech01" transform="translate(0 0)" clip-path="url(#clip-path)">
    <g id="그룹_3608" data-name="그룹 3608" transform="translate(-407.272 -596.89)">
      <path id="패스_22443" data-name="패스 22443" d="M507.2,808.466a9.493,9.493,0,0,0,7.426,7.13c4.08.6,7.962-1.984,10.814-4.963a5.282,5.282,0,0,0,1.728-3.017c.1-1.178-.879-2.5-2.044-2.292-.7.123-1.213.722-1.831,1.083s-1.628.335-1.817-.355a1.813,1.813,0,0,1,.017-.7,5.329,5.329,0,0,0-2.1-4.546,15.743,15.743,0,0,0-4.629-2.366" transform="translate(-48.258 -79.874)" fill="#f1d3c0"/>
      <path id="패스_22444" data-name="패스 22444" d="M498.049,689.36c10.788,3.511,20.013,12.928,27.457,18.143,4.1,2.874,8.225,6.251,9.907,10.97a17.544,17.544,0,0,1-.663,12.255,41,41,0,0,1-6.726,10.53q-2.977,3.63-6.2,7.047c-.8.853-2.017,1.669-2.068,2.882-.033.816.51,1.426.427,2.228a9.948,9.948,0,0,1-1.669,3.325,2.828,2.828,0,0,1-.782.9,2.967,2.967,0,0,1-1.425.366c-5.585.434-9.15-.895-14.021-3.466,2.8-6.262,5.367-12.634,8.04-18.949,1.19-2.811,2.3-6.323.346-8.672-.8-.963-1.99-1.526-2.831-2.453-1.806-1.99-1.569-5.036-1.22-7.7" transform="translate(-44.537 -35.506)" fill="#f7eac1"/>
      <path id="패스_22445" data-name="패스 22445" d="M523.27,785.677a21.565,21.565,0,0,1,3.894,1.884" transform="translate(-54.795 -74.683)" fill="none" stroke="#ccbd92" stroke-miterlimit="10" stroke-width="0.5"/>
      <path id="패스_22446" data-name="패스 22446" d="M429.89,807.2a9.493,9.493,0,0,1-7.426,7.13c-4.08.6-7.962-1.984-10.814-4.963a5.287,5.287,0,0,1-1.728-3.017c-.1-1.178.879-2.5,2.044-2.292.7.123,1.214.721,1.831,1.083s1.628.334,1.817-.355a1.812,1.812,0,0,0-.017-.7,5.33,5.33,0,0,1,2.1-4.546,15.726,15.726,0,0,1,4.629-2.367" transform="translate(-8.688 -79.359)" fill="#f1d3c0"/>
      <path id="패스_22447" data-name="패스 22447" d="M426.74,689.36c-10.788,3.511-20.013,12.928-27.457,18.143-4.1,2.874-8.225,6.251-9.907,10.97a17.544,17.544,0,0,0,.662,12.255,41.013,41.013,0,0,0,6.726,10.53q2.978,3.63,6.2,7.047c1.558,1.658,2.292,2.214,1.579,4.508a3.545,3.545,0,0,0-.218,1.12,3.937,3.937,0,0,0,.505,1.532,16.862,16.862,0,0,1,1.3,3.963c6.3.012,10.9-2,16.371-4.89-2.8-6.262-5.367-12.634-8.04-18.949-1.19-2.811-2.3-6.323-.346-8.672.8-.963,1.99-1.526,2.83-2.453,1.807-1.99,1.569-5.036,1.22-7.7" transform="translate(0 -35.506)" fill="#f7eac1"/>
      <path id="패스_22448" data-name="패스 22448" d="M423.672,786.512a9.685,9.685,0,0,0-2.537,1.389" transform="translate(-13.252 -75.023)" fill="none" stroke="#ccbd92" stroke-miterlimit="10" stroke-width="0.5"/>
      <path id="패스_22449" data-name="패스 22449" d="M488.623,988.268c.279,7.181-.476,14.4.367,21.874,5.226.007,11.4,1.972,16.387-.47l-.532-21.386Z" transform="translate(-40.684 -157.087)" fill="#dfdfdf"/>
      <g id="그룹_3604" data-name="그룹 3604" transform="translate(445.09 844.104)">
        <path id="패스_22450" data-name="패스 22450" d="M505.832,1010.874c3.2,2.152,5.989,4.152,9.669,5.352,3.054,1,5.879,2.345,6.981,5.57,3.883,11.3-12.727,9.708-20.792,7-4.91-1.646-8.5-1.932-13.967-3.138s-3.976-7.552-2.54-12.843a.788.788,0,0,1,1.216-.45,16.425,16.425,0,0,0,9.764,3.432c.966-.028,3.581-.02,4.388-.631,1.219-.923.694-2.972,1.642-4.187a2.258,2.258,0,0,1,1.987-.919,3.549,3.549,0,0,1,1.468.684Z" transform="translate(-483.851 -1010.051)" fill="#3f3934"/>
        <path id="패스_22451" data-name="패스 22451" d="M522.79,1033.154c-4.649,4.1-12.939,2.423-18.341.877-2.89-.773-5.9-1.8-8.919-2.32-2.512-.388-5.779-.135-8.165-1.421v-.128" transform="translate(-485.281 -1018.231)" fill="none" stroke="#282422" stroke-miterlimit="10" stroke-width="0.5"/>
        <path id="패스_22452" data-name="패스 22452" d="M511.815,1022.184A6.851,6.851,0,0,0,517,1019a21.952,21.952,0,0,0,4.557,2.588" transform="translate(-495.226 -1013.69)" fill="none" stroke="#282422" stroke-miterlimit="10" stroke-width="0.5"/>
        <path id="패스_22453" data-name="패스 22453" d="M529.111,1022.921a2.661,2.661,0,0,0-2.11.647,13.423,13.423,0,0,0-5.145,7.383" transform="translate(-499.31 -1015.266)" fill="none" stroke="#282422" stroke-miterlimit="10" stroke-width="0.5"/>
      </g>
      <path id="패스_22454" data-name="패스 22454" d="M497.134,806.394s1.653,105.2-.249,117.45c-9.248,3.965-18.756-.814-18.756-.814s-5.9-84.045-9.072-94.244c0,0-2.687-14.445-1.867-24.08Z" transform="translate(-31.922 -82.423)" fill="#594c45"/>
      <path id="패스_22455" data-name="패스 22455" d="M506.242,928.18c.148,18.142-.339,35.157-.344,44.837" transform="translate(-47.729 -132.646)" fill="none" stroke="#3f342f" stroke-miterlimit="10" stroke-width="0.5"/>
      <path id="패스_22456" data-name="패스 22456" d="M505.623,819.116c-.006,11.433.173,33.1.351,54.77" transform="translate(-47.617 -88.284)" fill="none" stroke="#3f342f" stroke-miterlimit="10" stroke-width="0.5"/>
      <path id="패스_22457" data-name="패스 22457" d="M447.307,988.268c-.28,7.181.476,14.4-.368,21.874-5.225.007-11.4,1.972-16.387-.47l.532-21.386Z" transform="translate(-17.082 -157.087)" fill="#dfdfdf"/>
      <g id="그룹_3605" data-name="그룹 3605" transform="translate(393.865 844.104)">
        <path id="패스_22458" data-name="패스 22458" d="M414.735,1010.874c-3.2,2.152-5.988,4.152-9.668,5.352-3.054,1-5.879,2.345-6.981,5.57-3.883,11.3,12.727,9.708,20.792,7,4.91-1.646,8.5-1.932,13.967-3.138s3.976-7.552,2.54-12.843a.787.787,0,0,0-1.215-.45,16.425,16.425,0,0,1-9.764,3.432c-.966-.028-3.581-.02-4.388-.631-1.219-.923-.694-2.972-1.642-4.187a2.258,2.258,0,0,0-1.988-.919,3.55,3.55,0,0,0-1.468.684Z" transform="translate(-397.506 -1010.051)" fill="#3f3934"/>
        <path id="패스_22459" data-name="패스 22459" d="M400.371,1033.154c4.649,4.1,12.939,2.423,18.341.877,2.889-.773,5.9-1.8,8.919-2.32,2.512-.388,5.779-.135,8.165-1.421v-.128" transform="translate(-398.671 -1018.231)" fill="none" stroke="#282422" stroke-miterlimit="10" stroke-width="0.5"/>
        <path id="패스_22460" data-name="패스 22460" d="M428.955,1022.184a6.853,6.853,0,0,1-5.187-3.186,21.95,21.95,0,0,1-4.556,2.588" transform="translate(-406.335 -1013.69)" fill="none" stroke="#282422" stroke-miterlimit="10" stroke-width="0.5"/>
        <path id="패스_22461" data-name="패스 22461" d="M413.365,1022.921a2.661,2.661,0,0,1,2.11.647,13.423,13.423,0,0,1,5.145,7.383" transform="translate(-403.957 -1015.266)" fill="none" stroke="#282422" stroke-miterlimit="10" stroke-width="0.5"/>
      </g>
      <path id="패스_22462" data-name="패스 22462" d="M429.222,806.394s-1.653,105.2.249,117.45c9.248,3.965,18.756-.814,18.756-.814s5.9-84.045,9.072-94.244c0,0,2.687-14.445,1.867-24.08Z" transform="translate(-16.27 -82.423)" fill="#594c45"/>
      <path id="패스_22463" data-name="패스 22463" d="M440.953,928.18c-.148,18.142.339,35.157.344,44.837" transform="translate(-21.302 -132.646)" fill="none" stroke="#3f342f" stroke-miterlimit="10" stroke-width="0.5"/>
      <path id="패스_22464" data-name="패스 22464" d="M441.586,819.116c.006,11.433-.173,33.1-.351,54.77" transform="translate(-21.428 -88.284)" fill="none" stroke="#3f342f" stroke-miterlimit="10" stroke-width="0.5"/>
      <path id="패스_22465" data-name="패스 22465" d="M475.281,696.362a73.124,73.124,0,0,0,4.642,17.353c.519,1.277.915,2.613,1.525,3.853.556,1.13,1.455,2.037,1.729,3.24.723,3.168-.468,7.238-.514,10.479a126.073,126.073,0,0,1-.813,16.033c-.208,1.462.485,15.761.332,15.812-17.615,5.944-36.861,1.159-55.431,2.037.9-12.219.559-24.553.459-36.744-.02-2.41-.51-5.5.274-7.817.682-2.014,1.867-3.882,2.539-5.947.557-1.714.957-3.506,1.62-5.184a83.44,83.44,0,0,0,3.461-12.972c.586-2.667.791-5.724,3.415-7.049a28.525,28.525,0,0,1,8.693-2.426,84.448,84.448,0,0,1,13.051-.926,31.989,31.989,0,0,1,8.453,1.674c2.06.6,3.864,1,5.288,2.609C475.443,692.009,474.986,694.263,475.281,696.362Z" transform="translate(-15.536 -34.181)" fill="#ffe29f"/>
      <path id="패스_22466" data-name="패스 22466" d="M464.526,674.321c.625,1.874.416,5.2,0,7.494,3.539,2.706,9.992,2.082,13.739.417-.416-3.122-1.249-6.036-1.249-9.159" transform="translate(-30.901 -28.881)" fill="#ddb5a6"/>
      <g id="그룹_3606" data-name="그룹 3606" transform="translate(412.194 622.577)">
        <path id="패스_22467" data-name="패스 22467" d="M445.936,645.406a8.768,8.768,0,1,1-8.768-8.768A8.767,8.767,0,0,1,445.936,645.406Z" transform="translate(-428.401 -636.638)" fill="#ddb5a6"/>
        <line id="선_389" data-name="선 389" x2="3.896" transform="translate(4.222 8.768)" fill="none" stroke="#c28f86" stroke-linecap="round" stroke-linejoin="round" stroke-width="1"/>
      </g>
      <g id="그룹_3607" data-name="그룹 3607" transform="translate(450.289 622.577)">
        <path id="패스_22468" data-name="패스 22468" d="M492.615,645.406a8.768,8.768,0,1,0,8.768-8.768A8.768,8.768,0,0,0,492.615,645.406Z" transform="translate(-492.615 -636.638)" fill="#ddb5a6"/>
        <line id="선_390" data-name="선 390" x1="3.897" transform="translate(9.417 8.768)" fill="none" stroke="#c28f86" stroke-linecap="round" stroke-linejoin="round" stroke-width="1"/>
      </g>
      <path id="패스_22469" data-name="패스 22469" d="M482.072,628.817a21.6,21.6,0,1,1-21.6-22.081A21.843,21.843,0,0,1,482.072,628.817Z" transform="translate(-20.469 -1.899)" fill="#f1d1c0"/>
      <path id="패스_22470" data-name="패스 22470" d="M483.1,638.23c1.416-1.416,3.733-.644,5.278.515" transform="translate(-38.455 -14.398)" fill="none" stroke="#413939" stroke-miterlimit="10" stroke-width="0.5"/>
      <path id="패스_22471" data-name="패스 22471" d="M462.067,638.23c-1.416-1.416-3.733-.644-5.278.515" transform="translate(-27.754 -14.398)" fill="none" stroke="#413939" stroke-miterlimit="10" stroke-width="0.5"/>
      <path id="패스_22472" data-name="패스 22472" d="M473.307,647.211a1.661,1.661,0,0,0-.684,2.955" transform="translate(-33.928 -18.362)" fill="none" stroke="#c28f86" stroke-linecap="round" stroke-linejoin="round" stroke-width="0.5"/>
      <path id="패스_22473" data-name="패스 22473" d="M479.9,613.363a16.864,16.864,0,0,0-2.361-3.858c-2.216-2.719-4.1-5.224-7.53-6.59-3.71-1.478-7.314-.647-11.116-.281-3.526.339-6.7.548-10.1,1.873a20.2,20.2,0,0,0-9,6.843c-2.62,3.606-2.994,7.806-2.3,12.16a2.279,2.279,0,0,0,.289.914.836.836,0,0,0,.815.4,1.256,1.256,0,0,0,.718-.66c1.958-3.135,5.081-5.385,8.113-7.354l10.691-6.946a1.487,1.487,0,0,1,.686-.294,1.445,1.445,0,0,1,.569.119,37.92,37.92,0,0,1,6.786,3.217c4.581,2.758,8.608,6.5,13.568,8.5a1.247,1.247,0,0,0,.453.117C482.72,621.53,480.311,614.3,479.9,613.363Z" transform="translate(-19.783)" fill="#413939"/>
      <path id="패스_22474" data-name="패스 22474" d="M458.935,646.744a3.959,3.959,0,0,1,3.441-.409" transform="translate(-28.627 -17.916)" fill="none" stroke="#70544f" stroke-miterlimit="10" stroke-width="0.5"/>
      <path id="패스_22475" data-name="패스 22475" d="M488.085,646.744a3.96,3.96,0,0,0-3.441-.409" transform="translate(-39.084 -17.916)" fill="none" stroke="#70544f" stroke-miterlimit="10" stroke-width="0.5"/>
      <path id="패스_22476" data-name="패스 22476" d="M463.064,657.38a.687.687,0,0,1,.7-.911c4.047.365,8.2-.288,12.233-.307a.606.606,0,0,1,.358.074.577.577,0,0,1,.183.435,5.8,5.8,0,0,1-2.783,5.089,8.516,8.516,0,0,1-7.034.119A7.337,7.337,0,0,1,463.064,657.38Z" transform="translate(-30.292 -22.003)" fill="#ca6f63"/>
      <path id="패스_22477" data-name="패스 22477" d="M489.391,654.2a2.847,2.847,0,0,1,2,2.888" transform="translate(-41.015 -21.205)" fill="none" stroke="#c28f86" stroke-linecap="round" stroke-linejoin="round" stroke-width="0.5"/>
      <path id="패스_22478" data-name="패스 22478" d="M459.565,654.223a3.991,3.991,0,0,0-1.438,4.273" transform="translate(-28.235 -21.214)" fill="none" stroke="#c28f86" stroke-linecap="round" stroke-linejoin="round" stroke-width="0.5"/>
      <path id="패스_22479" data-name="패스 22479" d="M460.837,685.848a15.2,15.2,0,0,0,.177-3.285q2.89-.03,5.775.2a2.927,2.927,0,0,1,1.515.412c1.072.778.755,2.616,1.76,3.478l1.576-3.055a1.557,1.557,0,0,1,1.461-1.1l4.455-.684a.608.608,0,0,1,.562.1.6.6,0,0,1,.1.406l-.01,2.369-1.3.934a13.927,13.927,0,0,1-14.874.891Z" transform="translate(-29.401 -32.425)" fill="#3f3934"/>
      <rect id="사각형_1624" data-name="사각형 1624" width="3.089" height="18.86" transform="translate(438.95 655.055)" fill="#3f3934"/>
      <path id="패스_22480" data-name="패스 22480" d="M468.771,829.313a122.892,122.892,0,0,1,2.9,19.935" transform="translate(-32.628 -92.432)" fill="none" stroke="#3f342f" stroke-miterlimit="10" stroke-width="0.5"/>
      <path id="패스_22481" data-name="패스 22481" d="M429.023,709.374c.365-.17.609.4.617.8q.182,9.287.364,18.573" transform="translate(-16.46 -43.634)" fill="none" stroke="#ccbd92" stroke-miterlimit="10" stroke-width="0.5"/>
      <path id="패스_22482" data-name="패스 22482" d="M402.075,740.589a7.346,7.346,0,0,1,5.749,1.054,21.785,21.785,0,0,1,4.449,4.019c.48.523.927,1.442.33,1.825a1.237,1.237,0,0,1-.883.065l-3.7-.647" transform="translate(-5.499 -56.254)" fill="none" stroke="#ccbd92" stroke-miterlimit="10" stroke-width="0.5"/>
      <path id="패스_22483" data-name="패스 22483" d="M418.163,738.554l3.1,4.889" transform="translate(-12.043 -55.516)" fill="none" stroke="#ccbd92" stroke-miterlimit="10" stroke-width="0.5"/>
      <path id="패스_22484" data-name="패스 22484" d="M516.313,710.333v13.4" transform="translate(-51.966 -44.037)" fill="none" stroke="#ccbd92" stroke-miterlimit="10" stroke-width="0.5"/>
      <path id="패스_22485" data-name="패스 22485" d="M524.405,745.384a12.176,12.176,0,0,1,7.543-6.057,4.258,4.258,0,0,1,3.144.118,1.911,1.911,0,0,1,.752,2.719" transform="translate(-55.257 -55.732)" fill="none" stroke="#ccbd92" stroke-miterlimit="10" stroke-width="0.5"/>
      <path id="패스_22486" data-name="패스 22486" d="M529.579,750.9a9.319,9.319,0,0,0-6.649,2.278" transform="translate(-54.657 -60.532)" fill="none" stroke="#ccbd92" stroke-miterlimit="10" stroke-width="0.5"/>
      <path id="패스_22487" data-name="패스 22487" d="M427.8,749.236c-1.763,11.85-3.164,24.059-.37,35.708" transform="translate(-15.169 -59.861)" fill="none" stroke="#ccbd92" stroke-miterlimit="10" stroke-width="0.5"/>
      <path id="패스_22488" data-name="패스 22488" d="M518.428,745.115l1.082,12.506c.668,7.718,1.3,15.725-1.345,23.006" transform="translate(-52.719 -58.184)" fill="none" stroke="#ccbd92" stroke-miterlimit="10" stroke-width="0.5"/>
      <path id="패스_22489" data-name="패스 22489" d="M435.58,807.894c5.512-2.053,11.644-.968,17.4.264,5.114,1.1,10.206,2.289,15.3,3.482" transform="translate(-19.127 -83.253)" fill="none" stroke="#ccbd92" stroke-miterlimit="10" stroke-width="0.5"/>
      <path id="패스_22490" data-name="패스 22490" d="M486,803.91l10.757,4.041" transform="translate(-39.636 -82.099)" fill="none" stroke="#ccbd92" stroke-miterlimit="10" stroke-width="0.5"/>
      <path id="패스_22491" data-name="패스 22491" d="M451.737,723.668l-6.341,2.966a.908.908,0,0,1-.753,0l-6.341-2.966a.6.6,0,0,1-.374-.523v-.759a.69.69,0,0,1,.75-.6H451.36a.689.689,0,0,1,.75.6v.759A.6.6,0,0,1,451.737,723.668Z" transform="translate(-20.083 -48.694)" fill="#594c45"/>
      <path id="패스_22492" data-name="패스 22492" d="M503.2,723.668l-6.341,2.966a.909.909,0,0,1-.754,0l-6.341-2.966a.6.6,0,0,1-.374-.523v-.759a.689.689,0,0,1,.75-.6h12.682a.689.689,0,0,1,.75.6v.759A.6.6,0,0,1,503.2,723.668Z" transform="translate(-41.015 -48.694)" fill="#594c45"/>
    </g>
  </g>
</svg>
