<svg xmlns="http://www.w3.org/2000/svg" width="65" height="65" viewBox="0 0 65 65">
  <g id="solution_iconlist02" transform="translate(-52 -872)">
    <circle id="base" cx="32.5" cy="32.5" r="32.5" transform="translate(52 872)" fill="#eff5f5"/>
    <g id="그룹_3582" data-name="그룹 3582" transform="translate(-76.859 72.19)">
      <path id="패스_22296" data-name="패스 22296" d="M640.037,512.37v-4.022a8.744,8.744,0,0,1,8.728-8.738h13.35a1.482,1.482,0,0,0,0-2.964H645.562a7.738,7.738,0,0,1-7.725-7.734v-.161a7.738,7.738,0,0,1,7.725-7.734h7.773a1.7,1.7,0,0,0,1.7-1.7h0V477.37h6.245v1.943a7.959,7.959,0,0,1-7.946,7.955h-7.773a1.483,1.483,0,0,0-1.48,1.482v.161a1.482,1.482,0,0,0,1.48,1.482h16.552a7.734,7.734,0,0,1,0,15.467h-13.35a2.488,2.488,0,0,0-2.483,2.487v4.022Z" transform="translate(-491.978 338.96)" fill="#fff"/>
      <path id="패스_22296-2" data-name="패스 22296" d="M148.058,851.33v-4.022a8.743,8.743,0,0,1,8.728-8.738h13.35a1.482,1.482,0,0,0,0-2.964H153.583a7.738,7.738,0,0,1-7.725-7.734v-.161a7.738,7.738,0,0,1,7.725-7.734h7.773a1.7,1.7,0,0,0,1.7-1.7V816.33" transform="translate(0 0)" fill="none" stroke="#096a77" stroke-miterlimit="10" stroke-width="1"/>
      <path id="패스_22297" data-name="패스 22297" d="M179.057,816.33v1.943a7.959,7.959,0,0,1-7.946,7.955h-7.773a1.483,1.483,0,0,0-1.48,1.482v.161a1.483,1.483,0,0,0,1.48,1.482H179.89a7.734,7.734,0,0,1,0,15.467h-13.35a2.488,2.488,0,0,0-2.483,2.487v4.022" transform="translate(-9.499 0)" fill="none" stroke="#096a77" stroke-miterlimit="10" stroke-width="1"/>
    </g>
    <path id="패스_22365" data-name="패스 22365" d="M71.622,51.479a.491.491,0,0,0,.544,0A20.318,20.318,0,0,0,81.29,35.934c.064-.67.091-1.3.1-1.88.012-.912-.024-1.71-.075-2.349a.162.162,0,0,0-.167-.144H62.641a.16.16,0,0,0-.167.144C62.152,35.609,62.4,45.362,71.622,51.479Z" transform="translate(24.073 873.439)" fill="#2ed1a2" stroke="#096a77" stroke-linejoin="round" stroke-width="1"/>
    <path id="패스_22366" data-name="패스 22366" d="M92.333,916.847l3.494,3.76,6.506-7" transform="translate(-0.197 -3.927)" fill="none" stroke="#fff" stroke-width="1"/>
  </g>
</svg>
