<svg xmlns="http://www.w3.org/2000/svg" width="65" height="65" viewBox="0 0 65 65">
  <g id="solution_iconlist05" transform="translate(-53 -874)">
    <circle id="base" cx="32.5" cy="32.5" r="32.5" transform="translate(53 874)" fill="#eff5f5"/>
    <g id="그룹_3583" data-name="그룹 3583" transform="translate(-20.369 625.435)">
      <rect id="사각형_1614" data-name="사각형 1614" width="17.647" height="14.613" transform="translate(92.163 280.452)" fill="#fff" stroke="#096a77" stroke-linecap="round" stroke-linejoin="round" stroke-width="1"/>
      <path id="패스_22367" data-name="패스 22367" d="M120.03,277.077H103.383v18.341H120.03c2.935,0,5.315-4.106,5.315-9.17S122.965,277.077,120.03,277.077Z" transform="translate(-5.905 -5.795)" fill="#fff" stroke="#096a77" stroke-linecap="round" stroke-linejoin="round" stroke-width="1"/>
      <ellipse id="타원_145" data-name="타원 145" cx="5.315" cy="9.17" rx="5.315" ry="9.17" transform="translate(92.163 271.282)" fill="#fff" stroke="#096a77" stroke-linecap="round" stroke-linejoin="round" stroke-width="1"/>
      <ellipse id="타원_146" data-name="타원 146" cx="1.507" cy="3.296" rx="1.507" ry="3.296" transform="translate(95.971 277.157)" fill="#c1dcdf" stroke="#096a77" stroke-linecap="round" stroke-linejoin="round" stroke-width="1"/>
      <path id="사각형_1615" data-name="사각형 1615" d="M0,0H0A9.782,9.782,0,0,1,9.782,9.782v0a0,0,0,0,1,0,0h0A9.782,9.782,0,0,1,0,0V0A0,0,0,0,1,0,0Z" transform="translate(121.066 275.847) rotate(-180)" fill="#2ed1a2" stroke="#096a77" stroke-linecap="round" stroke-linejoin="round" stroke-width="1"/>
      <line id="선_386" data-name="선 386" x1="9.454" y1="9.454" transform="translate(113.121 267.902)" fill="#00b4af" stroke="#096a77" stroke-linecap="round" stroke-linejoin="round" stroke-width="1"/>
    </g>
  </g>
</svg>
