<svg xmlns="http://www.w3.org/2000/svg" xmlns:xlink="http://www.w3.org/1999/xlink" width="65" height="65" viewBox="0 0 65 65">
  <defs>
    <clipPath id="clip-path">
      <circle id="base" cx="32.5" cy="32.5" r="32.5" transform="translate(0.5 0.5)" fill="#9a8c7c"/>
    </clipPath>
  </defs>
  <g id="solution_speech03" transform="translate(-0.5 -0.5)" clip-path="url(#clip-path)">
    <g id="그룹_3622" data-name="그룹 3622" transform="translate(-403.319 -89.663)">
      <path id="패스_22541" data-name="패스 22541" d="M449.5,487.773c-.32,4.875-.559,7.932-.161,11.477.32,2.861-7.481,2.254-10.2,1.856-4.988-.7-3.789-1.946-3.516-6.139a63.227,63.227,0,0,0-.687-7.45" transform="translate(-16.394 -168.092)" fill="#d1b38f"/>
      <path id="패스_22542" data-name="패스 22542" d="M430.124,301.6s.59,97.389,2.258,108.625c8.113,3.647,16.454-.726,16.454-.726s3.134-77.974,5.917-87.326c0,0,2.358-13.248,1.639-22.088Z" transform="translate(-14.325 -87.473)" fill="#3f3934"/>
      <path id="패스_22543" data-name="패스 22543" d="M437.62,310.025c-1.322,4.586-1.879,8.7-4.527,12.369" transform="translate(-15.602 -91.748)" fill="none" stroke="#282422" stroke-miterlimit="10" stroke-width="0.5"/>
      <path id="패스_22544" data-name="패스 22544" d="M446.277,417.959c-.13,16.642.3,32.251.3,41.132" transform="translate(-21.262 -138.173)" fill="none" stroke="#282422" stroke-miterlimit="10" stroke-width="0.5"/>
      <path id="패스_22545" data-name="패스 22545" d="M446.733,313.8c0,10.489-.153,30.366-.311,50.243" transform="translate(-21.335 -93.374)" fill="none" stroke="#282422" stroke-miterlimit="10" stroke-width="0.5"/>
      <path id="패스_22546" data-name="패스 22546" d="M474.45,488.048c.431,4.863.74,7.913.423,11.468-.255,2.87,7.53,2.036,10.242,1.559,4.97-.849,3.743-2.056,3.375-6.24a63.369,63.369,0,0,1,.517-7.468" transform="translate(-33.391 -168.027)" fill="#d1b38f"/>
      <path id="패스_22547" data-name="패스 22547" d="M483.4,301.6s.723,97.388-.793,108.648c-8.063,3.77-16.461-.477-16.461-.477s-4.186-77.919-7.094-87.228c0,0-2.537-13.211-1.937-22.061Z" transform="translate(-25.893 -87.641)" fill="#3f3934"/>
      <path id="패스_22548" data-name="패스 22548" d="M494.414,310.09c1.307,4.59,1.85,8.707,4.484,12.386" transform="translate(-41.978 -91.776)" fill="none" stroke="#282422" stroke-miterlimit="10" stroke-width="0.5"/>
      <path id="패스_22549" data-name="패스 22549" d="M484.177,312.479c-.083,20.977,1.606,35.916,1.524,56.893" transform="translate(-37.573 -92.804)" fill="none" stroke="#282422" stroke-miterlimit="10" stroke-width="0.5"/>
      <path id="패스_22550" data-name="패스 22550" d="M486.882,423.774c-.225,13.493.207,27.675.163,39.137" transform="translate(-38.71 -140.674)" fill="none" stroke="#282422" stroke-miterlimit="10" stroke-width="0.5"/>
      <path id="패스_22551" data-name="패스 22551" d="M465.2,353.3" transform="translate(-29.41 -110.364)" fill="none" stroke="#282422" stroke-miterlimit="10" stroke-width="0.5"/>
      <path id="패스_22552" data-name="패스 22552" d="M465.018,351.847q1.114,13.725,1.369,27.508" transform="translate(-29.334 -109.737)" fill="none" stroke="#282422" stroke-miterlimit="10" stroke-width="0.5"/>
      <path id="패스_22553" data-name="패스 22553" d="M457.686,323.178a108.157,108.157,0,0,1,3.094,11.356" transform="translate(-26.18 -97.405)" fill="none" stroke="#282422" stroke-miterlimit="10" stroke-width="0.5"/>
      <g id="그룹_3616" data-name="그룹 3616" transform="translate(438.175 327.061)">
        <path id="패스_22554" data-name="패스 22554" d="M472.849,504.152a2.008,2.008,0,0,0-1.249.653c-.666.78-.737,2.556-.791,3.593-.212,4.1-2.172,8.08-1.1,12a7.445,7.445,0,0,0,4.976,5.093c4.292,1.551,11.06,1.5,14.557-2.509,2.334-2.674,1.325-7.346.582-10.56-.484-2.1-1.027-4.232-1.666-6.271-.96-3.061-1.093-1.331-3.327-1.771-.756-.149-1.222-1.012-1.742-1.674a4.583,4.583,0,0,0-6.922-.391c-.326.344-.613.738-.955,1.06A4.024,4.024,0,0,1,472.849,504.152Z" transform="translate(-469.389 -500.917)" fill="#3f3934"/>
        <path id="패스_22555" data-name="패스 22555" d="M471.794,532.095c1.225,3.79,5.921,4.168,8.882,4.421,3.88.252,6.84-.884,10-3.537" transform="translate(-470.423 -514.327)" fill="none" stroke="#282422" stroke-miterlimit="10" stroke-width="0.5"/>
        <path id="패스_22556" data-name="패스 22556" d="M472.331,522.363c3.165-1.389,5.207-4.042,8.882-4.3a19.375,19.375,0,0,1,4.7.126c1.225.379,2.858,1.389,3.88,1.389" transform="translate(-470.654 -508.258)" fill="none" stroke="#282422" stroke-miterlimit="10" stroke-width="0.5"/>
        <path id="패스_22557" data-name="패스 22557" d="M475.824,510.21a1.5,1.5,0,0,0,2.1.06,7.221,7.221,0,0,1,1.976-1.32l1.946,4.548" transform="translate(-472.157 -504.372)" fill="none" stroke="#282422" stroke-miterlimit="10" stroke-width="0.5"/>
        <path id="패스_22558" data-name="패스 22558" d="M492.168,514.306l.9-3.712a1.882,1.882,0,0,0,2.775-.1" transform="translate(-479.187 -505.035)" fill="none" stroke="#282422" stroke-miterlimit="10" stroke-width="0.5"/>
      </g>
      <g id="그룹_3617" data-name="그룹 3617" transform="translate(414.747 327.061)">
        <path id="패스_22559" data-name="패스 22559" d="M446.118,504.152a2.008,2.008,0,0,1,1.249.653c.666.78.737,2.556.791,3.593.212,4.1,2.172,8.08,1.1,12a7.445,7.445,0,0,1-4.976,5.093c-4.292,1.551-11.06,1.5-14.557-2.509-2.334-2.674-1.326-7.346-.582-10.56.484-2.1,1.027-4.232,1.666-6.271.96-3.061,1.093-1.331,3.327-1.771.756-.149,1.222-1.012,1.742-1.674a4.583,4.583,0,0,1,6.922-.391c.326.344.613.738.955,1.06A4.024,4.024,0,0,0,446.118,504.152Z" transform="translate(-428.279 -500.917)" fill="#3f3934"/>
        <path id="패스_22560" data-name="패스 22560" d="M448.995,532.095c-1.225,3.79-5.921,4.168-8.882,4.421-3.88.252-6.84-.884-10-3.537" transform="translate(-429.065 -514.327)" fill="none" stroke="#282422" stroke-miterlimit="10" stroke-width="0.5"/>
        <path id="패스_22561" data-name="패스 22561" d="M449.536,522.363c-3.165-1.389-5.207-4.042-8.882-4.3a19.375,19.375,0,0,0-4.7.126c-1.225.379-2.858,1.389-3.88,1.389" transform="translate(-429.913 -508.258)" fill="none" stroke="#282422" stroke-miterlimit="10" stroke-width="0.5"/>
        <path id="패스_22562" data-name="패스 22562" d="M454.675,510.21a1.5,1.5,0,0,1-2.1.06,7.229,7.229,0,0,0-1.976-1.32l-1.946,4.548" transform="translate(-437.042 -504.372)" fill="none" stroke="#282422" stroke-miterlimit="10" stroke-width="0.5"/>
        <path id="패스_22563" data-name="패스 22563" d="M440.1,514.306l-.9-3.712a1.882,1.882,0,0,1-2.775-.1" transform="translate(-431.786 -505.035)" fill="none" stroke="#282422" stroke-miterlimit="10" stroke-width="0.5"/>
      </g>
      <path id="패스_22564" data-name="패스 22564" d="M484.137,183.049c9.595.856,19.953,2.934,26.35,10.613a23.714,23.714,0,0,1,5.287,16.233,9.841,9.841,0,0,1-1.552,5.32c-1.795,2.441-5,2.973-7.888,3.325-3.744.456-7.971.764-10.829-1.856" transform="translate(-37.557 -37.132)" fill="#9a8c7c"/>
      <path id="패스_22565" data-name="패스 22565" d="M417.032,256.191a9.517,9.517,0,0,1-4.417,8.573,7.263,7.263,0,0,1-8.9-1.431c-2.079-2.372-2.469-5.9-2.347-9.147a38.743,38.743,0,0,1,3.258-14.164l13.386,1.053Z" transform="translate(-1.95 -61.638)" fill="#ffe2d6"/>
      <path id="패스_22566" data-name="패스 22566" d="M441.394,98.608c-3.078-.272-7.235,1.158-10.071,2.309a21.989,21.989,0,0,0-9.275,7.08,8.466,8.466,0,0,1-1.767,1.977,9.793,9.793,0,0,1-2.392,1.008,11.051,11.051,0,0,0-7.376,8.9c-.393,4.049,2.407,8.337,6.4,9.084a6.456,6.456,0,0,0,1.234,6.3,6.533,6.533,0,0,0,3.707,2.026c2.078.4,1.751.024,2.954,1.622a10.343,10.343,0,0,0,7.543,3.977,31.136,31.136,0,0,0,9.722-.379,8.279,8.279,0,0,1,1.8-.24,7.956,7.956,0,0,1,1.792.332,22.005,22.005,0,0,0,11.04.448,12.123,12.123,0,0,0,5.523-3.1c1.626-1.662,1.287-2.827,1.779-4.835.584-2.383,3.64-3.134,4.307-5.879a22.064,22.064,0,0,0,.107-5.005c0-3.866-.076-7.7-1.46-11.372a15.6,15.6,0,0,0-8.985-9.368" transform="translate(-5.874 -0.798)" fill="#7a644d"/>
      <path id="패스_22567" data-name="패스 22567" d="M467.329,190.911a84.182,84.182,0,0,0,4.237,18c.474,1.326.835,2.711,1.392,4,.507,1.173,1.327,2.114,1.578,3.362.66,3.286-.427,7.509-.47,10.871-.054,4.271.243,8.417-.617,12.635-.318,1.562-1.53,2.95-1.775,4.478-.274,1.711.7,3.272,1,4.953.3,1.659-.242,3.775-1.781,4.17a3.357,3.357,0,0,1-2.946-1.171,4.687,4.687,0,0,1-4.692,2.8,7.628,7.628,0,0,1-4.954-2.795,5.085,5.085,0,0,1-4.177,2.869,5,5,0,0,1-4.43-2.4,7.592,7.592,0,0,1-9.937,1,7.518,7.518,0,0,1-7.615,1.336,3.2,3.2,0,0,0-1.732-.409,4.6,4.6,0,0,0-1.454.853,3.272,3.272,0,0,1-3.649-.127,3.8,3.8,0,0,1-1.4-3.6c.142-.844.56-1.606.774-2.433.651-2.506-.6-4.874-.866-7.32-.256-2.331.2-4.645.026-7.043-.263-3.579-.359-7.17-.385-10.76-.018-2.5-.466-5.708.25-8.109.622-2.089,1.7-4.027,2.317-6.169.508-1.778.873-3.638,1.479-5.378a96.149,96.149,0,0,0,3.159-13.458c.535-2.767.723-5.938,3.117-7.312a23.673,23.673,0,0,1,7.935-2.517,68.047,68.047,0,0,1,11.912-.961,26.161,26.161,0,0,1,7.715,1.736c1.881.618,3.527,1.042,4.826,2.707C467.477,186.4,467.059,188.734,467.329,190.911Z" transform="translate(-11.39 -35.936)" fill="#9a8c7c"/>
      <path id="패스_22568" data-name="패스 22568" d="M459.436,168.644a18.444,18.444,0,0,1,0,7.061c3.087,2.55,8.716,1.962,11.985.392-.363-2.942-1.09-5.687-1.09-8.63" transform="translate(-26.933 -30.43)" fill="#edc6b7"/>
      <g id="그룹_3618" data-name="그룹 3618" transform="translate(447.709 116.729)">
        <path id="패스_22569" data-name="패스 22569" d="M486.119,140.176a8.246,8.246,0,1,0,8.246-8.345A8.3,8.3,0,0,0,486.119,140.176Z" transform="translate(-486.119 -131.831)" fill="#edc6b7"/>
        <line id="선_393" data-name="선 393" x1="3.665" transform="translate(8.857 8.344)" fill="none" stroke="#c28f86" stroke-linecap="round" stroke-linejoin="round" stroke-width="3"/>
      </g>
      <path id="패스_22570" data-name="패스 22570" d="M474.131,123.221c0,11.606-9.093,21.015-20.31,21.015s-20.311-9.409-20.311-21.015,9.094-21.014,20.311-21.014S474.131,111.615,474.131,123.221Z" transform="translate(-15.781 -2.36)" fill="#ffe2d6"/>
      <g id="그룹_3619" data-name="그룹 3619" transform="translate(429.469 120.529)">
        <path id="패스_22571" data-name="패스 22571" d="M456.554,140.289c0,.988-.547,1.789-1.222,1.789s-1.221-.8-1.221-1.789.548-1.79,1.221-1.79S456.554,139.3,456.554,140.289Z" transform="translate(-454.111 -138.499)" fill="#70544f"/>
        <path id="패스_22572" data-name="패스 22572" d="M480.767,140.289c0,.988-.547,1.789-1.222,1.789s-1.221-.8-1.221-1.789.546-1.79,1.221-1.79S480.767,139.3,480.767,140.289Z" transform="translate(-464.526 -138.499)" fill="#70544f"/>
      </g>
      <path id="패스_22573" data-name="패스 22573" d="M477.54,131.49c1.332-1.348,3.511-.613,4.964.49" transform="translate(-34.72 -14.642)" fill="none" stroke="#413939" stroke-miterlimit="10" stroke-width="0.5"/>
      <path id="패스_22574" data-name="패스 22574" d="M456.009,131.49c-1.332-1.348-3.511-.613-4.964.49" transform="translate(-23.324 -14.642)" fill="none" stroke="#413939" stroke-miterlimit="10" stroke-width="0.5"/>
      <path id="패스_22575" data-name="패스 22575" d="M467.939,139.839a1.608,1.608,0,0,0-1.223,1.2,1.629,1.629,0,0,0,.58,1.617" transform="translate(-30.048 -18.547)" fill="none" stroke="#c28f86" stroke-linecap="round" stroke-linejoin="round" stroke-width="0.5"/>
      <path id="패스_22576" data-name="패스 22576" d="M474.108,112.515a16.851,16.851,0,0,0-1.806-5.385c-2.787-5.21-7.065-7.42-12.418-9.268a28.263,28.263,0,0,0-7.709-1.1,24.518,24.518,0,0,0-10.962,1.724c-6.042,2.6-12.5,8.084-12.278,15.318.039,1.3.41,2.767,1.555,3.348a2.213,2.213,0,0,0,.908.233,1.968,1.968,0,0,0,1.312.228,5.215,5.215,0,0,0,1.943-.94l10.593-7.07a2.281,2.281,0,0,0,.15,2.707,3.956,3.956,0,0,0,3.276.923c3.955-.251,7.72-1.863,11.408-3.456-.864.341-.894,1.82-.235,2.523a3.294,3.294,0,0,0,2.582.786,9.465,9.465,0,0,0,5.361-1.624c-2.083,1.506,6.211,9.792,6.479,4.044A15.227,15.227,0,0,0,474.108,112.515Z" transform="translate(-13.811)" fill="#7a644d"/>
      <path id="패스_22577" data-name="패스 22577" d="M424.67,186.485c-1.186-.8-3.024.252-4.19.693-7.2,2.721-13.122,8.63-16.945,15.682s-5.657,15.187-6.183,23.315a20.82,20.82,0,0,0,.725,8.273c.924,2.612,2.977,4.928,5.565,5.336a8.665,8.665,0,0,0,5.714-1.575c7.581-4.645,12-14.549,10.591-23.757" transform="translate(-0.187 -38.485)" fill="#9a8c7c"/>
      <path id="패스_22578" data-name="패스 22578" d="M462.344,151.92a10.751,10.751,0,0,0,8.517.21" transform="translate(-28.184 -23.743)" fill="none" stroke="#c28f86" stroke-linecap="round" stroke-linejoin="round" stroke-width="0.5"/>
      <path id="패스_22579" data-name="패스 22579" d="M482.25,149.688a3,3,0,0,1,1.091,2.686" transform="translate(-36.746 -22.783)" fill="none" stroke="#c28f86" stroke-linecap="round" stroke-linejoin="round" stroke-width="0.5"/>
      <path id="패스_22580" data-name="패스 22580" d="M446.283,137.7c-.574,1.9.829,3.975,2.658,4.754a5.718,5.718,0,0,0,7.9-6.082,24.026,24.026,0,0,1,3.836-.132,7.858,7.858,0,0,0,.378,2.992,5.274,5.274,0,0,0,6.367,2.888,6.357,6.357,0,0,0,4.17-5.894l8.34-3.545" transform="translate(-21.219 -15.466)" fill="none" stroke="#413939" stroke-miterlimit="10" stroke-width="0.5"/>
      <path id="패스_22581" data-name="패스 22581" d="M510.044,217.251a4.316,4.316,0,0,1-3.642-.737,3.765,3.765,0,0,1-1.549-2.833,2.542,2.542,0,0,1,1.722-2.547,1.864,1.864,0,0,1,2.2,1.788,4.35,4.35,0,0,1,2.84-3.3,3.988,3.988,0,0,1,4.063,1.118,3.59,3.59,0,0,1,1.032-3.463,3.067,3.067,0,0,1,3.379-.447c-.309-1.212-.572-2.66.209-3.6.9-1.087,2.725-.654,3.532.516.974,1.412.646,3.085.757,4.7.14,2.045.683,4.039.814,6.089.172,2.685-.43,5.7-2.5,7.236-1.629,1.206-3.76,1.213-5.743,1.174l-4.42-.086" transform="translate(-46.468 -45.546)" fill="#d1b38f"/>
      <g id="그룹_3620" data-name="그룹 3620" transform="translate(408.78 171.422)">
        <path id="패스_22582" data-name="패스 22582" d="M468.937,234.448v-4.715c-.381-1.131-1.673-1.525-2.79-1.683a25.424,25.424,0,0,0-15.093,2.561,8.532,8.532,0,0,1-3.8,1.347c-1.463-.016-2.768-.912-4.078-1.608-4.15-2.2-8.941-2.54-13.577-2.469a26.74,26.74,0,0,0-9.74,1.555c-.225.092-.478.222-.536.472a.874.874,0,0,0,.145.584l.951,1.821,27.614,10.16Z" transform="translate(-418.455 -227.806)" fill="#fff"/>
        <path id="패스_22583" data-name="패스 22583" d="M469.78,230.7c-6.736-.663-14.134,3.234-20.61,5.322a5.452,5.452,0,0,1-5.131-.3,50.278,50.278,0,0,0-26.232-3.408l5.062,20.869a1.235,1.235,0,0,0,.306.657,1.084,1.084,0,0,0,.8.167,70.9,70.9,0,0,1,19.5,1.658,7.2,7.2,0,0,0,2.727.279,8.866,8.866,0,0,0,2.456-1.012c5.658-2.835,12.233-2.235,18.453-1.575C467.779,247.638,469.11,236.43,469.78,230.7Z" transform="translate(-417.807 -229.02)" fill="#779b6f"/>
        <path id="패스_22584" data-name="패스 22584" d="M467.259,246.668q.245,6.285.2,12.579" transform="translate(-439.078 -235.919)" fill="none" stroke="#5d7c56" stroke-miterlimit="10" stroke-width="0.5"/>
      </g>
      <g id="그룹_3621" data-name="그룹 3621" transform="translate(400.206 184.912)">
        <path id="패스_22585" data-name="패스 22585" d="M441.721,255.389q1.434-.673,2.9-1.277a6.539,6.539,0,0,1,2.378-.627,2.365,2.365,0,0,1,2.106,1.051c.657,1.168-.756,2.255-.39,3.115.332.779,2.3.433,3.055.513a8.806,8.806,0,0,1,5.977,2.7,2.545,2.545,0,0,1,.729,1.932,1.229,1.229,0,0,1-1.542,1.029,5.845,5.845,0,0,1,1.621,1.734,1.966,1.966,0,0,1-.166,2.224c-.711.74-1.93.546-2.93.3.8.368.611,1.665-.127,2.138a3.8,3.8,0,0,1-2.567.259,1.777,1.777,0,0,1-.181,2.445,3.362,3.362,0,0,1-2.568.752c-.918-.062-1.806-.333-2.714-.479-2.525-.4-5.084.153-7.614-.15a10.957,10.957,0,0,1-3.272-.92c-1.013-.479-2.319-.788-3.253-1.36a6.3,6.3,0,0,1-2.09-2.144c-1.154-1.991-.161-5.665,1.165-7.293a12.614,12.614,0,0,1,3.361-2.659A65.713,65.713,0,0,1,441.721,255.389Z" transform="translate(-414.72 -252.341)" fill="#ffe2d6"/>
        <path id="패스_22586" data-name="패스 22586" d="M430.2,257.891c-2.877.765-5.918.083-8.726-.937a38.634,38.634,0,0,1-7.465-3.675c-1.3-.825-2.645-1.759-4.156-1.8a5.584,5.584,0,0,0-4.041,2.012c-2.277,2.429-3.142,6.089-3.041,9.451a6.947,6.947,0,0,0,.421,2.453,5.908,5.908,0,0,0,3.525,3.287c11.567,3.869,13.737,4.137,27.463.549" transform="translate(-402.762 -251.477)" fill="#ffe2d6"/>
        <path id="패스_22587" data-name="패스 22587" d="M472.116,270.653a11.973,11.973,0,0,0-4.375-1.142" transform="translate(-430.711 -259.234)" fill="none" stroke="#c28f86" stroke-linecap="round" stroke-linejoin="round" stroke-width="0.5"/>
        <path id="패스_22588" data-name="패스 22588" d="M470.743,276.792a24.7,24.7,0,0,1-2.589-.32" transform="translate(-430.889 -262.228)" fill="none" stroke="#c28f86" stroke-linecap="round" stroke-linejoin="round" stroke-width="0.5"/>
        <path id="패스_22589" data-name="패스 22589" d="M465.7,282.193l-1.914-.748" transform="translate(-429.009 -264.367)" fill="none" stroke="#c28f86" stroke-linecap="round" stroke-linejoin="round" stroke-width="0.5"/>
      </g>
      <path id="패스_22590" data-name="패스 22590" d="M398.317,250.125c-.267,2.815-1.25,5.516-1.459,8.337a11.457,11.457,0,0,0,2.2,8.026c.921,1.129,1.98,2.486,3.45,2.7a3.345,3.345,0,0,1,1.24.261,4.091,4.091,0,0,1,1,1.184c1.126,1.469,3.245,1.579,4.924.956a3.379,3.379,0,0,0,1.83-1.361,1.782,1.782,0,0,0-.244-2.2,2.109,2.109,0,0,0,2.425-.992,3.828,3.828,0,0,0,.332-2.879c-.554-2.261.339-1.822.874-3.9.08-.312,0-3.7-.691-3.357a3,3,0,0,0,1.478-3.146,2.813,2.813,0,0,0-2.51-2.282,3.487,3.487,0,0,1-1.548-.141,2.87,2.87,0,0,1-.9-1.087,5.456,5.456,0,0,0-5.19-2.518" transform="translate(0 -64.936)" fill="#d1b38f"/>
      <path id="패스_22591" data-name="패스 22591" d="M455.2,187.776a14.916,14.916,0,0,0,17.044-.174" transform="translate(-25.112 -39.091)" fill="none" stroke="#af9374" stroke-miterlimit="10" stroke-width="0.5"/>
      <path id="패스_22592" data-name="패스 22592" d="M405.078,244.84a2.485,2.485,0,0,1,3.29-.565,7.876,7.876,0,0,1,2.495,2.783,9.689,9.689,0,0,0-5.657,1.682" transform="translate(-3.552 -63.308)" fill="none" stroke="#af9374" stroke-miterlimit="10" stroke-width="0.5"/>
      <path id="패스_22593" data-name="패스 22593" d="M410.828,231.393l3.522,6.5" transform="translate(-6.025 -57.926)" fill="none" stroke="#af9374" stroke-miterlimit="10" stroke-width="0.5"/>
      <path id="패스_22594" data-name="패스 22594" d="M424.11,204.132l3.859,8.33" transform="translate(-11.738 -46.201)" fill="none" stroke="#af9374" stroke-miterlimit="10" stroke-width="0.5"/>
      <path id="패스_22595" data-name="패스 22595" d="M509.947,236.023a2.067,2.067,0,0,1,.86.515,2.768,2.768,0,0,1,.365,1.8c.006.629.16,1.376.711,1.6" transform="translate(-48.659 -59.918)" fill="none" stroke="#af9374" stroke-miterlimit="10" stroke-width="0.5"/>
      <path id="패스_22596" data-name="패스 22596" d="M501.643,205.172a28.972,28.972,0,0,0-1.076,8.1" transform="translate(-44.624 -46.648)" fill="none" stroke="#af9374" stroke-miterlimit="10" stroke-width="0.5"/>
    </g>
  </g>
</svg>
