<svg xmlns="http://www.w3.org/2000/svg" width="10.032" height="10.016" viewBox="0 0 10.032 10.016">
    <defs>
        <style>
            .cls-1{fill:#999}
        </style>
    </defs>
    <g id="m_btn_delete_nor" transform="translate(30.016 -227.887)">
        <g id="m_ico_delete" transform="translate(90 4.887)">
            <path id="패스_90" d="M.52 0A.472.472 0 0 1 1 .469L.962 12.693a.479.479 0 0 1-.483.472A.472.472 0 0 1 0 12.7L.038.472A.479.479 0 0 1 .52 0z" class="cls-1" transform="rotate(45 -324.53 -22.116)"/>
            <path id="패스_91" d="M.48 0a.479.479 0 0 1 .482.472L1 12.7a.472.472 0 0 1-.48.469.479.479 0 0 1-.483-.472L0 .469A.472.472 0 0 1 .48 0z" class="cls-1" transform="rotate(135 -103.113 93.373)"/>
        </g>
    </g>
</svg>
