<?xml version="1.0" encoding="utf-8"?>
<!-- Generator: Adobe Illustrator 21.0.2, SVG Export Plug-In . SVG Version: 6.00 Build 0)  -->
<svg version="1.1" id="Layer_1" xmlns="http://www.w3.org/2000/svg" xmlns:xlink="http://www.w3.org/1999/xlink" x="0px" y="0px"
	 viewBox="0 0 22 22" style="enable-background:new 0 0 22 22;" xml:space="preserve">
<style type="text/css">
	.st0{fill:#002F5F;}
</style>
<g>
	<g>
		<g>
			<path class="st0" d="M11,1c5.5,0,10,4.5,10,10s-4.5,10-10,10S1,16.5,1,11S5.5,1,11,1 M11,0C4.9,0,0,4.9,0,11s4.9,11,11,11
				s11-4.9,11-11S17.1,0,11,0L11,0z"/>
		</g>
	</g>
	<g>
		<path class="st0" d="M6.1,10.3c0.4,0,0.6-0.3,0.6-0.6c0-0.4,0.2-1,0.5-1.2c0.3-0.3,0.7-0.4,1.1-0.4l0,0h6l-1.4,1.2
			c-0.2,0.2-0.2,0.6,0,0.8c0.1,0.1,0.3,0.2,0.5,0.2s0.3-0.1,0.5-0.2l2.5-2.2c0.2-0.2,0.2-0.6,0-0.8l-2.5-2.2c-0.3-0.2-0.7-0.2-0.9,0
			s-0.2,0.6,0,0.8l1.4,1.2h-6c-2.1,0-2.8,1.4-2.8,2.8C5.5,10,5.8,10.3,6.1,10.3z"/>
		<path class="st0" d="M15.9,11.7c-0.4,0-0.6,0.3-0.6,0.6c0,0.4-0.2,1-0.5,1.2c-0.3,0.3-0.7,0.4-1.1,0.4l0,0h-6l1.4-1.2
			c0.2-0.2,0.2-0.6,0-0.8c-0.1-0.1-0.3-0.2-0.5-0.2s-0.3,0.1-0.5,0.2l-2.5,2.2c-0.2,0.2-0.2,0.6,0,0.8l2.5,2.2
			c0.3,0.2,0.7,0.2,0.9,0s0.2-0.6,0-0.8l-1.4-1.2h6c2.1,0,2.8-1.4,2.8-2.8C16.5,12,16.2,11.7,15.9,11.7z"/>
	</g>
</g>
</svg>
