<svg width="201" height="33" viewBox="0 0 201 33" fill="none" xmlns="http://www.w3.org/2000/svg">
    <path d="M200.018 0H77.51v32.827h122.508V0z" fill="#211815"/>
    <path d="M103.9 3.629h-2.16v11.257h2.16V3.63zM111.782 15.084a4.863 4.863 0 0 1-3.87-1.525 6.234 6.234 0 0 1-1.333-4.209 7.466 7.466 0 0 1 .617-3.123 4.573 4.573 0 0 1 1.753-2.049 5.079 5.079 0 0 1 2.746-.722 6.173 6.173 0 0 1 1.574.198c.458.113.908.26 1.345.438.266.105.402.166.476.203l-.198 1c-.105-.055-.253-.117-.438-.197-.379-.156-.766-.29-1.16-.401a4.558 4.558 0 0 0-1.296-.204 2.892 2.892 0 0 0-1.698.47c-.492.386-.84.927-.987 1.536a9.51 9.51 0 0 0-.321 2.759c0 1.69.253 2.925.753 3.653a2.686 2.686 0 0 0 2.376 1.13 3.18 3.18 0 0 0 1.574-.383c.404-.216.77-.495 1.086-.827a6.07 6.07 0 0 0 .309-.352l.617.648c-.126.179-.262.35-.407.512-.379.41-.832.745-1.334.988a4.65 4.65 0 0 1-2.184.457zM132.876 15.084a4.671 4.671 0 0 1-3.752-1.543 7.538 7.538 0 0 1 0-8.542 4.667 4.667 0 0 1 3.752-1.543 4.728 4.728 0 0 1 3.79 1.555 7.448 7.448 0 0 1 0 8.524 4.763 4.763 0 0 1-3.79 1.549zm0-10.647a2.164 2.164 0 0 0-2.055 1.198 8.168 8.168 0 0 0-.617 3.641 8.282 8.282 0 0 0 .617 3.648 2.172 2.172 0 0 0 2.068 1.19 2.201 2.201 0 0 0 2.092-1.19c.823-2.36.823-4.93 0-7.29a2.197 2.197 0 0 0-2.105-1.197zM153.292 3.629h-2.16v11.257h2.16V3.63zM161.044 15.084a4.687 4.687 0 0 1-3.752-1.543 7.561 7.561 0 0 1 0-8.542 5.363 5.363 0 0 1 7.542 0 7.456 7.456 0 0 1 0 8.523 4.77 4.77 0 0 1-3.79 1.562zm0-10.647a2.172 2.172 0 0 0-2.055 1.198 8.168 8.168 0 0 0-.617 3.641 8.371 8.371 0 0 0 .617 3.648 2.411 2.411 0 0 0 3.278.87c.365-.208.669-.508.882-.87.827-2.36.827-4.93 0-7.29a2.217 2.217 0 0 0-2.105-1.197zM86.175 14.886l.118-10.257 1.166 3.197-.05 7.06h-1.234zM96.248 14.886l-.124-9.412-3.518 9.412h-1.623L86.842 3.63h2.197l3.505 8.949 3.179-8.949h2.512l.117 11.257h-2.105zM178.905 14.886l-.123-9.523-3.518 9.523h-1.623l-3.216-8.739-.932-2.518h2.203l3.506 8.93 3.178-8.93h2.512l.118 11.257h-2.105zM168.839 14.886l.111-10.245 1.167 3.21-.044 7.035h-1.234zM184.404 7.795V3.629h6.635v.987h-4.481v3.179h-2.154zM184.404 14.886V8.714h6.104v.95h-3.95V13.9h4.727v.987h-6.881zM147.905 10.122a3.292 3.292 0 0 0-1.55-.97l-.333-.11.309-.16c.46-.24.865-.573 1.191-.976.309-.407.47-.908.457-1.42 0-.498-.146-.985-.42-1.4a2.974 2.974 0 0 0-1.302-1.05 5.316 5.316 0 0 0-2.222-.407h-.407v.864h.339a1.853 1.853 0 0 1 1.382.525 2.212 2.212 0 0 1 .519 1.61 2.466 2.466 0 0 1-.432 1.617 1.29 1.29 0 0 1-1.006.519h-1.605V3.629h-2.16V14.88h3.462c1.154.078 2.3-.23 3.259-.877a2.754 2.754 0 0 0 1.086-2.302 2.333 2.333 0 0 0-.567-1.58zm-2.216 3.301a2.173 2.173 0 0 1-1.617.618h-1.234V9.554h1.728c.783 0 1.728.364 1.728 2.086.038.65-.179 1.29-.605 1.783zM123.273 10.282l.13-.068a3.747 3.747 0 0 0 1.389-1.234 3.333 3.333 0 0 0 .524-1.852 3.214 3.214 0 0 0-1.049-2.561 4.4 4.4 0 0 0-2.962-.92h-.463v.865h.314a1.623 1.623 0 0 1 1.383.66c.334.633.481 1.348.426 2.061a5.47 5.47 0 0 1-.167 1.518 1.418 1.418 0 0 1-.617.84c-.338.177-.718.26-1.099.24h-1.055V3.66h-2.16v11.22h2.16v-4.19h1.179l2.166 4.19h2.469l-2.568-4.598zM89.508 29.371a5.254 5.254 0 0 1-1.9-.296 3.777 3.777 0 0 1-1.118-.617c-.185-.173-.272-.266-.315-.309l.525-.802c.055.055.136.117.234.203a3.778 3.778 0 0 0 2.413.828 1.938 1.938 0 0 0 1.395-.488 1.685 1.685 0 0 0 .513-1.278c.006-.32-.091-.634-.278-.894-.18-.244-.401-.453-.654-.618-.241-.16-.617-.364-1.025-.617a9.831 9.831 0 0 1-1.395-.845 3.45 3.45 0 0 1-.9-1.019 2.975 2.975 0 0 1-.371-1.543 3.315 3.315 0 0 1 .457-1.752 3.086 3.086 0 0 1 1.271-1.148 4.271 4.271 0 0 1 1.852-.401c.44-.004.878.054 1.302.172.357.097.704.227 1.037.39l.339.178-.216.913-.272-.141c-.289-.15-.59-.276-.9-.377a3.58 3.58 0 0 0-1.13-.185c-.434-.02-.86.131-1.185.42a1.531 1.531 0 0 0-.457 1.166 1.697 1.697 0 0 0 .525 1.296c.46.393.965.729 1.506 1 .487.256.957.542 1.407.858.357.275.655.62.876 1.012.256.49.38 1.04.358 1.592a3.085 3.085 0 0 1-.512 1.778A3.37 3.37 0 0 1 91.483 29a4.862 4.862 0 0 1-1.975.37zM100.42 29.371a4.69 4.69 0 0 1-3.753-1.537 7.536 7.536 0 0 1 0-8.541 4.66 4.66 0 0 1 3.753-1.55 4.749 4.749 0 0 1 3.789 1.556 7.448 7.448 0 0 1 0 8.523 4.743 4.743 0 0 1-3.789 1.55zm0-10.64a2.16 2.16 0 0 0-2.056 1.197 8.154 8.154 0 0 0-.617 3.642 8.265 8.265 0 0 0 .617 3.647 2.167 2.167 0 0 0 2.068 1.185 2.206 2.206 0 0 0 2.092-1.185c.482-1.152.693-2.4.617-3.647a8.027 8.027 0 0 0-.617-3.642 2.186 2.186 0 0 0-2.104-1.197zM121.014 29.371a4.007 4.007 0 0 1-3.085-1.105 4.462 4.462 0 0 1-1.037-3.135v-7.208h2.178v6.659a5.564 5.564 0 0 0 .543 2.833 1.954 1.954 0 0 0 1.772.9 2.103 2.103 0 0 0 1.851-.937 5.26 5.26 0 0 0 .617-2.796v-6.66h1.235v7.21a4.688 4.688 0 0 1-.963 3.147c-.617.728-1.666 1.092-3.111 1.092zM140.029 17.923h-2.16V29.18h2.16V17.923zM147.781 29.371a4.694 4.694 0 0 1-3.752-1.537 7.562 7.562 0 0 1 0-8.541 4.66 4.66 0 0 1 3.752-1.55 4.735 4.735 0 0 1 3.79 1.556 6.397 6.397 0 0 1 1.345 4.27 6.3 6.3 0 0 1-1.345 4.253 4.741 4.741 0 0 1-3.79 1.55zm0-10.64a2.165 2.165 0 0 0-2.055 1.197 8.167 8.167 0 0 0-.617 3.642 8.253 8.253 0 0 0 .617 3.647 2.154 2.154 0 0 0 2.061 1.185 2.206 2.206 0 0 0 2.099-1.185c.479-1.153.69-2.4.617-3.647a8.027 8.027 0 0 0-.617-3.642 2.2 2.2 0 0 0-2.105-1.197zM110.368 17.923h-2.16V29.18h2.16V17.923z" fill="#fff"/>
    <path d="M114.843 28.192h-5.555v.988h5.555v-.988zM155.57 19.416v9.764h1.234v-7.684l-1.234-2.08zM162.877 17.923v8.06l-4.993-8.06h-2.314v.006l6.85 11.25h1.691V17.924h-1.234zM132.512 19.805h-2.178v9.375h2.178v-9.375zM135.598 17.923h-8.375v.987h8.375v-.987z" fill="#fff"/>
    <path d="M37.727 26.242a1.234 1.234 0 0 0-.82.55c.105-.464.21-.939.333-1.433v-.117h-.117c-.157.05-.318.084-.482.099v.111h.136c.123 0 .148 0 .117.173-.117.58-.24 1.117-.345 1.635-.074.377 0 .525.068.618a.346.346 0 0 0 .265.104c.209-.014.41-.087.58-.21a1.426 1.426 0 0 0 .617-1.129c0-.179-.055-.432-.284-.432l-.068.031zm-.641 1.561c-.16 0-.278-.123-.216-.493.022-.168.085-.327.185-.463.228-.29.413-.395.524-.395.111 0 .148.111.148.253 0 .426-.271 1.098-.617 1.098M39.53 26.242a.259.259 0 0 0-.186.111.105.105 0 0 0 0 .124.5.5 0 0 1 .056.19 2.71 2.71 0 0 1-.525 1.05c0-.24 0-.574-.055-.901-.056-.327-.068-.574-.216-.574s-.364.204-.488.389l.062.099c.093-.118.191-.198.235-.198.043 0 .074.08.098.321.037.352.087.907.087 1.203a3.604 3.604 0 0 1-.864.784l.037.087.413-.105c.52-.593.982-1.236 1.376-1.92a.937.937 0 0 0 .136-.444c0-.13-.055-.216-.148-.216M46.646 25.736h-.735a.056.056 0 0 0-.055.03v.044a.062.062 0 0 0 0 .05c.049.043.142.049.228.092a.21.21 0 0 1 .154.21v1.098a.358.358 0 0 1 0 .093l-.086-.08-1.327-1.457c-.031 0-.031-.043-.043-.061H44.152a.08.08 0 0 0-.055 0 .1.1 0 0 0 0 .049.08.08 0 0 0 .067.086c.07.014.135.044.192.087a.55.55 0 0 1 .11.407v1.234a.265.265 0 0 1-.147.266c-.037 0-.08.037-.111.055a.111.111 0 0 0-.062.093.061.061 0 0 0 0 .05h.858s.055 0 .055-.056a.08.08 0 0 0 0-.056.216.216 0 0 0-.104-.037.327.327 0 0 1-.192-.093.543.543 0 0 1-.105-.376V26.31l.05.037 1.592 1.716a.104.104 0 0 0 .099.055.05.05 0 0 0 .05-.037.284.284 0 0 0 0-.08v-1.852c0-.166.067-.228.129-.259l.098-.043a.075.075 0 0 0 .056-.068v-.037a.1.1 0 0 0-.068 0M52.78 25.835v-.056a.068.068 0 0 0-.062-.037h-2.024a.068.068 0 0 0-.062.037v.056l-.049.438v.062a.068.068 0 0 0 0 .049.08.08 0 0 0 .056 0c.049 0 .074-.037.092-.08.023-.078.052-.155.087-.229a.26.26 0 0 1 .24-.123H51.46c.013 0 .031.05.031.13v1.53c0 .192-.086.235-.172.266h-.18a.074.074 0 0 0 0 .049.088.088 0 0 0 .044.08h1.074a.197.197 0 0 0 .086 0 .074.074 0 0 0 .037-.074.05.05 0 0 0 0-.043h-.105a.573.573 0 0 1-.191-.08.296.296 0 0 1-.099-.247v-1.624c0-.012.056 0 .123 0h.303a.24.24 0 0 1 .26.161c0 .043 0 .093.042.123a.087.087 0 0 0 .08.068.067.067 0 0 0 .062 0 .105.105 0 0 0 0-.061.355.355 0 0 0 0-.099l-.074-.296zM57.785 27.97a.333.333 0 0 1-.166-.055.272.272 0 0 1-.087-.235v-1.574c0-.148.056-.185.112-.21h.086a.087.087 0 0 0 .05-.074.08.08 0 0 0-.044-.03h-.975a.061.061 0 0 0-.043.055.056.056 0 0 0 0 .05c.043.043.135.043.21.074a.191.191 0 0 1 .142.203v1.586c0 .148-.056.198-.112.229l-.08.037a.086.086 0 0 0-.05.074v.037a.05.05 0 0 0 .044 0h.876a.16.16 0 0 0 .087 0 .056.056 0 0 0 .037-.056.062.062 0 0 0 0-.043h-.093M62.458 27.976a.44.44 0 0 1-.173-.055.322.322 0 0 1-.087-.235v-1.574c0-.154.056-.19.117-.21h.087a.068.068 0 0 0 .05-.068l-.05-.03h-.883a.124.124 0 0 0-.061 0 .056.056 0 0 0-.037.055.073.073 0 0 0 0 .05.898.898 0 0 0 .21.074.192.192 0 0 1 .135.197v1.587c0 .154-.05.197-.105.228l-.086.043a.08.08 0 0 0-.043.074v.037a.049.049 0 0 0 .043 0h.87c.03.008.062.008.093 0a.069.069 0 0 0 .037-.055.049.049 0 0 0 0-.044.204.204 0 0 0-.093 0M65.47 26.131l-.038-.302a.235.235 0 0 0 0-.056.067.067 0 0 0-.061-.037h-2.025a.074.074 0 0 0-.062.037.213.213 0 0 0 0 .062l-.055.432v.061a.068.068 0 0 0 0 .05.062.062 0 0 0 .055 0 .099.099 0 0 0 .093-.08c0-.062.043-.148.086-.223a.26.26 0 0 1 .247-.13h.395c.013 0 0 .056 0 .13v1.531c0 .191-.086.24-.173.265h-.178a.05.05 0 0 0 0 .05.074.074 0 0 0 .037.08.168.168 0 0 0 .08 0h1.068a.086.086 0 0 0 .043-.08v-.043c0-.044-.148 0-.235-.075a.271.271 0 0 1-.16-.283v-1.624c0-.012.055 0 .123 0h.303a.241.241 0 0 1 .259.167c0 .043 0 .087.043.117.043.031.043.068.086.068a.056.056 0 0 0 .056 0 .105.105 0 0 0 0-.062v-.098M49.99 25.736H49.238a.05.05 0 0 0 0 .043v.05c.073.037.15.066.229.086a.265.265 0 0 1 .154.265v.89a.876.876 0 0 1-.222.672.66.66 0 0 1-.457.154h-.043a.618.618 0 0 1-.586-.265 1.29 1.29 0 0 1-.117-.617v-.723c0-.265.068-.345.13-.382h.129a.05.05 0 0 0 0-.043v-.044a.05.05 0 0 0-.043 0H47.435a.056.056 0 0 0-.037.056.092.092 0 0 0 .068.08c.061.014.121.033.18.056a.16.16 0 0 1 .098.166v1.043a.871.871 0 0 0 .321.716c.231.161.509.242.79.229a.875.875 0 0 0 1.012-.945V26.18c0-.185.056-.234.105-.259h.08v-.043a.073.073 0 0 0 0-.05h-.055M56.107 28.075h-.068a1.71 1.71 0 0 1-.5-.469l-.26-.315-.147-.16a.697.697 0 0 0 .617-.71v-.05a.735.735 0 0 0-.13-.363.81.81 0 0 0-.679-.266h-1.346a.112.112 0 0 0-.06 0 .08.08 0 0 0 0 .056.075.075 0 0 0 0 .049c.042.037.129.037.203.068a.235.235 0 0 1 .136.247v1.45c0 .204-.062.272-.124.309l-.092.037s-.056 0-.056.068a.068.068 0 0 0 .037.061c.02.006.042.006.062 0H54.607a.069.069 0 0 0 .037-.055.086.086 0 0 0-.062-.074.964.964 0 0 1-.172-.062.216.216 0 0 1-.1-.21V26.12c0-.1 0-.136.056-.155a.26.26 0 0 1 .148 0h.08c.169-.009.337.016.494.074a.458.458 0 0 1 .266.445.494.494 0 0 1-.319.44.555.555 0 0 1-.243.041h-.198a.062.062 0 0 0-.036.031v.037a.055.055 0 0 0 0 .05l.068.043a.615.615 0 0 1 .19.179c.093.11.217.271.377.5a.84.84 0 0 0 .68.413h.258a.074.074 0 0 0 .05-.056.094.094 0 0 0 0-.049.112.112 0 0 0-.062 0M60.976 27.477c-.043 0-.068 0-.092.061-.025.062-.198.315-.809.358h-.21a.535.535 0 0 1-.166 0c-.056 0-.074-.043-.08-.086a1.473 1.473 0 0 1 0-.204v-1.543a.166.166 0 0 1 .03-.117.203.203 0 0 1 .117-.05h.056a.08.08 0 0 0 0-.067.044.044 0 0 0 .008-.025.044.044 0 0 0-.008-.025.125.125 0 0 0-.074 0 3.328 3.328 0 0 1-.376 0h-.445a.204.204 0 0 0-.092 0 .069.069 0 0 0-.037.056.049.049 0 0 0 0 .043c.049.043.135.043.21.074a.185.185 0 0 1 .141.185V27.7c0 .197-.061.24-.11.265h-.093a.087.087 0 0 0-.05.08.062.062 0 0 0 0 .043h1.617a.524.524 0 0 0 .47-.543.205.205 0 0 0 0-.074l-.007.007zM68.29 27.47a.068.068 0 0 0-.05 0c-.055.087-.119.168-.191.24-.192.13-.423.192-.654.174a.796.796 0 0 1-.482-.087c-.067-.043-.074-.117-.074-.222v-.494a.222.222 0 0 1 0-.117.154.154 0 0 1 .105 0h.531a.235.235 0 0 1 .253.167c0 .043 0 .086.037.117a.12.12 0 0 0 0 .05.055.055 0 0 0 .043 0 .087.087 0 0 0 .068-.038.155.155 0 0 0 0-.074.194.194 0 0 0 0-.068v-.586a.21.21 0 0 0 0-.086h-.086c-.037 0-.087.284-.321.284h-.605a.235.235 0 0 1 0-.124v-.463a.62.62 0 0 1 0-.123.073.073 0 0 1 .017-.026.072.072 0 0 1 .026-.017 2.13 2.13 0 0 1 .648-.037c.315 0 .395.092.426.179a.567.567 0 0 1 .031.13v.049a.068.068 0 0 0 .055 0 .074.074 0 0 0 .068-.037.154.154 0 0 0 0-.075v-.388a.08.08 0 0 0-.08-.08h-1.938a.11.11 0 0 0-.068 0 .055.055 0 0 0 0 .049.087.087 0 0 0 .068.086c.067.016.133.037.198.062a.173.173 0 0 1 .105.179v1.543c0 .197-.056.24-.111.265h-.087a.068.068 0 0 0-.05.08.056.056 0 0 0 0 .044H67.889a.537.537 0 0 0 .488-.55.205.205 0 0 0 0-.074l-.086.068zM43.337 25.76h-2.345v2.346h2.352V25.76h-.007zm-.296.618a.673.673 0 0 1-.253.37.617.617 0 0 1-.42.056c-.098.08-.19.166-.277.247a.298.298 0 0 1 .086 0 .655.655 0 0 1 .426-.093c.151.044.283.14.37.272a.544.544 0 0 1-.79-.142.296.296 0 0 0-.135.049c-.1.096-.205.187-.315.271H41.838a.617.617 0 0 1 .37-.074c.15.043.283.134.377.26a.654.654 0 0 1-.445.11.617.617 0 0 1-.345-.221.367.367 0 0 0-.087 0 .618.618 0 0 1-.308.123.531.531 0 0 0 .234-.08.173.173 0 0 0 .087-.111.568.568 0 0 1 .08-.84.568.568 0 0 1-.056.846v.055a4.5 4.5 0 0 0 .352-.302.267.267 0 0 0 .062-.117.66.66 0 0 1-.111-.401.68.68 0 0 1 .246-.383c.094.124.14.277.13.432a.617.617 0 0 1-.228.37v.068l.222-.204h.037a.48.48 0 0 1 0-.067.617.617 0 0 1 .222-.284.702.702 0 0 1 .45-.055l-.086-.155z" fill="#211815"/>
    <path d="M42.085 26.717c.002-.179.027-.357.074-.53a1.753 1.753 0 0 0-.087.518 1.13 1.13 0 0 1 0 .216c.003-.06.003-.12 0-.18M42.88 27.186a2.644 2.644 0 0 0-.419-.142 1.537 1.537 0 0 0-.26 0h-.042c.248.002.493.053.722.148M42.461 27.532a2.123 2.123 0 0 0-.691-.167c.251.01.5.06.734.148l-.043.019zM42.375 26.742l.062-.043c.174-.138.367-.25.573-.334a1.913 1.913 0 0 0-.617.346l-.018.03zM41.653 27.279v-.229a2.29 2.29 0 0 1 0-.438c-.031.144-.048.291-.05.439v.234l.05-.006zM41.69 26.606v-.068a.451.451 0 0 0 0 .068M68.407 25.798h.123v.314h.08v-.314h.124v-.068h-.327v.068zM69.104 25.73l-.098.277-.093-.277h-.111v.382h.068v-.308l.11.308h.056l.112-.308v.308h.068v-.382h-.112zM15.775 18.731c-.296.358-.537.47-.691.383-.155-.087-.173-.383 0-1.037.37-1.728.715-3.314 1.11-4.987.692-3.086.068-3.616-.802-3.616-1.34 0-3.617 1.604-5.622 4.715l.185-.821c.759-3.475.068-3.894-.778-3.894-1.407 0-3.555 1.623-5.486 4.505l.333-1.37c.487-2.296.234-3.135-.617-3.135-.932 0-2.148.987-3.308 2.425l.203.296a3.13 3.13 0 0 1 1.47-1.006c.265 0 .308.29.123 1.136C1.277 15.152.617 17.836 0 20.539l.136.142c.716-.214 1.449-.37 2.19-.469.198-.981.457-2.259.71-3.32a7.85 7.85 0 0 1 .926-2.469c1.086-1.808 2.69-3.419 3.586-3.419.617 0 .617.617.204 2.561-.457 2.062-1.074 4.63-1.642 7.011l.142.124c.723-.23 1.467-.387 2.222-.47.197-.98.493-2.258.74-3.32.16-.87.468-1.705.914-2.468 1.067-1.784 2.734-3.469 3.573-3.469.568 0 .648.47.358 1.852-.432 1.851-.827 3.518-1.234 5.425-.408 1.907-.204 2.419.543 2.512.506.061 1.16-.13 2.468-1.71l-.061-.32zM25.835 9.474a1.851 1.851 0 0 0-1.13.617.698.698 0 0 0-.191.697c.253.51.422 1.059.5 1.623 0 1.704-2.271 5.185-3.234 6.616-.08-1.851-.222-4.585-.395-6.208-.21-2.13-.506-3.284-1.377-3.345-1.135-.087-2.03.765-2.77 1.851l.228.278c.543-.716.876-.556 1.043-.401.166.154.518.672.728 2.246.303 2.376.617 6.666.574 8.023a33.162 33.162 0 0 1-4.53 3.969l.123.314 2.679-.746a87.31 87.31 0 0 0 7.752-11.294c.54-.87.85-1.861.9-2.883 0-.858-.351-1.357-.9-1.357M30.605 3.9h-.345v18.966h.345V3.901zM38.653 20.953h7.055v-1.185h-7.055V6.27h-2.166v14.683h2.166zM53.212 6.27h-2.296l-2.74 8.252-.309.92-1.832 5.51h1.543l1.339-4.01.981-2.97 1.87-5.782 2.34 7.252h-3.624l-.352 1.024h4.308l1.45 4.487h2.229L53.348 6.32l-.136-.05zM59.52 20.953h4.073c3.518 0 5.376-1.444 5.376-4.178a3.518 3.518 0 0 0-2.722-3.53 3.636 3.636 0 0 0 2.037-3.29c0-2.271-1.809-3.703-4.716-3.703h-.82v1.092h.617c1.752 0 2.802 1.013 2.802 2.704 0 2.283-1.537 2.795-2.074 2.795h-2.426V6.252h-2.166v14.682l.019.019zm2.166-7.06h2.512c1.648 0 2.629 1.049 2.629 2.814 0 2.092-1.154 3.153-3.425 3.153h-1.716v-5.967z" fill="#211815"/>
</svg>
