<svg xmlns="http://www.w3.org/2000/svg" width="44" height="16" viewBox="0 0 44 16">
    <defs>
        <clipPath id="46dd1stcba">
            <path data-name="사각형 7680" transform="translate(-.438 -.137)" style="fill:#fff" d="M0 0h44v16H0z"/>
        </clipPath>
    </defs>
    <g transform="translate(.438 .137)" style="clip-path:url(#46dd1stcba)">
        <path data-name="패스 16429" d="M88.015 9.421h-1.288a.269.269 0 0 0-.265.261v9.738a.269.269 0 0 0 .255.26h1.308a.269.269 0 0 0 .255-.264v-9.73a.27.27 0 0 0-.266-.265" transform="translate(-68.559 -7.471)" style="fill:#fff"/>
        <path data-name="패스 16430" d="M90.393 17.308a3.944 3.944 0 1 1 3.931-3.944 3.942 3.942 0 0 1-3.931 3.944m0-6.063a2.119 2.119 0 1 0 2.113 2.119 2.118 2.118 0 0 0-2.113-2.119" transform="translate(-68.559 -7.471)" style="fill:#fff"/>
        <path data-name="패스 16431" d="M156.49 30.511h1.287a.269.269 0 0 0 .265-.261v-7.3a.269.269 0 0 0-.255-.26h-1.308a.269.269 0 0 0-.255.264v7.295a.27.27 0 0 0 .266.265" transform="translate(-123.819 -17.97)" style="fill:#fff"/>
        <path data-name="패스 16432" d="M131.08 22.386a3.944 3.944 0 1 1-3.931 3.944 3.942 3.942 0 0 1 3.931-3.944m0 6.063a2.119 2.119 0 1 0-2.113-2.119 2.118 2.118 0 0 0 2.113 2.119" transform="translate(-100.788 -17.733)" style="fill:#fff"/>
        <path data-name="패스 16433" d="m31.836 19.463-.636 2.568h1.3z" transform="translate(-24.788 -15.419)" style="fill:#fff"/>
        <path data-name="패스 16434" d="M12.308 11.86a7.054 7.054 0 1 0-1.675 1.363c.065-.038.126-.081.189-.121l1.5.6-.254-1.59c.083-.083.166-.164.245-.25M6.331 2.6h1.558l2.173 6.666H8.521l-.4-1.416H6.166l-.39 1.416H4.244zm4.825 8.047-8.093.937.323-.6 7.857-.574z" transform="translate(-.07 -.015)" style="fill:#fff"/>
        <path data-name="패스 16435" d="M177.821 22.8a.261.261 0 0 0-.217-.115H176.2a.262.262 0 0 0-.246.172l-1.878 5.015a.045.045 0 0 1-.028-.025v-.005l-2.038-4.992a.262.262 0 0 0-.242-.163h-1.405a.263.263 0 0 0-.242.364l3.009 7.281a.084.084 0 0 1 0 .059l-1.149 3.067-.032.1a.263.263 0 0 0 .243.36h1.408a.262.262 0 0 0 .246-.172l.059-.157 3.945-10.552a.264.264 0 0 0-.027-.245" transform="translate(-134.811 -17.968)" style="fill:#fff"/>
    </g>
</svg>
