<?xml version="1.0" encoding="utf-8"?>
<!-- Generator: Adobe Illustrator 21.0.2, SVG Export Plug-In . SVG Version: 6.00 Build 0)  -->
<svg version="1.1" id="Layer_1" xmlns="http://www.w3.org/2000/svg" xmlns:xlink="http://www.w3.org/1999/xlink" x="0px" y="0px"
	 viewBox="0 0 22 22" style="enable-background:new 0 0 22 22;" xml:space="preserve">
<style type="text/css">
	.st0{fill:#002F5F;}
	.st1{display:none;}
</style>
<path class="st0" d="M16.3,10.3h-4.7V5.7C11.7,5.3,11.4,5,11,5s-0.7,0.3-0.7,0.7v4.7H5.7C5.3,10.3,5,10.6,5,11s0.3,0.7,0.7,0.7h4.7
	v4.7c0,0.4,0.3,0.7,0.7,0.7s0.7-0.3,0.7-0.7v-4.7h4.7c0.4,0,0.7-0.3,0.7-0.7S16.7,10.3,16.3,10.3z"/>
<g>
	<path class="st0" d="M11,1c5.5,0,10,4.5,10,10s-4.5,10-10,10S1,16.5,1,11S5.5,1,11,1 M11,0C4.9,0,0,4.9,0,11s4.9,11,11,11
		s11-4.9,11-11S17.1,0,11,0L11,0z"/>
</g>
<path class="st1" d="M16,14h-6c-0.4,0-0.5,0.4-0.5,1s0,1,0.5,1h6c0.4,0,0.5-0.4,0.5-1S16.5,14,16,14z M6.9,14H6.1
	c-0.6,0-0.6,0.4-0.6,1s0,1,0.6,1h0.8c0.6,0,0.6-0.4,0.6-1S7.5,14,6.9,14z M16,10h-6c-0.4,0-0.5,0.4-0.5,1s0,1,0.5,1h6
	c0.4,0,0.5-0.4,0.5-1S16.5,10,16,10z M6.9,10H6.1c-0.6,0-0.6,0.4-0.6,1s0,1,0.6,1h0.8c0.6,0,0.6-0.4,0.6-1S7.5,10,6.9,10z M16,10h-6
	c-0.4,0-0.5,0.4-0.5,1s0,1,0.5,1h6c0.4,0,0.5-0.4,0.5-1S16.5,10,16,10z M6.9,10H6.1c-0.6,0-0.6,0.4-0.6,1s0,1,0.6,1h0.8
	c0.6,0,0.6-0.4,0.6-1S7.5,10,6.9,10z M16,6h-6C9.5,6,9.5,6.4,9.5,7s0,1,0.5,1h6c0.4,0,0.5-0.4,0.5-1S16.5,6,16,6z M6.9,6H6.1
	C5.5,6,5.5,6.4,5.5,7s0,1,0.6,1h0.8c0.6,0,0.6-0.4,0.6-1S7.5,6,6.9,6z"/>
</svg>
