<svg xmlns="http://www.w3.org/2000/svg" width="20" height="20" viewBox="0 0 20 20">
  <g id="gnb_item05" transform="translate(-114.103 -602.32)">
    <rect id="base" width="20" height="20" transform="translate(114.103 602.32)" fill="#fff" opacity="0"/>
    <g id="그룹_3412" data-name="그룹 3412" transform="translate(1.86 -122.369)">
      <g id="그룹_3410" data-name="그룹 3410" transform="translate(114.304 727.689)">
        <path id="패스_22053" data-name="패스 22053" d="M122.243,728.084a1.778,1.778,0,0,0-.667,1.39v1.367h-5.488a1.784,1.784,0,0,0-1.784,1.785v-3.151a1.784,1.784,0,0,1,1.784-1.784h3.917" transform="translate(-114.304 -727.689)" fill="#fff" stroke="#608adf" stroke-linecap="round" stroke-linejoin="round" stroke-width="1"/>
        <path id="패스_22054" data-name="패스 22054" d="M128.506,727.689H123.43a1.8,1.8,0,0,0-1.126.4,1.778,1.778,0,0,0-.672,1.393v1.37H116.1a1.793,1.793,0,0,0-1.8,1.788V740.9a1.792,1.792,0,0,0,1.8,1.787h12.4a1.792,1.792,0,0,0,1.8-1.787V729.477A1.793,1.793,0,0,0,128.506,727.689Z" transform="translate(-114.304 -727.689)" fill="#fff" stroke="#608adf" stroke-linecap="round" stroke-linejoin="round" stroke-width="1"/>
      </g>
      <g id="그룹_3411" data-name="그룹 3411" transform="translate(119.804 733.889)">
        <line id="선_52" data-name="선 52" y2="5" transform="translate(2.5 0)" fill="none" stroke="#ff9797" stroke-linecap="round" stroke-linejoin="round" stroke-width="1"/>
        <line id="선_53" data-name="선 53" x2="5" transform="translate(0 2.499)" fill="none" stroke="#ff9797" stroke-linecap="round" stroke-linejoin="round" stroke-width="1"/>
      </g>
    </g>
  </g>
</svg>
