<svg xmlns="http://www.w3.org/2000/svg" xmlns:xlink="http://www.w3.org/1999/xlink" width="45" height="45" viewBox="0 0 45 45">
  <defs>
    <clipPath id="clip-path">
      <circle id="base" cx="22.5" cy="22.5" r="22.5" fill="#608adf"/>
    </clipPath>
  </defs>
  <g id="member_man_infant" clip-path="url(#clip-path)">
    <g id="그룹_83" data-name="그룹 83" transform="translate(2.763 6.246)">
      <path id="패스_3001" data-name="패스 3001" d="M876.089,1340.415c-2.3,2.592-4.927,10.028-5.808,12.221-1.5,3.666-2.71,9.5-.925,13.434,2.973,6.68,11.23.585,13.42-3.567h0" transform="translate(-868.465 -1307.119)" fill="#e8dfdf"/>
      <path id="패스_3002" data-name="패스 3002" d="M1019.5,1326.692c2.678,2.667,5.945,10.283,7.028,12.53,1.844,3.757,3.454,9.726,1.651,13.724-3,6.794-12.468.5-15.1-3.764h0" transform="translate(-988.539 -1295.553)" fill="#e8dfdf"/>
      <path id="패스_3003" data-name="패스 3003" d="M896.486,1335.029l.771-25.793c0-8.23,6.568-12.346,14.638-12.346h0c8.071,0,14.32,4.117,14.32,12.346l1.539,25.793Z" transform="translate(-891.73 -1269.325)" fill="#599fa2"/>
      <path id="패스_3004" data-name="패스 3004" d="M967.422,1284.811a5.134,5.134,0,1,1-5.117-4.711A4.926,4.926,0,0,1,967.422,1284.811Z" transform="translate(-942.129 -1255.386)" fill="#fff"/>
      <path id="패스_3005" data-name="패스 3005" d="M970.381,1277.752a4.172,4.172,0,0,1-4.172,4.172h0a4.171,4.171,0,0,1-4.172-4.172v-.855a4.172,4.172,0,0,1,4.172-4.172h0a4.172,4.172,0,0,1,4.172,4.172Z" transform="translate(-946.156 -1249.263)" fill="#edc5b7"/>
      <path id="패스_3006" data-name="패스 3006" d="M896.032,1348.366c-.595-1.577-.692-16.4-.832-18.1a36.745,36.745,0,0,1,.416-5.9,17.693,17.693,0,0,1,1.683-6.253c1.273-2.837,1.57-6.4,1.968-9.455.113-1.358-.226-3.96.339-5.205a6.361,6.361,0,0,1,5.29-2.963c.113,3.96.616,7.647,1.038,11.693a66.751,66.751,0,0,0,10.644-.13,109.563,109.563,0,0,0,.226-12.22c6.639.339,5.2,7.015,5.771,11.541.679,5.544,3.122,6.875,3.461,12.419.113,1.924.723,23.676.609,25.487" transform="translate(-890.636 -1271.762)" fill="#599fa2"/>
      <path id="패스_3007" data-name="패스 3007" d="M1036.2,1379.792a.97.97,0,1,1-.969-.97A.969.969,0,0,1,1036.2,1379.792Z" transform="translate(-1006.117 -1337.353)" fill="#fff"/>
      <path id="패스_3008" data-name="패스 3008" d="M940.358,1384.225a.97.97,0,1,1-.97-.969A.97.97,0,0,1,940.358,1384.225Z" transform="translate(-926.546 -1341.034)" fill="#fff"/>
      <path id="패스_3009" data-name="패스 3009" d="M957.3,1416.3c1.952-.17,4.645-.424,6.852-.51.934-.085,4.413-.254,4.413-.254s.849,6.7.849,8.4c-3.819.934-7.977,1.952-11.881,1.018C957.688,1422.3,957.212,1419.013,957.3,1416.3Z" transform="translate(-942.211 -1367.833)" fill="none" stroke="#476b6b" stroke-miterlimit="10" stroke-width="1"/>
      <path id="패스_3010" data-name="패스 3010" d="M1024.483,1378.322c.085,1.443.17,3.225,1.7,3.9a2.575,2.575,0,0,0,3.479-1.782" transform="translate(-998.003 -1336.937)" fill="none" stroke="#476b6b" stroke-miterlimit="10" stroke-width="1"/>
      <path id="패스_3011" data-name="패스 3011" d="M930.99,1380.822c.509,1.952.594,3.48-1.443,4.413-1.782.849-3.14.17-3.564-1.782" transform="translate(-916.221 -1339.013)" fill="none" stroke="#476b6b" stroke-miterlimit="10" stroke-width="1"/>
      <g id="그룹_81" data-name="그룹 81" transform="translate(2.875 13.014)">
        <path id="패스_3012" data-name="패스 3012" d="M894.738,1215.837a4.668,4.668,0,1,1-4.669-4.669A4.669,4.669,0,0,1,894.738,1215.837Z" transform="translate(-885.401 -1211.168)" fill="#edc5b7"/>
        <line id="선_16" data-name="선 16" x2="2.718" transform="translate(2.314 4.669)" fill="none" stroke="#d19e8c" stroke-linecap="round" stroke-linejoin="round" stroke-width="1"/>
      </g>
      <g id="그룹_82" data-name="그룹 82" transform="translate(27.327 13.014)">
        <path id="패스_3013" data-name="패스 3013" d="M1029.47,1215.837a4.669,4.669,0,1,0,4.669-4.669A4.669,4.669,0,0,0,1029.47,1215.837Z" transform="translate(-1029.47 -1211.168)" fill="#edc5b7"/>
        <line id="선_17" data-name="선 17" x1="2.717" transform="translate(4.305 4.669)" fill="none" stroke="#d19e8c" stroke-linecap="round" stroke-linejoin="round" stroke-width="1"/>
      </g>
      <path id="패스_3014" data-name="패스 3014" d="M935.19,1176.14a12.784,12.784,0,1,1-12.784-12.784A12.784,12.784,0,0,1,935.19,1176.14Z" transform="translate(-902.637 -1158.457)" fill="#ffd9ca"/>
      <path id="패스_3015" data-name="패스 3015" d="M950.621,1223.138c0,.768-.364,1.39-.813,1.39s-.813-.622-.813-1.39.364-1.39.813-1.39S950.621,1222.37,950.621,1223.138Z" transform="translate(-935.327 -1206.938)" fill="#5b4242"/>
      <path id="패스_3016" data-name="패스 3016" d="M1009.531,1223.138c0,.768-.364,1.39-.813,1.39s-.813-.622-.813-1.39.364-1.39.813-1.39S1009.531,1222.37,1009.531,1223.138Z" transform="translate(-984.238 -1206.938)" fill="#5b4242"/>
      <path id="패스_3017" data-name="패스 3017" d="M974.208,1233.8c-1.266.266-1.321,1.161-.721,1.961" transform="translate(-955.355 -1216.943)" fill="none" stroke="#d19e8c" stroke-linecap="round" stroke-linejoin="round" stroke-width="1"/>
      <path id="패스_3018" data-name="패스 3018" d="M924.824,1240.163a3.02,3.02,0,1,1-3.02-3.02A3.02,3.02,0,0,1,924.824,1240.163Z" transform="translate(-910.243 -1219.72)" fill="#ffb9a4"/>
      <path id="패스_3019" data-name="패스 3019" d="M1017.72,1240.163a3.02,3.02,0,1,1-3.02-3.02A3.02,3.02,0,0,1,1017.72,1240.163Z" transform="translate(-987.373 -1219.72)" fill="#ffb9a4"/>
      <path id="패스_3020" data-name="패스 3020" d="M957.912,1254.313a26.634,26.634,0,0,1,6.341-.348c1.353.1,2.934-.14,2.214,1.7C965.112,1259.158,957.787,1258.121,957.912,1254.313Z" transform="translate(-942.729 -1233.643)" fill="#ca6f63"/>
      <path id="패스_3021" data-name="패스 3021" d="M926.448,1141.345a12.517,12.517,0,0,0-2.243-2.325,18.682,18.682,0,0,1,1.383-2.079c-.839-.755-2.921-.017-3.623.574l-.04-.022c-.525-1.61-2.208-3.851-4.059-2.673.127.33.307.722.491,1.133-5.279-1.724-10.121-.938-15.06,1.563-2.676,1.355-5.151,3.691-5.75,6.711a10.775,10.775,0,0,0-.1,2.832,14.02,14.02,0,0,0,.914,3.456,8.663,8.663,0,0,0,.472,1.232,6.671,6.671,0,0,1,.628,1.18c.428-1.016,1.318-2.54,1.746-3.472.084.255.422.511.506.766a20.932,20.932,0,0,1,5.442-2.439c1.784-.417,4.171-.19,4.335-1.594.25,1.161-.162,1.1,2.625,1.284,1.1.089,2.291.009,3.479.014,1.782.007,3.768,1.245,4.032-.96,1.263,2.466,2.065,4.04,3.328,6.506C927.363,1149.588,929.265,1145.19,926.448,1141.345Z" transform="translate(-892.49 -1134.491)" fill="#6d5755"/>
    </g>
  </g>
</svg>
