<svg xmlns="http://www.w3.org/2000/svg" xmlns:xlink="http://www.w3.org/1999/xlink" width="45" height="45" viewBox="0 0 45 45">
  <defs>
    <clipPath id="clip-path">
      <circle id="base" cx="22.5" cy="22.5" r="22.5" fill="#608adf"/>
    </clipPath>
  </defs>
  <g id="member_man_adult" clip-path="url(#clip-path)">
    <g id="그룹_57" data-name="그룹 57" transform="translate(-4.53 6)">
      <path id="패스_2948" data-name="패스 2948" d="M732.051,181.169a57.53,57.53,0,0,0,3.012,12.466c.336.918.593,1.877.986,2.767a11.989,11.989,0,0,1,1.117,2.326c.47,2.276-.289,5.2-.313,7.533-.031,2.96.184,5.832-.414,8.755-.261,1.276-1.087,2.256-1.217,3.555-.119,1.191.429,3.091.011,4.172-.585,1.513-4.262,1.107-5.41,1.166-2.792.147-5.587.258-8.384.265-3.335.008-6.726-.127-10.024.192-2.234.216-4.464.458-6.7.464-1.105,0-1.376.259-1.606-.892-.314-1.571.195-3.418-.314-4.919-.189-.558-.592-1.057-.743-1.609a8.934,8.934,0,0,1-.078-2.314c.024-1.642.193-3.278.377-4.909a43.755,43.755,0,0,0,.471-9.42,29.437,29.437,0,0,1-.374-4.056,10.435,10.435,0,0,1,.843-3.373c.325-.871.427-1.783.74-2.675a65.766,65.766,0,0,0,2.2-9.329c.372-1.918.5-4.116,2.182-5.072A16.869,16.869,0,0,1,714,174.506a48.65,48.65,0,0,1,8.385-.686,18.671,18.671,0,0,1,5.434,1.19,6.186,6.186,0,0,1,3.4,1.867C732.149,178.041,731.858,179.661,732.051,181.169Z" transform="translate(-692.547 -141.314)" fill="#dfdfdf"/>
      <path id="패스_2949" data-name="패스 2949" d="M784.508,183.25c3.42,2.176,5.072,5.846,6.711,9.472q2.062,4.561,4.032,9.166c2.26,5.28,3.54,12.019.378,17.2-2.133,3.493-7.192,7.363-11.41,6.327" transform="translate(-743.46 -147.15)" fill="#8b7b7a"/>
      <path id="패스_2950" data-name="패스 2950" d="M689.1,185.563c-3.1,2.131-4.6,5.725-6.088,9.275q-1.871,4.466-3.658,8.975c-2.05,5.17-3.211,11.769-.343,16.838,1.935,3.421,6.525,7.21,10.352,6.2" transform="translate(-677.299 -148.582)" fill="#8b7b7a"/>
      <path id="패스_2951" data-name="패스 2951" d="M737.025,161.325a11.663,11.663,0,0,1,0,4.816c2.274,1.739,6.415,1.352,8.829-.258-.268-2.007-.8-3.354-.8-5.361" transform="translate(-714.257 -133.087)" fill="#ebb7a4"/>
      <g id="그룹_53" data-name="그룹 53" transform="translate(8.998 13.459)">
        <path id="패스_2952" data-name="패스 2952" d="M712.079,129.447a5.588,5.588,0,1,1-5.588-5.589A5.588,5.588,0,0,1,712.079,129.447Z" transform="translate(-700.903 -123.858)" fill="#ebb7a4"/>
        <line id="선_12" data-name="선 12" x2="2.483" transform="translate(2.69 5.589)" fill="none" stroke="#a66d68" stroke-linecap="round" stroke-linejoin="round" stroke-width="1"/>
      </g>
      <g id="그룹_54" data-name="그룹 54" transform="translate(33.979 13.459)">
        <path id="패스_2953" data-name="패스 2953" d="M766.435,129.447a5.588,5.588,0,1,0,5.589-5.589A5.588,5.588,0,0,0,766.435,129.447Z" transform="translate(-766.435 -123.858)" fill="#ebb7a4"/>
        <line id="선_13" data-name="선 13" x1="2.484" transform="translate(6.002 5.589)" fill="none" stroke="#a66d68" stroke-linecap="round" stroke-linejoin="round" stroke-width="1"/>
      </g>
      <path id="패스_2954" data-name="패스 2954" d="M739.744,108.273A13.768,13.768,0,1,1,725.979,94.2,13.921,13.921,0,0,1,739.744,108.273Z" transform="translate(-698.904 -92.046)" fill="#f5caba"/>
      <path id="패스_2955" data-name="패스 2955" d="M735.146,134.666c0,.662-.371,1.2-.828,1.2s-.828-.536-.828-1.2.371-1.2.828-1.2S735.146,134,735.146,134.666Z" transform="translate(-712.07 -116.345)" fill="#70544f"/>
      <path id="패스_2956" data-name="패스 2956" d="M758.757,134.666c0,.662-.37,1.2-.828,1.2s-.828-.536-.828-1.2.37-1.2.828-1.2S758.757,134,758.757,134.666Z" transform="translate(-726.68 -116.345)" fill="#70544f"/>
      <path id="패스_2957" data-name="패스 2957" d="M733.344,128.313c-.9-.9-2.38-.41-3.364.328" transform="translate(-709.898 -112.854)" fill="none" stroke="#413939" stroke-miterlimit="10" stroke-width="0.5"/>
      <path id="패스_2958" data-name="패스 2958" d="M754.565,128.313c.9-.9,2.38-.41,3.364.328" transform="translate(-725.111 -112.854)" fill="none" stroke="#413939" stroke-miterlimit="10" stroke-width="0.5"/>
      <path id="패스_2959" data-name="패스 2959" d="M737.749,99.322a6.921,6.921,0,0,0-.49-2.955c-.107-.239-1.379-1.653-1.711-1.124A2.645,2.645,0,0,0,734.2,91.5a2.549,2.549,0,0,0,.174-2.07,1.816,1.816,0,0,0-1.772-.789,10.452,10.452,0,0,0-1.982.521c-4.107,1.158-7.874-1.356-12.126-.378a16.538,16.538,0,0,0-7.762,4.371,13.913,13.913,0,0,0-3.771,6.007,9.063,9.063,0,0,0,.692,6.948,1.314,1.314,0,0,0,.908.767c.458.039.824-.355,1.115-.712a31.887,31.887,0,0,1,7.269-6.785A17.817,17.817,0,0,1,721.33,97.3a9.352,9.352,0,0,1,2.36-.537c.891-.018,1.141.307,2,.565a10.95,10.95,0,0,1,1.794.332,10.527,10.527,0,0,1,2.01,1.949,59.854,59.854,0,0,1,4.828,5.476c.363.467.836.992,1.423.915.628-.081.943-.79,1.106-1.4A23.333,23.333,0,0,0,737.749,99.322Z" transform="translate(-695.415 -88.552)" fill="#5c3c35"/>
      <path id="패스_2960" data-name="패스 2960" d="M741.538,135.556a.917.917,0,0,0-1.083,1.463,1.844,1.844,0,0,0,.582.332" transform="translate(-715.345 -117.57)" fill="none" stroke="#a66d68" stroke-linecap="round" stroke-linejoin="round" stroke-width="0.5"/>
      <g id="그룹_55" data-name="그룹 55" transform="translate(7.817 32.066)">
        <path id="패스_2961" data-name="패스 2961" d="M712.928,193.544c.007,3.025.511,36.013-1.16,36.141a28.451,28.451,0,0,1-13.964-2.494,105.433,105.433,0,0,1,1.24-13.926,51.137,51.137,0,0,0,.727-5.7,41.218,41.218,0,0,0-.446-6.719c-.764-6.291-3.363-19.393,3.163-23.723,2.089-1.386,10.443-4.457,10.443-4.457s-.062,9.292-.049,11.408Q712.911,188.811,712.928,193.544Z" transform="translate(-697.805 -172.67)" fill="#8b7b7a"/>
        <path id="패스_2962" data-name="패스 2962" d="M724.589,178.91a3.037,3.037,0,0,0-1.465,2.019c-.161,1.231.645,2.086,1.289,3.053" transform="translate(-713.459 -176.531)" fill="none" stroke="#6d6161" stroke-miterlimit="10" stroke-width="0.5"/>
        <path id="패스_2963" data-name="패스 2963" d="M726.172,188.439c-2.028,1.649-5.428,3.2-4.542,5.835.725,2.023,3.517,5.482,4.967,6.8" transform="translate(-712.459 -182.428)" fill="none" stroke="#6d6161" stroke-miterlimit="10" stroke-width="0.5"/>
        <path id="패스_2964" data-name="패스 2964" d="M726.54,241.453a1.294,1.294,0,1,0,1.289-1.407A1.352,1.352,0,0,0,726.54,241.453Z" transform="translate(-715.586 -214.362)" fill="#6d6161"/>
        <path id="패스_2965" data-name="패스 2965" d="M726.54,272.835a1.294,1.294,0,1,0,1.289-1.407A1.352,1.352,0,0,0,726.54,272.835Z" transform="translate(-715.586 -233.781)" fill="#fff"/>
      </g>
      <g id="그룹_56" data-name="그룹 56" transform="translate(31.26 32.066)">
        <path id="패스_2966" data-name="패스 2966" d="M759.379,193.544c-.007,3.025-.51,36.013,1.16,36.141a28.451,28.451,0,0,0,13.964-2.494,105.371,105.371,0,0,0-1.24-13.926,51.123,51.123,0,0,1-.727-5.7,41.177,41.177,0,0,1,.446-6.719c.764-6.291,3.363-19.393-3.163-23.723-2.089-1.386-10.442-4.457-10.442-4.457s.062,9.292.049,11.408Q759.4,188.811,759.379,193.544Z" transform="translate(-759.302 -172.67)" fill="#8b7b7a"/>
        <path id="패스_2967" data-name="패스 2967" d="M769.979,178.91a3.035,3.035,0,0,1,1.465,2.019c.161,1.231-.645,2.086-1.289,3.053" transform="translate(-765.909 -176.531)" fill="none" stroke="#6d6161" stroke-miterlimit="10" stroke-width="0.5"/>
        <path id="패스_2968" data-name="패스 2968" d="M762.51,188.439c2.028,1.649,5.428,3.2,4.542,5.835-.725,2.023-3.517,5.482-4.968,6.8" transform="translate(-761.023 -182.428)" fill="none" stroke="#6d6161" stroke-miterlimit="10" stroke-width="0.5"/>
        <path id="패스_2969" data-name="패스 2969" d="M766.256,241.453a1.294,1.294,0,1,1-1.289-1.407A1.352,1.352,0,0,1,766.256,241.453Z" transform="translate(-762.01 -214.362)" fill="#6d6161"/>
        <path id="패스_2970" data-name="패스 2970" d="M766.256,272.835a1.294,1.294,0,1,1-1.289-1.407A1.352,1.352,0,0,1,766.256,272.835Z" transform="translate(-762.01 -233.781)" fill="#fff"/>
      </g>
      <path id="패스_2971" data-name="패스 2971" d="M739.235,147.364c-.149-.038-.3-.082-.437-.13a3.411,3.411,0,0,1-2.222-2.147.735.735,0,0,1,.1-.745.76.76,0,0,1,.362-.157,9.4,9.4,0,0,1,1.917-.161l3.052-.047a1.614,1.614,0,0,1,1.133.27,1.246,1.246,0,0,1,.344.751,2.233,2.233,0,0,1-1.577,2.327A4.646,4.646,0,0,1,739.235,147.364Z" transform="translate(-713.946 -122.848)" fill="#ca6f63"/>
      <path id="패스_2972" data-name="패스 2972" d="M793.271,205.42q-.485,6.559-1.109,13.107" transform="translate(-748.375 -160.869)" fill="none" stroke="#6d6161" stroke-miterlimit="10" stroke-width="0.5"/>
      <path id="패스_2973" data-name="패스 2973" d="M796.431,245.336c1.049-.433,2.319-.843,3.237-.168a3.473,3.473,0,0,1,.947,1.352.594.594,0,0,1,.082.463c-.076.189-.311.237-.511.249a5.453,5.453,0,0,1-2.508-.46" transform="translate(-751.017 -185.243)" fill="none" stroke="#6d6161" stroke-miterlimit="10" stroke-width="0.5"/>
      <path id="패스_2974" data-name="패스 2974" d="M799.86,256.309c-.121-.014.059-.17.172-.122a6.12,6.12,0,0,1,2.438,1.89" transform="translate(-753.114 -192.277)" fill="none" stroke="#6d6161" stroke-miterlimit="10" stroke-width="0.5"/>
      <path id="패스_2975" data-name="패스 2975" d="M701.255,205.42a60.043,60.043,0,0,1,1.475,10.05" transform="translate(-692.123 -160.869)" fill="none" stroke="#6d6161" stroke-miterlimit="10" stroke-width="0.5"/>
      <path id="패스_2976" data-name="패스 2976" d="M796.752,266.4a6.621,6.621,0,0,1,2.479,6.9" transform="translate(-751.216 -198.6)" fill="none" stroke="#6d6161" stroke-miterlimit="10" stroke-width="0.5"/>
    </g>
  </g>
</svg>
