<svg xmlns="http://www.w3.org/2000/svg" xmlns:xlink="http://www.w3.org/1999/xlink" width="45" height="45" viewBox="0 0 45 45">
  <defs>
    <clipPath id="clip-path">
      <circle id="base" cx="22.5" cy="22.5" r="22.5" fill="#608adf"/>
    </clipPath>
  </defs>
  <g id="member_woman_young" clip-path="url(#clip-path)">
    <g id="그룹_125" data-name="그룹 125" transform="translate(-6.975 7.129)">
      <path id="패스_21932" data-name="패스 21932" d="M529.021,331.692c2.212,1.629,4.02,3.972,6.48,5.223a2.911,2.911,0,0,1,1.122.778.864.864,0,0,1-.133,1.222c.588-.33,1.283,1.2,1.328,1.523.058.411-.28.681-.281,1.053,0,.425.387.746.339,1.22-.059.579-.848,1.037-1.225.6a4.379,4.379,0,0,1,.894,1.7.745.745,0,0,1-.009.552.7.7,0,0,1-.371.274,4.707,4.707,0,0,1-4.069-.635c-1.437-.855-5.159-4.743-5.184-1.254a1.81,1.81,0,0,1-2.548,1.512,3.435,3.435,0,0,1-1.328-2.512,48.8,48.8,0,0,1-.818-7.077" transform="translate(-475.332 -253.012)" fill="#ffe2d6"/>
      <path id="패스_21933" data-name="패스 21933" d="M458.312,130.254a11.966,11.966,0,0,0-4.5-8.108,20.648,20.648,0,0,0-6.509-3.518,14.061,14.061,0,0,0-6.554-.012,26.932,26.932,0,0,0-4.383,1.4c-1.1.443-1.985,1.17-3.082,1.6a7.806,7.806,0,0,0-2.884,2.264c-2.741,3.2-3.346,7.553-3.9,11.6a38.248,38.248,0,0,0,.511,14.5c1.618,6.41,5.742,12.407,11.741,15.036a25.391,25.391,0,0,0,9.72,1.822c4.9.1,10.022-.632,14.062-3.443a4.479,4.479,0,0,0,2.056-2.592c.379-1.913-1.345-3.491-2.544-5.019-2.54-3.238-3.055-7.6-3.475-11.71-.25-2.451-.743-5.061-.062-7.459C459.143,134.409,458.541,132.516,458.312,130.254Z" transform="translate(-413.802 -117.84)" fill="#7a644d"/>
      <path id="패스_21934" data-name="패스 21934" d="M498.959,211.076c4.234,1.895,6.125,6.815,7.57,11.267,3.154,9.719,5.966,19.456,8.557,29.323.072.274.223.6.5.6.132,0,.289-.065.378.032a.289.289,0,0,1,.058.152q.365,2.047.731,4.093c.325,1.811.339,1.911-1.4,2.518a39.994,39.994,0,0,1-7.564,1.844c-1.075.153-4.2-11.659-4.5-12.914a23.862,23.862,0,0,1-.464-5c-.091-2.131-.91-4.311-1.373-6.387" transform="translate(-459.969 -176.632)" fill="#a8cad5"/>
      <path id="패스_21935" data-name="패스 21935" d="M410.615,211.076c-4.234,1.895-6.125,6.815-7.57,11.267-3.154,9.719-5.967,19.456-8.557,29.323-.072.274-.223.6-.5.6-.131,0-.288-.065-.378.032a.294.294,0,0,0-.059.152q-.365,2.047-.73,4.093c-.325,1.811-.339,1.911,1.4,2.518a39.993,39.993,0,0,0,7.564,1.844c1.075.153,4.2-11.659,4.5-12.914a23.915,23.915,0,0,0,.464-5c.091-2.131.91-4.311,1.373-6.387" transform="translate(-392.648 -176.632)" fill="#a8cad5"/>
      <path id="패스_21936" data-name="패스 21936" d="M481.088,379.277c.668,13.153,1.335,26.019,1.669,39.172,7.012.286,7.639.677,8.974-4.756A91.666,91.666,0,0,0,493.107,397c0-7.148-.668-14.582-.668-21.73" transform="translate(-448.653 -280.611)" fill="#ffe2d6"/>
      <path id="패스_21937" data-name="패스 21937" d="M494.772,464.145c-.187,3.753-.515,7.539-.98,11.439-3.218,0-7.02,1.143-10.092-.286v-1.859c.095-2.893.121-5.959.1-9.108Z" transform="translate(-450.307 -336.888)" fill="#a8cad5"/>
      <g id="그룹_119" data-name="그룹 119" transform="translate(31.346 135.928)">
        <path id="패스_21938" data-name="패스 21938" d="M480.537,490.122c-1.145-.533-1.4,1.625-1.435,2.262-.146,2.32-1.5,4.573-.763,6.789a4.766,4.766,0,0,0,3.442,2.882c2.97.878,7.652.847,10.072-1.42s-.283-7.515-1.059-10.591a.658.658,0,0,0-1.005-.394,1.12,1.12,0,0,1-.949.239c-.933-.236-1.159-1.684-2.019-2.033-.619-.251-.855.248-.841.831-.481.1-1.2.335-1.176-.148.021-.52-.282-.71-1.038-.52-.912.23-1.325.99-1.822,1.721-.209.308-.167.586-.642.644A2.575,2.575,0,0,1,480.537,490.122Z" transform="translate(-478.119 -487.79)" fill="#4e617a"/>
        <path id="패스_21939" data-name="패스 21939" d="M480.7,516.189c.847,2.145,4.1,2.359,6.145,2.5a10.4,10.4,0,0,0,6.922-2" transform="translate(-479.757 -505.774)" fill="none" stroke="#3c4a5b" stroke-miterlimit="10" stroke-width="0.5"/>
        <path id="패스_21940" data-name="패스 21940" d="M481.282,506.26c2.189-.786,3.6-2.287,6.145-2.43a16.324,16.324,0,0,1,3.249.072,15.712,15.712,0,0,0,2.684.786" transform="translate(-480.122 -497.918)" fill="none" stroke="#3c4a5b" stroke-miterlimit="10" stroke-width="0.5"/>
        <path id="패스_21941" data-name="패스 21941" d="M496.131,492.178c.424,1.465.664,2.766,1.194,4.16a11.685,11.685,0,0,0,.413-4.16" transform="translate(-489.525 -490.569)" fill="none" stroke="#3c4a5b" stroke-miterlimit="10" stroke-width="0.5"/>
      </g>
      <path id="패스_21942" data-name="패스 21942" d="M450.166,379.277c-.668,13.153-1.336,26.019-1.669,39.172-7.012.286-7.639.677-8.974-4.756A91.666,91.666,0,0,1,438.146,397c0-7.148.668-14.582.668-21.73" transform="translate(-421.46 -280.611)" fill="#ffe2d6"/>
      <path id="패스_21943" data-name="패스 21943" d="M438.144,464.347c.189,3.692.513,7.417.97,11.253,3.218,0,7.02,1.144,10.092-.286v-1.859c-.1-2.947-.122-6.074-.1-9.285Z" transform="translate(-421.458 -336.904)" fill="#a8cad5"/>
      <g id="그룹_120" data-name="그룹 120" transform="translate(15.083 135.928)">
        <path id="패스_21944" data-name="패스 21944" d="M446.067,490.122c1.145-.533,1.4,1.625,1.435,2.262.147,2.32,1.5,4.573.763,6.789a4.766,4.766,0,0,1-3.442,2.882c-2.97.878-7.652.847-10.072-1.42s.283-7.515,1.06-10.591a.657.657,0,0,1,1-.394,1.12,1.12,0,0,0,.949.239c.933-.236,1.159-1.684,2.019-2.033.62-.251.855.248.841.831.48.1,1.2.335,1.176-.148-.021-.52.282-.71,1.038-.52.912.23,1.325.99,1.822,1.721.209.308.167.586.643.644A2.576,2.576,0,0,0,446.067,490.122Z" transform="translate(-433.773 -487.79)" fill="#4e617a"/>
        <path id="패스_21945" data-name="패스 21945" d="M448.74,516.189c-.848,2.145-4.1,2.359-6.145,2.5a10.4,10.4,0,0,1-6.922-2" transform="translate(-434.976 -505.774)" fill="none" stroke="#3c4a5b" stroke-miterlimit="10" stroke-width="0.5"/>
        <path id="패스_21946" data-name="패스 21946" d="M449.87,506.26c-2.19-.786-3.6-2.287-6.145-2.43a16.32,16.32,0,0,0-3.249.072,15.722,15.722,0,0,1-2.684.786" transform="translate(-436.317 -497.918)" fill="none" stroke="#3c4a5b" stroke-miterlimit="10" stroke-width="0.5"/>
        <path id="패스_21947" data-name="패스 21947" d="M453.1,492.178c-.424,1.465-.664,2.766-1.194,4.16a11.686,11.686,0,0,1-.413-4.16" transform="translate(-444.995 -490.569)" fill="none" stroke="#3c4a5b" stroke-miterlimit="10" stroke-width="0.5"/>
      </g>
      <path id="패스_21948" data-name="패스 21948" d="M431.362,304.254c0,9.457-1.648,18.524-1.289,27.98,0,1.091-.537,6.183.182,6.911s5.959-.52,7.038-.339v.728a45.542,45.542,0,0,0,8.626.182c.18.182,0,.545.18.545,2.336-.273,4.9-.545,7.435-.909.459-.066.41-.161.342-.707,2.066-.328,6.617.2,8.457-.318,2.027-.576.119-14.375,0-16.094-.46-6.648-2.218-13.5-3.3-20.16" transform="translate(-416.225 -234.255)" fill="#7d8085"/>
      <path id="패스_21949" data-name="패스 21949" d="M448.81,313.16c0,13.582-.27,25.022-.27,32.187" transform="translate(-428.042 -241.277)" fill="none" stroke="#606366" stroke-miterlimit="10" stroke-width="0.5"/>
      <path id="패스_21950" data-name="패스 21950" d="M470.624,313.16c0,8.092-.354,16.276.185,24.368.18,2.91.359,5.728.359,8.638" transform="translate(-441.954 -241.277)" fill="none" stroke="#606366" stroke-miterlimit="10" stroke-width="0.5"/>
      <path id="패스_21951" data-name="패스 21951" d="M491.906,312.663c1.258,7.365.539,15.549.9,23.1.18,3.273.259,5.569.348,8.842" transform="translate(-455.503 -240.962)" fill="none" stroke="#606366" stroke-miterlimit="10" stroke-width="0.5"/>
      <path id="패스_21952" data-name="패스 21952" d="M455.658,208.818a43.088,43.088,0,0,0,2.678,10.131c.3.746.528,1.526.879,2.25a9.391,9.391,0,0,1,1,1.892c.417,1.849-.27,4.226-.3,6.118a33.215,33.215,0,0,1-.39,7.11c-.237,1.036-.981,1.83-1.1,2.886-.109.967.379,2.512,0,3.388-.528,1.228-3.828.89-4.859.936-2.508.114-5.017.2-7.527.2-2.995,0-6.039-.116-9,.136-2.006.171-4.01.363-6.015.363-.992,0-1.236.208-1.44-.727-.278-1.277.182-2.776-.272-4a9.875,9.875,0,0,1-.808-2.026c-.2-1.262-.231-2.6-.337-3.885-.166-2.014-.227-4.035-.243-6.056-.011-1.407-.294-3.212.158-4.563.393-1.175,1.077-2.266,1.464-3.472.321-1,.552-2.047.935-3.026a49.182,49.182,0,0,0,2-7.573c.338-1.557.457-3.342,1.971-4.115a16.3,16.3,0,0,1,5.016-1.416,48.149,48.149,0,0,1,7.529-.541,18.282,18.282,0,0,1,4.877.977,5.736,5.736,0,0,1,3.051,1.523C455.752,206.277,455.488,207.593,455.658,208.818Z" transform="translate(-414.925 -171.409)" fill="#4e617a"/>
      <path id="패스_21953" data-name="패스 21953" d="M462.624,191.252a10.723,10.723,0,0,1,0,4.375c2.042,1.58,5.765,1.215,7.927.243a40.807,40.807,0,0,1-.721-5.348" transform="translate(-436.96 -163.617)" fill="#f5cdbc"/>
      <g id="그룹_121" data-name="그룹 121" transform="translate(12.027 13.233)">
        <path id="패스_21954" data-name="패스 21954" d="M436.347,158.76a5.453,5.453,0,1,1-5.453-5.518A5.486,5.486,0,0,1,436.347,158.76Z" transform="translate(-425.441 -153.242)" fill="#f5cdbc"/>
        <line id="선_31" data-name="선 31" x2="2.423" transform="translate(2.625 5.518)" fill="none" stroke="#c28f86" stroke-linecap="round" stroke-linejoin="round" stroke-width="1"/>
      </g>
      <g id="그룹_122" data-name="그룹 122" transform="translate(35.72 13.233)">
        <path id="패스_21955" data-name="패스 21955" d="M490.045,158.76a5.454,5.454,0,1,0,5.453-5.518A5.486,5.486,0,0,0,490.045,158.76Z" transform="translate(-490.045 -153.242)" fill="#f5cdbc"/>
        <line id="선_32" data-name="선 32" x1="2.424" transform="translate(5.857 5.518)" fill="none" stroke="#c28f86" stroke-linecap="round" stroke-linejoin="round" stroke-width="1"/>
      </g>
      <path id="패스_21956" data-name="패스 21956" d="M459.37,205.684s1.509,13.684,4.836,15.048c3.714-2.137,4.874-15.048,4.874-15.048l-5.9.227Z" transform="translate(-434.9 -173.218)" fill="#95b7be"/>
      <path id="패스_21957" data-name="패스 21957" d="M462.846,136.7a13.44,13.44,0,1,1-13.432-13.9A13.671,13.671,0,0,1,462.846,136.7Z" transform="translate(-420.089 -120.73)" fill="#fbe2d7"/>
      <g id="그룹_123" data-name="그룹 123" transform="translate(23.657 15.746)">
        <path id="패스_21958" data-name="패스 21958" d="M458.767,161.277c0,.654-.362,1.184-.808,1.184s-.808-.53-.808-1.184.362-1.184.808-1.184S458.767,160.624,458.767,161.277Z" transform="translate(-457.152 -160.094)" fill="#70544f"/>
        <path id="패스_21959" data-name="패스 21959" d="M483.649,161.277c0,.654-.361,1.184-.808,1.184s-.808-.53-.808-1.184.361-1.184.808-1.184S483.649,160.624,483.649,161.277Z" transform="translate(-472.909 -160.094)" fill="#70544f"/>
      </g>
      <path id="패스_21960" data-name="패스 21960" d="M481.229,152.624c.881-.891,2.322-.4,3.283.324" transform="translate(-448.742 -139.313)" fill="none" stroke="#413939" stroke-miterlimit="10" stroke-width="0.5"/>
      <path id="패스_21961" data-name="패스 21961" d="M457.284,152.624c-.881-.891-2.322-.4-3.283.324" transform="translate(-431.5 -139.313)" fill="none" stroke="#413939" stroke-miterlimit="10" stroke-width="0.5"/>
      <path id="패스_21962" data-name="패스 21962" d="M466.341,207.257l1.033,3.683-1.579,6.194s.77,2.989,2.479,3.762c1.8-.955,2.542-3.79,2.542-3.79l-1.1-6.1,1.068-4.024-2.232-1.042Z" transform="translate(-438.968 -173.382)" fill="#fff"/>
      <path id="패스_21963" data-name="패스 21963" d="M459.481,199.567c3.708,3.319,6.107,1.773,8.572-.273,2.444,4.274-2.036,8.712-4.179,2.439-.582,5.574-8.25,2.472-4.393-2.166" transform="translate(-434.286 -169.171)" fill="#a8cad5"/>
      <rect id="사각형_43" data-name="사각형 43" width="6.434" height="1.95" transform="translate(35.073 44.084)" fill="#ffd67b"/>
      <g id="그룹_124" data-name="그룹 124" transform="translate(16.186 65.039)">
        <path id="패스_21964" data-name="패스 21964" d="M439.476,304.73V308" transform="translate(-438.488 -300.978)" fill="none" stroke="#3c4a5b" stroke-miterlimit="10" stroke-width="0.5"/>
        <path id="패스_21965" data-name="패스 21965" d="M446.892,305.226a10.5,10.5,0,0,0,0,2.909" transform="translate(-443.118 -301.292)" fill="none" stroke="#3c4a5b" stroke-miterlimit="10" stroke-width="0.5"/>
        <path id="패스_21966" data-name="패스 21966" d="M456.409,304.482a6.337,6.337,0,0,0,.09,2.909" transform="translate(-449.131 -300.821)" fill="none" stroke="#3c4a5b" stroke-miterlimit="10" stroke-width="0.5"/>
        <path id="패스_21967" data-name="패스 21967" d="M468.1,304.978a8.069,8.069,0,0,0,0,2.546" transform="translate(-456.55 -301.135)" fill="none" stroke="#3c4a5b" stroke-miterlimit="10" stroke-width="0.5"/>
        <path id="패스_21968" data-name="패스 21968" d="M477.817,304.6c.09.909.18,1.91.27,2.819" transform="translate(-462.767 -300.899)" fill="none" stroke="#3c4a5b" stroke-miterlimit="10" stroke-width="0.5"/>
        <path id="패스_21969" data-name="패스 21969" d="M485.535,304.233c.09.637.18,2,.27,2.91" transform="translate(-467.654 -300.663)" fill="none" stroke="#3c4a5b" stroke-miterlimit="10" stroke-width="0.5"/>
        <path id="패스_21970" data-name="패스 21970" d="M495.057,304.11c0,.909-.09,1.818-.09,2.728" transform="translate(-473.627 -300.585)" fill="none" stroke="#3c4a5b" stroke-miterlimit="10" stroke-width="0.5"/>
        <path id="패스_21971" data-name="패스 21971" d="M436.781,296.887c4.448-1.5,10.108-1.91,14.96-2.182,1.213,0,3.926-.887,4.611,1.023" transform="translate(-436.781 -294.499)" fill="none" stroke="#3c4a5b" stroke-miterlimit="10" stroke-width="0.5"/>
        <path id="패스_21972" data-name="패스 21972" d="M469.488,301.247c3.5.136,7.817-.409,11.456.272" transform="translate(-457.493 -298.723)" fill="none" stroke="#3c4a5b" stroke-miterlimit="10" stroke-width="0.5"/>
      </g>
      <path id="패스_21973" data-name="패스 21973" d="M470.9,161.471a1.064,1.064,0,0,0-.809.79,1.078,1.078,0,0,0,.383,1.069" transform="translate(-441.673 -145.22)" fill="none" stroke="#c28f86" stroke-linecap="round" stroke-linejoin="round" stroke-width="0.5"/>
      <path id="패스_21974" data-name="패스 21974" d="M463.108,169.355a54.2,54.2,0,0,1,6.3.12,2.554,2.554,0,0,1-.275,2.467,3.1,3.1,0,0,1-2.172,1.244,3.46,3.46,0,0,1-3.842-3.764" transform="translate(-437.264 -150.186)" fill="#ca6f63"/>
      <path id="패스_21975" data-name="패스 21975" d="M461.153,127.606a11.123,11.123,0,0,0-1.195-3.562c-1.843-3.446-4.672-4.907-8.213-6.129a18.7,18.7,0,0,0-5.1-.725,16.216,16.216,0,0,0-7.25,1.14c-4,1.718-8.264,5.347-8.12,10.131a2.461,2.461,0,0,0,1.028,2.214,1.467,1.467,0,0,0,.6.154,1.3,1.3,0,0,0,.868.151,3.453,3.453,0,0,0,1.285-.622l7.006-4.676a1.509,1.509,0,0,0,.1,1.79,2.617,2.617,0,0,0,2.167.611,23.172,23.172,0,0,0,7.545-2.286c-.571.226-.592,1.2-.156,1.669a2.179,2.179,0,0,0,1.708.52,6.259,6.259,0,0,0,3.545-1.074c-1.378,1,4.108,6.476,4.285,2.675A10.025,10.025,0,0,0,461.153,127.606Z" transform="translate(-417.108 -117.159)" fill="#7a644d"/>
      <path id="패스_21976" data-name="패스 21976" d="M522.932,328.07a45.577,45.577,0,0,1,5.49-2" transform="translate(-475.15 -249.454)" fill="none" stroke="#7b9ba2" stroke-miterlimit="10" stroke-width="0.5"/>
      <path id="패스_21977" data-name="패스 21977" d="M545.763,354.407l3.209,2.395a3.75,3.75,0,0,0,1.35.742" transform="translate(-489.608 -267.397)" fill="none" stroke="#c28f86" stroke-linecap="round" stroke-linejoin="round" stroke-width="0.5"/>
      <path id="패스_21978" data-name="패스 21978" d="M549.555,350.106a18.309,18.309,0,0,0,3.341,1.869" transform="translate(-492.009 -264.673)" fill="none" stroke="#c28f86" stroke-linecap="round" stroke-linejoin="round" stroke-width="0.5"/>
      <path id="패스_21979" data-name="패스 21979" d="M551.745,347.844a6.888,6.888,0,0,1,1.861.768" transform="translate(-493.396 -263.241)" fill="none" stroke="#c28f86" stroke-linecap="round" stroke-linejoin="round" stroke-width="0.5"/>
    </g>
  </g>
</svg>
