<svg xmlns="http://www.w3.org/2000/svg" width="13.789" height="13.789" viewBox="0 0 13.789 13.789">
  <g id="sidemenu_close" transform="translate(-281 -13.75)">
    <path id="패스_22030" data-name="패스 22030" d="M.843,0,17.155.036A.8.8,0,0,1,18,.77a.789.789,0,0,1-.842.73L.847,1.465A.8.8,0,0,1,0,.731.789.789,0,0,1,.843,0Z" transform="translate(282.06 13.749) rotate(45)" fill="#222"/>
    <path id="패스_22031" data-name="패스 22031" d="M.845.018,17.157-.018A.789.789,0,0,1,18,.713a.8.8,0,0,1-.846.734L.841,1.482A.789.789,0,0,1,0,.752.8.8,0,0,1,.845.018Z" transform="translate(281.013 26.49) rotate(-45)" fill="#222"/>
  </g>
</svg>
