<svg xmlns="http://www.w3.org/2000/svg" xmlns:xlink="http://www.w3.org/1999/xlink" width="240" height="200"><defs><clipPath id="a"><rect data-name="사각형 274527" width="240" height="200" transform="translate(5216 -5616)" fill="#fff" stroke="#707070" stroke-width="1"/></clipPath></defs><g transform="translate(-5216 5616)" clip-path="url(#a)"><g data-name="그룹 201435" transform="translate(11390.779 -3882.126)"><path data-name="패스 2234" d="M103.34,26.954A26.954,26.954,0,1,1,76.386,0,26.955,26.955,0,0,1,103.34,26.954" transform="translate(-6162.071 -1733.873)" fill="#e8fae8"/><path data-name="패스 2257" d="M97.992,24.28A24.28,24.28,0,1,1,73.711,0a24.28,24.28,0,0,1,24.28,24.28" transform="translate(-6050.501 -1629.851)" fill="#e8fae8"/><path data-name="패스 2235" d="M50.761,62.138A20.784,20.784,0,1,1,29.977,41.354,20.784,20.784,0,0,1,50.761,62.138" transform="translate(-6166.244 -1710.353)" fill="#c7f1c7"/><path data-name="패스 2236" d="M150.269,87.668A36.338,36.338,0,1,1,113.93,51.33a36.339,36.339,0,0,1,36.339,36.338" transform="translate(-6161.56 -1733.75)" fill="#c7f1c7"/><text transform="translate(-6096.321 -1695.874)" fill="#00d060" font-size="34" font-family="Roboto-Bold, Roboto" font-weight="700"><tspan x="0" y="0">B</tspan></text><text transform="translate(-5989.321 -1598.874)" fill="#00d060" font-size="23" font-family="Roboto-Bold, Roboto" font-weight="700"><tspan x="0" y="0">Zn</tspan></text><text transform="translate(-6144.474 -1639.364)" fill="#00d060" font-size="26" font-family="Roboto-Bold, Roboto" font-weight="700"><tspan x="0" y="0">A</tspan></text><text transform="translate(-6061.845 -1630.924)" fill="#00d060" font-size="45" font-family="Roboto-Bold, Roboto" font-weight="700"><tspan x="0" y="0">D</tspan></text><path data-name="패스 2251" d="M137.818,139.8a26.954,26.954,0,1,1-26.955-26.954A26.955,26.955,0,0,1,137.818,139.8" transform="translate(-6117.109 -1708.796)" fill="#00d060"/><path data-name="패스 2256" d="M115.91,128.85a16,16,0,1,1-16-16,16,16,0,0,1,16,16" transform="translate(-6075.338 -1818.074)" fill="#00d060"/><text transform="translate(-6018.321 -1555.874)" fill="#fff" font-size="35" font-family="Roboto-Bold, Roboto" font-weight="700"><tspan x="0" y="0">C</tspan></text><text transform="translate(-5985.269 -1684.42)" fill="#fff" font-size="14" font-family="Roboto-Bold, Roboto" font-weight="700"><tspan x="0" y="0">Mg</tspan></text><g data-name="그룹 201433" transform="translate(-6156.305 -1637.917)"><circle data-name="타원 42" cx="52.022" cy="52.022" r="52.022" fill="#fff"/><path data-name="타원 42 - 윤곽선" d="M52.022-.75a52.785,52.785,0,0,1,20.541,101.4A52.785,52.785,0,0,1,31.48,3.4,52.442,52.442,0,0,1,52.022-.75Zm0,104.043A51.285,51.285,0,0,0,71.979,4.779,51.285,51.285,0,0,0,32.065,99.264,50.95,50.95,0,0,0,52.022,103.293Z" fill="#888"/><path data-name="패스 2243" d="M130.264,54.066a12.939,12.939,0,0,1,0-25.879H157.59a12.939,12.939,0,0,1,0,25.879Z" transform="translate(-99.392 15.828)" fill="#fff"/><path data-name="패스 2243 - 윤곽선" d="M157.59,54.816H130.264a13.689,13.689,0,0,1,0-27.379H157.59a13.689,13.689,0,0,1,0,27.379ZM130.264,28.937a12.189,12.189,0,0,0,0,24.379H157.59a12.189,12.189,0,0,0,0-24.379Z" transform="translate(-99.392 15.828)" fill="#888"/><path data-name="패스 2245" d="M130.264,54.065a12.939,12.939,0,0,1,0-25.878h13.091V54.065Z" transform="translate(-99.392 15.828)" fill="#00d060"/><path data-name="패스 2245 - 윤곽선" d="M144.106,54.815H130.264a13.689,13.689,0,0,1,0-27.378h13.841ZM130.264,28.937a12.189,12.189,0,0,0,0,24.378h12.341V28.937Z" transform="translate(-99.392 15.828)" fill="#888"/><path data-name="패스 2247" d="M171.774,56.076a12.84,12.84,0,0,1-7.606-2.48L142.08,37.508A12.939,12.939,0,1,1,157.315,16.59L179.4,32.678a12.939,12.939,0,0,1-7.63,23.4" transform="translate(-96.615 13.817)" fill="#fff"/><path data-name="패스 2247 - 윤곽선" d="M171.774,56.826a13.587,13.587,0,0,1-8.047-2.624L141.638,38.114a13.689,13.689,0,1,1,16.118-22.13l22.089,16.088a13.689,13.689,0,0,1-8.071,24.754ZM149.707,14.859A12.19,12.19,0,0,0,142.521,36.9L164.61,52.989a12.1,12.1,0,0,0,7.164,2.336,12.189,12.189,0,0,0,7.188-22.041L156.873,17.2A12.1,12.1,0,0,0,149.707,14.859Z" transform="translate(-96.615 13.817)" fill="#888"/><path data-name="패스 2249" d="M142.078,37.508A12.939,12.939,0,1,1,157.314,16.59L167.9,24.3,152.662,45.215Z" transform="translate(-96.615 13.817)" fill="#fff"/><path data-name="패스 2249 - 윤곽선" d="M152.827,46.263l-11.19-8.149a13.689,13.689,0,1,1,16.118-22.13l11.189,8.148Zm-3.12-31.4A12.19,12.19,0,0,0,142.52,36.9l9.978,7.266,14.351-19.706L156.872,17.2A12.1,12.1,0,0,0,149.707,14.859Z" transform="translate(-96.615 13.817)" fill="#888"/></g></g></g></svg>