<svg xmlns="http://www.w3.org/2000/svg" xmlns:xlink="http://www.w3.org/1999/xlink" width="240" height="200"><defs><clipPath id="a"><rect data-name="사각형 274527" width="240" height="200" transform="translate(5216 -5616)" fill="#fff" stroke="#707070" stroke-width="1"/></clipPath></defs><g transform="translate(-5216 5616)" clip-path="url(#a)"><g data-name="그룹 201429" transform="translate(0 43.792)"><path data-name="패스 2218" d="M239.585,119.671a119.543,119.543,0,0,0-239.084,0Z" transform="translate(5215.957 -5608.798)" fill="#e8fae8"/><path data-name="패스 2219" d="M185.725,16.608a119.664,119.664,0,0,0-119.236-.4l59.733,103.461Z" transform="translate(5210.234 -5608.798)" fill="#c7f1c7"/><path data-name="패스 2220" d="M131.894,121.2H250.98A119.493,119.493,0,0,0,191.4,18.138Z" transform="translate(5204.562 -5610.328)" fill="#00d060"/></g><g data-name="그룹 201426" transform="translate(5340.125 -5541.498)"><path data-name="패스 2194" d="M146.837,87.037s.7,13.612,34.614,10.9c0,0,10.226-1.319,15.2-1.061s52.605-3.489,51.918-35.882l-4.61-23.6L143.415,71.837Z" transform="translate(-143.08 -23.44)" fill="#fff"/><path data-name="패스 2194 - 윤곽선" d="M173.02,99.041h0a55.334,55.334,0,0,1-15.1-1.788,21.9,21.9,0,0,1-8.074-4.015c-3.291-2.768-3.7-5.583-3.752-6.087l-3.558-15.806,102-34.94,4.788,24.5v.065a27.776,27.776,0,0,1-8.16,20.723,42.669,42.669,0,0,1-11.773,8.239,71.427,71.427,0,0,1-13.228,4.827A86.213,86.213,0,0,1,197.2,97.633c-.227,0-.424,0-.587-.013-.414-.021-.885-.032-1.4-.032-5.165,0-13.582,1.078-13.667,1.089l-.036,0C178.522,98.92,175.665,99.041,173.02,99.041ZM147.586,87a5.337,5.337,0,0,0,.481,1.617,10.059,10.059,0,0,0,2.87,3.581,20.775,20.775,0,0,0,7.54,3.658,54.2,54.2,0,0,0,14.54,1.689h0c2.6,0,5.41-.119,8.354-.355a137.8,137.8,0,0,1,13.841-1.1c.541,0,1.039.012,1.478.034.137.007.308.011.509.011a84.119,84.119,0,0,0,18.576-2.822,69.931,69.931,0,0,0,12.95-4.723,41.184,41.184,0,0,0,11.362-7.942,26.242,26.242,0,0,0,7.734-19.577L243.39,38.382l-99.1,33.946,3.289,14.612Z" transform="translate(-143.08 -23.44)" fill="#888"/><path data-name="패스 2196" d="M203.461,34.456a30.158,30.158,0,0,0-5.683,4.225c-2.937,2.687-12.059,9.29-32.74,11.774-26.239,3.153-21.49,26.869-21.49,26.869s.7,13.612,34.614,10.9c0,0,10.228-1.317,15.2-1.062s52.605-3.488,51.92-35.882C244.69,23.3,217.659,26.6,203.461,34.456" transform="translate(-143.212 -28.928)" fill="#fff"/><path data-name="패스 2196 - 윤곽선" d="M169.727,89.327a55.33,55.33,0,0,1-15.1-1.788,21.894,21.894,0,0,1-8.074-4.015c-3.32-2.792-3.711-5.634-3.753-6.1a27.476,27.476,0,0,1,.752-12,21.146,21.146,0,0,1,3.092-6.318c3.787-5.229,9.945-8.39,18.3-9.394,20.427-2.453,29.41-8.917,32.323-11.583A30.522,30.522,0,0,1,203.1,33.8a45.412,45.412,0,0,1,20.932-5.622,27.077,27.077,0,0,1,8.116,1.158,18.887,18.887,0,0,1,6.983,3.891c4.41,3.938,6.733,10.005,6.9,18.033a27.778,27.778,0,0,1-8.162,20.724A42.672,42.672,0,0,1,226.1,80.223a71.426,71.426,0,0,1-13.228,4.826,86.21,86.21,0,0,1-18.957,2.87h0c-.227,0-.425,0-.587-.013-.412-.021-.881-.032-1.393-.032-5.163,0-13.59,1.077-13.674,1.088l-.036,0C175.231,89.206,172.374,89.327,169.727,89.327ZM144.3,77.282a5.338,5.338,0,0,0,.481,1.617,10.059,10.059,0,0,0,2.87,3.582,20.774,20.774,0,0,0,7.54,3.658,54.191,54.191,0,0,0,14.54,1.689c2.6,0,5.413-.119,8.356-.355a138.129,138.129,0,0,1,13.848-1.1c.538,0,1.033.011,1.47.034.137.007.309.011.51.011h0A84.113,84.113,0,0,0,212.487,83.6a69.929,69.929,0,0,0,12.95-4.722A41.186,41.186,0,0,0,236.8,70.935a26.251,26.251,0,0,0,7.734-19.643c-.161-7.595-2.315-13.3-6.4-16.946a17.4,17.4,0,0,0-6.434-3.579,25.584,25.584,0,0,0-7.666-1.089,43.845,43.845,0,0,0-20.206,5.435,29.082,29.082,0,0,0-5.54,4.122c-3.02,2.763-12.3,9.46-33.157,11.965-7.924.952-13.733,3.908-17.265,8.785a19.65,19.65,0,0,0-2.87,5.871,25.97,25.97,0,0,0-.709,11.321l.012.059Z" transform="translate(-143.212 -28.928)" fill="#888"/><path data-name="패스 2198" d="M153.685,50.043s-10.374,8.059-5.85,16.241,12.957,6.186,20.319,7.162c5.655.75,12.257-2.39,10.8-11.408s-7.539-25.188-25.272-11.995" transform="translate(-140.955 -18.47)" fill="#fff"/><path data-name="패스 2198 - 윤곽선" d="M169.769,74.3h0a13.083,13.083,0,0,1-1.713-.113c-1.628-.216-3.355-.285-5.026-.352a31.7,31.7,0,0,1-8.711-1.153,12.346,12.346,0,0,1-7.14-6.038,9.625,9.625,0,0,1-1.077-6.483,14.53,14.53,0,0,1,2.338-5.485,24.507,24.507,0,0,1,4.785-5.228l.012-.009c4.577-3.405,8.749-5.132,12.4-5.132a10.5,10.5,0,0,1,6.036,1.858,14.737,14.737,0,0,1,4.135,4.519A32.277,32.277,0,0,1,179.7,61.918a13.565,13.565,0,0,1-.083,5.241,8.93,8.93,0,0,1-1.883,3.8A10.332,10.332,0,0,1,169.769,74.3ZM154.14,50.639a23.42,23.42,0,0,0-4.473,4.9,13.01,13.01,0,0,0-2.092,4.9,8.158,8.158,0,0,0,.916,5.478c3.3,5.965,8.786,6.185,14.6,6.418,1.7.068,3.466.139,5.163.364a11.576,11.576,0,0,0,1.516.1,8.843,8.843,0,0,0,6.821-2.813,7.445,7.445,0,0,0,1.564-3.171,12.085,12.085,0,0,0,.063-4.66,30.758,30.758,0,0,0-3.684-10.684c-2.313-3.758-5.306-5.664-8.894-5.664C162.318,45.81,158.45,47.434,154.14,50.639Z" transform="translate(-140.955 -18.47)" fill="#888"/><path data-name="패스 2201" d="M176.334,46.965s7.261-4.477,11.9-7.976,21.639-11.2,30.629,1.762-7.381,26.173-13.183,28.677c-2.9,1.253-8.686,3.728-18.064.851-6.8-2.087-12.15-.766-15.74-4.093S166.487,53.445,176.334,46.965Z" transform="translate(-126.484 -25.956)" fill="#fff"/><path data-name="패스 2201 - 윤곽선" d="M204.821,32.762a18.263,18.263,0,0,1,7.833,1.651,17.21,17.21,0,0,1,6.824,5.91,14.354,14.354,0,0,1,2.168,12.638c-2.4,8.379-11.388,15.308-15.67,17.155a23.691,23.691,0,0,1-10.022,2.249A29.287,29.287,0,0,1,187.395,71a39.582,39.582,0,0,0-7.316-1.357c-3.424-.4-6.38-.742-8.713-2.9A9.508,9.508,0,0,1,168.985,63a12.3,12.3,0,0,1-.677-5.179,13.2,13.2,0,0,1,2-5.916,18.375,18.375,0,0,1,5.619-5.562l.019-.012c.072-.045,7.285-4.5,11.841-7.936A31.6,31.6,0,0,1,204.821,32.762Zm-8.867,38.1a22.334,22.334,0,0,0,9.427-2.126,30.123,30.123,0,0,0,8-5.742c2.416-2.339,5.56-6.051,6.817-10.448a12.916,12.916,0,0,0-1.958-11.37,15.479,15.479,0,0,0-13.424-6.917,27.354,27.354,0,0,0-9.657,1.928,29.262,29.262,0,0,0-6.479,3.4c-4.535,3.422-11.64,7.82-11.947,8.01a16.889,16.889,0,0,0-5.161,5.094A11.71,11.71,0,0,0,169.8,57.94a9.6,9.6,0,0,0,2.583,7.7c1.973,1.828,4.574,2.131,7.867,2.513a40.81,40.81,0,0,1,7.583,1.413A27.794,27.794,0,0,0,195.954,70.866Z" transform="translate(-126.484 -25.956)" fill="#888"/><path data-name="패스 2202" d="M165.444,58.093c-.03,2.317-2.866,4.159-6.334,4.114s-6.254-1.961-6.224-4.279,2.866-4.16,6.334-4.114,6.254,1.961,6.224,4.279" transform="translate(-136.94 -12.795)" fill="#fff"/><path data-name="패스 2202 - 윤곽선" d="M159.233,62.958H159.1a8.816,8.816,0,0,1-4.839-1.42,4.367,4.367,0,0,1-2.125-3.619c.037-2.755,3.168-4.907,7.094-4.854a8.816,8.816,0,0,1,4.839,1.42,4.367,4.367,0,0,1,2.125,3.619C166.16,60.826,163.1,62.958,159.233,62.958Zm-.14-8.395a7.235,7.235,0,0,0-3.956,1.075,2.571,2.571,0,0,0-.025,4.664,7.309,7.309,0,0,0,4.009,1.156h.113a7.249,7.249,0,0,0,3.96-1.074,2.571,2.571,0,0,0,.026-4.664,7.309,7.309,0,0,0-4.009-1.156Z" transform="translate(-136.94 -12.795)" fill="#888"/></g><g data-name="그룹 201427" transform="translate(5216.458 -5521.173)"><path data-name="패스 2204" d="M201.783,110.453c0-8.565-7.308-15.508-16.324-15.508h-.56a42.921,42.921,0,0,1-12.946-2.108,25.474,25.474,0,0,0-7.64-1.163c-13.428,0-24.315,10.342-24.315,23.1s10.887,23.1,24.315,23.1a24.9,24.9,0,0,0,16.91-6.505,35.465,35.465,0,0,1,10.674-6.664,15.513,15.513,0,0,0,9.885-14.252" transform="translate(-139.999 -91.675)" fill="#fff"/><path data-name="패스 2204 - 윤곽선" d="M164.314,138.625a26.01,26.01,0,0,1-9.744-1.87,25.091,25.091,0,0,1-7.966-5.1,23.744,23.744,0,0,1-5.38-7.581,22.86,22.86,0,0,1,0-18.593A23.742,23.742,0,0,1,146.6,97.9a25.09,25.09,0,0,1,7.966-5.1,26.371,26.371,0,0,1,17.608-.672A42.342,42.342,0,0,0,184.821,94.2h.636a17.407,17.407,0,0,1,12.061,4.748,16.184,16.184,0,0,1,3.667,5.168,15.5,15.5,0,0,1,1.348,6.342A16.245,16.245,0,0,1,192.181,125.4a34.675,34.675,0,0,0-10.45,6.522A25.61,25.61,0,0,1,164.314,138.625Zm0-46.2a24.519,24.519,0,0,0-9.185,1.761,23.6,23.6,0,0,0-7.492,4.8,22.249,22.249,0,0,0-5.042,7.1,21.36,21.36,0,0,0,0,17.373,22.251,22.251,0,0,0,5.042,7.1,23.6,23.6,0,0,0,7.492,4.8,24.517,24.517,0,0,0,9.185,1.761,24.114,24.114,0,0,0,16.4-6.307,36.169,36.169,0,0,1,10.9-6.807,14.751,14.751,0,0,0,9.418-13.558,14.284,14.284,0,0,0-4.548-10.422,15.912,15.912,0,0,0-11.026-4.336h-.638a43.835,43.835,0,0,1-13.092-2.143A24.717,24.717,0,0,0,164.314,92.425Z" transform="translate(-139.999 -91.675)" fill="#888"/><ellipse data-name="타원 38" cx="10.417" cy="10.417" rx="10.417" ry="10.417" transform="translate(15.051 9.329)" fill="#fff"/><path data-name="타원 38 - 윤곽선" d="M10.417-.75a11.167,11.167,0,0,1,7.9,19.063A11.167,11.167,0,1,1,2.521,2.521,11.094,11.094,0,0,1,10.417-.75Zm0,20.834A9.667,9.667,0,1,0,.75,10.417,9.678,9.678,0,0,0,10.417,20.084Z" transform="translate(15.051 9.329)" fill="#888"/></g><g data-name="그룹 201428" transform="translate(5287.035 -5587.665)"><path data-name="패스 2208" d="M260.157,109.763s-.326-16.113-.717-15.777c-3.344,2.872-21.933,17.287-71.921,30.585l-.484.128c.106.906,8.21,5.754,8.21,5.754l10.847,1.078L255.7,116.668Z" transform="translate(-186.119 -92.968)" fill="#fff"/><path data-name="패스 2208 - 윤곽선" d="M259.452,93.231h0c.195,0,.663.076.806.778.028.138.054.325.081.572.045.421.09,1.035.135,1.824.075,1.315.151,3.147.225,5.444.127,3.905.208,7.861.208,7.9l0,.229-4.731,7.33-50.015,14.985L195,131.183l-.144-.086c-.02-.012-2.061-1.234-4.089-2.552-1.2-.779-2.16-1.44-2.859-1.965-1.3-.978-1.574-1.385-1.622-1.794l-.076-.647.63-.166.239-.063.246-.065c49.914-13.279,68.42-27.677,71.623-30.429A.769.769,0,0,1,259.452,93.231Zm-.049,16.319c-.095-4.582-.292-11.424-.494-14.154-2.518,2-7.951,5.846-17.6,10.645a222.63,222.63,0,0,1-21.669,9.249c-9.445,3.5-19.934,6.8-31.189,9.811.572.452,1.591,1.187,3.407,2.359,1.6,1.036,3.164,1.982,3.635,2.265l10.532,1.047,49.2-14.741Z" transform="translate(-186.119 -92.968)" fill="#888"/><ellipse data-name="타원 39" cx="10.901" cy="10.901" rx="10.901" ry="10.901" transform="translate(29.856 14.567)" fill="#fff"/><path data-name="타원 39 - 윤곽선" d="M10.9-.75A11.651,11.651,0,0,1,19.14,19.14,11.651,11.651,0,0,1,2.663,2.663,11.575,11.575,0,0,1,10.9-.75Zm0,21.8A10.151,10.151,0,1,0,.75,10.9,10.163,10.163,0,0,0,10.9,21.052Z" transform="translate(29.856 14.567)" fill="#888"/><ellipse data-name="타원 40" cx="10.901" cy="10.901" rx="10.901" ry="10.901" transform="translate(10.565 22.22)" fill="#fff"/><path data-name="타원 40 - 윤곽선" d="M10.9-.75A11.651,11.651,0,0,1,19.14,19.14,11.651,11.651,0,0,1,2.663,2.663,11.575,11.575,0,0,1,10.9-.75Zm0,21.8A10.151,10.151,0,1,0,.75,10.9,10.163,10.163,0,0,0,10.9,21.052Z" transform="translate(10.565 22.22)" fill="#888"/><ellipse data-name="타원 41" cx="10.901" cy="10.901" rx="10.901" ry="10.901" transform="translate(48.419 6.077)" fill="#fff"/><path data-name="타원 41 - 윤곽선" d="M10.9-.75A11.651,11.651,0,0,1,19.14,19.14,11.651,11.651,0,0,1,2.663,2.663,11.575,11.575,0,0,1,10.9-.75Zm0,21.8A10.151,10.151,0,1,0,.75,10.9,10.163,10.163,0,0,0,10.9,21.052Z" transform="translate(48.419 6.077)" fill="#888"/><path data-name="패스 2213" d="M261,93.974a1.1,1.1,0,0,0-2.063-.225,58.808,58.808,0,0,1-28.463,27.774c-17.977,8.3-35.816,4.6-42.675,2.622a1.207,1.207,0,0,0-1.361,1.788c12.467,20.374,27.888,15.9,31.979,13.5a5.641,5.641,0,0,1,2.8-.75,34.936,34.936,0,0,0,25.08-10.622,8.828,8.828,0,0,1,3.717-2.261C265.64,120.718,262.8,101.552,261,93.974Z" transform="translate(-186.258 -93.121)" fill="#fff"/><path data-name="패스 2213 - 윤곽선" d="M259.921,92.371h0a1.852,1.852,0,0,1,1.809,1.43,56.019,56.019,0,0,1,1.257,7.558,38.437,38.437,0,0,1-.2,9.582,21.331,21.331,0,0,1-3.6,9.246,17.342,17.342,0,0,1-8.938,6.322,8.04,8.04,0,0,0-3.405,2.064,34.769,34.769,0,0,1-8.823,6.65,36.1,36.1,0,0,1-16.793,4.206,4.885,4.885,0,0,0-2.427.647,19.417,19.417,0,0,1-9.344,2.264A22.336,22.336,0,0,1,197.97,139.1c-4.526-2.675-8.621-6.974-12.171-12.777a1.926,1.926,0,0,1-.04-1.971,1.955,1.955,0,0,1,1.7-1.009,1.985,1.985,0,0,1,.551.079,67.14,67.14,0,0,0,18.116,2.522,56.928,56.928,0,0,0,24.037-5.1,58.506,58.506,0,0,0,19.529-14.52,55.807,55.807,0,0,0,8.57-12.894A1.825,1.825,0,0,1,259.921,92.371Zm-50.468,48.47a17.841,17.841,0,0,0,8.584-2.058,6.387,6.387,0,0,1,3.172-.854,34.613,34.613,0,0,0,16.1-4.03,33.25,33.25,0,0,0,8.441-6.359,9.519,9.519,0,0,1,4.029-2.458c6.454-2.1,10.33-6.935,11.519-14.379,1.015-6.354-.21-13.1-1.03-16.557a.35.35,0,0,0-.349-.276.321.321,0,0,0-.306.2,57.328,57.328,0,0,1-8.8,13.245,60,60,0,0,1-20.027,14.89,58.416,58.416,0,0,1-24.665,5.243,68.685,68.685,0,0,1-18.532-2.581.487.487,0,0,0-.135-.02.457.457,0,0,0-.389.242.428.428,0,0,0,.01.454C194.815,138.186,203.516,140.84,209.453,140.84Z" transform="translate(-186.258 -93.121)" fill="#888"/></g></g></svg>