<svg xmlns="http://www.w3.org/2000/svg" xmlns:xlink="http://www.w3.org/1999/xlink" width="240" height="200"><defs><clipPath id="a"><rect data-name="사각형 274527" width="240" height="200" transform="translate(5216 -5616)" fill="#fff" stroke="#707070" stroke-width="1"/></clipPath></defs><g transform="translate(-5216 5616)" clip-path="url(#a)"><g data-name="그룹 201430" transform="translate(12290.245 -3808.488)"><g data-name="그룹 201432" transform="translate(-7047.411 -1796.574)"><path data-name="패스 2221" d="M210.851,116.979A89.131,89.131,0,1,1,121.72,27.848a89.131,89.131,0,0,1,89.131,89.131" transform="translate(-32.589 -27.848)" fill="#00d060"/><path data-name="패스 2222" d="M203.322,122.021a76.56,76.56,0,1,1-76.56-76.56,76.559,76.559,0,0,1,76.56,76.56" transform="translate(-37.631 -32.89)" fill="#fff"/><path data-name="패스 2232" d="M0,0V64.393H63.465C63.465,29.341,35.051,0,0,0" transform="translate(153.059 90.081) rotate(90)" fill="#e8fae8"/><path data-name="패스 2233" d="M0,64.393V0H65.469C65.469,35.052,36.157,64.393,0,64.393" transform="translate(89.131 88.078) rotate(90)" fill="#e8fae8"/><path data-name="패스 2223" d="M135,61.756v65.782h63.465c0-35.808-28.414-65.782-63.465-65.782" transform="translate(-45.869 -36.146)" fill="#e8fae8"/><line data-name="선 43" y1="11.287" transform="translate(89.131 25.461)" fill="#fff"/><path data-name="선 44" d="M.75,11.482H-.75V0H.75Z" transform="translate(89.131 24.36)" fill="#888"/><line data-name="선 45" x1="9.776" y1="5.644" transform="translate(33.991 57.295)" fill="#fff"/><path data-name="선 46" d="M9.569,6.391-.375.65l.75-1.3,9.944,5.742Z" transform="translate(33.038 56.745)" fill="#888"/><line data-name="선 47" x1="9.776" y2="5.644" transform="translate(33.991 115.322)" fill="#fff"/><path data-name="선 48" d="M.375,6.391l-.75-1.3L9.569-.65l.75,1.3Z" transform="translate(33.038 115.775)" fill="#888"/><line data-name="선 49" y2="11.287" transform="translate(89.131 141.514)" fill="#fff"/><path data-name="선 50" d="M.75,11.482H-.75V0H.75Z" transform="translate(89.131 142.419)" fill="#888"/><line data-name="선 51" x2="9.775" y2="5.644" transform="translate(134.496 115.322)" fill="#fff"/><path data-name="선 52" d="M9.525,6.077-.25.433l.5-.866,9.775,5.644Z" transform="translate(134.496 115.322)" fill="#888"/><line data-name="선 53" y1="5.644" x2="9.775" transform="translate(134.496 57.295)" fill="#fff"/><path data-name="선 54" d="M.375,6.391l-.75-1.3L9.569-.65l.75,1.3Z" transform="translate(135.28 56.745)" fill="#888"/><line data-name="선 55" y1="9.673" x2="5.817" transform="translate(116.127 34.568)" fill="#fff"/><path data-name="선 56" d="M.643,10.227-.643,9.453,5.275-.387,6.561.387Z" transform="translate(116.594 33.624)" fill="#888"/><line data-name="선 57" x1="5.468" y1="9.874" transform="translate(58.285 33.432)" fill="#fff"/><path data-name="선 58" d="M4.907,10.408-.656.363.656-.363,6.219,9.681Z" transform="translate(57.752 32.47)" fill="#888"/><path data-name="선 59" d="M11.467.954-.013.75.013-.75l11.481.2Z" transform="translate(24.371 87.976)" fill="#888"/><line data-name="선 61" x1="5.817" y2="9.673" transform="translate(56.317 134.021)" fill="#fff"/><path data-name="선 62" d="M.643,10.227-.643,9.453,5.275-.387,6.561.387Z" transform="translate(55.75 134.797)" fill="#888"/><line data-name="선 63" x2="5.468" y2="9.874" transform="translate(114.509 134.956)" fill="#fff"/><path data-name="선 64" d="M5.031,10.116-.437.242.437-.242,5.906,9.632Z" transform="translate(114.509 134.956)" fill="#888"/><line data-name="선 65" x2="11.286" y2="0.201" transform="translate(141.506 90.065)" fill="#fff"/><path data-name="선 66" d="M11.467.954-.013.75.013-.75l11.481.2Z" transform="translate(142.411 90.081)" fill="#888"/><path data-name="패스 2224" d="M133.911,136.478a7.307,7.307,0,1,1,7.307-7.307,7.315,7.315,0,0,1-7.307,7.307" transform="translate(-44.78 -40.039)" fill="#fff"/><path data-name="패스 2224 - 윤곽선" d="M133.911,137.228a8.057,8.057,0,1,1,8.057-8.057A8.066,8.066,0,0,1,133.911,137.228Zm0-14.614a6.557,6.557,0,1,0,6.557,6.556A6.564,6.564,0,0,0,133.911,122.614Z" transform="translate(-44.78 -40.039)" fill="#888"/></g><g data-name="그룹 201431" transform="translate(-6946.296 -1697.669)"><path data-name="패스 2226" d="M221.384,178.047a42.609,42.609,0,1,1-42.609-42.609,42.609,42.609,0,0,1,42.609,42.609" transform="translate(-136.167 -135.438)" fill="#fff"/><path data-name="패스 2226 - 윤곽선" d="M178.776,221.405A43.225,43.225,0,1,1,195.653,218,43.087,43.087,0,0,1,178.776,221.405Zm0-85.217a41.725,41.725,0,1,0,16.293,3.289A41.6,41.6,0,0,0,178.776,136.188Z" transform="translate(-136.167 -135.438)" fill="#888"/><path data-name="패스 2227" d="M16.371,33.459a8,8,0,0,1-.9-.05h0a1.044,1.044,0,0,1-.663-.357l-.089-.1a5.469,5.469,0,0,0-.662-.691.631.631,0,0,0,.183.079l.537-1.927c.355.1.67.35,1.287,1.04,2.945.153,6.717-1.736,10.425-5.236a25.719,25.719,0,0,1,8.241-5.079c.908-.352,1.722-.616,2.387-.808l-4.144-3.982c-2.089.569-5.334,2.237-9.444,4.857-3.413,2.176-6.214,4.245-6.242,4.266L16.1,23.863c.468-.346,11.513-8.486,16.976-9.595l.514-.1,7.648,7.348-1.943.34a23.053,23.053,0,0,0-3.886,1.169,23.687,23.687,0,0,0-7.544,4.65,24.373,24.373,0,0,1-6.713,4.671A11.991,11.991,0,0,1,16.371,33.459Z" transform="translate(11.218 11.302)" fill="#00d060"/><path data-name="패스 2228" d="M25.53,45.269,24.243,43.93,18.26,37.7l.1-.514c1.117-5.505,9.795-15.483,10.163-15.9L30.033,22.6c-.022.025-2.222,2.549-4.52,5.678-2.751,3.746-4.491,6.774-5.068,8.813l4.031,4.195c.233-.733.557-1.658.988-2.7a28.355,28.355,0,0,1,5.291-8.458,57.712,57.712,0,0,0,5.025-5.869,8.794,8.794,0,0,0,1.693-3.6c-.91-.759-1.2-1.1-1.309-1.483l1.927-.536A.669.669,0,0,0,38,18.433a7.658,7.658,0,0,0,.972.87,1.121,1.121,0,0,1,.535.943c-.024,2.993-2.585,6.268-7.3,11.259-4.639,4.914-6.254,11.883-6.27,11.953Z" transform="translate(13.213 13.262)" fill="#00d060"/><path data-name="패스 2229" d="M24.52,43.159a5.919,5.919,0,0,1-.941-.075l.317-1.975c1.871.3,4.515-.661,11.334-6.329a38.364,38.364,0,0,1,10.242-6.39l-4.055-3.629c-2.118.475-5.172,2.066-8.88,4.63-3.062,2.117-5.479,4.151-5.5,4.171l-1.29-1.529c.1-.085,2.515-2.116,5.655-4.287,4.288-2.965,7.706-4.663,10.161-5.048l.468-.073,7.518,6.728-1.907.42a16.383,16.383,0,0,0-3.067,1.2,40.343,40.343,0,0,0-8.064,5.348A47.538,47.538,0,0,1,28.549,42,8.8,8.8,0,0,1,24.52,43.159Z" transform="translate(15.175 15.494)" fill="#00d060"/><path data-name="패스 2230" d="M33.8,53.02a1.143,1.143,0,0,1-.808-.336l-6.073-6.031.038-.464c.013-.156.356-3.882,3.87-8.221,2.787-3.441,3.218-5.673,3.222-5.7v.008l1.973.325c-.018.109-.476,2.716-3.64,6.621a17.413,17.413,0,0,0-2.89,5.014,11.492,11.492,0,0,0-.472,1.679l4.131,4.1a17.322,17.322,0,0,1,1.523-4.307,36.259,36.259,0,0,1,5.772-8.082,19.407,19.407,0,0,0,4.391-7.152,8.114,8.114,0,0,0,.455-2.817v.008l1.988-.215c.022.206.48,5.126-5.358,11.523-5.62,6.163-6.9,10.439-6.991,12.942a1.132,1.132,0,0,1-1.132,1.1Z" transform="translate(17.491 17.421)" fill="#00d060"/><path data-name="패스 2231" d="M16.938,36.842l-6.4-6.142.07-.506a14.265,14.265,0,0,1,1.311-3.975,36.852,36.852,0,0,1,5.18-7.786c4.057-4.835,5.285-8.4,5.6-10.53l.291-1.967L29.3,12.255l-.1.517a22.893,22.893,0,0,1-6.018,11.391c-4.331,4.4-5.523,7.478-5.981,10.742Zm-4.261-6.859,2.9,2.782A15.893,15.893,0,0,1,16.892,29.2a26.473,26.473,0,0,1,4.874-6.439,20.907,20.907,0,0,0,5.372-9.844l-2.874-2.875a27.417,27.417,0,0,1-5.635,9.676,34.886,34.886,0,0,0-4.9,7.352A14.272,14.272,0,0,0,12.677,29.983Z" transform="translate(9.365 7.727)" fill="#00d060"/></g></g></g></svg>