<svg xmlns="http://www.w3.org/2000/svg" xmlns:xlink="http://www.w3.org/1999/xlink" width="520" height="460"><defs><clipPath id="a"><rect data-name="사각형 274451" width="520" height="460" transform="translate(5216 -5616)" fill="#fff" stroke="#707070" stroke-width="1"/></clipPath></defs><g data-name="@Illust" transform="translate(-5216 5616)" clip-path="url(#a)"><g transform="translate(-128.941 -62.811)"><path data-name="패스 1691" d="M495.948,229.861c-3.686,114.255-131.255,214.62-271.638,177.425S48.447,384.41,49.938,222.6c0-92.508,110.471-171.463,247.368-193.116S495.948,98.341,495.948,229.861Z" transform="matrix(0.978, 0.208, -0.208, 0.978, 5387.503, -5502.366)" fill="#d6f5d5" opacity="0.54"/><path data-name="패스 1687" d="M400.557.472,358.934,36a1.913,1.913,0,0,0,.652,3.274l16.751,5.431a1.912,1.912,0,0,1,1.1,2.712l-16.28,30.82a1.912,1.912,0,0,0,2.917,2.36l43.292-36.214a1.912,1.912,0,0,0-.659-3.294l-16.569-5.149A1.913,1.913,0,0,1,388.98,33.3L403.526,2.749A1.913,1.913,0,0,0,400.557.472" transform="translate(5344.587 -5535.253)" fill="#00d060"/><path data-name="패스 1690" d="M23.061.257.366,19.631a1.043,1.043,0,0,0,.355,1.785l9.133,2.961a1.043,1.043,0,0,1,.6,1.479l-8.877,16.8a1.043,1.043,0,0,0,1.591,1.287L26.775,24.2a1.043,1.043,0,0,0-.359-1.8L17.381,19.6a1.043,1.043,0,0,1-.632-1.444L24.68,1.5A1.043,1.043,0,0,0,23.061.257" transform="matrix(0.921, -0.391, 0.391, 0.921, 5666.731, -5535.408)" fill="#8de291"/><g transform="translate(5350.622 -5478.189)"><path data-name="패스 1557" d="M166.735,192.564l-57.486-11.782c.519-2.3,1.871-9.056.835-12.757-.211-.75-.517-1.574-.873-2.529-1.642-4.4-4.119-11.041.775-18.52,6.244-9.538,3.805-22.714,3.7-23.268C109.083,89.655,128,52.9,140.52,28.576c1.3-2.519,2.522-4.9,3.647-7.134C151.355,7.17,166.273,4.173,177.521,4.173a57.628,57.628,0,0,1,10.693.947l.313.066.271-.176C194.968.939,205.906.5,210.319.5c1.089,0,1.737.028,1.746.028,15.675.867,28.339,11.534,36.2,20.328a102.868,102.868,0,0,1,13.443,19.081c.459,3.406,1.733,66.71,17.5,92.433,15.2,24.794,17.4,54.094,17.354,56.351l-3.309,10.469Z" transform="translate(56.276 -0.499)" fill="#fff"/><path data-name="패스 1557 - 윤곽선" d="M293.811,200l-.6-.032L166.636,193.34l-.057-.012-58.265-11.942.175-.776c.451-2,1.844-8.807.844-12.375-.2-.724-.5-1.531-.853-2.467a28.941,28.941,0,0,1-2.111-8.324,16.989,16.989,0,0,1,.443-5.225,18.462,18.462,0,0,1,2.521-5.671c6.068-9.269,3.69-22.15,3.586-22.694l-.007-.042c-4.634-34.293,14.35-71.178,26.911-95.585l.189-.367c1.229-2.391,2.39-4.649,3.459-6.77a29.8,29.8,0,0,1,15.55-14.354,47.726,47.726,0,0,1,18.5-3.343,58.271,58.271,0,0,1,10.845.962h.007C194.722.171,205.835-.281,210.319-.281c.913,0,1.534.019,1.759.028h.03c15.945.882,28.779,11.682,36.737,20.587A103.866,103.866,0,0,1,262.4,39.574l.064.122.018.136c.061.449.127,1.725.237,3.839.37,7.117,1.236,23.783,3.724,41.268,3.088,21.7,7.606,37.522,13.428,47.022a110.833,110.833,0,0,1,9.2,19.082,139.94,139.94,0,0,1,5.294,17.779,111.93,111.93,0,0,1,2.98,19.914l0,.112Zm-126.977-8.211,125.853,6.59,3.091-9.779a115.211,115.211,0,0,0-2.941-19.43,138.384,138.384,0,0,0-5.234-17.58,109.271,109.271,0,0,0-9.064-18.813c-5.934-9.683-10.524-25.7-13.642-47.618-2.5-17.554-3.367-34.269-3.738-41.407-.091-1.755-.159-3.068-.21-3.582a102.594,102.594,0,0,0-13.267-18.8c-7.761-8.683-20.245-19.213-35.652-20.069h-.009c-.216-.008-.815-.027-1.7-.027-4.345,0-15.1.427-21.092,4.383l-.547.354-.627-.133a57.569,57.569,0,0,0-10.532-.93,46.186,46.186,0,0,0-17.9,3.222,28.277,28.277,0,0,0-14.76,13.618c-1.072,2.127-2.234,4.388-3.465,6.781l-.189.368c-12.47,24.229-31.313,60.841-26.755,94.642A40.993,40.993,0,0,1,115,132a36.487,36.487,0,0,1-1.027,7.584,25.563,25.563,0,0,1-3.331,7.819,15.667,15.667,0,0,0-2.712,9.936,27.657,27.657,0,0,0,2.016,7.884c.361.968.672,1.8.893,2.59.976,3.485-.016,9.335-.655,12.362Z" transform="translate(56.276 -0.499)" fill="#888"/><path data-name="패스 1559" d="M165.193,53.482s-6.488-2.39-12.121,4.267-8.705,6.146-12.632,6.486-11.435,11.608-17.07,14.509-66.74,33.8-78.347,42.845-56.157,29.7-41.648,58.889,144.918,57.354,144.918,57.354.768,19.387.853,41.99,9.047,38.747,8.365,71.692-1.876,68.618-1.876,68.618,59.4,30.726,210.975-1.364c0,0,.684-120.341,9.731-140.652s14-38.578,47.623-52.063,79.884-27.994,84.322-50.866-18.092-36.359-22.872-39.6S393.751,87.792,383.851,86.768s-18.605-1.877-26.117-7.51-15.02-13.827-24.749-14.167-19.971,6.315-23.214,12.119-9.731,22.532-5.122,30.213,20.313,8.192,26.286,13.314,35.751,31.39,42.921,34.8c0,0-43.6,2.406-59.136-3.567a24.71,24.71,0,0,0-9.423-1.942c-5.3-.015-64.233,6.166-64.233,6.166s-6.192.12-9.792,1.477a18.093,18.093,0,0,1-8.343,1.192c-8.916-.969-25.621-2.949-34.01-5.016-11.779-2.9-63.329-.682-63.329-.682s20.485-18.094,25.946-26.8,19.118-14,24.409-18.436,25.141-20.007,14.363-32.876-25.114-21.576-25.114-21.576" transform="translate(-0.5 27.74)" fill="#fff"/><path data-name="패스 1559 - 윤곽선" d="M241.833,434.144a348.025,348.025,0,0,1-39.1-2.077,230.215,230.215,0,0,1-26.88-4.574c-13.909-3.3-20.3-6.557-20.561-6.694l-.421-.218.016-.474c.012-.357,1.2-36.047,1.875-68.609a160.769,160.769,0,0,0-1.289-24.173c-.915-7.088-2.173-13.336-3.388-19.377-1.877-9.326-3.65-18.135-3.687-28.123-.076-20.175-.7-37.991-.831-41.385-2.063-.454-9.578-2.132-20.057-4.738-11.371-2.828-28.662-7.359-46.457-12.886-20.016-6.217-36.58-12.4-49.234-18.385a120.214,120.214,0,0,1-18.489-10.5C8.063,188.144,4.488,184.4,2.7,180.812a27.7,27.7,0,0,1-2.785-9.052,24.341,24.341,0,0,1,.5-8.5,30.051,30.051,0,0,1,3.145-7.839,44.706,44.706,0,0,1,5.119-7.15C16.5,139.24,27.943,131.912,36.3,126.562c3.391-2.172,6.32-4.047,8.265-5.564,4.529-3.53,16.97-10.724,36.975-21.383,15.953-8.5,31.991-16.686,38.84-20.182,1.255-.641,2.162-1.1,2.65-1.355,2.546-1.311,5.55-4.466,8.455-7.517,3.508-3.685,6.538-6.867,8.894-7.072.409-.035.808-.062,1.195-.087a12.716,12.716,0,0,0,4.844-.976,18.487,18.487,0,0,0,6.086-5.16c3.462-4.091,7.256-4.95,9.83-4.95a9.782,9.782,0,0,1,3.123.464l.068.025.062.038c.036.022,3.676,2.241,8.583,6.008a108.533,108.533,0,0,1,16.717,15.728,13.255,13.255,0,0,1,3.275,9.977c-.389,4.3-2.794,9.021-7.149,14.03a83.82,83.82,0,0,1-9.868,9.33c-.26.216-.5.415-.714.595a58.959,58.959,0,0,1-7.481,4.838c-5.887,3.45-13.213,7.744-16.774,13.421-2.3,3.661-7.389,9.315-15.135,16.8-3.85,3.722-7.431,6.994-9.392,8.763,5.4-.207,20.353-.729,34.3-.729,13.934,0,23.069.51,27.151,1.515,8.3,2.045,24.811,4.009,33.912,5a14.994,14.994,0,0,0,1.618.087,18.123,18.123,0,0,0,6.38-1.235c3.581-1.349,9.461-1.512,10.009-1.524,2.818-.3,58.877-6.167,64.26-6.167h.022a25.338,25.338,0,0,1,9.713,2c8.6,3.3,26.042,3.987,39.168,3.987,7.361,0,13.734-.218,17.1-.359a203.234,203.234,0,0,1-16.185-12.53c-7.829-6.49-16.141-13.7-21.106-18.012-1.534-1.331-2.745-2.382-3.539-3.062-2.385-2.045-6.487-3.348-10.83-4.728a68.432,68.432,0,0,1-8.975-3.311c-3.189-1.546-5.359-3.331-6.636-5.459a14.468,14.468,0,0,1-1.707-7.534,38.068,38.068,0,0,1,1.238-8.842,65.044,65.044,0,0,1,5.579-14.589c1.679-3,5.012-6.093,9.145-8.472a28.772,28.772,0,0,1,14-4.043c.25,0,.5,0,.75.013A23.019,23.019,0,0,1,344,67.888a77.819,77.819,0,0,1,9.472,7.013c1.62,1.331,3.151,2.588,4.709,3.757,7.274,5.454,15.7,6.326,25.46,7.335l.284.029c2.393.248,8.807,2.755,19.607,7.667,8.685,3.95,20.217,9.477,33.35,15.984,22.9,11.345,46.446,23.594,48.95,25.293.247.168.543.363.885.59,3.159,2.091,9.733,6.442,15.055,13.065A36.23,36.23,0,0,1,508.21,160.3a30.172,30.172,0,0,1,.812,15.033,22.519,22.519,0,0,1-2.929,7.376,35.172,35.172,0,0,1-5.466,6.745c-4.1,4.024-9.582,7.932-16.763,11.95-13.189,7.379-29.553,13.687-45.377,19.787-4.981,1.92-9.685,3.734-14.244,5.562a93.06,93.06,0,0,0-18.656,9.778,60.31,60.31,0,0,0-12.123,11c-6.44,7.725-10.086,16.2-13.946,25.168-.8,1.866-1.633,3.8-2.492,5.724-2.03,4.558-3.805,14.757-5.276,30.311-1.181,12.5-2.163,28.428-2.918,47.356-1.286,32.238-1.47,62.383-1.472,62.684l0,.6-.591.125C320.877,429.218,278.843,434.144,241.833,434.144ZM156.4,419.671c1.639.769,8.085,3.592,19.884,6.384a229.04,229.04,0,0,0,26.685,4.53,346.64,346.64,0,0,0,38.864,2.059c36.748,0,78.473-4.872,124.031-14.484.033-4.426.282-32.389,1.469-62.13.756-18.955,1.74-34.916,2.924-47.438.7-7.445,1.487-13.745,2.329-18.725a54.737,54.737,0,0,1,3.07-12.055c.855-1.92,1.684-3.845,2.485-5.707,3.9-9.073,7.593-17.643,14.172-25.535A61.787,61.787,0,0,1,404.732,235.3a94.53,94.53,0,0,1,18.953-9.939c4.569-1.832,9.278-3.647,14.263-5.569,30.864-11.9,65.846-25.383,69.6-44.744,1.747-9-.589-17.577-6.944-25.485-5.175-6.44-11.617-10.7-14.713-12.754-.346-.229-.645-.427-.9-.6-2.2-1.494-24.137-12.983-48.773-25.19C406.914,96.5,387.8,87.93,383.774,87.514l-.284-.029a105.156,105.156,0,0,1-13.9-2.045,32.653,32.653,0,0,1-12.311-5.582c-1.585-1.189-3.2-2.515-4.762-3.8-5.961-4.9-12.125-9.959-19.564-10.22-.23-.008-.465-.012-.7-.012a27.257,27.257,0,0,0-13.251,3.843c-3.848,2.216-7.057,5.17-8.584,7.9a63.383,63.383,0,0,0-5.433,14.217c-1.178,4.764-2.082,11.275.3,15.245,2.534,4.222,8.759,6.2,14.78,8.112,4.492,1.427,8.735,2.775,11.352,5.018.8.683,2.01,1.735,3.546,3.068,9.9,8.592,33.086,28.712,39.209,31.628l-.281,1.426c-.087,0-8.828.48-19.717.48-8.217,0-15.513-.264-21.684-.785-8.021-.677-14.092-1.791-18.045-3.311l-.049-.021a24.191,24.191,0,0,0-9.107-1.871h-.018c-5.327,0-63.547,6.1-64.134,6.162l-.032,0h-.032c-.061,0-6.106.134-9.542,1.429a19.614,19.614,0,0,1-6.909,1.332,16.508,16.508,0,0,1-1.78-.1c-9.138-.993-25.722-2.967-34.109-5.033-3.965-.977-12.979-1.472-26.792-1.472-17.291,0-36.136.8-36.325.811l-2.117.091,1.588-1.4c.2-.18,20.467-18.122,25.807-26.635,3.757-5.988,11.259-10.385,17.286-13.918a58.212,58.212,0,0,0,7.276-4.694c.216-.182.457-.381.719-.6a82.515,82.515,0,0,0,9.7-9.161c4.144-4.766,6.427-9.2,6.787-13.181a11.471,11.471,0,0,0-.455-4.468,12.856,12.856,0,0,0-2.477-4.411A104.535,104.535,0,0,0,173.27,60.052c-4.476-3.437-7.875-5.564-8.4-5.886a8.774,8.774,0,0,0-2.544-.351c-2.256,0-5.594.767-8.685,4.419-5.262,6.221-8.524,6.436-11.976,6.664-.379.025-.771.051-1.164.085-.757.066-1.877.745-3.33,2.018-1.411,1.236-2.963,2.867-4.607,4.594-2.991,3.141-6.083,6.39-8.854,7.816-.49.253-1.4.716-2.655,1.357C67.31,108.2,50.294,118.432,45.484,122.181c-2,1.559-4.956,3.452-8.378,5.644-8.277,5.3-19.612,12.561-27.288,21.433a43.211,43.211,0,0,0-4.948,6.908,28.559,28.559,0,0,0-2.991,7.445,22.847,22.847,0,0,0-.472,7.973,26.2,26.2,0,0,0,2.638,8.561c3.232,6.5,12.792,13.546,28.413,20.931,12.59,5.953,29.089,12.113,49.037,18.309,33.991,10.558,66.629,17.644,66.954,17.714l.568.123.023.581c.008.194.77,19.659.854,42.017.037,9.841,1.8,18.58,3.658,27.833,1.221,6.067,2.484,12.341,3.406,19.481a162.27,162.27,0,0,1,1.3,24.4C157.627,382.028,156.546,415.269,156.4,419.671Z" transform="translate(-0.5 27.74)" fill="#888"/><path data-name="패스 1561" d="M51.139,149.375a.75.75,0,0,1-.244-1.459,137.694,137.694,0,0,0,17.328-7.755,124.091,124.091,0,0,0,15.323-9.506,77.448,77.448,0,0,0,14.126-13.061.75.75,0,1,1,1.16.952A78.955,78.955,0,0,1,84.42,131.874,125.64,125.64,0,0,1,68.9,141.5a139.208,139.208,0,0,1-17.517,7.834A.749.749,0,0,1,51.139,149.375Z" transform="translate(26.84 62.837)" fill="#888"/><path data-name="패스 1562" d="M300.556,148.624a.753.753,0,0,1-.171-.02,162.19,162.19,0,0,1-20.313-6.622,157.413,157.413,0,0,1-18.807-8.857,106.647,106.647,0,0,1-18.777-13.1.75.75,0,0,1,1-1.122,105.135,105.135,0,0,0,18.5,12.907,155.864,155.864,0,0,0,18.616,8.77,160.7,160.7,0,0,0,20.127,6.566.75.75,0,0,1-.17,1.481Z" transform="translate(130.42 63.588)" fill="#888"/><path data-name="선 19" d="M1.536,11.845A.75.75,0,0,1,.794,11.2L-.743.1A.75.75,0,0,1-.1-.743.75.75,0,0,1,.743-.1l1.537,11.1a.751.751,0,0,1-.744.853Z" transform="translate(146.258 254.477)" fill="#888"/><path data-name="패스 1563" d="M159.027,35.107a.75.75,0,0,1-.717-.531,25.329,25.329,0,0,1-1.018-9.1,30.718,30.718,0,0,1,1.525-7.629,31.2,31.2,0,0,1,3.411-7.243.75.75,0,0,1,1.237.849,30.351,30.351,0,0,0-3.239,6.911,29.19,29.19,0,0,0-1.439,7.24,23.829,23.829,0,0,0,.958,8.533.751.751,0,0,1-.718.969Z" transform="translate(84.526 5.045)" fill="#888"/><path data-name="패스 1564" d="M213.144,65.961a28.157,28.157,0,0,1-9.081.214c-4.267-.853-6.266-9.486-11.779-10.156s-11.009-3.927-12.119-5.8-1.451-5.975-11.632-7.255a18.235,18.235,0,0,1-13.135-8.5l-8.773,3.81L135.188,48.337s-8.876,35.164,6.144,73.4c5.025,12.789,12.111,21.072,19.691,26.112l3.528,29.392s5.975,9.558,23.385,10.071,46.257-25.093,46.257-25.093-4.41-43.205-2.362-56.348-6.175-23.394-6.175-23.394Z" transform="translate(70.813 17.693)" fill="#fff"/><path data-name="패스 1564 - 윤곽선" d="M155.688,33.512l.344.542a17.434,17.434,0,0,0,12.6,8.162c4,.5,6.912,1.474,8.888,2.966A9.03,9.03,0,0,1,180.4,49.01c.147.321.274.6.408.824a11.014,11.014,0,0,0,4.106,3.068,22.851,22.851,0,0,0,7.458,2.372c3.3.4,5.417,3.31,7.283,5.876,1.479,2.033,2.876,3.954,4.552,4.289a16.825,16.825,0,0,0,3.254.279,35.086,35.086,0,0,0,5.557-.5l.447-.074,12.78,16.869A32.347,32.347,0,0,1,230.2,88.95a33.988,33.988,0,0,1,2.268,7.594,29.152,29.152,0,0,1,.1,9.443c-.829,5.319-.684,16.707.42,32.932.836,12.29,1.936,23.117,1.947,23.224l.039.382-.287.255a180,180,0,0,1-16.4,12.61,107.5,107.5,0,0,1-15.011,8.689c-6,2.765-11.173,4.106-15.368,3.983a40.518,40.518,0,0,1-11.207-1.826,29.654,29.654,0,0,1-7.41-3.528,19.075,19.075,0,0,1-5.383-5.069l-.089-.142L160.32,148.28a47.008,47.008,0,0,1-10.692-10.121,64.786,64.786,0,0,1-8.994-16.148,126.558,126.558,0,0,1-7.341-27.764,138.082,138.082,0,0,1-1.416-23.567,114.086,114.086,0,0,1,2.583-22.526l.057-.226,11.7-10.3Zm51.777,33.706a18.308,18.308,0,0,1-3.548-.308c-2.25-.45-3.814-2.6-5.471-4.878-1.769-2.432-3.6-4.947-6.251-5.269a24.386,24.386,0,0,1-7.963-2.527A12.371,12.371,0,0,1,179.52,50.6a10.618,10.618,0,0,1-.48-.961,7.522,7.522,0,0,0-2.429-3.256c-1.737-1.312-4.486-2.212-8.171-2.675a18.244,18.244,0,0,1-9.091-3.77,20.324,20.324,0,0,1-4.231-4.54l-8.086,3.511-11.17,9.836a115.257,115.257,0,0,0-2.486,22.021,136.569,136.569,0,0,0,1.406,23.294,125.051,125.051,0,0,0,7.248,27.405,63.294,63.294,0,0,0,8.781,15.775,45.389,45.389,0,0,0,10.627,9.987l.288.192,3.548,29.556a18.875,18.875,0,0,0,4.935,4.541,28.238,28.238,0,0,0,7.022,3.316,39.073,39.073,0,0,0,10.727,1.734c.163,0,.331.007.5.007,3.873,0,8.65-1.3,14.2-3.853a106.019,106.019,0,0,0,14.8-8.568,180.442,180.442,0,0,0,15.958-12.239c-.2-2.04-1.164-11.877-1.913-22.885-1.127-16.57-1.264-27.764-.406-33.269a27.654,27.654,0,0,0-.1-8.958,32.485,32.485,0,0,0-2.169-7.258,31.2,31.2,0,0,0-3.751-6.594l-.013-.016-12.24-16.157A35.952,35.952,0,0,1,207.464,67.219Z" transform="translate(70.813 17.693)" fill="#888"/><path data-name="패스 1568" d="M132.661,56.859c.012-.282.025-.559.039-.836-.014.277-.026.553-.039.836" transform="translate(70.855 29.338)" fill="#ffeddc"/><path data-name="패스 1570" d="M132.605,62.137c0-.28-.012-.564-.015-.839,0,.279.011.559.015.839" transform="translate(70.817 32.186)" fill="#ffeddc"/><path data-name="패스 1572" d="M132.61,58.333c.006-.24.015-.473.022-.71-.006.237-.015.47-.022.71" transform="translate(70.827 30.201)" fill="#ffeddc"/><path data-name="패스 1574" d="M132.586,59.924v-.262c0,.086,0,.176,0,.262" transform="translate(70.814 31.302)" fill="#ffeddc"/><path data-name="패스 1576" d="M132.733,55.4q.023-.418.051-.827c-.018.274-.035.548-.051.827" transform="translate(70.894 28.552)" fill="#ffeddc"/><path data-name="패스 1578" d="M133.225,49.8c.022-.18.045-.351.068-.527-.023.176-.046.346-.068.527" transform="translate(71.159 25.691)" fill="#ffeddc"/><path data-name="패스 1580" d="M133.094,50.815c.008-.079.017-.151.026-.229-.009.079-.018.151-.026.229" transform="translate(71.089 26.402)" fill="#ffeddc"/><path data-name="패스 1582" d="M132.826,53.96c.018-.251.037-.505.055-.75-.018.246-.037.5-.055.75" transform="translate(70.944 27.819)" fill="#ffeddc"/><path data-name="패스 1584" d="M132.942,52.457c.015-.171.031-.35.046-.517-.015.169-.031.346-.046.517" transform="translate(71.007 27.133)" fill="#ffeddc"/><path data-name="패스 1586" d="M134.019,76.174q-.106-.594-.208-1.186.1.591.208,1.186" transform="translate(71.476 39.577)" fill="#ffeddc"/><path data-name="패스 1588" d="M132.756,65.813c-.02-.353-.04-.7-.057-1.05.017.348.037.7.057,1.05" transform="translate(70.875 34.056)" fill="#ffeddc"/><path data-name="패스 1590" d="M134.42,78.228c-.082-.4-.159-.792-.234-1.186.075.394.152.788.234,1.186" transform="translate(71.678 40.686)" fill="#ffeddc"/><path data-name="패스 1592" d="M133.662,74.077c-.055-.362-.112-.725-.165-1.084.052.359.109.722.165,1.084" transform="translate(71.306 38.5)" fill="#ffeddc"/><path data-name="패스 1594" d="M134.868,80.249c-.08-.35-.154-.7-.231-1.046.077.348.151.695.231,1.046" transform="translate(71.922 41.853)" fill="#ffeddc"/><path data-name="패스 1596" d="M133.361,48.764c.026-.186.051-.368.077-.55-.026.182-.051.362-.077.55" transform="translate(71.233 25.121)" fill="#ffeddc"/><path data-name="패스 1598" d="M132.884,67.626c-.026-.337-.048-.67-.072-1,.025.334.046.667.072,1" transform="translate(70.936 35.06)" fill="#ffeddc"/><path data-name="패스 1600" d="M133.33,71.772c-.031-.24-.066-.484-.1-.724.029.24.065.484.1.724" transform="translate(71.165 37.45)" fill="#ffeddc"/><path data-name="패스 1602" d="M133.046,69.376c-.023-.226-.04-.448-.062-.673.022.225.039.447.062.673" transform="translate(71.029 36.184)" fill="#ffeddc"/><path data-name="패스 1604" d="M132.662,63.992c-.012-.331-.025-.664-.035-.995.011.331.023.664.035.995" transform="translate(70.837 33.103)" fill="#ffeddc"/><path data-name="패스 1606" d="M133.641,46.842c.022-.128.043-.262.063-.385-.022.125-.042.257-.063.385" transform="translate(71.384 24.173)" fill="#ffeddc"/><path data-name="패스 1608" d="M134.036,44.629l.048-.231c-.015.077-.031.148-.048.231" transform="translate(71.597 23.061)" fill="#ffeddc"/><path data-name="패스 1609" d="M134.526,44.73l-.98-.2.048-.232.98.2c-.009.044-.018.086-.027.129Z" transform="translate(71.597 23.061)"/><path data-name="패스 1610" d="M134.2,43.828c.009-.043.022-.092.029-.129l-.029.129" transform="translate(71.686 22.684)" fill="#ffeddc"/><path data-name="패스 1611" d="M134.689,43.939l-.977-.215c0-.021.01-.044.015-.066l.016-.069.977.213c0,.022-.011.048-.017.075Z" transform="translate(71.686 22.684)"/><path data-name="패스 1612" d="M134.257,43.55l0-.015,0,.015" transform="translate(71.717 22.595)" fill="#ffeddc"/><path data-name="패스 1613" d="M134.755,43.6l-1-.1,0-.015,1,.1Z" transform="translate(71.717 22.595)"/><path data-name="패스 1614" d="M133.789,45.912c.011-.06.022-.128.032-.188-.011.06-.022.128-.032.188" transform="translate(71.464 23.777)" fill="#ffeddc"/><path data-name="패스 1615" d="M134.281,46l-.984-.177c.005-.028.01-.058.015-.088s.012-.068.017-.1l.984.177c-.005.029-.01.059-.015.09S134.287,45.969,134.281,46Z" transform="translate(71.464 23.777)"/><path data-name="패스 1616" d="M134.129,44.171c.014-.063.028-.123.039-.18l-.039.18" transform="translate(71.647 22.841)" fill="#ffeddc"/><path data-name="패스 1617" d="M134.617,44.278l-.977-.212.039-.18.98.2c-.009.049-.021.1-.032.153Z" transform="translate(71.647 22.841)"/><path data-name="패스 1618" d="M133.5,47.779c.025-.166.049-.334.075-.494-.026.162-.051.326-.075.494" transform="translate(71.308 24.62)" fill="#ffeddc"/><path data-name="패스 1620" d="M133.93,45.157c.014-.072.026-.134.04-.2-.014.071-.026.131-.04.2" transform="translate(71.54 23.36)" fill="#ffeddc"/><path data-name="패스 1621" d="M134.421,45.251l-.982-.186c.009-.05.018-.095.027-.14l.014-.068.981.192-.014.072Z" transform="translate(71.54 23.36)"/><path data-name="패스 1622" d="M132.854,67.258q-.065-.915-.119-1.814.053.9.119,1.814" transform="translate(70.895 34.424)" fill="#28a555"/><path data-name="패스 1623" d="M133.35,72.078q-.18-1.485-.326-2.938.146,1.453.326,2.938" transform="translate(71.051 36.419)" fill="#28a555"/><path data-name="패스 1624" d="M133.051,69.475c-.069-.739-.135-1.475-.192-2.2.057.725.123,1.461.192,2.2" transform="translate(70.962 35.412)" fill="#28a555"/><path data-name="패스 1625" d="M134.154,44.1c.026-.12.051-.229.072-.322-.022.094-.045.2-.072.322" transform="translate(71.661 22.729)" fill="#28a555"/><path data-name="패스 1626" d="M133.6,73.788c-.112-.762-.212-1.52-.306-2.27.094.753.194,1.508.306,2.27" transform="translate(71.199 37.703)" fill="#28a555"/><path data-name="패스 1627" d="M134.316,77.735q-.194-.993-.37-1.977.176.984.37,1.977" transform="translate(71.549 39.993)" fill="#28a555"/><path data-name="패스 1628" d="M134.8,79.953c-.159-.716-.314-1.431-.459-2.14.145.71.3,1.424.459,2.14" transform="translate(71.761 41.102)" fill="#28a555"/><path data-name="패스 1629" d="M134.858,80.2l.009.006c-.026-.108-.055-.219-.08-.326.025.108.046.212.071.32" transform="translate(72.003 42.219)" fill="#28a555"/><path data-name="패스 1630" d="M132.725,65.367q-.044-.871-.075-1.723c.022.57.046,1.143.075,1.723" transform="translate(70.849 33.452)" fill="#28a555"/><path data-name="패스 1631" d="M134.22,43.782c.023-.1.043-.182.055-.237-.014.057-.031.136-.055.237" transform="translate(71.697 22.601)" fill="#28a555"/><path data-name="패스 1632" d="M133.923,75.687q-.169-1-.32-1.99.152.989.32,1.99" transform="translate(71.363 38.88)" fill="#28a555"/><path data-name="패스 1633" d="M132.585,60.514c.006-.827.02-1.635.038-2.43-.018.795-.032,1.6-.038,2.43" transform="translate(70.814 30.45)" fill="#28a555"/><path data-name="패스 1634" d="M132.862,53.714c.038-.491.08-.967.123-1.438-.043.471-.085.947-.123,1.438" transform="translate(70.963 27.314)" fill="#28a555"/><path data-name="패스 1635" d="M133.682,46.788c.055-.333.111-.645.163-.942-.052.3-.108.61-.163.942" transform="translate(71.406 23.843)" fill="#28a555"/><path data-name="패스 1636" d="M132.972,52.59c.06-.636.123-1.257.189-1.854-.066.6-.129,1.218-.189,1.854" transform="translate(71.023 26.483)" fill="#28a555"/><path data-name="패스 1637" d="M133.111,51.112q.085-.774.176-1.5-.09.725-.176,1.5" transform="translate(71.098 25.876)" fill="#28a555"/><path data-name="패스 1638" d="M132.766,55.04c.029-.456.059-.9.092-1.343-.034.44-.063.887-.092,1.343" transform="translate(70.912 28.082)" fill="#28a555"/><path data-name="패스 1639" d="M134.068,44.553c.032-.159.065-.313.094-.445-.029.134-.06.283-.094.445" transform="translate(71.615 22.904)" fill="#28a555"/><path data-name="패스 1640" d="M133.549,47.6q.072-.462.143-.889c-.048.286-.1.579-.143.889" transform="translate(71.334 24.308)" fill="#28a555"/><path data-name="패스 1641" d="M133.269,49.646c.048-.367.094-.728.142-1.075-.048.346-.094.707-.142,1.075" transform="translate(71.183 25.314)" fill="#28a555"/><path data-name="패스 1642" d="M132.593,62.09q-.014-1.148-.008-2.258,0,1.111.008,2.258" transform="translate(70.813 31.394)" fill="#28a555"/><path data-name="패스 1643" d="M133.956,45.17c.043-.22.085-.433.125-.622-.04.189-.082.4-.125.622" transform="translate(71.554 23.142)" fill="#28a555"/><path data-name="패스 1644" d="M132.642,63.62c-.018-.6-.031-1.189-.042-1.776.011.587.023,1.175.042,1.776" transform="translate(70.822 32.48)" fill="#28a555"/><path data-name="패스 1645" d="M133.81,46.069c.065-.354.125-.682.183-.984-.059.3-.119.63-.183.984" transform="translate(71.475 23.432)" fill="#28a555"/><path data-name="패스 1646" d="M133.411,48.542q.069-.483.137-.936c-.046.3-.091.614-.137.936" transform="translate(71.26 24.793)" fill="#28a555"/><path data-name="패스 1647" d="M132.686,56.518c.023-.477.045-.949.071-1.412-.026.464-.048.935-.071,1.412" transform="translate(70.868 28.842)" fill="#28a555"/><path data-name="패스 1648" d="M132.624,58.194c.015-.55.034-1.095.055-1.628-.022.533-.04,1.078-.055,1.628" transform="translate(70.835 29.631)" fill="#28a555"/><path data-name="패스 1649" d="M160.535,103.13c12.8-10.156,20.552-3.243,30.162-2.134s23.947,5.975,29.837-14.765l-8.2-20.145a26.625,26.625,0,0,1-8.274.089c-4.267-.855-6.264-9.486-11.779-10.157s-11.009-3.925-12.119-5.8-1.451-5.973-11.632-7.255a18.228,18.228,0,0,1-13.134-8.5l-8.774,3.811L135.186,48.337s-.008.035-.023.1l0,.015c-.012.055-.032.142-.055.237-.009.038-.02.086-.029.129-.022.094-.046.2-.072.322-.012.057-.026.117-.039.18-.029.132-.062.286-.094.445-.017.077-.032.149-.049.233-.038.189-.08.4-.125.622-.012.069-.026.131-.04.2q-.088.453-.183.984c-.011.059-.022.126-.032.186-.054.3-.108.611-.165.942-.02.123-.042.257-.063.385-.046.286-.094.581-.142.889-.026.162-.051.328-.075.5-.046.3-.091.614-.137.936-.026.182-.051.362-.077.55-.048.346-.1.708-.142,1.075-.023.176-.046.346-.068.527-.06.484-.119.986-.176,1.5-.009.077-.018.149-.026.229-.066.6-.128,1.218-.189,1.856-.015.169-.029.346-.045.517-.043.47-.085.947-.123,1.438-.02.246-.038.5-.057.75-.032.44-.063.887-.092,1.343-.017.273-.034.548-.049.827-.028.462-.051.935-.074,1.411-.012.279-.026.554-.038.838-.022.533-.039,1.078-.055,1.628-.006.237-.015.47-.022.71-.018.795-.032,1.6-.038,2.43,0,.086,0,.176,0,.262q0,1.111.008,2.258c0,.277.011.561.015.839.011.587.023,1.178.042,1.777.009.33.023.662.035.995q.032.855.075,1.723.025.522.055,1.05.053.9.119,1.814c.025.334.046.667.072,1,.057.727.123,1.461.192,2.2.022.225.039.447.062.673q.146,1.453.325,2.937c.029.24.065.484.1.724.1.753.2,1.508.306,2.271.052.359.111.722.166,1.084.1.661.206,1.323.319,1.99.066.394.137.79.208,1.186q.176.984.37,1.977c.075.394.152.788.234,1.186.145.71.3,1.424.459,2.14.079.35.151.7.233,1.046.025.109.054.219.08.328.182.132,11.777,8.471,24.478-1.6" transform="translate(70.813 17.693)" fill="#00d060" opacity="0.2"/><path data-name="패스 1658" d="M56.358,92.337c3.243-5.8,13.485-12.461,23.214-12.119a18.573,18.573,0,0,1,3.822.551c.169-6.974.556-25.927-.066-31.533a30.246,30.246,0,0,0-6.913-15.7C73.77,30.461,66.6,26.449,66.6,26.449L55.876,13.611A18.175,18.175,0,0,0,53.682,11.4C50.2,8.439,40.246.294,36.472.5a2.951,2.951,0,0,0-3.058,2.5A5.554,5.554,0,0,0,34.82,7.712L40.6,13.847,35.79,11.514C29.9,7.587,20,7.587,20,7.587c-5.462.171-6.146,3.927-3.243,6.657s14.381,6.1,17.624,10.284,6.87,14.3,6.87,14.3-9.917-7.247-12.888-9.814c-1.651-1.427-9.132-5.122-9.132-5.122S4.382,15.61,3.358,21.756,16.672,34.643,19.83,37.2,34.339,50.945,34.766,54.528c.728,6.124-9.132,1.195-9.132,1.195L10.357,44.885S2.163,40.361.671,43.69,7.882,55.212,11.978,59.137s14.387,5.728,20.482,25.007a61.427,61.427,0,0,0,15.433,25.09,3.806,3.806,0,0,0,2.233,1.056,63.1,63.1,0,0,1,6.232-17.952" transform="translate(252.972 12.607)" fill="#fff"/><path data-name="패스 1658 - 윤곽선" d="M50.747,111.123l-.714-.089a4.574,4.574,0,0,1-2.665-1.265,61.972,61.972,0,0,1-8.093-9.779,61.336,61.336,0,0,1-7.53-15.62c-2.043-6.462-4.713-11.482-8.162-15.346a35.284,35.284,0,0,0-8.327-6.645,23.4,23.4,0,0,1-3.8-2.7l-.357-.342A103.753,103.753,0,0,1,3.443,51.42C.31,47.664-.788,45.11-.014,43.383a3,3,0,0,1,3.053-1.666c3.1,0,7.494,2.409,7.68,2.511l.037.02L26.019,55.076c.44.213,3.737,1.773,6.071,1.772A2.1,2.1,0,0,0,33.7,56.34a2.185,2.185,0,0,0,.318-1.723c-.076-.638-.837-2.756-6.25-8.626a101.558,101.558,0,0,0-8.413-8.205,42.17,42.17,0,0,0-3.6-2.347,69.313,69.313,0,0,1-8.778-6.046c-3.326-2.861-4.751-5.4-4.358-7.759a3.161,3.161,0,0,1,1.446-2.271,4.849,4.849,0,0,1,2.6-.626c4.751,0,12.406,4.2,12.921,4.489.49.242,7.593,3.766,9.274,5.219,2.088,1.8,7.728,6.007,10.792,8.27-1.269-3.222-3.674-8.909-5.857-11.725C32.017,22.7,27.42,20.578,23.365,18.7c-3.122-1.442-5.817-2.687-7.121-3.915a6.351,6.351,0,0,1-1.68-2.468,3.815,3.815,0,0,1-.021-2.635,3.9,3.9,0,0,1,1.889-2.035,8.091,8.091,0,0,1,3.546-.815H20a42.2,42.2,0,0,1,5.8.5,25.971,25.971,0,0,1,10.362,3.525l1.09.529-3-3.183a6.316,6.316,0,0,1-1.578-5.351,3.712,3.712,0,0,1,3.752-3.1c.061,0,.125-.005.188-.005,1.851,0,4.837,1.469,9.129,4.49,3.389,2.386,6.73,5.15,8.42,6.585a19.025,19.025,0,0,1,2.284,2.3L67.088,25.863c.993.563,7.355,4.23,9.9,7.18a31.332,31.332,0,0,1,4.267,6.573,29.205,29.205,0,0,1,2.823,9.537c.621,5.6.256,23.987.071,31.634l-.023.934-.907-.225a17.707,17.707,0,0,0-3.668-.53c-.23-.008-.465-.012-.7-.012A27.257,27.257,0,0,0,65.6,84.8c-3.848,2.216-7.058,5.171-8.585,7.9a62.729,62.729,0,0,0-6.147,17.711ZM3.039,43.217c-1.2,0-1.534.445-1.684.78-.281.626-.233,2.3,3.24,6.462a102.556,102.556,0,0,0,7.545,7.794l.357.342a22.463,22.463,0,0,0,3.552,2.51A36.566,36.566,0,0,1,24.7,68.025c3.594,4.026,6.365,9.224,8.474,15.893a59.836,59.836,0,0,0,7.346,15.238,60.471,60.471,0,0,0,7.9,9.542,2.956,2.956,0,0,0,1.107.687,60.977,60.977,0,0,1,2.726-9.663,57.661,57.661,0,0,1,3.453-7.75c1.679-3,5.012-6.092,9.146-8.473a28.773,28.773,0,0,1,14-4.043c.25,0,.5,0,.75.013a18.65,18.65,0,0,1,3.068.368c.16-6.839.515-25.119-.084-30.517a29.623,29.623,0,0,0-6.736-15.3c-2.53-2.938-9.543-6.879-9.613-6.918l-.121-.068L55.3,14.092a17.521,17.521,0,0,0-2.1-2.123c-6.1-5.182-13.662-10.72-16.579-10.72l-.1,0a2.221,2.221,0,0,0-2.365,1.9,4.811,4.811,0,0,0,1.225,4.053l5.768,6.126-.874,1.189-4.852-2.355-.043-.028c-5.551-3.7-14.991-3.8-15.362-3.8-2.158.07-3.64.756-4.066,1.881-.384,1.015.124,2.348,1.327,3.479,1.126,1.06,3.844,2.316,6.722,3.645,4.211,1.945,8.984,4.15,10.981,6.725,3.278,4.228,6.833,14.086,6.983,14.5l.825,2.3L40.809,39.43c-.406-.3-9.976-7.294-12.935-9.852-1.295-1.12-6.917-4-8.973-5.017l-.033-.017c-.077-.043-7.784-4.308-12.207-4.308-2.029,0-2.435.878-2.563,1.644-.3,1.774,1,3.919,3.857,6.376a68.179,68.179,0,0,0,8.584,5.9A41.646,41.646,0,0,1,20.3,36.62a103.218,103.218,0,0,1,8.571,8.354A64.6,64.6,0,0,1,33.3,50.224a10.422,10.422,0,0,1,2.21,4.215,3.565,3.565,0,0,1-.686,2.9,3.486,3.486,0,0,1-2.735,1.013h0c-2.848,0-6.63-1.875-6.79-1.955l-.052-.026L9.959,45.523C9.547,45.3,5.617,43.217,3.039,43.217Z" transform="translate(252.972 12.607)" fill="#888"/><path data-name="선 20" d="M4.944,10.026a.75.75,0,0,1-.663-.4L-.662.353A.75.75,0,0,1-.353-.662.75.75,0,0,1,.662-.353L5.605,8.923a.75.75,0,0,1-.661,1.1Z" transform="translate(292.583 49.137)" fill="#888"/><path data-name="패스 1652" d="M206.224,41.963a.75.75,0,0,1-.71-.508,137.9,137.9,0,0,0-5.092-12.829l-.023-.05c-1.747-4.225-10.107-10.477-10.192-10.539a.75.75,0,0,1,.895-1.2c.357.265,8.746,6.539,10.672,11.144a136.657,136.657,0,0,1,5.158,12.993.751.751,0,0,1-.71.993Z" transform="translate(102.167 8.504)" fill="#888"/><path data-name="패스 1653" d="M213.311,45.021a.75.75,0,0,1-.743-.654,64.225,64.225,0,0,0-3.046-12.923,39.954,39.954,0,0,0-2-4.813.75.75,0,0,1,1.327-.7,40.417,40.417,0,0,1,2.073,4.978,65.721,65.721,0,0,1,3.132,13.266.75.75,0,0,1-.648.84A.758.758,0,0,1,213.311,45.021Z" transform="translate(111.632 13.28)" fill="#888"/><path data-name="패스 1655" d="M106.527,87.88a8.88,8.88,0,0,1-.841-6.525c1.948-7.587,6.466-25.892,7.133-34.825.855-11.437,8.194-15.02,11.95-17.752S140.13,15.635,140.13,15.635s6.315-4.609,13.485-3.414L169.66,7.954s10.755-2.9,11.779,2.219c.947,4.734-13.776,10.308-13.776,10.308l6.948-.579s10.242-3.756,8.363,3.925-22.359,13.145-22.359,13.145-11.483,8.406-16.937,14.675a.766.766,0,0,0,.748,1.257,59.016,59.016,0,0,0,12.091-4.5c7.852-3.925,15.875-8.192,19.118-7.852s2.9,4.438.513,7.17-11.437,7.681-11.437,7.681L147.256,67.526a19.736,19.736,0,0,0-8.149,11.437c-1.879,7.681-5.462,26.97-10.755,29.7-2.425,1.252-6.32-1.4-9.829-4.651A55.34,55.34,0,0,1,107.815,90.2Z" transform="translate(56.14 2.942)" fill="#fff"/><path data-name="패스 1655 - 윤곽선" d="M126.972,109.729a8.658,8.658,0,0,1-4.426-1.59,31.4,31.4,0,0,1-4.533-3.576,56.032,56.032,0,0,1-10.853-14l-1.289-2.321a9.6,9.6,0,0,1-.912-7.075c1.917-7.466,6.447-25.791,7.111-34.695a20.53,20.53,0,0,1,4.235-11.591,27.737,27.737,0,0,1,6.627-5.745c.5-.34.974-.662,1.394-.967,3.68-2.678,15.187-12.991,15.3-13.095l.028-.025.031-.022a20.494,20.494,0,0,1,3.372-1.884,20.239,20.239,0,0,1,8.129-1.872,15.6,15.6,0,0,1,2.388.182l15.89-4.226a27.142,27.142,0,0,1,6.228-.845,10.02,10.02,0,0,1,3.986.682,4.044,4.044,0,0,1,2.493,2.959c.27,1.348-.393,2.794-1.971,4.3a24.682,24.682,0,0,1-4.932,3.434c-1.063.593-2.131,1.131-3.111,1.6l2.291-.191a16.832,16.832,0,0,1,4.968-.929,4.546,4.546,0,0,1,3.785,1.454c.786,1,.954,2.454.5,4.317-.837,3.426-4.98,6.778-12.313,9.963a86.15,86.15,0,0,1-10.442,3.69c-1.192.881-11.651,8.673-16.7,14.481a.063.063,0,0,0-.013.018.04.04,0,0,0,.008.019l.009,0a58.652,58.652,0,0,0,11.934-4.439c.817-.408,1.648-.826,2.451-1.231,6.866-3.456,13.351-6.72,16.616-6.72a4.481,4.481,0,0,1,.465.023,3.163,3.163,0,0,1,2.775,1.995c.7,1.782-.032,4.42-1.776,6.415-2.4,2.74-10.895,7.435-11.606,7.826L147.641,68.169a17.484,17.484,0,0,0-3.247,2.748,18.52,18.52,0,0,0-4.559,8.224c-.272,1.111-.574,2.444-.925,3.987-.991,4.366-2.348,10.346-4,15.395a42.281,42.281,0,0,1-2.742,6.751,9.251,9.251,0,0,1-3.476,4.055A3.719,3.719,0,0,1,126.972,109.729ZM140.6,16.222c-.8.72-11.708,10.484-15.39,13.163-.439.32-.922.648-1.433.995a26.489,26.489,0,0,0-6.293,5.434,19.081,19.081,0,0,0-3.917,10.773c-.673,9.023-5.228,27.451-7.154,34.956a8.1,8.1,0,0,0,.77,5.974l1.289,2.321a54.536,54.536,0,0,0,10.561,13.625c4.26,3.94,6.669,4.767,7.94,4.767a2.206,2.206,0,0,0,1.036-.232,8.05,8.05,0,0,0,2.841-3.431,41.438,41.438,0,0,0,2.639-6.509c1.627-4.983,2.975-10.924,3.96-15.261.352-1.55.656-2.889.93-4.012a19.875,19.875,0,0,1,4.963-8.937,18.8,18.8,0,0,1,3.506-2.951l17.469-12.129.035-.019c.089-.049,8.957-4.916,11.232-7.517,1.347-1.54,2-3.638,1.508-4.88a1.668,1.668,0,0,0-1.535-1.05,2.977,2.977,0,0,0-.308-.015c-2.908,0-9.534,3.335-15.941,6.56-.8.4-1.636.823-2.454,1.232A59.381,59.381,0,0,1,144.6,53.633a1.568,1.568,0,0,1-.372.045,1.518,1.518,0,0,1-1.121-2.523c5.447-6.26,16.589-14.443,17.06-14.788l.114-.083.136-.036a84.079,84.079,0,0,0,10.386-3.661c6.774-2.944,10.729-6.034,11.439-8.937a3.568,3.568,0,0,0-.221-3.035,3.181,3.181,0,0,0-2.605-.881,15.7,15.7,0,0,0-4.55.872l-.095.035-.1.009L162.4,21.672l5-1.892a61.875,61.875,0,0,0,7.156-3.34,23.189,23.189,0,0,0,4.619-3.206c1.178-1.123,1.693-2.1,1.531-2.914-.323-1.616-2.008-2.435-5.008-2.435a25.992,25.992,0,0,0-5.84.793l-16.2,4.309-.16-.027a14.051,14.051,0,0,0-2.3-.188,18.347,18.347,0,0,0-7.477,1.724A19.828,19.828,0,0,0,140.6,16.222Z" transform="translate(56.14 2.942)" fill="#888"/><path data-name="패스 1656" d="M118.756,31.181a.75.75,0,0,1-.469-1.336L138.2,13.929a27.988,27.988,0,0,1,7.739-3.63.75.75,0,0,1,.337,1.462,26.71,26.71,0,0,0-7.212,3.4L119.224,31.017A.747.747,0,0,1,118.756,31.181Z" transform="translate(63.347 5.045)" fill="#888"/><path data-name="패스 1657" d="M123.08,36.834a.75.75,0,0,1-.439-1.358l22.38-16.131a26.787,26.787,0,0,1,3.526-1.917,25.583,25.583,0,0,1,8.269-2.3.75.75,0,0,1,.124,1.495,26.621,26.621,0,0,0-11.071,3.965l-22.35,16.11A.747.747,0,0,1,123.08,36.834Z" transform="translate(65.681 7.659)" fill="#888"/><path data-name="패스 1567" d="M182.723,149.038a39.038,39.038,0,0,1-9.347-1.147,40.311,40.311,0,0,1-9.092-3.467,43.233,43.233,0,0,1-8.859-6.228c-6.16-5.58-11.135-13.122-14.787-22.417a125.713,125.713,0,0,1-6.518-22.82A136.225,136.225,0,0,1,131.9,72.591a128.9,128.9,0,0,1,1.762-26.729.75.75,0,0,1,1.476.268A127.354,127.354,0,0,0,133.4,72.54,134.719,134.719,0,0,0,135.6,92.683a124.208,124.208,0,0,0,6.439,22.547c3.566,9.077,8.411,16.43,14.4,21.853a41.732,41.732,0,0,0,8.551,6.012,38.81,38.81,0,0,0,8.753,3.338,36.409,36.409,0,0,0,15.117.562,22.2,22.2,0,0,0,10.371-4.407,73.026,73.026,0,0,1,7.794-5.657c6.22-4.1,12.1-7.966,16.124-18.033a.75.75,0,1,1,1.393.557,33.568,33.568,0,0,1-7.56,11.749,55.327,55.327,0,0,1-9.132,6.979,71.85,71.85,0,0,0-7.64,5.541,23.688,23.688,0,0,1-11.082,4.747A35.886,35.886,0,0,1,182.723,149.038Z" transform="translate(70.808 23.923)" fill="#888"/><circle data-name="타원 29" cx="5.5" cy="5.5" r="5.5" transform="translate(276.32 112)" fill="#00d060"/><circle data-name="타원 30" cx="4" cy="4" r="4" transform="translate(267.32 125)" fill="#00d060"/><circle data-name="타원 31" cx="3" cy="3" r="3" transform="translate(261.32 114)" fill="#00d060"/></g></g></g></svg>