<svg xmlns="http://www.w3.org/2000/svg" xmlns:xlink="http://www.w3.org/1999/xlink" width="520" height="460"><defs><clipPath id="a"><rect data-name="사각형 274461" width="520" height="460" transform="translate(5216 -5616)" fill="#fff" stroke="#707070" stroke-width="1"/></clipPath></defs><g data-name="@Illust" transform="translate(-5216 5616)" clip-path="url(#a)"><g transform="translate(24808.5 -961.59)"><g data-name="그룹 201348" transform="translate(-19579 -4591.943)"><path data-name="패스 1488" d="M99.313,414.641a7.384,7.384,0,0,1-7.154-5.56L17.073,115.669a7.4,7.4,0,0,1,5.329-8.993L251.708,47.995a7.38,7.38,0,0,1,8.992,5.329l75.087,293.41a7.392,7.392,0,0,1-5.329,8.993L101.151,414.408a7.4,7.4,0,0,1-1.838.233" transform="translate(3.374 -40.486)" fill="#fff"/><path data-name="패스 1488 - 윤곽선" d="M99.314,415.391a8.134,8.134,0,0,1-7.881-6.124L16.346,115.855a8.15,8.15,0,0,1,5.869-9.906L251.523,47.268a8.13,8.13,0,0,1,9.9,5.869l75.087,293.41a8.142,8.142,0,0,1-5.869,9.906L101.337,415.134A8.138,8.138,0,0,1,99.314,415.391ZM253.546,48.512a6.694,6.694,0,0,0-1.652.21L22.587,107.4a6.649,6.649,0,0,0-4.788,8.081L92.886,408.895a6.631,6.631,0,0,0,8.079,4.787L330.273,355a6.642,6.642,0,0,0,4.788-8.081L259.974,53.509A6.635,6.635,0,0,0,253.546,48.512Z" transform="translate(3.374 -40.486)" fill="#888"/><path data-name="패스 1490" d="M369.851,317.386,166.022,437.714a7.993,7.993,0,0,1-10.945-2.82L1.111,174.083A7.991,7.991,0,0,1,3.93,163.139L207.76,42.811a7.992,7.992,0,0,1,10.944,2.82L372.67,306.443a7.991,7.991,0,0,1-2.82,10.944" transform="translate(0 -41.701)" fill="#d6f5d5"/><path data-name="패스 1491" d="M57.562,207.915a5.328,5.328,0,0,1-4.569-2.608l-10.628-18a5.3,5.3,0,0,1,1.871-7.26l18-10.629a5.3,5.3,0,0,1,7.261,1.871l10.628,18a5.31,5.31,0,0,1-1.871,7.261l-18,10.628A5.3,5.3,0,0,1,57.562,207.915Zm7.366-37.737a3.8,3.8,0,0,0-1.928.528L45,181.336a3.8,3.8,0,0,0-1.342,5.205l10.628,18a3.8,3.8,0,0,0,5.206,1.342l18-10.628a3.808,3.808,0,0,0,1.341-5.207l-10.628-18A3.823,3.823,0,0,0,64.929,170.178Z" transform="translate(8.491 -16.106)" fill="#00d060" opacity="0.4"/><rect data-name="사각형 274453" width="38.937" height="38.937" transform="translate(50.268 152.722)" fill="none"/><path data-name="패스 1492" d="M144.391,137.1,85.677,171.761a3.89,3.89,0,0,1-5.329-1.373l-.316-.535a3.89,3.89,0,0,1,1.372-5.327l58.713-34.661a3.891,3.891,0,0,1,5.329,1.372l.316.537a3.89,3.89,0,0,1-1.372,5.327" transform="translate(15.929 -24.142)" fill="#00d060" opacity="0.4"/><path data-name="패스 1493" d="M223.275,113.29,92.6,190.433a3.89,3.89,0,0,1-5.327-1.373l-.317-.535a3.889,3.889,0,0,1,1.372-5.327L219,106.054a3.891,3.891,0,0,1,5.329,1.372l.316.537a3.89,3.89,0,0,1-1.372,5.327" transform="translate(17.316 -28.914)" fill="#00d060" opacity="0.4"/><path data-name="패스 1494" d="M60.48,193.741l-8.393-2.632a1.5,1.5,0,0,1,.9-2.863l5.128,1.608,2.128-12.187a1.5,1.5,0,1,1,2.955.516Z" transform="translate(10.527 -14.403)" fill="#00d060" opacity="0.4"/><rect data-name="사각형 274456" width="12.784" height="18.006" transform="translate(61.264 161.722)" fill="none"/><path data-name="패스 1495" d="M84.527,232.979l-8.393-2.632a1.5,1.5,0,0,1,.9-2.863l5.128,1.608,2.128-12.187a1.5,1.5,0,1,1,2.955.516Z" transform="translate(15.346 -6.54)" fill="#00d060" opacity="0.4"/><rect data-name="사각형 274457" width="12.784" height="18.006" transform="translate(90.129 208.823)" fill="none"/><path data-name="패스 1496" d="M80.707,247.293a5.328,5.328,0,0,1-4.569-2.608l-10.628-18a5.3,5.3,0,0,1,1.871-7.26l18-10.629a5.3,5.3,0,0,1,7.261,1.871l10.628,18a5.31,5.31,0,0,1-1.871,7.261l-18,10.628A5.3,5.3,0,0,1,80.707,247.293Zm7.366-37.737a3.8,3.8,0,0,0-1.928.528l-18,10.629a3.8,3.8,0,0,0-1.342,5.205l10.628,18a3.8,3.8,0,0,0,5.206,1.342l18-10.628a3.808,3.808,0,0,0,1.341-5.207l-10.628-18A3.823,3.823,0,0,0,88.074,209.556Z" transform="translate(13.129 -8.215)" fill="#00d060" opacity="0.4"/><rect data-name="사각형 274458" width="38.937" height="38.937" transform="translate(78.053 199.991)" fill="none"/><path data-name="패스 1499" d="M104.143,286.528a5.328,5.328,0,0,1-4.569-2.608l-10.628-18a5.3,5.3,0,0,1,1.871-7.26l18-10.629a5.3,5.3,0,0,1,7.26,1.871l10.629,18a5.31,5.31,0,0,1-1.871,7.261l-18,10.628A5.3,5.3,0,0,1,104.143,286.528Zm7.366-37.737a3.8,3.8,0,0,0-1.927.528l-18,10.629a3.8,3.8,0,0,0-1.342,5.205l10.628,18a3.8,3.8,0,0,0,5.206,1.342l18-10.628a3.808,3.808,0,0,0,1.341-5.207l-10.629-18A3.82,3.82,0,0,0,111.509,248.791Z" transform="translate(17.825 -0.353)" fill="#00d060" opacity="0.4"/><rect data-name="사각형 274459" width="38.937" height="38.937" transform="translate(106.182 247.088)" fill="none"/><path data-name="패스 1502" d="M127.288,325.907a5.328,5.328,0,0,1-4.569-2.608l-10.628-18a5.3,5.3,0,0,1,1.871-7.26l18-10.629a5.3,5.3,0,0,1,7.261,1.87l10.628,18a5.312,5.312,0,0,1-1.871,7.261l-18,10.628A5.3,5.3,0,0,1,127.288,325.907Zm7.366-37.737a3.8,3.8,0,0,0-1.927.528l-18,10.629a3.8,3.8,0,0,0-1.342,5.205l10.628,18a3.8,3.8,0,0,0,5.206,1.342l18-10.628a3.809,3.809,0,0,0,1.341-5.207l-10.628-18A3.825,3.825,0,0,0,134.655,288.17Z" transform="translate(22.463 7.538)" fill="#00d060" opacity="0.4"/><rect data-name="사각형 274460" width="38.937" height="38.937" transform="translate(133.967 294.358)" fill="none"/></g><g data-name="그룹 201346" transform="translate(-19469.695 -4642)"><path data-name="패스 1506" d="M121.115,367.924a7.46,7.46,0,0,1-7.405-6.884L91.081,55.671a7.432,7.432,0,0,1,6.864-7.962L333.909,30.221c.186-.014.373-.02.557-.02a7.459,7.459,0,0,1,7.405,6.884L364.5,342.453a7.436,7.436,0,0,1-6.864,7.963L121.674,367.9c-.187.013-.373.02-.558.02" transform="translate(-91.059 6.052)" fill="#fff"/><path data-name="패스 1506 - 윤곽선" d="M121.115,368.674a8.214,8.214,0,0,1-8.153-7.579L90.333,55.726a8.182,8.182,0,0,1,7.557-8.766L333.854,29.473c.192-.015.4-.022.612-.022a8.212,8.212,0,0,1,8.153,7.579L365.25,342.4a8.186,8.186,0,0,1-7.556,8.767L121.729,368.651C121.517,368.666,121.311,368.674,121.115,368.674ZM334.466,30.951c-.175,0-.343.006-.5.018L98,48.457a6.682,6.682,0,0,0-6.171,7.158l22.63,305.369a6.707,6.707,0,0,0,6.657,6.19c.161,0,.331-.006.505-.019l235.962-17.487a6.686,6.686,0,0,0,6.171-7.16L341.123,37.141A6.706,6.706,0,0,0,334.466,30.951Z" transform="translate(-91.059 6.052)" fill="#888"/><path data-name="패스 1510" d="M228.691,97.117,160.7,102.156a3.89,3.89,0,0,1-4.167-3.593l-.047-.621a3.89,3.89,0,0,1,3.593-4.167l67.995-5.039a3.89,3.89,0,0,1,4.167,3.593l.046.621a3.888,3.888,0,0,1-3.592,4.167" transform="translate(-77.952 17.78)" fill="#d6f5d5"/><path data-name="패스 1511" d="M313.1,105.418,161.767,116.635a3.891,3.891,0,0,1-4.167-3.594l-.047-.619a3.891,3.891,0,0,1,3.593-4.167L312.478,97.04a3.89,3.89,0,0,1,4.167,3.593l.046.621a3.887,3.887,0,0,1-3.592,4.165" transform="translate(-77.737 19.444)" fill="#d6f5d5"/><path data-name="패스 1512" d="M126.339,114.24l-6.1-5.834a1.5,1.5,0,1,1,2.074-2.168l3.627,3.469,6.891-9.409a1.5,1.5,0,1,1,2.42,1.773Z" transform="translate(-85.004 20.276)" fill="#00d060"/><path data-name="패스 1515" d="M231.98,142.675l-67.995,5.039a3.89,3.89,0,0,1-4.167-3.593l-.047-.621a3.89,3.89,0,0,1,3.593-4.167l67.995-5.039a3.89,3.89,0,0,1,4.167,3.593l.046.621a3.888,3.888,0,0,1-3.592,4.167" transform="translate(-77.293 26.909)" fill="#d6f5d5"/><path data-name="패스 1516" d="M316.388,150.978,165.056,162.193a3.89,3.89,0,0,1-4.167-3.593l-.047-.621a3.891,3.891,0,0,1,3.593-4.167L315.767,142.6a3.89,3.89,0,0,1,4.167,3.593l.046.621a3.889,3.889,0,0,1-3.592,4.167" transform="translate(-77.078 28.573)" fill="#d6f5d5"/><path data-name="패스 1519" d="M235.592,188.233,167.6,193.272a3.89,3.89,0,0,1-4.167-3.593l-.047-.621a3.89,3.89,0,0,1,3.593-4.167l67.995-5.039a3.89,3.89,0,0,1,4.167,3.593l.046.621a3.889,3.889,0,0,1-3.592,4.167" transform="translate(-76.569 36.038)" fill="#d6f5d5"/><path data-name="패스 1520" d="M320,196.536,168.668,207.751a3.89,3.89,0,0,1-4.167-3.593l-.047-.621a3.891,3.891,0,0,1,3.593-4.167l151.331-11.215a3.89,3.89,0,0,1,4.167,3.593l.046.621A3.889,3.889,0,0,1,320,196.536" transform="translate(-76.354 37.702)" fill="#d6f5d5"/><path data-name="패스 1523" d="M238.881,233.791l-67.995,5.039a3.89,3.89,0,0,1-4.167-3.593l-.047-.621a3.89,3.89,0,0,1,3.593-4.167l67.995-5.039A3.89,3.89,0,0,1,242.427,229l.046.621a3.889,3.889,0,0,1-3.592,4.167" transform="translate(-75.91 45.167)" fill="#d6f5d5"/><path data-name="패스 1524" d="M323.289,242.094,171.957,253.309a3.89,3.89,0,0,1-4.167-3.593l-.047-.621a3.891,3.891,0,0,1,3.593-4.167l151.331-11.215a3.89,3.89,0,0,1,4.167,3.593l.046.621a3.889,3.889,0,0,1-3.592,4.167" transform="translate(-75.695 46.831)" fill="#d6f5d5"/><path data-name="패스 1525" d="M246.662,21.507,227.3,22.943A24.772,24.772,0,1,0,177.886,26.6l-19.049,1.412a5.825,5.825,0,0,0-5.378,6.24l3.8,51.292L256.384,78.2l-3.826-51.612a5.5,5.5,0,0,0-5.9-5.084m-46.586-2.8a9.4,9.4,0,1,1-6.816,7.906,9.41,9.41,0,0,1,6.816-7.906M165.57,77.573,164.478,66.44l81.05-6.156,1.092,11.134Z" transform="translate(-78.559 0)" fill="#00d060"/><path data-name="패스 1531" d="M129.546,160.431l-6.1-5.834a1.5,1.5,0,0,1,2.074-2.168l3.627,3.469,6.891-9.409a1.5,1.5,0,1,1,2.42,1.773Z" transform="translate(-84.362 29.532)" fill="#00d060"/><path data-name="패스 1532" d="M136.905,251.728l-6.1-5.834a1.5,1.5,0,1,1,2.074-2.168l3.627,3.469,6.891-9.409a1.5,1.5,0,1,1,2.42,1.773Z" transform="translate(-82.887 47.827)" fill="#00d060"/><path data-name="패스 1534" d="M14.551,36.912A5.137,5.137,0,0,1,10.145,34.4L-.039,17.145a5.109,5.109,0,0,1,1.8-7L19.017-.04a5.11,5.11,0,0,1,7,1.8L36.2,19.016a5.12,5.12,0,0,1-1.8,7L17.146,36.2A5.109,5.109,0,0,1,14.551,36.912ZM21.61.75a3.606,3.606,0,0,0-1.831.5L2.527,11.438a3.609,3.609,0,0,0-1.275,4.945L11.437,33.635a3.609,3.609,0,0,0,4.946,1.275L33.636,24.725a3.618,3.618,0,0,0,1.274-4.947L24.724,2.526A3.63,3.63,0,0,0,21.61.75Z" transform="matrix(0.899, 0.438, -0.438, 0.899, 38.909, 158.125)" fill="#888"/><path data-name="패스 1535" d="M14.551,36.912A5.137,5.137,0,0,1,10.145,34.4L-.039,17.145a5.109,5.109,0,0,1,1.8-7L19.017-.04a5.11,5.11,0,0,1,7,1.8L36.2,19.016a5.12,5.12,0,0,1-1.8,7L17.146,36.2A5.109,5.109,0,0,1,14.551,36.912ZM21.61.75a3.606,3.606,0,0,0-1.831.5L2.527,11.438a3.609,3.609,0,0,0-1.275,4.945L11.437,33.635a3.609,3.609,0,0,0,4.946,1.275L33.636,24.725a3.618,3.618,0,0,0,1.274-4.947L24.724,2.526A3.63,3.63,0,0,0,21.61.75Z" transform="matrix(0.899, 0.438, -0.438, 0.899, 43.246, 212.507)" fill="#888"/><path data-name="패스 1536" d="M14.551,36.912A5.137,5.137,0,0,1,10.145,34.4L-.039,17.145a5.109,5.109,0,0,1,1.8-7L19.017-.04a5.11,5.11,0,0,1,7,1.8L36.2,19.016a5.12,5.12,0,0,1-1.8,7L17.146,36.2A5.109,5.109,0,0,1,14.551,36.912ZM21.61.75a3.606,3.606,0,0,0-1.831.5L2.527,11.438a3.609,3.609,0,0,0-1.275,4.945L11.437,33.635a3.609,3.609,0,0,0,4.946,1.275L33.636,24.725a3.618,3.618,0,0,0,1.274-4.947L24.724,2.526A3.63,3.63,0,0,0,21.61.75Z" transform="matrix(0.899, 0.438, -0.438, 0.899, 47.015, 267.716)" fill="#888"/><path data-name="패스 1533" d="M14.551,36.912A5.137,5.137,0,0,1,10.145,34.4L-.039,17.145a5.109,5.109,0,0,1,1.8-7L19.017-.04a5.11,5.11,0,0,1,7,1.8L36.2,19.016a5.12,5.12,0,0,1-1.8,7L17.146,36.2A5.109,5.109,0,0,1,14.551,36.912ZM21.61.75a3.606,3.606,0,0,0-1.831.5L2.527,11.438a3.609,3.609,0,0,0-1.275,4.945L11.437,33.635a3.609,3.609,0,0,0,4.946,1.275L33.636,24.725a3.618,3.618,0,0,0,1.274-4.947L24.724,2.526A3.63,3.63,0,0,0,21.61.75Z" transform="matrix(0.899, 0.438, -0.438, 0.899, 34.712, 103.86)" fill="#888"/></g><path data-name="패스 1526" d="M400.7,402.919a4.577,4.577,0,0,1-.675-.049L246.144,380.838a4.714,4.714,0,0,1-4-5.335l28.906-201.9a4.7,4.7,0,0,1,5.336-4l153.883,22.032a4.716,4.716,0,0,1,4,5.336l-28.906,201.9a4.736,4.736,0,0,1-4.661,4.048" transform="translate(-19530.488 -4608.024)" fill="#fff"/><path data-name="패스 1526 - 윤곽선" d="M400.7,403.669a5.342,5.342,0,0,1-.785-.057L246.037,381.581A5.464,5.464,0,0,1,241.4,375.4l28.906-201.9a5.488,5.488,0,0,1,5.4-4.691,5.551,5.551,0,0,1,.782.057L430.377,190.89a5.466,5.466,0,0,1,4.635,6.185l-28.906,201.9A5.489,5.489,0,0,1,400.7,403.669ZM275.712,170.3a3.981,3.981,0,0,0-3.918,3.4l-28.906,201.9a3.964,3.964,0,0,0,3.362,4.486l153.884,22.032a3.853,3.853,0,0,0,.568.042,3.981,3.981,0,0,0,3.919-3.4l28.906-201.9a3.966,3.966,0,0,0-3.362-4.487L276.281,170.343A4.044,4.044,0,0,0,275.712,170.3Z" transform="translate(-19530.488 -4608.024)" fill="#888"/><g data-name="그룹 201347" transform="translate(-19315.072 -4451.69)"><path data-name="패스 1528" d="M233.829,330.6l-10.112,24.572,16.217-4.914,7.864,14.989,13.09-33.419-27.059-4.668Z" transform="translate(-219.098 -124.75)" fill="#00d060"/><path data-name="패스 1529" d="M368,413.526,223.23,356.762a5.291,5.291,0,0,1-2.995-6.855L293.952,161.9a5.29,5.29,0,0,1,6.855-2.994L445.579,215.67a5.288,5.288,0,0,1,2.995,6.855L374.859,410.532A5.29,5.29,0,0,1,368,413.526" transform="translate(-219.869 -158.54)" fill="#8de291"/><path data-name="패스 1530" d="M252.338,244.617l155.5,58.376,19.483-49.69L272.739,192.583Z" transform="translate(-213.363 -151.718)" fill="#d6f5d5" opacity="0.8"/></g></g></g></svg>