<svg xmlns="http://www.w3.org/2000/svg" xmlns:xlink="http://www.w3.org/1999/xlink" width="520" height="460"><defs><clipPath id="a"><rect data-name="사각형 274451" width="520" height="460" transform="translate(5216 -5616)" fill="#fff" stroke="#707070" stroke-width="1"/></clipPath></defs><g data-name="@Illust" transform="translate(-5216 5616)" clip-path="url(#a)"><g transform="translate(5232.318 -5577.461)"><rect data-name="사각형 274463" width="34" height="55.751" transform="translate(226.682 205.411)" fill="#00d060"/><rect data-name="사각형 274465" width="376.211" height="240.959" transform="translate(56.174 214.795)" fill="none"/><g data-name="그룹 201355" transform="translate(-21.608 36.542)"><path data-name="패스 1544" d="M395.758,355.913H45.453A38.854,38.854,0,0,1,8.361,305.5L69.62,109.032a38.85,38.85,0,0,1,37.09-27.287H334.5a38.85,38.85,0,0,1,37.092,27.287L432.847,305.5a38.851,38.851,0,0,1-37.09,50.417" transform="translate(44.686 122.004)" fill="#d6f5d5"/><path data-name="패스 1545" d="M246.152,197.441a99.734,99.734,0,1,1-99.734-99.734,99.734,99.734,0,0,1,99.734,99.734" transform="translate(118.875 151.526)" fill="#fff"/><path data-name="패스 1547" d="M.65,53.716,68.745,0,80.958,15.729,2.377,56.386A1.594,1.594,0,0,1,.65,53.716" transform="matrix(-0.829, 0.559, -0.559, -0.829, 329.489, 316.272)" fill="#00d060"/><path data-name="패스 1548" d="M30.322,15.162A15.161,15.161,0,1,1,15.16,0,15.161,15.161,0,0,1,30.322,15.162" transform="matrix(-0.829, 0.559, -0.559, -0.829, 285.22, 351.81)" fill="#fff"/><path data-name="패스 1548 - 윤곽선" d="M15.16,31.075A15.913,15.913,0,0,1,3.91,3.91,15.911,15.911,0,0,1,31.072,15.162,15.911,15.911,0,0,1,15.16,31.075ZM15.16.75a14.413,14.413,0,0,0-10.189,24.6A14.412,14.412,0,0,0,25.351,4.971,14.318,14.318,0,0,0,15.16.75Z" transform="matrix(-0.829, 0.559, -0.559, -0.829, 285.22, 351.81)" fill="#888"/></g><g data-name="그룹 201354" transform="translate(173.216 22.631)"><path data-name="패스 1552" d="M18.019,12.25C16.947,29.679,14.1,67.359,8.841,81.729a2.423,2.423,0,0,1-1.518,1.437C3.727,84.39-6.833,89.5,6.7,104.515c14.262,15.83,38.165,49.4,73.246,42.025a41.579,41.579,0,0,0,20.727-11.5c8.621-8.621,20.529-22.794,10.139-26.63a2.214,2.214,0,0,0-1.337-.056,7.391,7.391,0,0,0-3.306,1.955,2.307,2.307,0,0,1-3.811-.811C98.627,99.5,85,77.309,37.039,72.922a2.294,2.294,0,0,1-2.033-2.861c2.44-9.315,9.017-41.234-9.164-60.711a4.553,4.553,0,0,0-7.822,2.9" transform="translate(1.999 14.173)" fill="#fff"/><path data-name="패스 1552 - 윤곽선" d="M70.079,148.333a49.064,49.064,0,0,1-18.622-3.773,69.929,69.929,0,0,1-15.971-9.408c-9.762-7.5-17.863-16.9-24.373-24.449-1.763-2.045-3.429-3.977-4.969-5.687C.652,98.923-1.576,93.7-.478,89.481a8.918,8.918,0,0,1,3.465-4.911,15.028,15.028,0,0,1,4.095-2.114,1.668,1.668,0,0,0,1.056-.987c2.266-6.191,4.324-17.434,6.118-33.417,1.482-13.209,2.458-26.786,3.016-35.849a5.264,5.264,0,0,1,1.774-3.655,5.419,5.419,0,0,1,3.585-1.361,5.1,5.1,0,0,1,3.76,1.651A44.025,44.025,0,0,1,36,25.512,64.338,64.338,0,0,1,38.906,43.5a98.518,98.518,0,0,1-3.175,26.756,1.5,1.5,0,0,0,.225,1.261,1.578,1.578,0,0,0,1.152.662,125.079,125.079,0,0,1,30.1,6.2A73.733,73.733,0,0,1,86.733,88.506a51.683,51.683,0,0,1,11.2,11.242,40.863,40.863,0,0,1,5.13,9.493,1.542,1.542,0,0,0,1.455,1.015,1.584,1.584,0,0,0,1.123-.473,8.1,8.1,0,0,1,3.645-2.15,3.037,3.037,0,0,1,.779-.1,2.886,2.886,0,0,1,1.011.18c2.452.905,3.928,2.419,4.384,4.5a9.745,9.745,0,0,1-.738,5.546,30.428,30.428,0,0,1-3.407,6.1,89.269,89.269,0,0,1-10.11,11.716,42.225,42.225,0,0,1-21.1,11.7A48.859,48.859,0,0,1,70.079,148.333ZM22.629,8.688a3.974,3.974,0,0,0-2.593.986A3.723,3.723,0,0,0,18.768,12.3c-.559,9.081-1.537,22.684-3.022,35.924-1.807,16.1-3.893,27.462-6.2,33.767a3.16,3.16,0,0,1-1.983,1.89,13.509,13.509,0,0,0-3.677,1.894A7.459,7.459,0,0,0,.973,89.86a9.169,9.169,0,0,0,.585,5.651,29.347,29.347,0,0,0,5.7,8.5c1.552,1.722,3.222,3.66,4.991,5.711,6.465,7.5,14.511,16.83,24.151,24.239a68.436,68.436,0,0,0,15.624,9.209,50.322,50.322,0,0,0,8.717,2.69,45.742,45.742,0,0,0,9.338.971,47.355,47.355,0,0,0,9.714-1.027,40.73,40.73,0,0,0,20.351-11.292c9.875-9.875,14.794-17.682,13.851-21.982-.344-1.569-1.47-2.686-3.441-3.414a1.394,1.394,0,0,0-.49-.086,1.539,1.539,0,0,0-.4.052,6.606,6.606,0,0,0-2.969,1.762,3.074,3.074,0,0,1-2.182.911,3.03,3.03,0,0,1-2.861-1.99,39.365,39.365,0,0,0-4.943-9.143A50.187,50.187,0,0,0,85.837,89.71,72.241,72.241,0,0,0,66.7,79.789,123.589,123.589,0,0,0,36.97,73.668a3.076,3.076,0,0,1-2.243-1.3,3.019,3.019,0,0,1-.447-2.5c2.418-9.229,8.915-40.832-8.987-60.009A3.567,3.567,0,0,0,22.629,8.688Z" transform="translate(1.999 14.173)" fill="#888"/><path data-name="패스 1553" d="M138.094,3.37A124.8,124.8,0,0,0,69.4,6.5C38.191,17.242,3.277,43.548,6.711,107.7c5.638,105.332,217.428,52.073,249.781,43.312a20.563,20.563,0,0,0,13.042-10.223c3.337-6.5,4.437-16.905-4.51-32.566C248.468,79.245,225.236,23.523,138.094,3.37" transform="translate(11.563 0)" fill="#fff"/><path data-name="패스 1553 - 윤곽선" d="M114.347,172.972h-.015a240.538,240.538,0,0,1-39.728-3,147.319,147.319,0,0,1-17.961-4.147,102.678,102.678,0,0,1-16.036-6.276A73.086,73.086,0,0,1,27,150.866,57.411,57.411,0,0,1,16.331,139.5a54.851,54.851,0,0,1-7.184-14.3,66.661,66.661,0,0,1-3.184-17.453A147.6,147.6,0,0,1,6.393,85.3,112.225,112.225,0,0,1,9.947,66.132a92.029,92.029,0,0,1,6.19-16.146,83.043,83.043,0,0,1,8.331-13.37A85.013,85.013,0,0,1,45.544,17.2a106.213,106.213,0,0,1,23.609-11.4A121.594,121.594,0,0,1,108.822-.75a130.889,130.889,0,0,1,29.441,3.389,220.13,220.13,0,0,1,27.513,8.224,182.076,182.076,0,0,1,23.031,10.462,161.214,161.214,0,0,1,19.053,12.143,154.364,154.364,0,0,1,15.578,13.263A168.655,168.655,0,0,1,246.2,74.364c6.057,9.076,10.79,17.723,14.966,25.353,1.581,2.888,3.074,5.615,4.514,8.136,4.137,7.241,6.478,13.98,6.958,20.032a24.348,24.348,0,0,1-2.432,13.248,21.332,21.332,0,0,1-13.513,10.6c-7.8,2.112-28.78,7.542-55.06,12.331-14.574,2.656-28.761,4.751-42.169,6.228A415.76,415.76,0,0,1,114.347,172.972ZM108.822.75A120.1,120.1,0,0,0,69.641,7.213,104.713,104.713,0,0,0,46.365,18.452,83.518,83.518,0,0,0,25.659,37.528a81.541,81.541,0,0,0-8.18,13.128,90.526,90.526,0,0,0-6.088,15.882A110.725,110.725,0,0,0,7.885,85.449a146.1,146.1,0,0,0-.425,22.212,65.165,65.165,0,0,0,3.11,17.06,53.352,53.352,0,0,0,6.987,13.912A55.911,55.911,0,0,0,27.944,149.7a71.586,71.586,0,0,0,13.331,8.5,101.178,101.178,0,0,0,15.8,6.182,145.816,145.816,0,0,0,17.777,4.1,239.049,239.049,0,0,0,39.478,2.978h.015a414.231,414.231,0,0,0,44.949-2.666c13.373-1.473,27.525-3.563,42.064-6.213,26.224-4.779,47.155-10.2,54.937-12.3a19.83,19.83,0,0,0,12.571-9.842A22.873,22.873,0,0,0,271.139,128c-.462-5.83-2.739-12.359-6.765-19.407-1.447-2.532-2.943-5.266-4.527-8.16-4.162-7.6-8.878-16.22-14.9-25.241a167.177,167.177,0,0,0-22.558-27.391,152.851,152.851,0,0,0-15.426-13.134A159.706,159.706,0,0,0,188.09,22.643a180.567,180.567,0,0,0-22.841-10.375A218.62,218.62,0,0,0,137.925,4.1,129.387,129.387,0,0,0,108.822.75Z" transform="translate(11.563 0)" fill="#888"/><path data-name="패스 1554" d="M103.536,32.958l22.989-11.131S125.074-.677,137.656.289s.967,22.5.967,22.5l-1.694,3.78s14.279-1.6,12.343,10.5-20.811,0-20.811,0l-13.794,8.953Z" transform="translate(176.864 0.462)" fill="#fff"/><path data-name="패스 1554 - 윤곽선" d="M114.523,47.013,102.336,32.706l23.416-11.338a48.733,48.733,0,0,1,.266-7,32.464,32.464,0,0,1,1.323-6.426,15.009,15.009,0,0,1,3.121-5.658,8.484,8.484,0,0,1,6.419-2.77c.272,0,.552.011.833.032,2.661.205,4.544,1.287,5.6,3.215,1.478,2.708,1.236,6.987-.721,12.716a56.334,56.334,0,0,1-3.293,7.652l-1.18,2.633c.129,0,.266,0,.41,0,2.527,0,7.158.459,9.778,3.531,1.661,1.948,2.236,4.608,1.708,7.907-.629,3.93-3.048,6.008-7,6.008-2.668,0-6-.928-9.908-2.759a50.249,50.249,0,0,1-4.638-2.479Zm-9.787-13.8,10.075,11.827,13.647-8.858.407.261c.082.053,8.278,5.258,14.15,5.258a5.782,5.782,0,0,0,3.586-1.022,5.589,5.589,0,0,0,1.929-3.723c.455-2.845-.005-5.1-1.369-6.7-.957-1.122-3.351-3-8.636-3-.911,0-1.508.065-1.514.066l-1.3.144,2.253-5.026a55.707,55.707,0,0,0,3.214-7.469c1.784-5.231,2.067-9.206.817-11.494C141.188,2,139.751,1.2,137.6,1.037c-.242-.019-.484-.028-.718-.028A6.948,6.948,0,0,0,131.558,3.3c-5.059,5.393-4.293,18.345-4.284,18.475l.032.5-.454.22Z" transform="translate(176.864 0.462)" fill="#888"/><path data-name="패스 1555" d="M29.56,9.939c-1.072,17.429-3.919,55.109-9.178,69.479a2.423,2.423,0,0,1-1.518,1.437c-3.6,1.223-14.156,6.329-.621,21.348,14.262,15.83,38.165,49.4,73.246,42.025a41.58,41.58,0,0,0,20.727-11.5c8.621-8.621,20.529-22.794,10.139-26.63a2.214,2.214,0,0,0-1.337-.056A7.391,7.391,0,0,0,117.711,108a2.307,2.307,0,0,1-3.811-.811c-3.733-10-17.359-32.2-65.321-36.582a2.294,2.294,0,0,1-2.033-2.861c2.44-9.315,9.017-41.234-9.164-60.711a4.553,4.553,0,0,0-7.822,2.9" transform="translate(20.604 10.046)" fill="#fff"/><path data-name="패스 1555 - 윤곽선" d="M81.62,146.022A49.064,49.064,0,0,1,63,142.25a69.93,69.93,0,0,1-15.971-9.408c-9.762-7.5-17.863-16.9-24.373-24.449-1.763-2.045-3.429-3.977-4.969-5.687-5.492-6.094-7.72-11.321-6.623-15.536a8.919,8.919,0,0,1,3.465-4.911,15.029,15.029,0,0,1,4.095-2.114,1.668,1.668,0,0,0,1.056-.987C21.944,72.968,24,61.725,25.8,45.742c1.482-13.209,2.458-26.786,3.016-35.849a5.264,5.264,0,0,1,1.774-3.655A5.419,5.419,0,0,1,34.17,4.877a5.1,5.1,0,0,1,3.76,1.651A44.026,44.026,0,0,1,47.541,23.2a64.338,64.338,0,0,1,2.906,17.983A98.518,98.518,0,0,1,47.272,67.94,1.5,1.5,0,0,0,47.5,69.2a1.578,1.578,0,0,0,1.152.662,125.077,125.077,0,0,1,30.1,6.2A73.733,73.733,0,0,1,98.274,86.2a51.684,51.684,0,0,1,11.2,11.242,40.863,40.863,0,0,1,5.13,9.493,1.542,1.542,0,0,0,1.455,1.015,1.584,1.584,0,0,0,1.123-.473,8.1,8.1,0,0,1,3.645-2.15,3.037,3.037,0,0,1,.779-.1,2.886,2.886,0,0,1,1.011.18c2.452.905,3.928,2.419,4.384,4.5a9.745,9.745,0,0,1-.738,5.546,30.428,30.428,0,0,1-3.407,6.1,89.268,89.268,0,0,1-10.11,11.716,42.225,42.225,0,0,1-21.1,11.7A48.859,48.859,0,0,1,81.62,146.022ZM34.17,6.377a3.974,3.974,0,0,0-2.593.986,3.723,3.723,0,0,0-1.269,2.622c-.559,9.081-1.537,22.684-3.022,35.924-1.807,16.1-3.893,27.462-6.2,33.767a3.16,3.16,0,0,1-1.983,1.89,13.51,13.51,0,0,0-3.677,1.894,7.46,7.46,0,0,0-2.913,4.088A9.169,9.169,0,0,0,13.1,93.2a29.347,29.347,0,0,0,5.7,8.5c1.552,1.722,3.222,3.66,4.991,5.711,6.465,7.5,14.511,16.83,24.151,24.239a68.436,68.436,0,0,0,15.624,9.209,50.323,50.323,0,0,0,8.717,2.69,45.742,45.742,0,0,0,9.338.971,47.357,47.357,0,0,0,9.714-1.027A40.73,40.73,0,0,0,111.685,132.2c9.875-9.875,14.794-17.682,13.851-21.982-.344-1.569-1.47-2.686-3.441-3.414a1.394,1.394,0,0,0-.489-.087,1.54,1.54,0,0,0-.4.052,6.605,6.605,0,0,0-2.969,1.762,3.074,3.074,0,0,1-2.182.911,3.03,3.03,0,0,1-2.861-1.99,39.364,39.364,0,0,0-4.943-9.143A50.187,50.187,0,0,0,97.378,87.4a72.241,72.241,0,0,0-19.133-9.92,123.589,123.589,0,0,0-29.734-6.121,3.076,3.076,0,0,1-2.243-1.3,3.019,3.019,0,0,1-.447-2.5c2.418-9.229,8.915-40.832-8.987-60.009A3.567,3.567,0,0,0,34.17,6.377Z" transform="translate(20.604 10.046)" fill="#888"/><path data-name="패스 1556" d="M158.442,19.24c-1.624.251-3.254.465-4.864.786C143.623,22,112.511,28,97.99,29.079c-17.424,1.29-52.271,23.228-32.911,61.3s71.789,35.32,81.711,13.465,38.958-63.8,38.958-63.8,21.3-8.39,3.872-20.649c0,0-1.451-15.649-12.1-7.178,0,0-12.2,5.964-19.078,7.02" transform="translate(98.041 17.33)" fill="#fff"/><path data-name="패스 1556 - 윤곽선" d="M114.012,120.517h0a58.352,58.352,0,0,1-13.921-1.694A56.579,56.579,0,0,1,86.4,113.517a53.077,53.077,0,0,1-12.286-9.259A54.21,54.21,0,0,1,64.41,90.72c-3.864-7.6-5.805-15.013-5.77-22.04a35.79,35.79,0,0,1,4.674-17.594A46.021,46.021,0,0,1,79.718,34.7c6.053-3.642,12.693-5.965,18.217-6.374,14.549-1.08,46.157-7.193,55.5-9.041,1.218-.242,2.46-.427,3.66-.605.405-.06.824-.122,1.235-.186,6.42-.985,17.777-6.427,18.791-6.917,2.208-1.742,4.236-2.625,6.029-2.625,2.617,0,4.7,1.843,6.027,5.33a21.561,21.561,0,0,1,1.152,4.7c4.977,3.574,7.28,7.23,6.845,10.871a9.119,9.119,0,0,1-2.155,4.684,18.342,18.342,0,0,1-3.789,3.378,29.333,29.333,0,0,1-4.988,2.742c-1,1.454-7.831,11.39-15.621,23.5-7.74,12.037-18.039,28.747-23.145,39.993-2.256,4.968-6.691,9.137-12.826,12.054A48.373,48.373,0,0,1,114.012,120.517Zm69.136-110.06c-1.463,0-3.2.791-5.161,2.351l-.064.051-.073.036c-.5.246-12.38,6.026-19.294,7.087-.414.064-.835.126-1.242.187-1.183.176-2.406.357-3.589.593-9.363,1.852-41.045,7.979-55.679,9.065a33.971,33.971,0,0,0-8.31,1.824,48.671,48.671,0,0,0-9.245,4.339A44.521,44.521,0,0,0,64.62,51.822a34.308,34.308,0,0,0-4.48,16.865c-.033,6.785,1.853,13.969,5.608,21.352A52.711,52.711,0,0,0,75.185,103.2a51.577,51.577,0,0,0,11.939,9,55.08,55.08,0,0,0,13.321,5.164,56.849,56.849,0,0,0,13.563,1.65h0A46.867,46.867,0,0,0,134,114.855c5.811-2.763,10-6.678,12.1-11.32a218.423,218.423,0,0,1,10.309-19.257c3.648-6.206,8-13.249,12.943-20.931,8.409-13.077,15.7-23.62,15.773-23.725l.13-.187.212-.084c.095-.037,9.512-3.821,10.21-9.678.371-3.117-1.814-6.367-6.494-9.66l-.283-.2-.032-.345C188.865,19.378,187.972,10.456,183.148,10.456Z" transform="translate(98.041 17.33)" fill="#888"/></g><g data-name="그룹 201406" transform="translate(-30.17 31.913)"><path data-name="패스 2008" d="M80.057,67.109c0,31.267-15.99,46.119-40.03,46.119S0,98.376,0,67.109,15.989,0,40.027,0s40.03,35.841,40.03,67.109" transform="matrix(0.978, 0.208, -0.208, 0.978, 105.62, 31.412)" fill="#fff"/><path data-name="패스 2008 - 윤곽선" d="M40.027,113.978a46.241,46.241,0,0,1-16.665-2.859A33.907,33.907,0,0,1,10.447,102.4,39.33,39.33,0,0,1,2.16,87.737,67.253,67.253,0,0,1-.75,67.109,103.161,103.161,0,0,1,2.145,43.256a90.918,90.918,0,0,1,8.2-21.785A51.222,51.222,0,0,1,23.167,5.5,26.889,26.889,0,0,1,40.027-.75,26.893,26.893,0,0,1,56.888,5.5,51.223,51.223,0,0,1,69.716,21.471a90.913,90.913,0,0,1,8.2,21.785,103.151,103.151,0,0,1,2.9,23.853A67.247,67.247,0,0,1,77.9,87.737,39.329,39.329,0,0,1,69.609,102.4a33.911,33.911,0,0,1-12.916,8.718A46.248,46.248,0,0,1,40.027,113.978ZM40.027.75A25.428,25.428,0,0,0,24.1,6.678a49.747,49.747,0,0,0-12.438,15.51A89.4,89.4,0,0,0,3.6,43.608,101.638,101.638,0,0,0,.75,67.109,65.769,65.769,0,0,0,3.587,87.275a37.845,37.845,0,0,0,7.964,14.111,32.42,32.42,0,0,0,12.35,8.333,44.754,44.754,0,0,0,16.126,2.759,44.761,44.761,0,0,0,16.127-2.759A32.424,32.424,0,0,0,68.5,101.386,37.844,37.844,0,0,0,76.47,87.275a65.762,65.762,0,0,0,2.838-20.166,101.628,101.628,0,0,0-2.853-23.5A89.4,89.4,0,0,0,68.4,22.188,49.749,49.749,0,0,0,55.959,6.678,25.431,25.431,0,0,0,40.027.75Z" transform="matrix(0.978, 0.208, -0.208, 0.978, 105.62, 31.412)" fill="#888"/><path data-name="패스 2009" d="M80.057,67.109c0,31.267-15.989,46.119-40.029,46.119S0,98.376,0,67.109,15.989,0,40.029,0,80.057,35.841,80.057,67.109" transform="translate(34.682 36.216)" fill="#fff"/><path data-name="패스 2009 - 윤곽선" d="M40.029,113.978a46.246,46.246,0,0,1-16.666-2.859A33.908,33.908,0,0,1,10.447,102.4,39.329,39.329,0,0,1,2.16,87.737,67.253,67.253,0,0,1-.75,67.109,103.159,103.159,0,0,1,2.145,43.256a90.915,90.915,0,0,1,8.2-21.785A51.221,51.221,0,0,1,23.168,5.5,26.892,26.892,0,0,1,40.029-.75,26.892,26.892,0,0,1,56.889,5.5,51.221,51.221,0,0,1,69.717,21.471a90.915,90.915,0,0,1,8.2,21.785,103.159,103.159,0,0,1,2.895,23.853A67.253,67.253,0,0,1,77.9,87.737,39.329,39.329,0,0,1,69.61,102.4a33.908,33.908,0,0,1-12.916,8.718A46.246,46.246,0,0,1,40.029,113.978ZM40.029.75A25.43,25.43,0,0,0,24.1,6.678a49.746,49.746,0,0,0-12.439,15.51A89.4,89.4,0,0,0,3.6,43.608,101.636,101.636,0,0,0,.75,67.109,65.768,65.768,0,0,0,3.587,87.275a37.844,37.844,0,0,0,7.964,14.111,32.421,32.421,0,0,0,12.35,8.333,44.759,44.759,0,0,0,16.127,2.759,44.759,44.759,0,0,0,16.127-2.759,32.421,32.421,0,0,0,12.35-8.333A37.844,37.844,0,0,0,76.47,87.275a65.768,65.768,0,0,0,2.837-20.166,101.636,101.636,0,0,0-2.853-23.5A89.4,89.4,0,0,0,68.4,22.188,49.746,49.746,0,0,0,55.961,6.678,25.43,25.43,0,0,0,40.029.75Z" transform="translate(34.682 36.216)" fill="#888"/></g><g data-name="그룹 201405" transform="matrix(0.996, 0.087, -0.087, 0.996, 16186.594, 5998.569)"><path data-name="패스 2003" d="M124.565,39.161s2.55-38.55,1.39-37.573C119.662,6.9,87.232,31.342,2.3,54.086c-.439.118,33.992,21.741,33.3,21.924" transform="translate(-16551.893 -4472.997)" fill="#fff"/><path data-name="패스 2003 - 윤곽선" d="M35.795,76.734l-.384-1.45a.739.739,0,0,0-.522.52.7.7,0,0,0,.14.649c-.733-.74-11.414-7.6-19.213-12.614-3.681-2.365-7.158-4.6-9.727-6.272-1.377-.9-2.384-1.56-3.079-2.029-.385-.26-.668-.456-.865-.6-.312-.227-.665-.484-.59-.965a.756.756,0,0,1,.551-.613C21.66,48.125,39.9,42.4,56.307,36.331a389.9,389.9,0,0,0,36.978-15.7c19.419-9.572,28.977-16.9,32.185-19.612a.807.807,0,0,1,.885-.109c.5.25.593.821.636,2.409.027,1.02.017,2.489-.03,4.365-.079,3.145-.263,7.491-.547,12.917-.483,9.232-1.1,18.521-1.1,18.614l-1.5-.1c.006-.088.584-8.858,1.059-17.811.279-5.255.468-9.543.562-12.744.09-3.055.078-4.709.042-5.6-3.988,3.217-13.609,10.186-31.53,19.021A391.4,391.4,0,0,1,56.827,37.738C40.8,43.662,23.034,49.266,4.008,54.4c2.293,1.539,7.524,4.9,12.62,8.174,4.64,2.982,9.439,6.065,13.151,8.492,2.014,1.317,3.5,2.3,4.536,3.014.58.4,1.007.7,1.3.923.437.328.814.611.735,1.111A.763.763,0,0,1,35.795,76.734Z" transform="translate(-16551.893 -4472.997)" fill="#888"/><path data-name="패스 2004" d="M63.3,31.342A18.977,18.977,0,1,1,44.319,12.365,18.978,18.978,0,0,1,63.3,31.342" transform="translate(-16526.367 -4460.67)" fill="#fff"/><path data-name="패스 2004 - 윤곽선" d="M44.319,51.069A19.667,19.667,0,1,1,52,49.518,19.6,19.6,0,0,1,44.319,51.069Zm0-37.954a18.228,18.228,0,1,0,12.888,5.339A18.107,18.107,0,0,0,44.319,13.115Z" transform="translate(-16526.367 -4460.67)" fill="#888"/><path data-name="패스 2005" d="M46.921,37.837A18.977,18.977,0,1,1,27.944,18.86,18.978,18.978,0,0,1,46.921,37.837" transform="translate(-16543.578 -4453.845)" fill="#fff"/><path data-name="패스 2005 - 윤곽선" d="M27.944,57.564a19.667,19.667,0,1,1,7.679-1.551A19.6,19.6,0,0,1,27.944,57.564Zm0-37.954a18.228,18.228,0,1,0,12.888,5.339A18.107,18.107,0,0,0,27.944,19.61Z" transform="translate(-16543.578 -4453.845)" fill="#888"/><path data-name="패스 2006" d="M79.052,24.135A18.977,18.977,0,1,1,60.075,5.158,18.978,18.978,0,0,1,79.052,24.135" transform="translate(-16509.811 -4468.245)" fill="#fff"/><path data-name="패스 2006 - 윤곽선" d="M60.075,43.862A19.732,19.732,0,0,1,52.4,5.959,19.732,19.732,0,0,1,67.753,42.311,19.6,19.6,0,0,1,60.075,43.862Zm0-37.954a18.228,18.228,0,1,0,12.888,5.339A18.107,18.107,0,0,0,60.075,5.908Z" transform="translate(-16509.811 -4468.245)" fill="#888"/><path data-name="패스 2007" d="M130.112,1.485a1.912,1.912,0,0,0-3.591-.392A102.38,102.38,0,0,1,76.972,49.441C45.678,63.884,14.623,57.452,2.683,54.007A2.1,2.1,0,0,0,.314,57.12C22.016,92.59,48.863,84.8,55.983,80.615a9.82,9.82,0,0,1,4.873-1.306,60.825,60.825,0,0,0,43.659-18.491,15.348,15.348,0,0,1,6.471-3.936c27.2-8.839,22.258-42.207,19.127-55.4" transform="translate(-16553 -4473.665)" fill="#fff"/><path data-name="패스 2007 - 윤곽선" d="M40.382,85.127h0a38.341,38.341,0,0,1-19.707-5.56c-7.8-4.611-14.864-12.031-21-22.055a2.8,2.8,0,0,1-.059-2.866,2.85,2.85,0,0,1,2.472-1.474,2.9,2.9,0,0,1,.8.115,111.514,111.514,0,0,0,12.933,2.881A117.019,117.019,0,0,0,34.581,57.7,99.646,99.646,0,0,0,76.658,48.76a102.4,102.4,0,0,0,34.181-25.413,97.731,97.731,0,0,0,15-22.574,2.661,2.661,0,0,1,5,.539,96.932,96.932,0,0,1,2.175,13.08,66.359,66.359,0,0,1-.352,16.541A36.588,36.588,0,0,1,126.5,46.792a29.645,29.645,0,0,1-15.281,10.8,14.527,14.527,0,0,0-6.158,3.739A60,60,0,0,1,89.841,72.8a62.286,62.286,0,0,1-28.977,7.257,9.06,9.06,0,0,0-4.5,1.2A33.209,33.209,0,0,1,40.382,85.127ZM2.088,54.671a1.349,1.349,0,0,0-1.164.707,1.3,1.3,0,0,0,.029,1.35c13.6,22.23,28.947,26.9,39.425,26.9h0A31.628,31.628,0,0,0,55.6,79.968a10.561,10.561,0,0,1,5.246-1.41,60.8,60.8,0,0,0,28.287-7.081A58.484,58.484,0,0,0,103.972,60.3a16.007,16.007,0,0,1,6.783-4.132c11.45-3.721,18.324-12.291,20.43-25.472a64.868,64.868,0,0,0,.34-16.164,94.811,94.811,0,0,0-2.141-12.873,1.152,1.152,0,0,0-1.149-.909,1.114,1.114,0,0,0-1.034.664,99.251,99.251,0,0,1-15.235,22.925A103.893,103.893,0,0,1,77.286,50.122a101.135,101.135,0,0,1-42.7,9.077,118.522,118.522,0,0,1-19-1.553,113.015,113.015,0,0,1-13.107-2.92A1.4,1.4,0,0,0,2.088,54.671Z" transform="translate(-16553 -4473.665)" fill="#888"/></g><path data-name="패스 1551" d="M95.469,90.783a89.3,89.3,0,0,1-25.748-3.72L3.708,60.856c-6.165-1.868-4.185-8.073,2.576-8.073H506.26c6.761,0,8.737,6.2,2.573,8.073L442.819,87.063a89.281,89.281,0,0,1-25.748,3.72" transform="translate(-12.589 120.939)" fill="#00d060"/></g></g></svg>