<svg xmlns="http://www.w3.org/2000/svg" xmlns:xlink="http://www.w3.org/1999/xlink" width="237.687" height="41.168"><defs><clipPath id="a"><rect data-name="사각형 274556" width="237.687" height="41.168" fill="none"/></clipPath></defs><g data-name="그룹 201492" transform="translate(-39.998 -131.498)"><g data-name="그룹 201484" transform="translate(39.998 131.498)"><g data-name="그룹 201484" transform="translate(0 0)" clip-path="url(#a)"><path data-name="패스 2330" d="M263.634,78.784a2.02,2.02,0,0,0-1.331.9c.168-.765.333-1.551.536-2.371.029-.132.022-.2-.035-.2a.68.68,0,0,0-.194.05,4.5,4.5,0,0,1-.783.162l-.04.177c.057,0,.162.006.229.014.193.018.235.033.184.291-.191.952-.389,1.845-.556,2.7-.123.624-.034.872.1,1.018a.569.569,0,0,0,.438.175,1.743,1.743,0,0,0,.938-.349,2.363,2.363,0,0,0,.967-1.867c0-.295-.088-.711-.457-.711m-1.153,2.635c-.263,0-.451-.207-.349-.815a1.648,1.648,0,0,1,.3-.766c.364-.488.665-.657.854-.657s.24.177.24.413c0,.706-.44,1.825-1.046,1.825" transform="translate(-145.142 -42.06)" fill="#fff"/><path data-name="패스 2331" d="M269.085,80.78a.44.44,0,0,0-.305.175.179.179,0,0,0-.026.205.824.824,0,0,1,.094.325,4.628,4.628,0,0,1-.855,1.73c-.023-.4-.046-.95-.091-1.487s-.114-.949-.346-.949-.591.333-.795.636l.1.169c.153-.191.311-.327.376-.327s.125.132.164.526c.058.587.135,1.506.139,1.993a5.685,5.685,0,0,1-1.4,1.3l.057.15.673-.174a20.365,20.365,0,0,0,2.231-3.178,1.662,1.662,0,0,0,.22-.735c0-.222-.094-.358-.24-.358" transform="translate(-147.671 -44.056)" fill="#fff"/><path data-name="패스 2332" d="M293.464,78.938c-.053,0-.237.023-.574.023-.37,0-.521-.023-.611-.023a.11.11,0,0,0-.094.045l-.024.079a.109.109,0,0,0,.037.081,2.263,2.263,0,0,0,.369.145.363.363,0,0,1,.249.355v1.82a.931.931,0,0,1-.008.146l-.008.022a.653.653,0,0,1-.139-.129l-2.157-2.41a.711.711,0,0,1-.07-.108l-.056-.036a.393.393,0,0,0-.1-.009c-.286,0-.427.023-.563.023-.1,0-.193-.022-.3-.023a.121.121,0,0,0-.093.038.128.128,0,0,0-.029.085.143.143,0,0,0,.114.143.666.666,0,0,1,.3.142.911.911,0,0,1,.181.671V82.1a.443.443,0,0,1-.242.439c-.061.035-.127.061-.178.093a.167.167,0,0,0-.1.146.089.089,0,0,0,.043.084l.077.015.078,0c.147,0,.293-.023.46-.023.186,0,.369.023.633.023h.029a.479.479,0,0,0,.122-.012.1.1,0,0,0,.083-.09.118.118,0,0,0-.04-.1.406.406,0,0,0-.172-.061.53.53,0,0,1-.309-.153.912.912,0,0,1-.166-.626V79.975l.007-.05.006-.007c.006,0,.038.016.073.061h0l2.579,2.843a.186.186,0,0,0,.161.085.08.08,0,0,0,.086-.058.533.533,0,0,0,.009-.136V79.646c0-.277.105-.371.212-.428.052-.03.108-.045.155-.067a.122.122,0,0,0,.088-.111l-.02-.062a.136.136,0,0,0-.111-.04" transform="translate(-160.516 -43.052)" fill="#fff"/><path data-name="패스 2333" d="M316.506,79.1a.362.362,0,0,0-.018-.1.1.1,0,0,0-.1-.064c-.5,0-.858.023-1.641.023s-1.14-.023-1.64-.023a.1.1,0,0,0-.1.064.343.343,0,0,0-.018.1l-.085.72a.69.69,0,0,0-.014.106.131.131,0,0,0,.024.082.108.108,0,0,0,.09.038.17.17,0,0,0,.15-.13,2.907,2.907,0,0,1,.142-.375.412.412,0,0,1,.393-.21h.451c.11,0,.17.009.2.038s.045.09.045.22v2.535c0,.315-.137.391-.282.436-.072.02-.146.027-.207.045a.189.189,0,0,0-.081.037.113.113,0,0,0-.036.085.128.128,0,0,0,.069.128.3.3,0,0,0,.129.019H314c.217,0,.392-.023.75-.023s.534.023.752.023h.085a.292.292,0,0,0,.142-.022.124.124,0,0,0,.066-.125.085.085,0,0,0-.045-.071.621.621,0,0,0-.167-.053.768.768,0,0,1-.313-.133.489.489,0,0,1-.162-.409V79.591c0-.13.015-.195.045-.22s.087-.038.2-.038h.488a.4.4,0,0,1,.423.272c.028.071.045.144.071.2a.147.147,0,0,0,.132.111.112.112,0,0,0,.1-.051.2.2,0,0,0,.024-.1.856.856,0,0,0-.021-.161Z" transform="translate(-173.611 -43.054)" fill="#fff"/><path data-name="패스 2334" d="M337.083,82.627a.55.55,0,0,1-.27-.093.46.46,0,0,1-.139-.386V79.54c0-.252.09-.31.182-.349.047-.019.1-.028.138-.045a.116.116,0,0,0,.082-.115l-.009-.054a.1.1,0,0,0-.073-.048.957.957,0,0,0-.136-.008c-.307,0-.5.024-.691.024s-.4-.023-.606-.024h-.049a.248.248,0,0,0-.1.015.1.1,0,0,0-.065.094.107.107,0,0,0,.036.081c.074.064.217.07.343.122a.319.319,0,0,1,.227.333v2.624c0,.251-.088.328-.176.379-.046.025-.093.04-.135.065a.135.135,0,0,0-.074.123l.017.061a.081.081,0,0,0,.073.036c.142,0,.372-.022.6-.022.417,0,.614.022.814.022a.328.328,0,0,0,.146-.022.1.1,0,0,0,.058-.093.087.087,0,0,0-.04-.073.423.423,0,0,0-.151-.042" transform="translate(-186.069 -43.043)" fill="#fff"/><path data-name="패스 2335" d="M354.1,82.64a.558.558,0,0,1-.271-.094.461.461,0,0,1-.14-.386V79.552c0-.252.09-.312.182-.349.047-.02.1-.029.139-.045a.117.117,0,0,0,.082-.114l-.011-.055a.093.093,0,0,0-.073-.047.756.756,0,0,0-.136-.007c-.307,0-.5.023-.69.023s-.4-.023-.606-.023h-.053a.248.248,0,0,0-.1.016.1.1,0,0,0-.062.094.1.1,0,0,0,.035.08c.076.064.218.07.343.122a.316.316,0,0,1,.227.331V82.2c0,.252-.088.328-.176.38-.046.026-.093.041-.134.066a.136.136,0,0,0-.075.122l.017.061a.084.084,0,0,0,.074.036c.141,0,.372-.023.6-.023.415,0,.613.023.812.023a.333.333,0,0,0,.146-.023.1.1,0,0,0,.059-.09.089.089,0,0,0-.04-.074.415.415,0,0,0-.152-.04" transform="translate(-195.509 -43.049)" fill="#fff"/><path data-name="패스 2336" d="M362.659,79.585l-.058-.5a.339.339,0,0,0-.018-.1.1.1,0,0,0-.1-.064c-.5,0-.858.023-1.64.023s-1.141-.023-1.64-.023a.1.1,0,0,0-.1.064.337.337,0,0,0-.018.1L359,79.8a.764.764,0,0,0-.014.107.129.129,0,0,0,.024.082.111.111,0,0,0,.091.038c.078,0,.123-.06.152-.131a2.638,2.638,0,0,1,.141-.373.411.411,0,0,1,.394-.212h.45c.11,0,.171.01.2.038s.046.09.045.22V82.11c0,.315-.137.391-.28.434-.073.02-.146.027-.207.045a.245.245,0,0,0-.081.037.109.109,0,0,0-.037.085.13.13,0,0,0,.065.127.276.276,0,0,0,.126.02h.027c.216,0,.394-.022.75-.022s.534.022.751.022h.085a.344.344,0,0,0,.143-.022.127.127,0,0,0,.064-.125.084.084,0,0,0-.044-.072c-.081-.047-.239-.052-.381-.121a.463.463,0,0,1-.262-.473v-2.47c0-.13.015-.193.045-.22s.089-.038.2-.038h.487a.4.4,0,0,1,.424.273c.029.07.045.144.069.2a.15.15,0,0,0,.135.11.111.111,0,0,0,.1-.05.192.192,0,0,0,.023-.1.874.874,0,0,0-.022-.163" transform="translate(-199.186 -43.044)" fill="#fff"/><path data-name="패스 2337" d="M305.63,78.933h0c-.268.012-.435.023-.608.023-.15,0-.294-.01-.449-.023h0c-.024,0-.054,0-.083,0l-.073.019a.087.087,0,0,0-.036.077.105.105,0,0,0,.038.083,2.586,2.586,0,0,0,.371.136.427.427,0,0,1,.251.436v.859l0,.48c0,.047,0,.093,0,.136a1.45,1.45,0,0,1-.362,1.113,1.065,1.065,0,0,1-.742.256h-.069a.989.989,0,0,1-.952-.439,2.152,2.152,0,0,1-.194-1.066V79.833c0-.444.111-.579.211-.635a.778.778,0,0,1,.149-.052l.063-.03a.1.1,0,0,0,.029-.073l-.015-.068a.083.083,0,0,0-.075-.041c-.1,0-.483.023-.754.023s-.669-.023-.742-.023a.165.165,0,0,0-.086.022.109.109,0,0,0-.056.1.143.143,0,0,0,.109.13,2.667,2.667,0,0,1,.291.091.281.281,0,0,1,.16.282v1.782a1.437,1.437,0,0,0,.519,1.189,2.038,2.038,0,0,0,1.279.376,1.607,1.607,0,0,0,1.159-.393,1.642,1.642,0,0,0,.431-1.172v-.8l0-.007V79.6c0-.3.087-.391.168-.432a.822.822,0,0,1,.126-.043l.054-.03.026-.063a.09.09,0,0,0-.04-.084.153.153,0,0,0-.089-.019" transform="translate(-167.255 -43.046)" fill="#fff"/><path data-name="패스 2338" d="M327.844,82.8a1.119,1.119,0,0,1-.13-.02c-.182-.043-.51-.4-.81-.771-.151-.183-.3-.369-.422-.519a2.8,2.8,0,0,0-.245-.269,1.14,1.14,0,0,0,.992-1.179l0-.075a1.12,1.12,0,0,0-.208-.6,1.283,1.283,0,0,0-1.1-.446c-.359,0-1.19.022-1.547.022-.336,0-.378-.022-.628-.022a.179.179,0,0,0-.1.026.1.1,0,0,0-.049.088.106.106,0,0,0,.036.08c.073.062.208.06.328.118s.217.148.219.408v2.4c0,.338-.1.447-.2.507a1.4,1.4,0,0,1-.146.065.119.119,0,0,0-.086.112.108.108,0,0,0,.057.1.185.185,0,0,0,.1.021h.049c.269,0,.537-.021.825-.021.221,0,.366.021.46.021a.316.316,0,0,0,.143-.026.1.1,0,0,0,.053-.087.136.136,0,0,0-.1-.123,1.347,1.347,0,0,1-.276-.106.356.356,0,0,1-.157-.341v-.02l0-2.581c0-.159.039-.226.093-.259a.479.479,0,0,1,.241-.036h.13a1.92,1.92,0,0,1,.8.12.767.767,0,0,1,.424.742v.015a.83.83,0,0,1-.185.491.886.886,0,0,1-.727.31h-.041a.934.934,0,0,0-.191.022.432.432,0,0,0-.086.03.106.106,0,0,0-.058.052l-.012.059a.1.1,0,0,0,.041.084.435.435,0,0,0,.114.064,1.081,1.081,0,0,1,.3.3c.15.183.347.454.608.834a1.344,1.344,0,0,0,1.106.676h.017a2.052,2.052,0,0,0,.284-.023.7.7,0,0,0,.14-.038c.037-.015.073-.038.074-.084v-.007a.145.145,0,0,0-.031-.078.163.163,0,0,0-.1-.036" transform="translate(-179.547 -43.042)" fill="#fff"/><path data-name="패스 2339" d="M346.478,81.813c-.069,0-.11.051-.153.109-.129.176-.317.521-1.307.591-.139.01-.253.015-.346.015a.949.949,0,0,1-.272-.028.161.161,0,0,1-.131-.141,2.6,2.6,0,0,1-.016-.337v-2.56a.279.279,0,0,1,.052-.191.315.315,0,0,1,.185-.084.283.283,0,0,0,.1-.039.128.128,0,0,0,.047-.107.087.087,0,0,0-.046-.088.324.324,0,0,0-.125-.014c-.091,0-.147.023-.606.023-.2,0-.514-.023-.73-.023a.281.281,0,0,0-.142.033.1.1,0,0,0-.023.172,1.367,1.367,0,0,0,.343.119.3.3,0,0,1,.227.309v2.584c0,.33-.1.4-.185.44-.046.018-.1.025-.142.047a.139.139,0,0,0-.081.139.077.077,0,0,0,.04.067.169.169,0,0,0,.093.023c.3,0,.524-.023.687-.023h.3c.331,0,.837,0,1.533.024h.019a.869.869,0,0,0,.768-.9.219.219,0,0,0-.027-.119Z" transform="translate(-190.275 -43.052)" fill="#fff"/><path data-name="패스 2340" d="M372.942,81.788a.123.123,0,0,0-.088.04,2.227,2.227,0,0,1-.31.391,1.586,1.586,0,0,1-1.061.285,1.383,1.383,0,0,1-.782-.135c-.1-.08-.111-.2-.111-.37v-.825a.343.343,0,0,1,.026-.187c.018-.025.065-.039.168-.039h.868a.378.378,0,0,1,.4.271c.026.07.04.14.061.2a.212.212,0,0,0,.039.075.1.1,0,0,0,.074.037.118.118,0,0,0,.108-.069.294.294,0,0,0,.021-.121c0-.046-.005-.09-.008-.115l-.038-.97a.214.214,0,0,0-.04-.137.1.1,0,0,0-.077-.031h-.015a.077.077,0,0,0-.06.034c-.094.118-.145.471-.524.471h-.809c-.114,0-.162-.012-.176-.035a.429.429,0,0,1-.023-.206v-.772a.736.736,0,0,1,.016-.2.13.13,0,0,1,.066-.075,3.325,3.325,0,0,1,1.05-.065c.514,0,.647.154.7.3a1.31,1.31,0,0,1,.043.215.2.2,0,0,0,.036.085.114.114,0,0,0,.091.04.112.112,0,0,0,.106-.066.3.3,0,0,0,.021-.119c0-.04,0-.077-.007-.1l-.021-.539a.135.135,0,0,0-.138-.134c-.472,0-1.335.022-1.716.022-.82,0-1.205-.022-1.426-.022a.158.158,0,0,0-.107.035.117.117,0,0,0-.042.088.146.146,0,0,0,.114.136,3.264,3.264,0,0,1,.317.1.3.3,0,0,1,.174.3v2.558c0,.33-.1.4-.185.439-.047.018-.1.025-.142.046a.135.135,0,0,0-.08.138.08.08,0,0,0,.037.069.176.176,0,0,0,.094.023c.3,0,.523-.022.687-.022.267,0,1.139.031,1.954.031a.891.891,0,0,0,.8-.914.219.219,0,0,0-.027-.118Z" transform="translate(-204.887 -43.038)" fill="#fff"/><path data-name="패스 2341" d="M281.876,79.018H278.07V82.9h3.812V79.018h-.006Zm-.48.99h0a1.1,1.1,0,0,1-.414.612,1.013,1.013,0,0,1-.678.1l-.036,0c-.163.136-.317.282-.453.411l-.036.034h0a.5.5,0,0,1,.139-.036,1.032,1.032,0,0,1,.7-.148,1.085,1.085,0,0,1,.593.447,1.056,1.056,0,0,1-.721.163,1.023,1.023,0,0,1-.557-.4l-.017-.023a.491.491,0,0,0-.221.084.111.111,0,0,0-.013.008l-.011.01,0,0a6.27,6.27,0,0,1-.5.443.827.827,0,0,1,.089-.017h.01c.018-.012.044-.027.076-.044a.973.973,0,0,1,.6-.115,1.08,1.08,0,0,1,.606.428,1.057,1.057,0,0,1-.716.184,1.01,1.01,0,0,1-.56-.371c-.015-.018-.029-.033-.036-.043l-.019.005-.008,0a.617.617,0,0,0-.134.036,1.02,1.02,0,0,1-.506.2h-.015l0-.034h.016a.876.876,0,0,0,.379-.128v0l.014-.006a.29.29,0,0,0,.145-.188.909.909,0,1,1,.39-.659,1.123,1.123,0,0,1-.357.666.547.547,0,0,1-.039.092,5.945,5.945,0,0,0,.569-.5l.012-.011a.418.418,0,0,0,.1-.194c-.007-.009-.017-.023-.03-.041a1.073,1.073,0,0,1-.174-.669.41.41,0,1,1,.6.087,1.051,1.051,0,0,1-.366.609.776.776,0,0,1-.034.115c.114-.109.24-.22.363-.331.02-.015.034-.03.053-.046s.037-.036.057-.054a.05.05,0,0,0,0-.01.016.016,0,0,1,0-.008c.008-.03.022-.069.042-.118a.993.993,0,0,1,.361-.462.8.8,0,0,1,.26-.1h.005A1.2,1.2,0,0,1,281.4,80Z" transform="translate(-154.288 -43.095)" fill="#fff"/><path data-name="패스 2342" d="M281.988,81.439a3.558,3.558,0,0,1,.113-.88l0,.015a2.815,2.815,0,0,0-.139.862,3.151,3.151,0,0,1-.029.359.2.2,0,0,0,.037-.061,2.565,2.565,0,0,0,.021-.3" transform="translate(-156.429 -43.936)" fill="#fff"/><path data-name="패스 2343" d="M283.5,83.874a3.819,3.819,0,0,0-.689-.235,1.842,1.842,0,0,0-.42-.047l-.061.031,0,0a3.053,3.053,0,0,1,1.174.247" transform="translate(-156.65 -45.589)" fill="#fff"/><path data-name="패스 2344" d="M282,85.142a3.434,3.434,0,0,0-1.119-.272.393.393,0,0,0-.051.017l-.008.009a3.748,3.748,0,0,1,1.191.252Z" transform="translate(-155.816 -46.287)" fill="#fff"/><path data-name="패스 2345" d="M283.113,81.845l.1-.079a3.868,3.868,0,0,1,.927-.554l-.008,0a3.271,3.271,0,0,0-.991.575Z" transform="translate(-157.086 -44.292)" fill="#fff"/><path data-name="패스 2346" d="M280.661,81.836a.113.113,0,0,0,0,.013c0-.011.007-.03.007-.03Z" transform="translate(-155.725 -44.623)" fill="#fff"/><path data-name="패스 2347" d="M280.446,83.222a2.368,2.368,0,0,0,.021-.384,3.632,3.632,0,0,1,.041-.723,3.217,3.217,0,0,0-.074.723c0,.121,0,.233-.011.33a.585.585,0,0,1,.014.058Z" transform="translate(-155.594 -44.784)" fill="#fff"/><path data-name="패스 2348" d="M280.615,81.989c.008-.035.008-.07.02-.105-.005.018-.012.053-.02.105" transform="translate(-155.7 -44.658)" fill="#fff"/><path data-name="패스 2349" d="M377.944,79.011h.2v.531h.125v-.531h.2V78.9h-.532Z" transform="translate(-209.704 -43.033)" fill="#fff"/><path data-name="패스 2350" d="M379.877,78.9l-.16.456-.16-.456h-.178v.638h.115v-.515l.174.515h.1l.174-.515v.515h.114V78.9Z" transform="translate(-210.499 -43.034)" fill="#fff"/><path data-name="패스 2351" d="M.706,38.1l1.449-4.856q1.839-6.469,1.839-8.461a1.331,1.331,0,0,0-.177-.683.559.559,0,0,0-.511-.3q-.613,0-1.272,1.082A23.6,23.6,0,0,0,.8,27.192l-.8-.4a17.639,17.639,0,0,1,2.424-4A4.073,4.073,0,0,1,5.665,21.2a2.3,2.3,0,0,1,1.848.768,2.965,2.965,0,0,1,.66,2,9.27,9.27,0,0,1-.316,2.485l.093.076a13.622,13.622,0,0,1,2.712-3.746,5.08,5.08,0,0,1,3.6-1.584,2.845,2.845,0,0,1,2.006.7,2.6,2.6,0,0,1,.762,2.011,15.3,15.3,0,0,1-.334,2.542l.074.076A15.958,15.958,0,0,1,19.5,22.686,4.837,4.837,0,0,1,23.052,21.2a3.148,3.148,0,0,1,2.275.778,2.99,2.99,0,0,1,.808,2.258,17.268,17.268,0,0,1-.929,4.458l-.724,2.258q-.353,1.062-.8,2.39a7.06,7.06,0,0,0-.446,1.84,1,1,0,0,0,.195.569.554.554,0,0,0,.455.285,1.483,1.483,0,0,0,1.013-.607,9.594,9.594,0,0,0,1.114-1.574q.567-.968.641-1.082l.762.436a15.462,15.462,0,0,1-2.5,3.822A4.37,4.37,0,0,1,21.6,38.612a2.649,2.649,0,0,1-1.978-.787,2.766,2.766,0,0,1-.771-2.02,16.92,16.92,0,0,1,.966-4.344l.762-2.333q.093-.342.455-1.48t.576-1.935a5.1,5.1,0,0,0,.214-1.176,1.112,1.112,0,0,0-.232-.711.734.734,0,0,0-.6-.294q-1.189,0-2.434,1.907A24.329,24.329,0,0,0,16.4,29.582q-.91,2.239-1.5,4.1L13.541,38.1H9.418L12.13,28.69q.148-.493.325-1.082t.306-1.024q.13-.436.223-.911a4.488,4.488,0,0,0,.093-.854q0-1.29-.8-1.29A3.162,3.162,0,0,0,9.8,25.295a19.137,19.137,0,0,0-1.913,3.747q-.753,1.982-1.458,4.2L4.867,38.1Z" transform="translate(0 -11.561)" fill="#fff"/><path data-name="패스 2352" d="M66.193,27.42a43.319,43.319,0,0,1,.994,4.818,45,45,0,0,1,.455,4.894h.074q.687-1.461,1.309-3.073a26.147,26.147,0,0,0,1-3.159,12,12,0,0,0,.381-2.855,6.223,6.223,0,0,0-.2-1.688,7.646,7.646,0,0,0-.548-1.394q-.343-.673-.594-1.214a2.271,2.271,0,0,1-.251-.92,1.51,1.51,0,0,1,.511-1.167,1.723,1.723,0,0,1,1.2-.465,1.691,1.691,0,0,1,1.235.484,2.825,2.825,0,0,1,.715,1.2,5.172,5.172,0,0,1,.223,1.537,20.223,20.223,0,0,1-.78,5.359,35.478,35.478,0,0,1-2.09,5.634,41.964,41.964,0,0,1-2.879,5.2,35.333,35.333,0,0,1-3.334,4.353,17.5,17.5,0,0,1-3.093,2.751,5.686,5.686,0,0,1-3.223.987q-2.173,0-2.173-1.783a1.649,1.649,0,0,1,.585-1.242,1.841,1.841,0,0,1,1.272-.541,4.808,4.808,0,0,1,1.319.3,4.851,4.851,0,0,0,1.43.3A3.97,3.97,0,0,0,62.7,44.152a5.614,5.614,0,0,0,1.031-1.9,8.417,8.417,0,0,0,.288-2.371,26.347,26.347,0,0,0-.186-2.9q-.186-1.65-.483-3.434t-.65-3.225L61.047,25.5q-.483-1.195-1.17-1.195-.465,0-.65.787A9.534,9.534,0,0,0,59,26.927q-.037,1.043-.037,1.574h-.836a19.466,19.466,0,0,1,.594-5.179A2.642,2.642,0,0,1,61.512,21.2q2.99,0,4.681,6.222" transform="translate(-30.585 -11.561)" fill="#fff"/><path data-name="패스 2353" d="M110.342,20.992V7.827a18.508,18.508,0,0,0-.167-2.912,2.326,2.326,0,0,0-.938-1.527,4.23,4.23,0,0,0-2.479-.569V1.377q2.229,0,6.315.151,1.5-.038,2.74-.075t3.242-.076a23.409,23.409,0,0,1,3.65.351,10.808,10.808,0,0,1,3.214,1.091A6.123,6.123,0,0,1,128.258,5a6.442,6.442,0,0,1,.882,3.491,5.819,5.819,0,0,1-1.421,4.069,7.907,7.907,0,0,1-3.595,2.239,15.216,15.216,0,0,1-4.532.673h-3.437v5.52a17.252,17.252,0,0,0,.186,3,2.157,2.157,0,0,0,.985,1.461,5.185,5.185,0,0,0,2.675.512v1.4q-1.727-.038-3.2-.076t-3.77-.076q-2.043.038-3.3.076t-2.981.076v-1.4a4.346,4.346,0,0,0,2.479-.55,2.258,2.258,0,0,0,.938-1.508,18.5,18.5,0,0,0,.167-2.912m5.814-7.3h.8a9.817,9.817,0,0,0,3.269-.455,3.557,3.557,0,0,0,1.932-1.613,6.527,6.527,0,0,0,.669-3.244,6.812,6.812,0,0,0-.511-2.779,3.8,3.8,0,0,0-1.57-1.773,5.105,5.105,0,0,0-2.638-.626,8.8,8.8,0,0,0-1.4.124.569.569,0,0,0-.455.417,6.336,6.336,0,0,0-.093,1.375Z" transform="translate(-59.235 -0.751)" fill="#fff"/><path data-name="패스 2354" d="M159.5,23.236V21.965l6.966-1.518.316,3.794a8.848,8.848,0,0,1,1.263-1.878,6.6,6.6,0,0,1,1.662-1.394,3.743,3.743,0,0,1,1.9-.522,2.766,2.766,0,0,1,1.421.4,2.863,2.863,0,0,1,1.068,1.1,3,3,0,0,1,.39,1.479,1.906,1.906,0,0,1-.594,1.5,2.253,2.253,0,0,1-1.56.531,1.976,1.976,0,0,1-1.2-.256,7.714,7.714,0,0,1-.818-.854,1.388,1.388,0,0,0-.994-.6,1.6,1.6,0,0,0-1.449.909,5.979,5.979,0,0,0-.7,2.122,15.185,15.185,0,0,0-.176,2.159v3.92a15.476,15.476,0,0,0,.121,2.349,1.342,1.342,0,0,0,.678.994,4.03,4.03,0,0,0,1.858.313v1.252q-1.3-.038-2.424-.078t-2.87-.077q-1.6.04-2.591.077t-2.164.078V36.515a2.4,2.4,0,0,0,2.025-.7,6.521,6.521,0,0,0,.39-2.956V26.494a4.237,4.237,0,0,0-.52-2.482,2.734,2.734,0,0,0-2.006-.776" transform="translate(-88.5 -11.151)" fill="#fff"/><path data-name="패스 2355" d="M203.715,20.446a9.492,9.492,0,0,1,4.532,1.129,8.707,8.707,0,0,1,3.362,3.13,8.46,8.46,0,0,1,1.245,4.563,8.811,8.811,0,0,1-1.226,4.562,8.591,8.591,0,0,1-3.316,3.225,9.172,9.172,0,0,1-4.486,1.148,9.953,9.953,0,0,1-4.672-1.129,8.8,8.8,0,0,1-3.445-3.168,8.6,8.6,0,0,1-1.282-4.676,8.073,8.073,0,0,1,.761-3.491,8.838,8.838,0,0,1,2.1-2.817,9.647,9.647,0,0,1,6.427-2.476M203.752,22a2.8,2.8,0,0,0-2.378,1.148,6.451,6.451,0,0,0-1.142,2.779,18.6,18.6,0,0,0-.288,3.244,22.349,22.349,0,0,0,.26,3.51,6,6,0,0,0,1.17,2.8,3.166,3.166,0,0,0,2.656,1.167,2.616,2.616,0,0,0,2.693-2.172,18.7,18.7,0,0,0,.613-5.055,18.169,18.169,0,0,0-.659-5.264A2.791,2.791,0,0,0,203.752,22" transform="translate(-107.879 -11.151)" fill="#fff"/><path data-name="패스 2356" d="M252.172,17.022h-3.845v9.907a9.487,9.487,0,0,0,.242,2.434,1.074,1.074,0,0,0,1.133.862,2.948,2.948,0,0,0,2.229-1.556l1.3.893a5.9,5.9,0,0,1-5.368,3,4.915,4.915,0,0,1-2.786-.672,3.423,3.423,0,0,1-1.356-1.9,10.694,10.694,0,0,1-.372-3.051V17.022h-2.062V15.851a7.558,7.558,0,0,0,4.282-3.161,8.964,8.964,0,0,0,1.124-2.591h1.635v5.369h3.845Z" transform="translate(-133.879 -5.507)" fill="#fff"/><path data-name="패스 2357" d="M284.732,28.642h-9.677a11.154,11.154,0,0,0,1.124,5.245,4.015,4.015,0,0,0,3.876,2.134,5.025,5.025,0,0,0,1.365-.18,4,4,0,0,0,1.153-.522,8.038,8.038,0,0,0,.975-.768q.464-.427,1.153-1.167l1.166.967a7.973,7.973,0,0,1-3.1,2.874,8.945,8.945,0,0,1-4.161.977,9.708,9.708,0,0,1-4.515-1.043,8.092,8.092,0,0,1-3.232-3,9.264,9.264,0,0,1-1.319-4.553,10.057,10.057,0,0,1,.687-3.8,8.439,8.439,0,0,1,1.9-2.893,8.317,8.317,0,0,1,2.86-1.83,9.729,9.729,0,0,1,3.539-.636,8.326,8.326,0,0,1,3.845.9A7.164,7.164,0,0,1,285.2,23.9a6.837,6.837,0,0,1,1.059,3.775q0,.626-.306.8a2.859,2.859,0,0,1-1.217.17m-9.641-1.593h5.086a1.221,1.221,0,0,0,.838-.237,1.1,1.1,0,0,0,.261-.844,5.053,5.053,0,0,0-.354-1.869,3.686,3.686,0,0,0-1.062-1.5,2.468,2.468,0,0,0-1.639-.6,2.4,2.4,0,0,0-2.291,1.518,9.291,9.291,0,0,0-.839,3.528" transform="translate(-149.554 -11.151)" fill="#fff"/><path data-name="패스 2358" d="M318.426,9.3V21.721a6.526,6.526,0,0,0,.39,2.96,2.339,2.339,0,0,0,2.006.7v1.233q-1.133-.038-2.108-.076t-2.573-.076q-.576.019-1.56.047l-1.969.057-1.561.048V25.382a2.34,2.34,0,0,0,2.006-.7,6.534,6.534,0,0,0,.39-2.96V14.929a4.606,4.606,0,0,0-.483-2.513,2.282,2.282,0,0,0-1.95-.674v-1.29A48.019,48.019,0,0,0,318.426,9.3M315.38,5.9a2.4,2.4,0,0,1-1.347-.425A3.269,3.269,0,0,1,313,4.377a2.729,2.729,0,0,1-.39-1.389,2.945,2.945,0,0,1,.836-2.119A2.729,2.729,0,0,1,315.491,0a2.641,2.641,0,0,1,2.016.869,3,3,0,0,1,.808,2.119,2.78,2.78,0,0,1-.864,2.071,2.861,2.861,0,0,1-2.071.841" transform="translate(-172.568 0)" fill="#fff"/><path data-name="패스 2359" d="M341.706,29.5v3.377a7.471,7.471,0,0,0,.336,2.959,2.407,2.407,0,0,0,2.031.7v1.233q-1.207-.038-2.22-.076t-2.645-.075q-1.633.037-2.633.075t-2.206.076V36.534a2.4,2.4,0,0,0,2.025-.7,7.52,7.52,0,0,0,.334-2.959V27.238a8.518,8.518,0,0,0-.4-3.025q-.4-.977-2.071-.977V21.965q1.3-.133,2.427-.3a22.359,22.359,0,0,0,2.3-.474,18.961,18.961,0,0,0,2.261-.74l.426,3.491a9.867,9.867,0,0,1,2.526-2.58,5.43,5.43,0,0,1,3.1-.911,6.68,6.68,0,0,1,2.536.493,4.666,4.666,0,0,1,2,1.518,4.578,4.578,0,0,1,.752,2.134,26.026,26.026,0,0,1,.158,3.083v5.2a7.528,7.528,0,0,0,.334,2.959,2.4,2.4,0,0,0,2.025.7v1.233q-1.112-.038-2.04-.076t-2.41-.075q-1.743.037-2.859.075t-2.432.076V36.439a2.518,2.518,0,0,0,2.031-.607,6.791,6.791,0,0,0,.373-2.959V27.978a19.694,19.694,0,0,0-.139-2.523,3.732,3.732,0,0,0-.672-1.774,1.9,1.9,0,0,0-1.63-.711q-1.958,0-3.13,2.447a5.31,5.31,0,0,0-.391,1.688q-.093,1.024-.093,2.39" transform="translate(-185.464 -11.151)" fill="#fff"/><path data-name="패스 2360" d="M409.376,37.739V22.886h-5.433V20.9h13.07v1.987h-5.455V37.739Z" transform="translate(-224.13 -11.398)" fill="#fff"/><path data-name="패스 2361" d="M438.435,37.739V20.9h11.924v1.987h-9.741v5.159h9.123V30.02h-9.123v5.732h10.124v1.987Z" transform="translate(-243.267 -11.398)" fill="#fff"/><path data-name="패스 2362" d="M471.188,31.983l2.057-.183a4.721,4.721,0,0,0,.681,2.074,3.733,3.733,0,0,0,1.66,1.309,6.155,6.155,0,0,0,2.531.5,5.937,5.937,0,0,0,2.2-.38,3.065,3.065,0,0,0,1.424-1.038,2.448,2.448,0,0,0,.466-1.442,2.224,2.224,0,0,0-.45-1.385,3.318,3.318,0,0,0-1.485-.992,28.288,28.288,0,0,0-2.935-.822,14.817,14.817,0,0,1-3.184-1.051A4.479,4.479,0,0,1,472.4,27a3.894,3.894,0,0,1-.579-2.1,4.35,4.35,0,0,1,.707-2.384,4.416,4.416,0,0,1,2.07-1.684,7.725,7.725,0,0,1,3.026-.574,8.1,8.1,0,0,1,3.234.6,4.682,4.682,0,0,1,2.155,1.774,5.169,5.169,0,0,1,.81,2.654l-2.092.161a3.475,3.475,0,0,0-1.142-2.412,4.38,4.38,0,0,0-2.875-.816,4.546,4.546,0,0,0-2.885.74,2.24,2.24,0,0,0-.906,1.786,1.929,1.929,0,0,0,.643,1.494,8.565,8.565,0,0,0,3.289,1.2,21.477,21.477,0,0,1,3.65,1.075,5.035,5.035,0,0,1,2.127,1.717,4.259,4.259,0,0,1,.686,2.4,4.652,4.652,0,0,1-.754,2.534,4.99,4.99,0,0,1-2.166,1.849,7.418,7.418,0,0,1-3.177.661,9.306,9.306,0,0,1-3.751-.667,5.266,5.266,0,0,1-2.373-2,5.754,5.754,0,0,1-.9-3.027" transform="translate(-261.441 -11.053)" fill="#fff"/><path data-name="패스 2363" d="M510.024,37.739V22.886h-5.433V20.9h13.07v1.987h-5.455V37.739Z" transform="translate(-279.974 -11.398)" fill="#fff"/></g></g></g></svg>