<svg xmlns="http://www.w3.org/2000/svg" xmlns:xlink="http://www.w3.org/1999/xlink" width="70" height="70"><defs><clipPath id="a"><rect data-name="사각형 274404" width="70" height="70" transform="translate(10066 815)" fill="#fff" stroke="#707070" stroke-width="1"/></clipPath></defs><g data-name="icon_70*70" transform="translate(-10066 -815)" clip-path="url(#a)"><g data-name="그룹 201409" transform="translate(-1.653 -12.135)"><path data-name="패스 2019" d="M36.314,27.764l.782-7c-.374.015-.826.027-1.349.027A44.582,44.582,0,0,1,19.506,17.6,42.44,42.44,0,0,1,9.034,11.54,45.733,45.733,0,0,1-.818.686,1.082,1.082,0,0,1-.873-.421,1.076,1.076,0,0,1,.079-1a1.061,1.061,0,0,1,.716.279A50.609,50.609,0,0,0,12.287,6.947a56.869,56.869,0,0,0,11.027,4.114,56.526,56.526,0,0,0,13.791,1.787l-.8-7.135L53.845,16.958Zm3.04-9.217-.138,1.246-.459,4.116,11.331-6.984L38.762,9.663l.577,5.167-1.1.014c-.264,0-.521.005-.785.005A58.541,58.541,0,0,1,22.814,13,58.873,58.873,0,0,1,11.4,8.739,58.262,58.262,0,0,1,5.1,5.11,40.485,40.485,0,0,0,20.251,15.744a42.532,42.532,0,0,0,15.5,3.043,23.533,23.533,0,0,0,2.362-.1Z" transform="matrix(0.966, 0.259, -0.259, 0.966, 10082.881, 836.492)" fill="#00d060"/><rect data-name="사각형 274506" width="8" height="30" transform="translate(10076.652 857.777)" fill="#fff"/><path data-name="사각형 274506 - 윤곽선" d="M2,2V28H6V2H2M0,0H8V30H0Z" transform="translate(10076.652 857.777)" fill="#707070"/><rect data-name="사각형 274507" width="8" height="20" transform="translate(10090.652 867.777)" fill="#fff"/><path data-name="사각형 274507 - 윤곽선" d="M2,2V18H6V2H2M0,0H8V20H0Z" transform="translate(10090.652 867.777)" fill="#707070"/><rect data-name="사각형 274508" width="8" height="10" transform="translate(10104.652 877.777)" fill="#fff"/><path data-name="사각형 274508 - 윤곽선" d="M2,2V8H6V2H2M0,0H8V10H0Z" transform="translate(10104.652 877.777)" fill="#707070"/></g></g></svg>