<svg xmlns="http://www.w3.org/2000/svg" xmlns:xlink="http://www.w3.org/1999/xlink" width="70" height="70"><defs><clipPath id="a"><rect data-name="사각형 274404" width="70" height="70" transform="translate(10066 815)" fill="#fff" stroke="#707070" stroke-width="1"/></clipPath></defs><g data-name="icon_70*70" transform="translate(-10066 -815)" clip-path="url(#a)"><path data-name="패스 1995" d="M17.319,8.978A8.662,8.662,0,1,1,8.978.006a8.662,8.662,0,0,1,8.341,8.972" transform="translate(10074.305 823.012)" fill="#fff"/><path data-name="패스 1995 - 윤곽선" d="M8.669,18.325c-.119,0-.239,0-.358-.007A9.662,9.662,0,0,1,8.656-1c.119,0,.239,0,.358.007a9.66,9.66,0,0,1,9.3,10.008,9.662,9.662,0,0,1-9.649,9.31ZM8.656,1A7.662,7.662,0,0,0,8.383,16.32c.095,0,.191.005.285.005a7.663,7.663,0,0,0,5.606-12.88A7.608,7.608,0,0,0,8.942,1.006C8.847,1,8.751,1,8.656,1Z" transform="translate(10074.305 823.012)" fill="#00d060"/><path data-name="패스 1996" d="M20.452,31.87a7.059,7.059,0,1,1-6.8-7.312,7.059,7.059,0,0,1,6.8,7.312" transform="translate(10077.376 839.181)" fill="#fff"/><path data-name="패스 1996 - 윤곽선" d="M13.4,39.672c-.1,0-.2,0-.3-.005a8.059,8.059,0,0,1,.29-16.113c.1,0,.2,0,.3.005a8.059,8.059,0,0,1-.29,16.113Zm-.01-14.119a6.059,6.059,0,0,0-.216,12.114c.075,0,.151,0,.226,0a6.059,6.059,0,0,0,.216-12.114C13.543,25.554,13.467,25.553,13.392,25.553Z" transform="translate(10077.376 839.181)" fill="#00d060"/><path data-name="패스 1994" d="M48.326,25.2A23.12,23.12,0,1,1,25.205,2.075,23.12,23.12,0,0,1,48.326,25.2" transform="translate(10075.559 824.261)" fill="#fff"/><path data-name="패스 1994 - 윤곽선" d="M25.205,49.317A24.127,24.127,0,0,1,15.817,2.971a24.127,24.127,0,0,1,18.778,44.45A23.972,23.972,0,0,1,25.205,49.317Zm0-46.242a22.127,22.127,0,0,0-8.609,42.5A22.127,22.127,0,0,0,33.816,4.813,21.983,21.983,0,0,0,25.205,3.075Z" transform="translate(10075.559 824.261)" fill="#707070"/><path data-name="패스 1997" d="M47.041,25.912A12.685,12.685,0,1,1,34.827,12.773,12.685,12.685,0,0,1,47.041,25.912" transform="translate(10085.678 829.02)" fill="#fff"/><path data-name="패스 1997 - 윤곽선" d="M34.372,39.135c-.168,0-.338,0-.506-.009a13.685,13.685,0,0,1,.488-27.361c.171,0,.338,0,.509.009a13.685,13.685,0,0,1-.492,27.361Zm-.018-25.37a11.685,11.685,0,0,0-.415,23.363c.144.005.289.008.433.008a11.685,11.685,0,0,0,.419-23.362C34.643,13.767,34.5,13.764,34.354,13.764Z" transform="translate(10085.678 829.02)" fill="#00d060"/><path data-name="패스 1998" d="M13.123,27.782a7.3,7.3,0,1,1,7.3-7.3A7.306,7.306,0,0,1,13.123,27.782Zm0-12.594a5.3,5.3,0,1,0,5.3,5.3A5.3,5.3,0,0,0,13.123,15.188Z" transform="translate(10078.412 831.551)" fill="#00d060"/></g></svg>