<svg xmlns="http://www.w3.org/2000/svg" width="60" height="22" viewBox="0 0 60 22">
    <defs>
        <clipPath id="7ztyh2dz6a">
            <path data-name="사각형 7680" style="fill:#ccc" d="M0 0h60v22H0z"/>
        </clipPath>
    </defs>
    <g data-name="그룹 10498" style="clip-path:url(#7ztyh2dz6a)">
        <path data-name="패스 16429" d="M88.613 9.421H86.83a.373.373 0 0 0-.368.362v13.493a.372.372 0 0 0 .353.36h1.812a.373.373 0 0 0 .354-.366V9.789a.374.374 0 0 0-.368-.368" transform="translate(-61.56 -6.699)" style="fill:#ccc"/>
        <path data-name="패스 16430" d="M91.909 20.349a5.464 5.464 0 1 1 5.447-5.464 5.462 5.462 0 0 1-5.447 5.464m0-8.4a2.936 2.936 0 1 0 2.927 2.936 2.935 2.935 0 0 0-2.927-2.936" transform="translate(-61.56 -6.699)" style="fill:#ccc"/>
        <path data-name="패스 16431" d="M156.592 33.528h1.784a.373.373 0 0 0 .368-.362V23.047a.372.372 0 0 0-.353-.361h-1.812a.373.373 0 0 0-.354.366V33.16a.373.373 0 0 0 .368.368" transform="translate(-111.229 -16.131)" style="fill:#ccc"/>
        <path data-name="패스 16432" d="M132.6 22.386a5.464 5.464 0 1 1-5.447 5.464 5.462 5.462 0 0 1 5.447-5.464m0 8.4a2.936 2.936 0 1 0-2.927-2.936 2.935 2.935 0 0 0 2.927 2.936" transform="translate(-90.528 -15.918)" style="fill:#ccc"/>
        <path data-name="패스 16433" d="m32.08 19.463-.88 3.558H33z" transform="translate(-22.217 -13.839)" style="fill:#ccc"/>
        <path data-name="패스 16434" d="M17.053 16.432a9.773 9.773 0 1 0-2.321 1.888c.09-.053.174-.112.262-.168l2.072.83-.352-2.2c.114-.114.23-.227.339-.347M8.771 3.6h2.159l3.011 9.236h-2.135l-.552-1.962H8.543L8 12.831H5.88zm6.685 11.15-11.214 1.3.447-.83 10.886-.8z" style="fill:#ccc"/>
        <path data-name="패스 16435" d="M180.8 22.843a.362.362 0 0 0-.3-.16h-1.95a.363.363 0 0 0-.34.238l-2.6 6.949a.062.062 0 0 1-.038-.035v-.008l-2.82-6.912a.363.363 0 0 0-.336-.226h-1.947a.364.364 0 0 0-.335.5l4.166 10.092a.116.116 0 0 1 0 .082l-1.592 4.249-.045.144a.364.364 0 0 0 .337.5h1.947a.363.363 0 0 0 .341-.238l.082-.218 5.466-14.621a.366.366 0 0 0-.037-.34" transform="translate(-121.109 -16.129)" style="fill:#ccc"/>
    </g>
</svg>
