<svg xmlns="http://www.w3.org/2000/svg" xmlns:xlink="http://www.w3.org/1999/xlink" width="80" height="80"><defs><clipPath id="a"><rect data-name="사각형 274577" width="80" height="80" transform="translate(67 898)" fill="#fff" stroke="#707070" stroke-width="1"/></clipPath></defs><g transform="translate(-67 -898)" clip-path="url(#a)"><g data-name="난류_icon" transform="translate(71.318 915.263)"><path data-name="Stroke 11" d="M32.2,39.737C23.26,46.725,10.623,45.5,3.98,36.992S-.8,15.932,8.145,8.944,39.474-4.433,46.118,4.07,41.148,32.749,32.2,39.737Z" transform="translate(23.283 8.262)" fill="#f7f7f7" stroke="#00d060" stroke-linecap="round" stroke-miterlimit="10" stroke-width="2.5"/><path data-name="Stroke 15" d="M18.276,20.226A11.312,11.312,0,1,1,20.225,4.348,11.312,11.312,0,0,1,18.276,20.226Z" transform="translate(31.347 21.913)" fill="#f7f7f7" stroke="#00d060" stroke-linecap="round" stroke-linejoin="round" stroke-miterlimit="10" stroke-width="2.5"/><path data-name="Stroke 11" d="M39.077,32.923c0,11.35-8.748,20.551-19.539,20.551S0,44.273,0,32.923,8.747,0,19.538,0,39.077,21.573,39.077,32.923Z" transform="translate(0 0)" fill="#f7f7f7" stroke="#00d060" stroke-linecap="round" stroke-miterlimit="10" stroke-width="2.5"/><path data-name="Stroke 15" d="M22.623,11.312A11.312,11.312,0,1,1,11.311,0,11.312,11.312,0,0,1,22.623,11.312Z" transform="translate(8.227 22.623)" fill="#f7f7f7" stroke="#00d060" stroke-linecap="round" stroke-linejoin="round" stroke-miterlimit="10" stroke-width="2.5"/></g></g></svg>