<svg xmlns="http://www.w3.org/2000/svg" xmlns:xlink="http://www.w3.org/1999/xlink" width="54" height="54"><defs><clipPath id="a"><rect data-name="사각형 4238" width="54" height="54" transform="translate(-10434 -2258.001)" fill="#fff" stroke="#707070" stroke-width="1"/></clipPath></defs><g transform="translate(10434 2258.001)" clip-path="url(#a)"><g data-name="그룹 201363" transform="translate(-4392.834 1863.719)"><path data-name="패스 1692" d="M38,54.555H0V51.331a2.874,2.874,0,0,1,2.963-2.776H35.037A2.874,2.874,0,0,1,38,51.331Z" transform="translate(-6033.167 -4127.141)" fill="#ff1440"/><path data-name="제외 4" d="M-6350.166-6078.194h-34V-6086a16.645,16.645,0,0,1,4.875-11.821,16.5,16.5,0,0,1,11.769-4.9h.711a16.5,16.5,0,0,1,11.77,4.9,16.642,16.642,0,0,1,4.876,11.821v7.807Zm-23.192-18.507a1.5,1.5,0,0,0-.757.207c-.18.1-4.407,2.607-5.4,7.053a1.489,1.489,0,0,0,.2,1.132,1.489,1.489,0,0,0,.939.661,1.537,1.537,0,0,0,.329.037,1.492,1.492,0,0,0,1.463-1.173c.692-3.093,3.863-5.042,4-5.124a1.505,1.505,0,0,0,.532-2.051A1.5,1.5,0,0,0-6373.358-6096.7Z" transform="translate(353 1997.167)" fill="#ff1440" stroke="rgba(0,0,0,0)" stroke-miterlimit="10" stroke-width="1"/><line data-name="선 21" y2="5.633" transform="translate(-6014.376 -4117.5)" fill="none" stroke="#ff1440" stroke-linecap="round" stroke-miterlimit="10" stroke-width="4"/><line data-name="선 22" x1="3.983" y2="3.983" transform="translate(-5997.944 -4109.403)" fill="none" stroke="#ff1440" stroke-linecap="round" stroke-miterlimit="10" stroke-width="4"/><line data-name="선 23" x2="3.983" y2="3.983" transform="translate(-6034.371 -4109.403)" fill="none" stroke="#ff1440" stroke-linecap="round" stroke-miterlimit="10" stroke-width="4"/></g></g></svg>