<svg xmlns="http://www.w3.org/2000/svg" xmlns:xlink="http://www.w3.org/1999/xlink" width="80" height="80"><defs><clipPath id="a"><rect data-name="사각형 274563" width="80" height="80" transform="translate(10.481 -6.129)" fill="#fff" stroke="#707070" stroke-width="1"/></clipPath></defs><g data-name="육류 _icon" transform="translate(-10.481 6.129)" clip-path="url(#a)"><g data-name="육류 _icon" transform="translate(23.627 5.877)"><path data-name="Stroke 3" d="M0,0H9.767c8.92,0,16.487,7.008,16.487,15.963V16a11.92,11.92,0,0,0,2,6.687A21.9,21.9,0,0,1,10.1,56.71L.056,56.988" transform="translate(22.795)" fill="none" stroke="#00d060" stroke-miterlimit="10" stroke-width="2.5"/><path data-name="Stroke 7" d="M39.679,22.951a11.979,11.979,0,0,1-1.987-6.69v-.038a16.038,16.038,0,1,0-32.073,0v.038a11.981,11.981,0,0,1-1.99,6.69A21.949,21.949,0,0,0,21.655,56.988,21.946,21.946,0,0,0,39.679,22.951Z" fill="none" stroke="#00d060" stroke-miterlimit="10" stroke-width="2.5"/><path data-name="Stroke 11" d="M.411,12.117a14.052,14.052,0,0,0,15.4,8.153A14.321,14.321,0,0,0,26.76,10.062a15.845,15.845,0,0,0,.493-6.076A4.452,4.452,0,0,0,20.342.766C15.5,4.994,12.243,6.408,4.367,5.74A4.506,4.506,0,0,0,.411,12.117Z" transform="translate(6.839 27.354)" fill="none" stroke="#00d060" stroke-miterlimit="10" stroke-width="2.5"/><path data-name="Stroke 15" d="M11.4,5.7A5.7,5.7,0,1,1,5.7,0,5.7,5.7,0,0,1,11.4,5.7Z" transform="translate(15.957 11.398)" fill="none" stroke="#00d060" stroke-miterlimit="10" stroke-width="2.5"/></g></g></svg>