<svg xmlns="http://www.w3.org/2000/svg" xmlns:xlink="http://www.w3.org/1999/xlink" width="80" height="80"><defs><clipPath id="a"><rect data-name="사각형 274563" width="80" height="80" transform="translate(10.481 -6.129)" fill="#fff" stroke="#707070" stroke-width="1"/></clipPath></defs><g transform="translate(-10.481 6.129)" clip-path="url(#a)"><g data-name="곡류_icon" transform="translate(33.008 -2.345)"><path data-name="Stroke 1" d="M11.019,17.38l6.382-.007-.009-7.216A10.171,10.171,0,0,0,7.213,0L0,.007,0,6.389A11,11,0,0,0,11.019,17.38Z" transform="translate(0 19.207)" fill="none" stroke="#00d060" stroke-miterlimit="10" stroke-width="2.5"/><path data-name="Stroke 3" d="M11.019,17.38l6.382-.007-.009-7.216A10.171,10.171,0,0,0,7.213,0L0,.009,0,6.392A11,11,0,0,0,11.019,17.38Z" transform="translate(0.017 36.589)" fill="none" stroke="#00d060" stroke-miterlimit="10" stroke-width="2.5"/><path data-name="Stroke 5" d="M6.389,17.394.007,17.4,0,10.186A10.171,10.171,0,0,1,10.16.007L17.373,0l.007,6.382A11,11,0,0,1,6.389,17.394Z" transform="translate(17.392 19.18)" fill="none" stroke="#00d060" stroke-miterlimit="10" stroke-width="2.5"/><path data-name="Stroke 7" d="M6.389,17.394l-6.382,0L0,10.183A10.169,10.169,0,0,1,10.16.007L17.373,0l.007,6.382A11,11,0,0,1,6.389,17.394Z" transform="translate(17.409 36.564)" fill="none" stroke="#00d060" stroke-miterlimit="10" stroke-width="2.5"/><path data-name="Stroke 9" d="M.5,0,.515,19.793" transform="translate(16.92 53.101)" fill="none" stroke="#00d060" stroke-miterlimit="10" stroke-width="2.5"/><path data-name="Stroke 11" d="M3.23,20.074l4.517,4.508,5.1-5.109A10.166,10.166,0,0,0,12.828,5.1L7.721,0,3.216,4.517A11,11,0,0,0,3.23,20.074Z" transform="translate(9.469)" fill="none" stroke="#00d060" stroke-miterlimit="10" stroke-width="2.5"/></g></g></svg>