<svg xmlns="http://www.w3.org/2000/svg" xmlns:xlink="http://www.w3.org/1999/xlink" width="80" height="80"><defs><clipPath id="a"><rect data-name="사각형 274577" width="80" height="80" transform="translate(67 898)" fill="#fff" stroke="#707070" stroke-width="1"/></clipPath></defs><g transform="translate(-67 -898)" clip-path="url(#a)"><g data-name="두류_icon" transform="translate(82.098 913.098)"><path data-name="Stroke 16" d="M9.222,4.666A4.611,4.611,0,1,1,4.666,0,4.613,4.613,0,0,1,9.222,4.666Z" transform="translate(20.29 0)" fill="none" stroke="#00d060" stroke-linecap="round" stroke-linejoin="round" stroke-miterlimit="10" stroke-width="2.5"/><path data-name="Stroke 34" d="M9.178,3.973A4.611,4.611,0,1,1,3.97.045,4.611,4.611,0,0,1,9.178,3.973Z" transform="translate(40.58 5.534)" fill="none" stroke="#00d060" stroke-linecap="round" stroke-linejoin="round" stroke-miterlimit="10" stroke-width="2.5"/><path data-name="Fill 36" d="M9.178,3.973A4.611,4.611,0,1,1,3.971.045,4.611,4.611,0,0,1,9.178,3.973" transform="translate(40.58 12.912)" fill="#f7f7f7"/><path data-name="Stroke 52" d="M9.178,3.973A4.611,4.611,0,1,1,3.971.045,4.611,4.611,0,0,1,9.178,3.973Z" transform="translate(40.58 12.912)" fill="none" stroke="#00d060" stroke-linecap="round" stroke-linejoin="round" stroke-miterlimit="10" stroke-width="2.5"/><path data-name="Stroke 70" d="M42.121,29.086a9,9,0,0,0-6.837-6.542A9.349,9.349,0,0,0,33.4,22.35a3.265,3.265,0,0,1-3.274-3.041l-.01-.14a9.169,9.169,0,0,0-8.508-8.215l-.113-.005a3.29,3.29,0,0,1-3.168-2.941c0-.044-.012-.088-.016-.132A9.168,9.168,0,0,0,9.288,0C9.019,0,0,.4,0,.4S.322,9.414.344,9.773a9.18,9.18,0,0,0,8.5,8.446l.146.005a3.293,3.293,0,0,1,3.161,2.954c0,.027.008.059.012.09a9.162,9.162,0,0,0,8.8,7.9h.149a3.264,3.264,0,0,1,3.272,3.043,9.583,9.583,0,0,0,.336,1.859,9,9,0,0,0,6.993,6.358A9.1,9.1,0,0,0,42.121,29.086Z" transform="translate(0 9.223)" fill="none" stroke="#00d060" stroke-linecap="round" stroke-linejoin="round" stroke-miterlimit="10" stroke-width="2.5"/><path data-name="Fill 72" d="M3.689,0A5.618,5.618,0,0,1,0,3.689" transform="translate(9.223 20.29)" fill="#fff"/><path data-name="Stroke 74" d="M3.689,0A5.618,5.618,0,0,1,0,3.689" transform="translate(9.223 20.29)" fill="none" stroke="#00d060" stroke-linecap="round" stroke-linejoin="round" stroke-miterlimit="10" stroke-width="2.5"/><path data-name="Fill 76" d="M3.689,0A5.622,5.622,0,0,1,0,3.689" transform="translate(20.29 29.513)" fill="#fff"/><path data-name="Stroke 78" d="M3.689,0A5.622,5.622,0,0,1,0,3.689" transform="translate(20.29 29.513)" fill="none" stroke="#00d060" stroke-linecap="round" stroke-linejoin="round" stroke-miterlimit="10" stroke-width="2.5"/></g></g></svg>