<svg xmlns="http://www.w3.org/2000/svg" width="33.603" height="33.603"><g data-name="그룹 6993" transform="translate(2 2)"><path data-name="패스 46" d="M-1829.217,245.346a1.994,1.994,0,0,1-1.414-.586,2,2,0,0,1,0-2.828l29.6-29.6a2,2,0,0,1,2.828,0,2,2,0,0,1,0,2.828l-29.6,29.6A1.994,1.994,0,0,1-1829.217,245.346Z" transform="translate(1829.217 -213.743)"/><path data-name="패스 47" d="M0,31.6a1.994,1.994,0,0,1-1.414-.586,2,2,0,0,1,0-2.828l29.6-29.6a2,2,0,0,1,2.828,0,2,2,0,0,1,0,2.828l-29.6,29.6A1.994,1.994,0,0,1,0,31.6Z" transform="translate(29.603 0) rotate(90)"/></g></svg>