<svg xmlns="http://www.w3.org/2000/svg" xmlns:xlink="http://www.w3.org/1999/xlink" width="80" height="80"><defs><clipPath id="a"><rect data-name="사각형 274587" width="80" height="80" transform="translate(3.481 -23.085)" fill="#fff" stroke="#707070" stroke-width="1"/></clipPath></defs><g transform="translate(-3.481 23.085)" clip-path="url(#a)"><g data-name="견과류_icon" transform="translate(11.901 -13.496)"><path data-name="Stroke 1" d="M8.916,56.7h0c-11.886-12.078-11.886-34.663,0-46.741L18.713,0l9.8,9.957C40.4,22.034,40.4,44.619,28.513,56.7A13.7,13.7,0,0,1,8.916,56.7Z" fill="none" stroke="#00d060" stroke-linecap="round" stroke-linejoin="round" stroke-miterlimit="10" stroke-width="2.5"/><path data-name="Stroke 3" d="M7.018,0c-9.357,9.619-9.357,27.808,0,37.428C-2.339,27.808-2.339,9.619,7.018,0Z" transform="translate(7.018 14.036)" fill="none" stroke="#00d060" stroke-linecap="round" stroke-linejoin="round" stroke-miterlimit="10" stroke-width="2.5"/><path data-name="Stroke 5" d="M3.67,0c-6.238,7.674-3.9,18.058,2.338,25.732C-.229,18.058-2.568,7.674,3.67,0Z" transform="translate(15.044 21.053)" fill="none" stroke="#00d060" stroke-linecap="round" stroke-linejoin="round" stroke-miterlimit="10" stroke-width="2.5"/><path data-name="Stroke 7" d="M28.071,23.393H21.42A11.888,11.888,0,0,1,9.7,11.346,8.282,8.282,0,0,0,6.355,4.668L0,0,6.355,4.668A8.282,8.282,0,0,1,9.7,11.346,11.888,11.888,0,0,0,21.42,23.393Z" transform="translate(9.357 9.357)" fill="none" stroke="#00d060" stroke-linecap="round" stroke-linejoin="round" stroke-miterlimit="10" stroke-width="2.5"/><path data-name="Stroke 9" d="M0,30.558c10.422,3.712,19.861,2.088,27.671-5.645l8.7-8.611-8.7-8.613A28.368,28.368,0,0,0,10.342,0a28.368,28.368,0,0,1,17.33,7.689l8.7,8.613-8.7,8.611C19.861,32.646,10.422,34.27,0,30.558Z" transform="translate(26.791 28.071)" fill="none" stroke="#00d060" stroke-linecap="round" stroke-linejoin="round" stroke-miterlimit="10" stroke-width="2.5"/></g></g></svg>