<svg xmlns="http://www.w3.org/2000/svg" xmlns:xlink="http://www.w3.org/1999/xlink" width="80" height="80"><defs><clipPath id="a"><rect data-name="사각형 274578" width="80" height="80" transform="translate(5.481 -32.768)" fill="#fff" stroke="#707070" stroke-width="1"/></clipPath></defs><g data-name="어패류 외 _icon" transform="translate(-5.481 32.768)" clip-path="url(#a)"><g data-name="어패류 외 _icon" transform="translate(11.891 -22.407)"><path data-name="Stroke 1" d="M12.93,13.831a15.755,15.755,0,0,1-8.97-2.773C1.54,9.383.215,7.537.024,5.569A6.782,6.782,0,0,1,2.25.272.852.852,0,0,1,2.87,0H28.764a.9.9,0,0,1,.875.926V2.638A6.223,6.223,0,0,1,27.1,7.72c-1.358.97-3.5,2.433-6.02,3.9A16.18,16.18,0,0,1,12.93,13.831Z" transform="translate(29.639 15.807)" fill="none" stroke="#00d060" stroke-linecap="round" stroke-linejoin="round" stroke-miterlimit="10" stroke-width="2.5"/><path data-name="Stroke 3" d="M32.509.09C32.363.075,12.82-1.183,4.937,6.208,1.661,9.282,0,13.518,0,18.8c0,5.381,1.679,9.692,4.988,12.813,6.691,6.308,18.2,6.142,21.24,5.959l.547-4.637C24.314,31.875,14.865,27,15.807,19.849" transform="translate(0 15.718)" fill="none" stroke="#00d060" stroke-linecap="round" stroke-linejoin="round" stroke-miterlimit="10" stroke-width="2.5"/><path data-name="Stroke 5" d="M21.735,0A21.725,21.725,0,0,1,6.681,5.788c-1.475,0-5.018.314-6.681,0" transform="translate(15.807 29.639)" fill="none" stroke="#00d060" stroke-linecap="round" stroke-linejoin="round" stroke-miterlimit="10" stroke-width="2.5"/><path data-name="Stroke 7" d="M.716.943,16.866,0A.917.917,0,0,1,17.7.512a.87.87,0,0,1-.123.949L14.346,5.241l3.3,5.257a.877.877,0,0,1-.061,1.015.931.931,0,0,1-.723.343.912.912,0,0,1-.275-.043L0,5.928" transform="translate(25.687 47.422)" fill="none" stroke="#00d060" stroke-linecap="round" stroke-linejoin="round" stroke-miterlimit="10" stroke-width="2.5"/><path data-name="Stroke 9" d="M0,0A12.426,12.426,0,0,1,6.616,9.235" transform="translate(34.878 32.26)" fill="none" stroke="#00d060" stroke-linecap="round" stroke-linejoin="round" stroke-miterlimit="10" stroke-width="2.5"/><path data-name="Stroke 11" d="M0,0,1.413,1.446C3.121,2.778,4.082,4.469,3.938,7.9" transform="translate(27.663 35.566)" fill="none" stroke="#00d060" stroke-linecap="round" stroke-linejoin="round" stroke-miterlimit="10" stroke-width="2.5"/><path data-name="Stroke 13" d="M4.963,15.807h5.97a3.063,3.063,0,0,0,2.9-3.2,3.063,3.063,0,0,0-2.9-3.2H8.512C3.817,9.408,0,5.187,0,0" transform="translate(53.35)" fill="none" stroke="#00d060" stroke-linecap="round" stroke-linejoin="round" stroke-miterlimit="10" stroke-width="2.5"/><path data-name="Stroke 15" d="M8.09,15.668C-4.829,12.843,1.6.1,1.6,0" transform="translate(7.718 19.759)" fill="none" stroke="#00d060" stroke-linecap="round" stroke-linejoin="round" stroke-miterlimit="10" stroke-width="2.5"/><path data-name="Stroke 17" d="M0,5.513C.345,5.533,9.462,8.831,12.416,0" transform="translate(4.988 41.817)" fill="none" stroke="#00d060" stroke-linecap="round" stroke-linejoin="round" stroke-miterlimit="10" stroke-width="2.5"/><path data-name="Fill 11" d="M1.975,0A1.976,1.976,0,1,1,0,1.975,1.977,1.977,0,0,1,1.975,0" transform="translate(45.446 19.759)" fill="#00d318"/></g></g></svg>