<svg xmlns="http://www.w3.org/2000/svg" width="36" height="43"><g data-name="그룹 6993" transform="translate(6.228 9.732)"><path data-name="패스 46" d="M-1814.972,225.331a1.749,1.749,0,0,1-1.485-.822,1.75,1.75,0,0,1,.555-2.412l10.7-6.7a1.75,1.75,0,0,1,2.412.555,1.75,1.75,0,0,1-.555,2.412l-10.7,6.7A1.741,1.741,0,0,1-1814.972,225.331Z" transform="translate(1821.899 -215.879)"/><path data-name="타원 13" d="M7.5,3.5a4,4,0,1,0,4,4,4,4,0,0,0-4-4M7.5,0A7.5,7.5,0,1,1,0,7.5,7.5,7.5,0,0,1,7.5,0Z" transform="translate(14.772 -9.732)"/><path data-name="타원 14" d="M7.5,3.5a4,4,0,1,0,4,4,4,4,0,0,0-4-4M7.5,0A7.5,7.5,0,1,1,0,7.5,7.5,7.5,0,0,1,7.5,0Z" transform="translate(-6.228 4.268)"/><path data-name="타원 15" d="M7.5,3.5a4,4,0,1,0,4,4,4,4,0,0,0-4-4M7.5,0A7.5,7.5,0,1,1,0,7.5,7.5,7.5,0,0,1,7.5,0Z" transform="translate(14.772 18.268)"/><path data-name="패스 52" d="M-1804.057,222.338a1.741,1.741,0,0,1-.938-.274l-10.918-6.951a1.75,1.75,0,0,1-.536-2.416,1.75,1.75,0,0,1,2.416-.536l10.918,6.951a1.75,1.75,0,0,1,.536,2.416A1.749,1.749,0,0,1-1804.057,222.338Z" transform="translate(1821.101 -198.229)"/></g></svg>