<?xml version="1.0" encoding="utf-8"?>
<!-- Generator: Adobe Illustrator 21.0.2, SVG Export Plug-In . SVG Version: 6.00 Build 0)  -->
<svg version="1.1" id="Layer_1" xmlns="http://www.w3.org/2000/svg" xmlns:xlink="http://www.w3.org/1999/xlink" x="0px" y="0px"
	 viewBox="0 0 22 22" style="enable-background:new 0 0 22 22;" xml:space="preserve">
<style type="text/css">
	.st0{fill:#002F5F;}
	.st1{display:none;}
</style>
<g>
	<path class="st0" d="M11,1c5.5,0,10,4.5,10,10s-4.5,10-10,10S1,16.5,1,11S5.5,1,11,1 M11,0C4.9,0,0,4.9,0,11s4.9,11,11,11
		s11-4.9,11-11S17.1,0,11,0L11,0z"/>
</g>
<path class="st1" d="M16,14h-6c-0.4,0-0.5,0.4-0.5,1s0,1,0.5,1h6c0.4,0,0.5-0.4,0.5-1S16.5,14,16,14z M6.9,14H6.1
	c-0.6,0-0.6,0.4-0.6,1s0,1,0.6,1h0.8c0.6,0,0.6-0.4,0.6-1S7.5,14,6.9,14z M16,10h-6c-0.4,0-0.5,0.4-0.5,1s0,1,0.5,1h6
	c0.4,0,0.5-0.4,0.5-1S16.5,10,16,10z M6.9,10H6.1c-0.6,0-0.6,0.4-0.6,1s0,1,0.6,1h0.8c0.6,0,0.6-0.4,0.6-1S7.5,10,6.9,10z M16,10h-6
	c-0.4,0-0.5,0.4-0.5,1s0,1,0.5,1h6c0.4,0,0.5-0.4,0.5-1S16.5,10,16,10z M6.9,10H6.1c-0.6,0-0.6,0.4-0.6,1s0,1,0.6,1h0.8
	c0.6,0,0.6-0.4,0.6-1S7.5,10,6.9,10z M16,6h-6C9.5,6,9.5,6.4,9.5,7s0,1,0.5,1h6c0.4,0,0.5-0.4,0.5-1S16.5,6,16,6z M6.9,6H6.1
	C5.5,6,5.5,6.4,5.5,7s0,1,0.6,1h0.8c0.6,0,0.6-0.4,0.6-1S7.5,6,6.9,6z"/>
<path class="st0" d="M17,7c-0.8-0.8-1.8-1.2-2.8-1.2S12.1,6.2,11.3,7l-0.2,0.2L10.8,7C10.1,6.2,9.1,5.8,8,5.8S5.9,6.2,5.2,7
	C4.4,7.8,4,8.8,4,9.8c0,1.1,0.4,2.1,1.2,2.8l5.5,5.5c0.1,0.1,0.3,0.2,0.4,0.2c0.2,0,0.3-0.1,0.4-0.2l5.5-5.5
	c0.8-0.8,1.2-1.8,1.2-2.8S17.8,7.8,17,7z M8,7c0.8,0,1.5,0.3,2,0.8l0.7,0.7c0.2,0.2,0.6,0.2,0.8,0l0.7-0.7c0.5-0.5,1.3-0.8,2-0.8
	c0.8,0,1.5,0.3,2,0.8c0.5,0.5,0.8,1.3,0.8,2c0,0.8-0.3,1.5-0.8,2l-5.1,5.1L6,11.8c-0.5-0.5-0.8-1.3-0.8-2c0-0.8,0.3-1.5,0.8-2
	S7.2,7,8,7z"/>
</svg>
