<svg xmlns="http://www.w3.org/2000/svg" xmlns:xlink="http://www.w3.org/1999/xlink" width="240" height="200"><defs><clipPath id="a"><rect data-name="사각형 274527" width="240" height="200" transform="translate(5216 -5616)" fill="#fff" stroke="#707070" stroke-width="1"/></clipPath></defs><g transform="translate(-5216 5616)" clip-path="url(#a)"><path data-name="패스 2160" d="M249.794,83.949c-1.652,32.365-58.822,60.8-121.735,50.259s-78.813-6.48-78.145-52.316c0-26.2,49.508-48.57,110.858-54.7S249.794,46.694,249.794,83.949Z" transform="matrix(0.998, 0.07, -0.07, 0.998, 5200.831, -5564.007)" fill="#d6f5d5" opacity="0.54"/><rect data-name="사각형 274522" width="73.529" height="114.779" transform="translate(5362.489 -5527.746)" fill="none"/><rect data-name="사각형 274524" width="21.821" height="33.931" transform="translate(5365.59 -5484.041)" fill="none"/><g data-name="그룹 201424" transform="translate(11439.05 -5630.148)"><path data-name="패스 2174" d="M236.476,129.527l39.537-9.318a2.756,2.756,0,0,1,1.837.193c1.152.561,2.626,1.993,1.723,5.6a2.01,2.01,0,0,1-1.5,1.452l-39.714,9.258" transform="translate(-6280.902 -13.627)" fill="#fff"/><path data-name="패스 2174 - 윤곽선" d="M238.533,137.448l-.341-1.461,39.714-9.258a1.263,1.263,0,0,0,.939-.9c.6-2.393.14-4.035-1.324-4.749a2.014,2.014,0,0,0-1.338-.137l-39.536,9.318-.344-1.46,39.537-9.318a3.519,3.519,0,0,1,2.337.249c1.244.606,3.174,2.251,2.122,6.461a2.777,2.777,0,0,1-2.054,2Z" transform="translate(-6280.902 -13.627)" fill="#888"/><path data-name="패스 2175" d="M187.5,89.053l29.56-7.692c20.051-4.512,42.316,18.531,49.731,51.47s-2.829,64.412-22.88,68.925l-29.56,6.58Z" transform="translate(-6286.347 -18)" fill="#fff"/><path data-name="패스 2175 - 윤곽선" d="M222.159,80.047c9.27,0,18.969,5.314,27.31,14.963a76.232,76.232,0,0,1,10.773,16.636,99.323,99.323,0,0,1,9.671,45.239,75.307,75.307,0,0,1-3.551,21.3,44.945,44.945,0,0,1-8.816,16.026,25.492,25.492,0,0,1-13.471,8.273l-30.292,6.743L186.61,88.51,216.9,80.63A24.009,24.009,0,0,1,222.159,80.047Zm-7.24,127.395,28.829-6.418a24.024,24.024,0,0,0,12.681-7.809,37.264,37.264,0,0,0,4.831-6.926,51.347,51.347,0,0,0,3.679-8.571,73.813,73.813,0,0,0,3.476-20.879,97.823,97.823,0,0,0-9.522-44.539,74.734,74.734,0,0,0-10.558-16.309c-8.051-9.315-17.347-14.444-26.175-14.444a22.508,22.508,0,0,0-4.922.543L188.392,89.6Z" transform="translate(-6286.347 -18)" fill="#888"/><path data-name="패스 2176" d="M258.121,169.214l-1.483-.225a93.778,93.778,0,0,0-1.594-34.2,99.494,99.494,0,0,0-7.845-22.4,71.075,71.075,0,0,0-11.542-17.028c-8.9-9.507-18.965-13.58-28.337-11.471l-.329-1.463c9.911-2.231,20.481,2,29.761,11.909a72.568,72.568,0,0,1,11.79,17.386,101,101,0,0,1,7.965,22.742A95.288,95.288,0,0,1,258.121,169.214Z" transform="translate(-6284.162 -17.801)" fill="#888"/><path data-name="패스 2177" d="M243.361,189.494l-1.335-.684a62.4,62.4,0,0,0,6.1-22.9,87.419,87.419,0,0,0,.058-13.653,98.483,98.483,0,0,0-2.157-14.483,94.766,94.766,0,0,0-8.014-22.4,70.946,70.946,0,0,0-11.92-17.027,41.977,41.977,0,0,0-14.16-10.01,24.384,24.384,0,0,0-14.74-1.469l-.329-1.463a25.854,25.854,0,0,1,15.634,1.543,43.456,43.456,0,0,1,14.675,10.358,72.44,72.44,0,0,1,12.176,17.386,96.266,96.266,0,0,1,8.143,22.751,99.987,99.987,0,0,1,2.19,14.7,88.921,88.921,0,0,1-.06,13.888,73.015,73.015,0,0,1-2.154,12.6A54.956,54.956,0,0,1,243.361,189.494Z" transform="translate(-6285.288 -17.469)" fill="#888"/><path data-name="패스 2178" d="M239.763,139.753c7.415,32.94-2.829,63.3-22.88,67.814s-42.317-18.53-49.732-51.47,2.83-63.3,22.881-67.814,42.316,18.53,49.731,51.47" transform="translate(-6288.877 -17.23)" fill="#00d060"/><path data-name="패스 2179" d="M232.5,140.141c6.075,26.988-2.318,51.865-18.747,55.563s-34.672-15.183-40.747-42.171,2.318-51.865,18.747-55.563,34.672,15.183,40.747,42.171" transform="translate(-6288.177 -16.142)" fill="#fff"/><path data-name="패스 2180" d="M218.026,193.612c-16.761.744-32.45-15.183-38.525-42.171-5.287-23.489-.358-44.794,10.556-53.091-15.3,4.981-22.909,29.05-17.047,55.089,6.075,26.989,24.318,45.869,40.746,42.171a19.226,19.226,0,0,0,5.969-2.472,6.57,6.57,0,0,1-1.7.474" transform="translate(-6288.177 -16.049)" fill="#d6f5d5"/><path data-name="패스 2181" d="M214.093,140.794c2.321,10.314-.886,19.82-7.164,21.233s-13.251-5.8-15.572-16.115.886-19.821,7.164-21.235,13.251,5.8,15.572,16.117" transform="translate(-6286.002 -13.141)" fill="#d6f5d5"/><path data-name="패스 2182" d="M19.611,184.735l200.275-47.2a2.749,2.749,0,0,1,1.837.193c1.151.561,2.626,1.993,1.723,5.6a2.008,2.008,0,0,1-1.5,1.451L20.6,191.726" transform="translate(-6305.012 -11.7)" fill="#fff"/><path data-name="패스 2182 - 윤곽선" d="M20.767,192.456,20.426,191l201.353-46.941a1.261,1.261,0,0,0,.939-.9c.6-2.393.14-4.035-1.325-4.748a2.006,2.006,0,0,0-1.336-.137l-200.275,47.2-.344-1.46,200.275-47.2a3.51,3.51,0,0,1,2.337.249c1.244.606,3.174,2.252,2.122,6.461a2.774,2.774,0,0,1-2.055,2Z" transform="translate(-6305.012 -11.7)" fill="#888"/></g><g data-name="그룹 201425" transform="translate(11521.012 -5647.958)"><path data-name="패스 2183" d="M4.127,100.37C-1.407,97-1.371,86.844,4.206,77.68S18.789,63.818,24.323,67.187l8.62,5.518L11.675,105.087Z" transform="translate(-6305.012 -18)" fill="#00d060"/><path data-name="패스 2184" d="M32.243,94.875c-5.577,9.163-14.584,13.862-20.116,10.495s-5.5-13.526.079-22.689S26.789,68.818,32.323,72.186s5.5,13.526-.079,22.689" transform="translate(-6305.464 -18.282)" fill="#d6f5d5"/><path data-name="패스 2185" d="M27.192,92.143c-2.043,3.358-5.343,5.079-7.37,3.846s-2.014-4.955.029-8.312,5.342-5.078,7.37-3.846,2.013,4.955-.029,8.312" transform="translate(-6306.047 -18.979)" fill="#fff"/><path data-name="패스 2186" d="M52.256,108.716,22.515,92.044a1.594,1.594,0,0,1-.692-.818c-.258-.7-.3-1.89,1.526-3.04a1.164,1.164,0,0,1,1.21-.008l29.791,16.77" transform="translate(-6306.238 -19.238)" fill="#fff"/><path data-name="패스 2186 - 윤곽선" d="M51.889,109.37,22.134,92.69a2.352,2.352,0,0,1-1.014-1.2,2.715,2.715,0,0,1-.023-1.858,4.207,4.207,0,0,1,1.853-2.076,1.926,1.926,0,0,1,1.983-.024l29.785,16.766-.736,1.307L24.176,88.822a.413.413,0,0,0-.427,0c-1.085.683-1.5,1.4-1.222,2.146a.847.847,0,0,0,.363.428l29.733,16.668Z" transform="translate(-6306.238 -19.238)" fill="#888"/><path data-name="패스 2187" d="M51.29,127.965c-5.534-3.367-5.5-13.526.079-22.689S65.952,91.413,71.486,94.782l8.62,5.518L58.838,132.682Z" transform="translate(-6307.677 -19.559)" fill="#00d060"/><path data-name="패스 2188" d="M79.406,122.47c-5.577,9.163-14.584,13.862-20.116,10.495s-5.5-13.526.079-22.689S73.952,96.413,79.486,99.781s5.5,13.526-.079,22.689" transform="translate(-6308.129 -19.842)" fill="#d6f5d5"/><path data-name="패스 2189" d="M74.355,119.738c-2.043,3.357-5.343,5.078-7.37,3.845s-2.014-4.955.029-8.312,5.342-5.078,7.37-3.845,2.013,4.955-.029,8.312" transform="translate(-6308.711 -20.539)" fill="#fff"/><path data-name="패스 2190" d="M69.542,118.927l4.963,3.145a2.169,2.169,0,0,0,3.234-2.628,2.431,2.431,0,0,0-.8-1.008l-4.923-3.044S69.039,115.182,69.542,118.927Z" transform="translate(-6308.938 -20.785)" fill="#fff"/><path data-name="패스 2190 - 윤곽선" d="M75.873,123.2a3.512,3.512,0,0,1-1.789-.51l-5.239-3.32-.047-.347a4.087,4.087,0,0,1,.737-3.355,3.255,3.255,0,0,1,2.392-1.031c.073,0,.12,0,.137,0l.184.013,5.107,3.157.025.018a3.137,3.137,0,0,1,1.077,1.4,3.3,3.3,0,0,1-2.035,3.9A1.769,1.769,0,0,1,75.873,123.2Zm-5.624-4.716,4.7,2.982a2.169,2.169,0,0,0,.922.233.539.539,0,0,0,.093-.006,1.854,1.854,0,0,0,1.055-2.036,1.817,1.817,0,0,0-.51-.6L71.8,116.145a1.674,1.674,0,0,0-1.138.514A2.438,2.438,0,0,0,70.249,118.487Z" transform="translate(-6308.938 -20.785)" fill="#888"/></g></g></svg>