<svg xmlns="http://www.w3.org/2000/svg" xmlns:xlink="http://www.w3.org/1999/xlink" width="640" height="220"><defs><clipPath id="a"><rect data-name="사각형 274492" width="640" height="220" transform="translate(40 2515)" fill="#fff" stroke="#707070" stroke-width="1"/></clipPath></defs><g data-name="마스크 그룹 7688" transform="translate(-40 -2515)" clip-path="url(#a)"><rect data-name="사각형 274488" width="38.524" height="66.448" transform="translate(340.738 2552.768)" fill="#00d060"/><g data-name="그룹 201384" transform="translate(91.867 2594.992)"><path data-name="패스 1544" d="M494.137,425.217H55.281A48.675,48.675,0,0,1,8.813,362.056L85.557,115.93a48.67,48.67,0,0,1,46.465-34.185h285.37a48.671,48.671,0,0,1,46.469,34.185L540.6,362.056a48.671,48.671,0,0,1-46.465,63.161" transform="translate(-6.574 -81.745)" fill="#d6f5d5"/><path data-name="패스 1545" d="M296.574,222.652A124.945,124.945,0,1,1,171.63,97.707,124.945,124.945,0,0,1,296.574,222.652" transform="translate(96.509 -40.725)" fill="#fff"/><path data-name="패스 1547" d="M.814,67.295,86.122,0l15.3,19.705L2.978,70.639A2,2,0,0,1,.814,67.295" transform="matrix(-0.829, 0.559, -0.559, -0.829, 348.561, 140.967)" fill="#00d060"/><path data-name="패스 1548" d="M37.987,19a18.993,18.993,0,1,1-19-19,18.994,18.994,0,0,1,19,19" transform="matrix(-0.829, 0.559, -0.559, -0.829, 293.102, 185.488)" fill="#fff"/><path data-name="패스 1548 - 윤곽선" d="M18.992,38.74A19.74,19.74,0,0,1,5.032,5.033,19.749,19.749,0,1,1,18.992,38.74Zm0-37.99A18.246,18.246,0,0,0,6.093,31.9a18.245,18.245,0,0,0,25.8-25.8A18.126,18.126,0,0,0,18.992.75Z" transform="matrix(-0.829, 0.559, -0.559, -0.829, 293.102, 185.488)" fill="#888"/></g><path data-name="패스 1697" d="M100.584,100.783a79.708,79.708,0,0,1-27.127-4.7L3.906,62.98c-6.5-2.36-4.409-10.2,2.714-10.2H533.382c7.123,0,9.206,7.837,2.71,10.2l-69.55,33.1a79.694,79.694,0,0,1-27.127,4.7" transform="translate(90 2462.217)" fill="#00d060"/></g></svg>