<svg xmlns="http://www.w3.org/2000/svg" xmlns:xlink="http://www.w3.org/1999/xlink" width="70" height="70"><defs><clipPath id="a"><rect data-name="사각형 274404" width="70" height="70" transform="translate(10066 815)" fill="#fff" stroke="#707070" stroke-width="1"/></clipPath></defs><g data-name="icon_70*70" transform="translate(-10066 -815)" clip-path="url(#a)"><path data-name="패스 1967" d="M16.649,36.023a9.087,9.087,0,0,1-.956-.049,1.034,1.034,0,0,1-.73-.369l-.1-.114a6.091,6.091,0,0,0-.788-.818.6.6,0,0,0,.165.07l.537-1.927c.384.107.736.394,1.449,1.2,3.435.207,7.835-1.98,12.151-6.054a29.4,29.4,0,0,1,9.421-5.8c1.156-.449,2.178-.771,2.979-1l-5.009-4.813c-2.413.637-6.187,2.569-10.974,5.621-3.926,2.5-7.149,4.883-7.181,4.907l-1.19-1.608c.536-.4,13.2-9.73,19.447-11l.514-.1L44.9,22.349l-1.943.34a26.606,26.606,0,0,0-4.487,1.348,27.369,27.369,0,0,0-8.724,5.376,27.858,27.858,0,0,1-7.672,5.339A13.63,13.63,0,0,1,16.649,36.023Z" transform="translate(10067.707 816.743)" fill="#00d060"/><path data-name="패스 1969" d="M26.368,48.894,25.08,47.555l-6.821-7.1.1-.514C19.64,33.656,29.585,22.22,30.008,21.736l1.506,1.316c-.025.029-2.556,2.932-5.2,6.532-3.208,4.368-5.225,7.9-5.871,10.258L25.307,44.9c.271-.872.665-2.02,1.206-3.326a32.431,32.431,0,0,1,6.05-9.673,66.436,66.436,0,0,0,5.787-6.76,10.039,10.039,0,0,0,1.981-4.287c-1.067-.885-1.4-1.262-1.519-1.681l1.927-.536a.641.641,0,0,0-.084-.191A8.529,8.529,0,0,0,41.8,19.476a1.135,1.135,0,0,1,.561.966c-.026,3.39-2.954,7.129-8.342,12.837a30.4,30.4,0,0,0-5.64,9.025,32.789,32.789,0,0,0-1.6,4.778Z" transform="translate(10070.72 819.54)" fill="#00d060"/><path data-name="패스 1971" d="M24.635,45.911a6.645,6.645,0,0,1-1.057-.085l.317-1.975c2.19.351,5.263-.756,13.142-7.3a43.342,43.342,0,0,1,11.953-7.406l-4.9-4.382c-2.457.53-6.012,2.373-10.33,5.359-3.524,2.437-6.307,4.778-6.334,4.8l-1.29-1.529C26.606,33,37.653,23.73,44.238,22.7l.468-.073,8.369,7.49-1.907.42a18.881,18.881,0,0,0-3.544,1.381,46.474,46.474,0,0,0-9.31,6.17A54.492,54.492,0,0,1,29.2,44.594,9.976,9.976,0,0,1,24.635,45.911Z" transform="translate(10073.629 822.815)" fill="#00d060"/><path data-name="패스 1973" d="M34.671,56.663a1.165,1.165,0,0,1-.824-.342l-6.93-6.881.038-.464c.015-.178.405-4.414,4.414-9.364C34.6,35.621,35.1,33.027,35.1,33v.007l1.973.325c-.02.124-.54,3.081-4.151,7.538a20.147,20.147,0,0,0-3.35,5.817,13.147,13.147,0,0,0-.558,2.017l5,4.967a19.424,19.424,0,0,1,1.789-5.186,41.515,41.515,0,0,1,6.609-9.251A23.256,23.256,0,0,0,47.5,30.94a9.408,9.408,0,0,0,.522-3.274v.007l1.988-.215c.025.234.545,5.822-6.118,13.124C40.312,44.509,36,50.293,35.822,55.547a1.152,1.152,0,0,1-1.151,1.116Z" transform="translate(10076.918 825.608)" fill="#00d060"/><path data-name="패스 1965" d="M17.627,40.822l-7.091-6.8.07-.506A16.241,16.241,0,0,1,12.1,28.989a42.2,42.2,0,0,1,5.931-8.914c4.683-5.583,6.1-9.7,6.468-12.173l.291-1.967,6.993,7-.1.517A26.149,26.149,0,0,1,24.812,26.46c-5,5.087-6.384,8.647-6.914,12.426ZM12.674,33.3l3.582,3.436a18.148,18.148,0,0,1,1.558-4.318,30.274,30.274,0,0,1,5.573-7.361,24.169,24.169,0,0,0,6.23-11.463l-3.539-3.54c-.759,2.737-2.534,6.562-6.515,11.307a40.23,40.23,0,0,0-5.653,8.48A16.3,16.3,0,0,0,12.674,33.3Z" transform="translate(10065.145 811.562)" fill="#707070"/></g></svg>