<svg xmlns="http://www.w3.org/2000/svg" xmlns:xlink="http://www.w3.org/1999/xlink" width="80" height="80"><defs><clipPath id="a"><rect data-name="사각형 274587" width="80" height="80" transform="translate(3.481 -23.085)" fill="#fff" stroke="#707070" stroke-width="1"/></clipPath></defs><g data-name="우유 및  유제품류_icon" transform="translate(-3.481 23.085)" clip-path="url(#a)"><g data-name="우유 및  유제품류_icon" transform="translate(20.505 -14.861)"><path data-name="Stroke 1" d="M0,0H17.245V37.841a4.583,4.583,0,0,1-4.58,4.583H0" transform="translate(27.569 19.989)" fill="none" stroke="#00d060" stroke-linejoin="round" stroke-miterlimit="10" stroke-width="2.5"/><path data-name="Stroke 3" d="M26.411,13.2,13.206,0,0,13.2V51.045a4.585,4.585,0,0,0,4.583,4.583H26.411Z" transform="translate(1.137 6.785)" fill="none" stroke="#00d060" stroke-linejoin="round" stroke-miterlimit="10" stroke-width="2.5"/><path data-name="Stroke 5" d="M30.481,12.589,18.2,0,0,.023" transform="translate(14.031 7.151)" fill="none" stroke="#00d060" stroke-linejoin="round" stroke-miterlimit="10" stroke-width="2.5"/><path data-name="Clip 8" d="M0,63.551H45.953V0H0Z" transform="translate(0 0)" fill="none"/><path data-name="Clip 8" d="M0,63.551H45.953V0H0Z" fill="none"/><path data-name="Stroke 7" d="M0,6.042H18.165V0H0Z" transform="translate(14.04 1.138)" fill="none" stroke="#00d060" stroke-linejoin="round" stroke-miterlimit="10" stroke-width="2.5"/></g></g></svg>