<svg xmlns="http://www.w3.org/2000/svg" xmlns:xlink="http://www.w3.org/1999/xlink" width="80" height="80"><defs><clipPath id="a"><rect data-name="사각형 274578" width="80" height="80" transform="translate(5.481 -32.768)" fill="#fff" stroke="#707070" stroke-width="1"/></clipPath></defs><g transform="translate(-5.481 32.768)" clip-path="url(#a)"><g data-name="채소류_icon" transform="translate(18.537 -25.326)"><path data-name="Fill 1" d="M0,41.087l7.9,2.039,10.6-41.09L10.6,0Z" transform="translate(6.869)" fill="#fff"/><path data-name="Stroke 2" d="M7.9,43.127,0,41.087,10.6,0l7.9,2.037Z" transform="translate(6.87 0)" fill="none" stroke="#00d060" stroke-linejoin="round" stroke-miterlimit="10" stroke-width="2.5"/><path data-name="Fill 4" d="M0,33.4C.258,32.281,6.521,5.842,26.972,0l2.243,7.846C13.351,12.379,8.009,34.994,7.957,35.222Z" transform="translate(6.192 10.339)" fill="#fff"/><path data-name="Stroke 6" d="M0,33.4C.258,32.281,6.521,5.842,26.972,0l2.243,7.846C13.351,12.379,8.009,34.994,7.957,35.222Z" transform="translate(6.192 10.339)" fill="none" stroke="#00d060" stroke-linejoin="round" stroke-miterlimit="10" stroke-width="2.5"/><path data-name="Fill 8" d="M13.139,12.1,15.733,2.042,7.83,0,5.237,10.057a10.268,10.268,0,0,1-1.931,3.765,17.448,17.448,0,0,0-3.1,5.709,6.579,6.579,0,1,0,12.741,3.288,17.366,17.366,0,0,0,.054-6.494,10.247,10.247,0,0,1,.133-4.228" transform="translate(0 37.359)" fill="#fff"/><path data-name="Stroke 10" d="M13.139,12.1,15.733,2.042,7.83,0,5.237,10.057a10.268,10.268,0,0,1-1.931,3.765,17.448,17.448,0,0,0-3.1,5.709,6.579,6.579,0,1,0,12.741,3.288,17.366,17.366,0,0,0,.054-6.494A10.247,10.247,0,0,1,13.139,12.1Z" transform="translate(0 37.359)" fill="none" stroke="#00d060" stroke-linejoin="round" stroke-miterlimit="10" stroke-width="2.5"/><path data-name="Fill 12" d="M30.122,8.416h0c-3.335,0-6.039-3.07-6.039-6.858V.1a.1.1,0,0,0-.09-.1H18.249a.1.1,0,0,0-.093.1V1.558c0,3.787-2.7,6.858-6.039,6.858C6.076,8.416.62,13.39.052,20.218-.592,27.955,4.809,34.526,11.5,34.526H30.741c6.688,0,12.09-6.571,11.445-14.308-.568-6.828-6.023-11.8-12.065-11.8" transform="translate(11.649 30.589)" fill="#fff"/><path data-name="Stroke 14" d="M30.122,8.416h0c-3.335,0-6.039-3.07-6.039-6.858V.1a.1.1,0,0,0-.09-.1H18.249a.1.1,0,0,0-.093.1V1.558c0,3.787-2.7,6.858-6.039,6.858C6.076,8.416.62,13.39.052,20.218-.592,27.955,4.809,34.526,11.5,34.526H30.741c6.688,0,12.09-6.571,11.445-14.308C41.619,13.39,36.163,8.416,30.122,8.416Z" transform="translate(11.649 30.589)" fill="none" stroke="#00d060" stroke-miterlimit="10" stroke-width="2.5"/><path data-name="Fill 16" d="M18.436,0c0,5.781-4.126,10.469-9.218,10.469S0,5.781,0,0" transform="translate(23.109 54.647)" fill="#fff"/><path data-name="Stroke 18" d="M18.436,0c0,5.781-4.126,10.469-9.218,10.469S0,5.781,0,0" transform="translate(23.109 54.647)" fill="none" stroke="#00d060" stroke-miterlimit="10" stroke-width="2.5"/></g></g></svg>