<svg xmlns="http://www.w3.org/2000/svg" width="20" height="20" viewBox="0 0 20 20">
  <g id="gnb_item03" transform="translate(-489.222 -472.674)">
    <rect id="base" width="20" height="20" transform="translate(489.222 472.674)" fill="#fff" opacity="0"/>
    <g id="그룹_135" data-name="그룹 135" transform="translate(491.907 473.7)">
      <path id="패스_22038" data-name="패스 22038" d="M503.043,477.739" transform="translate(-498.703 -475.446)" fill="#fff" stroke="#0098ff" stroke-linejoin="round" stroke-width="1"/>
      <path id="패스_22039" data-name="패스 22039" d="M501.5,477.739h1.488a1.361,1.361,0,0,1,.275.028,1.333,1.333,0,0,1,.256.079,1.368,1.368,0,0,1,.232.126,1.378,1.378,0,0,1,.369.368,1.353,1.353,0,0,1,.2.488,1.34,1.34,0,0,1,.028.275v12.926a1.331,1.331,0,0,1-.028.274,1.347,1.347,0,0,1-.2.488,1.346,1.346,0,0,1-.167.2,1.308,1.308,0,0,1-.2.167,1.323,1.323,0,0,1-.232.126,1.377,1.377,0,0,1-.256.08,1.34,1.34,0,0,1-.275.028h-11.9a1.345,1.345,0,0,1-.275-.028,1.391,1.391,0,0,1-.256-.08,1.323,1.323,0,0,1-.232-.126,1.354,1.354,0,0,1-.2-.167,1.38,1.38,0,0,1-.167-.2,1.334,1.334,0,0,1-.125-.232,1.311,1.311,0,0,1-.079-.256,1.331,1.331,0,0,1-.028-.274V479.1a1.34,1.34,0,0,1,.028-.275,1.306,1.306,0,0,1,.079-.256,1.346,1.346,0,0,1,.125-.232,1.372,1.372,0,0,1,.369-.368,1.368,1.368,0,0,1,.232-.126,1.346,1.346,0,0,1,.256-.079,1.367,1.367,0,0,1,.275-.028h1.488" transform="translate(-489.722 -475.446)" fill="#fff" stroke="#608adf" stroke-linecap="round" stroke-linejoin="round" stroke-width="1"/>
      <path id="패스_22040" data-name="패스 22040" d="M521.306,477.739" transform="translate(-511.016 -475.446)" fill="#fff" stroke="#0098ff" stroke-linejoin="round" stroke-width="1"/>
      <path id="패스_22041" data-name="패스 22041" d="M508.985,473.185v.029a1.078,1.078,0,0,0-1.078-1.078h-.5c0-.012,0-.023,0-.036a1.4,1.4,0,1,0-2.8,0c0,.012,0,.023,0,.036h-.5a1.078,1.078,0,0,0-1.078,1.078v-.029c0,.059.008-.1.017-.043a.431.431,0,0,0-.017.115v.718a.431.431,0,0,0,.431.431h5.1a.432.432,0,0,0,.431-.431v-.718a.383.383,0,0,0-.018-.115C508.976,473.086,508.985,473.245,508.985,473.185Z" transform="translate(-498.688 -470.7)" fill="#fff" stroke="#ff9797" stroke-linecap="round" stroke-linejoin="round" stroke-width="1"/>
    </g>
    <g id="그룹_136" data-name="그룹 136" transform="translate(497.436 482.675)">
      <line id="선_38" data-name="선 38" x2="3.5" fill="none" stroke="#ff9292" stroke-linecap="round" stroke-linejoin="round" stroke-width="1"/>
      <line id="선_39" data-name="선 39" x2="3.5" transform="translate(0 3)" fill="none" stroke="#ff9292" stroke-linecap="round" stroke-linejoin="round" stroke-width="1"/>
    </g>
  </g>
</svg>
