<svg xmlns="http://www.w3.org/2000/svg" width="20" height="20" viewBox="0 0 20 20">
  <g id="gnb_item02" transform="translate(-114.103 -602.32)">
    <rect id="base" width="20" height="20" transform="translate(114.103 602.32)" fill="#fff" opacity="0"/>
    <g id="그룹_3545" data-name="그룹 3545" transform="translate(-2818.349 692.167)">
      <g id="패스_22218" data-name="패스 22218" transform="translate(2942.515 -76.559)" fill="#fff" stroke-linejoin="round">
        <path d="M -0.5000048279762268 5.299171447753906 L -0.5000048279762268 4.591741561889648 L -0.5000048279762268 -5.27379846572876 L -0.5000048279762268 -5.627188682556152 L -0.1668748259544373 -5.745128631591797 L 7.936964988708496 -8.614178657531738 L 8.603835105895996 -8.850278854370117 L 8.603835105895996 -8.142848014831543 L 8.603835105895996 1.722681522369385 L 8.603835105895996 2.076071500778198 L 8.270705223083496 2.194011449813843 L 0.1668651700019836 5.063071727752686 L -0.5000048279762268 5.299171447753906 Z" stroke="none"/>
        <path d="M 8.103835105895996 -8.142858505249023 L -4.76837158203125e-06 -5.273797988891602 L -4.76837158203125e-06 4.591731548309326 L 8.103835105895996 1.722681999206543 L 8.103835105895996 -8.142858505249023 M 8.103758811950684 -9.142865180969238 C 8.307840347290039 -9.142865180969238 8.509922981262207 -9.080402374267578 8.681005477905273 -8.959478378295898 C 8.946175575256348 -8.772068023681641 9.103835105895996 -8.467567443847656 9.103835105895996 -8.142858505249023 L 9.103835105895996 1.722681999206543 C 9.103835105895996 2.146312236785889 8.836915016174316 2.523972034454346 8.437575340270996 2.665351867675781 L 0.3337349891662598 5.534402370452881 C 0.02763462066650391 5.642761707305908 -0.3120155334472656 5.595772266387939 -0.5771846771240234 5.408352375030518 C -0.8423452377319336 5.22094202041626 -1.000004768371582 4.916442394256592 -1.000004768371582 4.591731548309326 L -1.000004768371582 -5.273797988891602 C -1.000004768371582 -5.697427749633789 -0.7330846786499023 -6.075088024139404 -0.333745002746582 -6.21646785736084 L 7.770095348358154 -9.085527420043945 C 7.878698825836182 -9.123973846435547 7.991533756256104 -9.142865180969238 8.103758811950684 -9.142865180969238 Z" stroke="none" fill="#608adf"/>
      </g>
      <g id="패스_22219" data-name="패스 22219" transform="translate(2934.286 -76.559)" fill="#fff" stroke-linejoin="round">
        <path d="M 8.603835105895996 5.299171447753906 L 7.936964988708496 5.063071727752686 L -0.1668748259544373 2.194011449813843 L -0.5000048279762268 2.076071500778198 L -0.5000048279762268 1.722681522369385 L -0.5000048279762268 -8.142848014831543 L -0.5000048279762268 -8.850278854370117 L 0.1668651700019836 -8.614178657531738 L 8.270705223083496 -5.745128631591797 L 8.603835105895996 -5.627188682556152 L 8.603835105895996 -5.27379846572876 L 8.603835105895996 4.591741561889648 L 8.603835105895996 5.299171447753906 Z" stroke="none"/>
        <path d="M -4.76837158203125e-06 -8.142858505249023 L -4.76837158203125e-06 1.722681999206543 L 8.103835105895996 4.591731548309326 L 8.103835105895996 -5.273797988891602 L -4.76837158203125e-06 -8.142858505249023 M 7.152557373046875e-05 -9.142865180969238 C 0.1123156547546387 -9.142865180969238 0.2251129150390625 -9.123980522155762 0.3337349891662598 -9.085527420043945 L 8.437575340270996 -6.21646785736084 C 8.836915016174316 -6.075088024139404 9.103835105895996 -5.697427749633789 9.103835105895996 -5.273797988891602 L 9.103835105895996 4.591731548309326 C 9.103835105895996 4.916442394256592 8.946175575256348 5.22094202041626 8.681015014648438 5.408352375030518 C 8.415844917297363 5.595771312713623 8.076194763183594 5.642760753631592 7.770095348358154 5.534402370452881 L -0.333745002746582 2.665351867675781 C -0.7330846786499023 2.523972034454346 -1.000004768371582 2.146312236785889 -1.000004768371582 1.722681999206543 L -1.000004768371582 -8.142858505249023 C -1.000004768371582 -8.467567443847656 -0.8423452377319336 -8.772068023681641 -0.5771751403808594 -8.959478378295898 C -0.4061088562011719 -9.080390930175781 -0.2039899826049805 -9.142865180969238 7.152557373046875e-05 -9.142865180969238 Z" stroke="none" fill="#608adf"/>
      </g>
      <g id="패스_22220" data-name="패스 22220" transform="translate(2934.286 -100)" fill="#fff" stroke-linejoin="round">
        <path d="M 8.097080230712891 18.34280776977539 L 7.936960697174072 18.28611755371094 L -0.1668695062398911 15.41705799102783 L -1.554339528083801 14.92583847045898 L -0.1547595113515854 14.47027778625488 L 8.053930282592773 11.79836845397949 L 8.21544075012207 11.74579811096191 L 8.375560760498047 11.80248832702637 L 16.47939109802246 14.67153835296631 L 17.86686134338379 15.16274833679199 L 16.46728134155273 15.61831855773926 L 8.258590698242188 18.29023742675781 L 8.097080230712891 18.34280776977539 Z" stroke="none"/>
        <path d="M 8.103830337524414 17.81478881835938 L 16.31252098083496 15.14286804199219 L 8.208690643310547 12.27381801605225 L 4.904175057163229e-07 14.94572830200195 L 8.103830337524414 17.81478881835938 M 8.103830337524414 18.81478691101074 C 7.990874767303467 18.81478691101074 7.878001689910889 18.79565811157227 7.770090579986572 18.7574577331543 L -0.3337395191192627 15.88839817047119 C -0.7375094890594482 15.74544811248779 -1.005399465560913 15.36122798919678 -0.9999195337295532 14.93293857574463 C -0.9944394826889038 14.50464820861816 -0.7168095111846924 14.12740802764893 -0.3095095157623291 13.99483776092529 L 7.89918041229248 11.3229284286499 C 8.108650207519531 11.25473785400391 8.334769248962402 11.2576379776001 8.542430877685547 11.33114814758301 L 16.64626121520996 14.20019817352295 C 17.05002021789551 14.34314823150635 17.31792068481445 14.72736835479736 17.31244087219238 15.15565776824951 C 17.30696105957031 15.58394813537598 17.02933120727539 15.96118831634521 16.62203979492188 16.09375762939453 L 8.413350105285645 18.76567840576172 C 8.312727928161621 18.79843330383301 8.20824146270752 18.81478691101074 8.103830337524414 18.81478691101074 Z" stroke="none" fill="#608adf"/>
      </g>
      <g id="패스_22223" data-name="패스 22223" transform="translate(2937.459 -84.217)" fill="#fff" stroke-linejoin="round">
        <path d="M 1.259401798248291 4.67363977432251 L 0.3215318322181702 4.304177284240723 L 0.3215318322181702 0.7555826902389526 L 3.12920355796814 -0.3625017106533051 L 3.663786172866821 -0.1258817464113235 L 1.567091822624207 0.7477414608001709 L 1.259401798248291 0.8759514689445496 L 1.259401798248291 1.209281444549561 L 1.259401798248291 4.67363977432251 Z" stroke="none"/>
        <path d="M 3.139431953430176 -0.9047584533691406 L 4.930471897125244 -0.1119985580444336 L 1.759401798248291 1.209281444549561 L 1.759401798248291 5.40800142288208 L -0.1784682273864746 4.644601345062256 L -0.1784682273864746 0.4165115356445312 L 3.139431953430176 -0.9047584533691406 Z" stroke="none" fill="#ff9797"/>
      </g>
    </g>
  </g>
</svg>
