<svg xmlns="http://www.w3.org/2000/svg" width="22" height="20" viewBox="0 0 22 20">
  <g id="gnb_item05" transform="translate(-360.258 -599.017)">
    <rect id="base" width="19.902" height="20" transform="translate(361.758 599.017)" fill="#9e5e5e" opacity="0"/>
    <g id="그룹_3420" data-name="그룹 3420" transform="translate(360.758 601.438)">
      <g id="image" transform="translate(0 0)">
        <g id="그룹_3417" data-name="그룹 3417" transform="translate(0)">
          <g id="그룹_3415" data-name="그룹 3415">
            <g id="그룹_3413" data-name="그룹 3413" transform="translate(8.902 5.482)">
              <path id="패스_22055" data-name="패스 22055" d="M367.512,1177.047h.838a1.338,1.338,0,0,0,1.34-1.34v-6.365a1.339,1.339,0,0,0-1.34-1.341h-9.419a1.341,1.341,0,0,0-1.34,1.341v6.365a1.34,1.34,0,0,0,1.34,1.34h5.9" transform="translate(-357.592 -1168)" fill="#fff" stroke="#608adf" stroke-linecap="round" stroke-linejoin="round" stroke-width="1"/>
              <path id="패스_22056" data-name="패스 22056" d="M376.264,1187.984v2.051l-2.68-2.051" transform="translate(-366.345 -1178.938)" fill="#fff" stroke="#608adf" stroke-linecap="round" stroke-linejoin="round" stroke-width="1"/>
            </g>
            <g id="그룹_3414" data-name="그룹 3414">
              <path id="패스_22057" data-name="패스 22057" d="M338.634,1164.938H337.8a1.34,1.34,0,0,1-1.34-1.34v-6.366a1.34,1.34,0,0,1,1.34-1.341h9.42a1.342,1.342,0,0,1,1.339,1.341v6.366a1.341,1.341,0,0,1-1.339,1.34h-5.9" transform="translate(-336.455 -1155.891)" fill="#fff" stroke="#608adf" stroke-linecap="round" stroke-linejoin="round" stroke-width="1"/>
              <path id="패스_22058" data-name="패스 22058" d="M341.268,1175.877v2.051l2.679-2.051" transform="translate(-339.089 -1166.829)" fill="none" stroke="#608adf" stroke-linecap="round" stroke-linejoin="round" stroke-width="1"/>
            </g>
          </g>
        </g>
      </g>
      <g id="text_X" transform="translate(3.452 1.711)">
        <g id="그룹_3418" data-name="그룹 3418" transform="translate(9.5 5.614)">
          <path id="패스_22059" data-name="패스 22059" d="M369.244,1172.072q.479,1.285.972,2.552c.32.851.646,1.7.972,2.558H370.4c-.09-.224-.173-.448-.25-.678s-.166-.447-.249-.678h-1.919c-.09.23-.172.46-.256.678s-.172.454-.256.678h-.793c.332-.857.659-1.708.991-2.558s.653-1.7.986-2.552Zm.422,3.134c-.128-.32-.249-.646-.364-.972s-.249-.64-.371-.966c-.128.326-.243.646-.358.966s-.243.652-.358.972Z" transform="translate(-366.672 -1172.072)" fill="#ff9797" stroke="#ff9797" stroke-miterlimit="10" stroke-width="0.25"/>
        </g>
        <g id="그룹_3419" data-name="그룹 3419" transform="translate(0)">
          <path id="패스_22060" data-name="패스 22060" d="M348.875,1164.814a1.871,1.871,0,0,1-.173-.217,2.022,2.022,0,0,1-.166-.211,2.411,2.411,0,0,1-.64.358,2.113,2.113,0,0,1-.755.135,2.141,2.141,0,0,1-.952-.212,2.218,2.218,0,0,1-.755-.569,2.34,2.34,0,0,1-.5-.825,2.747,2.747,0,0,1-.179-1,2.861,2.861,0,0,1,.173-.979,2.7,2.7,0,0,1,.486-.832,2.39,2.39,0,0,1,.748-.575,2.317,2.317,0,0,1,1.919-.007,2.606,2.606,0,0,1,.755.557,2.956,2.956,0,0,1,.505.832,2.8,2.8,0,0,1,.186,1,2.849,2.849,0,0,1-.134.87,2.958,2.958,0,0,1-.4.774c.115.153.231.3.346.448s.23.307.352.454Zm-1.734-4.529a1.479,1.479,0,0,0-.652.148,1.614,1.614,0,0,0-.531.422,1.958,1.958,0,0,0-.358.627,2.369,2.369,0,0,0,0,1.573,1.928,1.928,0,0,0,.358.633,1.622,1.622,0,0,0,.531.422,1.4,1.4,0,0,0,.652.153,1.359,1.359,0,0,0,.531-.1,1.445,1.445,0,0,0,.46-.281c-.128-.154-.249-.314-.364-.468s-.243-.307-.365-.467h.857c.045.064.1.129.147.192s.1.135.147.2a2.465,2.465,0,0,0,.186-.5,2.7,2.7,0,0,0,.064-.569,2.411,2.411,0,0,0-.128-.787,2.217,2.217,0,0,0-.358-.627,1.749,1.749,0,0,0-.531-.422A1.493,1.493,0,0,0,347.141,1160.285Z" transform="translate(-344.756 -1159.671)" fill="#ff9797" stroke="#ff9797" stroke-miterlimit="10" stroke-width="0.25"/>
        </g>
      </g>
    </g>
  </g>
</svg>
