<svg xmlns="http://www.w3.org/2000/svg" width="45" height="45" viewBox="0 0 45 45">
  <g id="icon_url" transform="translate(-1)">
    <path id="base" d="M87.751,238.825H62.941c-6.041,0-10.095,4.094-10.095,9.665v25.671c0,5.57,4.054,9.664,10.095,9.664h24.81c6.04,0,10.095-4.094,10.095-9.664V248.49C97.846,242.92,93.791,238.825,87.751,238.825Z" transform="translate(-51.846 -238.825)" fill="#3fbe8f"/>
    <g id="link-building-symbol-of-two-chain-links-union-with-a-plus-sign_icon-icons.com_53796" transform="translate(8.906 8.907)">
      <g id="그룹_770" data-name="그룹 770" transform="translate(0 0)">
        <g id="그룹_769" data-name="그룹 769" transform="translate(0 0)">
          <path id="패스_4930" data-name="패스 4930" d="M14.425,131.6l-4.559,4.559a4.458,4.458,0,0,1-6.28-.264,4.458,4.458,0,0,1-.264-6.281l5.166-5.165a4.458,4.458,0,0,1,6.28.264,4.855,4.855,0,0,1,1.377,2.687,2.933,2.933,0,0,0,1.789-.834l.19-.19a7.023,7.023,0,0,0-1.833-3.187,6.612,6.612,0,0,0-9.329-.264L1.8,128.095a6.612,6.612,0,0,0,.264,9.329,6.613,6.613,0,0,0,9.329.264l5.165-5.165a6.035,6.035,0,0,0,.768-.945A7.7,7.7,0,0,1,14.425,131.6Z" transform="translate(0.002 -112.299)" fill="#fff"/>
          <path id="패스_4931" data-name="패스 4931" d="M127.245,5.5l-5.166,5.166a6.079,6.079,0,0,0-.768.946,7.7,7.7,0,0,1,2.9-.027l4.56-4.56a4.457,4.457,0,0,1,6.28.264,4.457,4.457,0,0,1,.264,6.28l-5.165,5.166a4.457,4.457,0,0,1-6.28-.264,4.858,4.858,0,0,1-1.377-2.687,2.933,2.933,0,0,0-1.789.834l-.19.19A7.023,7.023,0,0,0,122.343,20a6.613,6.613,0,0,0,9.329.264l5.165-5.165a6.612,6.612,0,0,0-.264-9.329A6.612,6.612,0,0,0,127.245,5.5Z" transform="translate(-111.448 -3.702)" fill="#fff"/>
        </g>
      </g>
    </g>
  </g>
</svg>
