<svg id="icon_kakao" xmlns="http://www.w3.org/2000/svg" width="45" height="45" viewBox="0 0 45 45">
  <path id="base" d="M87.751,238.825H62.941c-6.041,0-10.095,4.095-10.095,9.665v25.671c0,5.57,4.054,9.664,10.095,9.664h24.81c6.04,0,10.095-4.094,10.095-9.664V248.49C97.846,242.92,93.791,238.825,87.751,238.825Z" transform="translate(-52.846 -238.825)" fill="#ffe100"/>
  <path id="패스_4908" data-name="패스 4908" d="M77.092,139.027c-9.592,0-17.369,6.272-17.369,14.012,0,4.978,3.222,9.338,8.061,11.831l-1.638,6.242a.524.524,0,0,0,.124.532.489.489,0,0,0,.355.149.5.5,0,0,0,.3-.119l7.04-4.855a21.462,21.462,0,0,0,3.126.234c9.591,0,17.371-6.273,17.371-14.015s-7.779-14.012-17.371-14.012" transform="translate(-54.127 -132.444)" fill="#2b1718"/>
  <path id="패스_4909" data-name="패스 4909" d="M66.485,153.017H64.692a1.175,1.175,0,0,1-.636-.171.7.7,0,0,1-.328-.48c-.01-.055-.02-.118-.026-.185a.721.721,0,0,1,.281-.609,1.114,1.114,0,0,1,.7-.221h5.48a1.167,1.167,0,0,1,.635.169.707.707,0,0,1,.332.481.925.925,0,0,1,.012.179.75.75,0,0,1-.274.619,1.1,1.1,0,0,1-.7.216H68.379l0,6.176a.992.992,0,0,1-.26.714.907.907,0,0,1-.694.27.967.967,0,0,1-.606-.194.9.9,0,0,1-.319-.537,1.039,1.039,0,0,1-.017-.253Z" transform="translate(-54.676 -134.18)" fill="#ffdf00"/>
  <path id="패스_4910" data-name="패스 4910" d="M73.335,151.75a.845.845,0,0,1,.346-.463,1.091,1.091,0,0,1,.58-.139h.456a1.193,1.193,0,0,1,.619.15.992.992,0,0,1,.392.572l2.289,6.636a3.815,3.815,0,0,1,.155.529,2.219,2.219,0,0,1,.034.227.836.836,0,0,1-.268.613.858.858,0,0,1-.63.252.809.809,0,0,1-.851-.541l-.49-1.444H72.913l-.493,1.444a.792.792,0,0,1-.85.541.881.881,0,0,1-.56-.172.794.794,0,0,1-.291-.49.929.929,0,0,1-.017-.2,1.064,1.064,0,0,1,.051-.349c.035-.136.08-.273.128-.407Zm1.147,1.539h-.024l-1.118,3.482H75.56Z" transform="translate(-56.138 -134.134)" fill="#ffdf00"/>
  <path id="패스_4911" data-name="패스 4911" d="M81.055,152.132a.994.994,0,0,1,.26-.715.914.914,0,0,1,.7-.269.936.936,0,0,1,.608.2.9.9,0,0,1,.316.536.9.9,0,0,1,.017.25l0,6.179h3.168a1.14,1.14,0,0,1,.641.168.726.726,0,0,1,.322.483,1.264,1.264,0,0,1,.027.181.733.733,0,0,1-.28.613,1.126,1.126,0,0,1-.706.217H82.166a1.239,1.239,0,0,1-.713-.182.859.859,0,0,1-.359-.585,2.788,2.788,0,0,1-.041-.387Z" transform="translate(-58.342 -134.138)" fill="#ffdf00"/>
  <path id="패스_4912" data-name="패스 4912" d="M89.346,152.132a1.006,1.006,0,0,1,.258-.715.917.917,0,0,1,.694-.269.931.931,0,0,1,.606.2.875.875,0,0,1,.319.536.9.9,0,0,1,.019.25L91.248,155l2.978-3.424a2.113,2.113,0,0,1,.362-.326.7.7,0,0,1,.395-.105.97.97,0,0,1,.567.175.706.706,0,0,1,.316.463c0,.006.006.035.014.073a.334.334,0,0,0,0,.08.743.743,0,0,1-.087.36,1.755,1.755,0,0,1-.226.318l-1.948,2.128,2.3,3.651.07.11a1.972,1.972,0,0,1,.273.55c0,.008.006.031.014.059a.385.385,0,0,0,0,.062.865.865,0,0,1-.285.728,1.1,1.1,0,0,1-.69.221.961.961,0,0,1-.473-.1,1.254,1.254,0,0,1-.372-.413l-2.186-3.517-1.042,1.085.011,1.963a1.006,1.006,0,0,1-.261.714.913.913,0,0,1-.7.27.97.97,0,0,1-.608-.194.9.9,0,0,1-.319-.537,1.212,1.212,0,0,1-.017-.253Z" transform="translate(-60.054 -134.134)" fill="#ffdf00"/>
</svg>
