<svg xmlns="http://www.w3.org/2000/svg" width="150" height="25" viewBox="0 0 150 25">
  <g id="logo_fullname" transform="translate(-920.231 -1029.889)">
    <rect id="사각형_1598" data-name="사각형 1598" width="91.883" height="25" transform="translate(978.349 1029.889)" fill="#1a1818"/>
    <g id="그룹_3552" data-name="그룹 3552" transform="translate(984.85 1032.519)">
      <g id="그룹_3549" data-name="그룹 3549" transform="translate(0 0)">
        <rect id="사각형_1599" data-name="사각형 1599" width="1.619" height="8.571" transform="translate(11.674 0.135)" fill="#fff"/>
        <path id="패스_22225" data-name="패스 22225" d="M1096.791,1044.341a3.624,3.624,0,0,1-2.9-1.159,4.793,4.793,0,0,1-1-3.208,5.788,5.788,0,0,1,.457-2.375,3.506,3.506,0,0,1,1.317-1.562,3.773,3.773,0,0,1,2.061-.551,4.634,4.634,0,0,1,1.177.152,7.68,7.68,0,0,1,1.012.333c.2.083.3.129.354.154l-.146.762c-.081-.038-.19-.087-.329-.147a7.935,7.935,0,0,0-.873-.309,3.43,3.43,0,0,0-.97-.153,2.135,2.135,0,0,0-1.277.359,2.156,2.156,0,0,0-.74,1.168,7.491,7.491,0,0,0-.239,2.1,5.185,5.185,0,0,0,.566,2.783,2.009,2.009,0,0,0,1.783.861,2.359,2.359,0,0,0,1.18-.292,3.285,3.285,0,0,0,.813-.631c.11-.121.183-.206.232-.267l.445.493c-.031.043-.11.154-.309.391a3.322,3.322,0,0,1-1,.751A3.444,3.444,0,0,1,1096.791,1044.341Z" transform="translate(-1077.589 -1035.486)" fill="#fff"/>
        <path id="패스_22226" data-name="패스 22226" d="M1131.081,1044.341a3.488,3.488,0,0,1-2.815-1.172,5.822,5.822,0,0,1,0-6.5,3.48,3.48,0,0,1,2.815-1.178,3.527,3.527,0,0,1,2.841,1.185,5.738,5.738,0,0,1,0,6.491A3.534,3.534,0,0,1,1131.081,1044.341Zm0-8.1a1.622,1.622,0,0,0-1.543.912,6.3,6.3,0,0,0-.46,2.772,6.386,6.386,0,0,0,.453,2.779,1.622,1.622,0,0,0,1.55.905,1.647,1.647,0,0,0,1.569-.9,6.3,6.3,0,0,0,.459-2.779,6.224,6.224,0,0,0-.466-2.773A1.647,1.647,0,0,0,1131.081,1036.236Z" transform="translate(-1096.057 -1035.486)" fill="#fff"/>
        <rect id="사각형_1600" data-name="사각형 1600" width="1.619" height="8.571" transform="translate(48.716 0.135)" fill="#fff"/>
        <path id="패스_22227" data-name="패스 22227" d="M1176.725,1044.341a3.488,3.488,0,0,1-2.815-1.172,5.823,5.823,0,0,1,0-6.5,3.479,3.479,0,0,1,2.815-1.178,3.527,3.527,0,0,1,2.842,1.185,5.738,5.738,0,0,1,0,6.491A3.535,3.535,0,0,1,1176.725,1044.341Zm0-8.1a1.621,1.621,0,0,0-1.543.912,6.293,6.293,0,0,0-.46,2.772,6.388,6.388,0,0,0,.453,2.779,1.622,1.622,0,0,0,1.55.905,1.649,1.649,0,0,0,1.57-.9,6.311,6.311,0,0,0,.459-2.779,6.226,6.226,0,0,0-.466-2.773A1.648,1.648,0,0,0,1176.725,1036.236Z" transform="translate(-1120.573 -1035.486)" fill="#fff"/>
        <path id="패스_22228" data-name="패스 22228" d="M1059.834,1045.2l.087-7.811.874,2.433-.035,5.378Z" transform="translate(-1059.834 -1036.495)" fill="#fff"/>
        <path id="패스_22229" data-name="패스 22229" d="M1067.967,1044.345l-.093-7.169-2.637,7.169h-1.219l-3.1-8.571h1.645l2.631,6.814,2.385-6.814h1.88l.091,8.571Z" transform="translate(-1060.414 -1035.638)" fill="#fff"/>
        <path id="패스_22230" data-name="패스 22230" d="M1201.893,1044.345l-.093-7.254-2.637,7.254h-1.219l-2.412-6.657h0l-.695-1.914h1.651l2.63,6.8,2.385-6.8h1.881l.091,8.571Z" transform="translate(-1132.346 -1035.638)" fill="#fff"/>
        <path id="패스_22231" data-name="패스 22231" d="M1193.767,1045.21l.086-7.8.874,2.446-.035,5.357Z" transform="translate(-1131.773 -1036.504)" fill="#fff"/>
        <path id="패스_22232" data-name="패스 22232" d="M1218.987,1038.944v-3.171h4.977v.751h-3.358v2.42Z" transform="translate(-1145.319 -1035.638)" fill="#fff"/>
        <path id="패스_22233" data-name="패스 22233" d="M1218.987,1048.708v-4.7h4.578v.724h-2.958v3.227h3.544v.751Z" transform="translate(-1145.319 -1040.001)" fill="#fff"/>
        <path id="패스_22234" data-name="패스 22234" d="M1153.551,1040.714a2.5,2.5,0,0,0-1.163-.738l-.252-.081.234-.125a2.738,2.738,0,0,0,.891-.741,1.723,1.723,0,0,0,.343-1.081,1.956,1.956,0,0,0-.316-1.069,2.237,2.237,0,0,0-.972-.8,4,4,0,0,0-1.667-.308h-.309v.656h.255a1.4,1.4,0,0,1,1.038.4,1.7,1.7,0,0,1,.392,1.229,1.88,1.88,0,0,1-.326,1.229.975.975,0,0,1-.756.4h-1.2v-3.911h-1.619v8.572h2.595a3.853,3.853,0,0,0,2.443-.667,2.113,2.113,0,0,0,.818-1.752A1.8,1.8,0,0,0,1153.551,1040.714Zm-1.664,2.515a1.615,1.615,0,0,1-1.211.46h-.936v-3.416h1.3c.591,0,1.3.275,1.3,1.586A1.907,1.907,0,0,1,1151.887,1043.229Z" transform="translate(-1107.255 -1035.638)" fill="#fff"/>
        <path id="패스_22235" data-name="패스 22235" d="M1115.262,1040.838l.1-.053a2.793,2.793,0,0,0,1.039-.944,2.538,2.538,0,0,0,.394-1.419,2.468,2.468,0,0,0-.788-1.951,3.272,3.272,0,0,0-2.22-.7h-.347v.656h.236a1.205,1.205,0,0,1,1.036.5,2.913,2.913,0,0,1,.318,1.571,4.242,4.242,0,0,1-.125,1.155,1.07,1.07,0,0,1-.441.639,1.547,1.547,0,0,1-.823.185h-.79v-4.708h-1.619v8.572h1.619v-3.193h.883l1.626,3.193h1.863Z" transform="translate(-1087.442 -1035.638)" fill="#fff"/>
      </g>
      <g id="그룹_3551" data-name="그룹 3551" transform="translate(0 10.883)">
        <g id="그룹_3550" data-name="그룹 3550">
          <path id="패스_22236" data-name="패스 22236" d="M1062.331,1067.5a3.857,3.857,0,0,1-1.425-.229,2.73,2.73,0,0,1-.839-.485,2.8,2.8,0,0,1-.233-.239l.392-.608c.042.039.1.089.174.154a2.818,2.818,0,0,0,.735.431,2.746,2.746,0,0,0,1.075.2,1.441,1.441,0,0,0,1.048-.369,1.3,1.3,0,0,0,.381-.974,1.155,1.155,0,0,0-.207-.681,1.864,1.864,0,0,0-.489-.475q-.275-.184-.772-.47a7.928,7.928,0,0,1-1.042-.642,2.608,2.608,0,0,1-.676-.779,2.293,2.293,0,0,1-.278-1.175,2.553,2.553,0,0,1,.343-1.335,2.289,2.289,0,0,1,.954-.871,3.131,3.131,0,0,1,1.4-.306,3.549,3.549,0,0,1,.976.131,4.3,4.3,0,0,1,.78.3q.178.092.254.135l-.164.7-.2-.111a4.414,4.414,0,0,0-.677-.285,2.646,2.646,0,0,0-.848-.141,1.244,1.244,0,0,0-.888.321,1.17,1.17,0,0,0-.341.887,1.3,1.3,0,0,0,.394.989,5.626,5.626,0,0,0,1.129.76,9.292,9.292,0,0,1,1.053.655,2.346,2.346,0,0,1,.928,1.98,2.358,2.358,0,0,1-.387,1.357,2.525,2.525,0,0,1-1.054.875A3.571,3.571,0,0,1,1062.331,1067.5Z" transform="translate(-1059.834 -1058.641)" fill="#fff"/>
          <path id="패스_22237" data-name="패스 22237" d="M1078.491,1067.5a3.489,3.489,0,0,1-2.814-1.172,5.823,5.823,0,0,1,0-6.505,3.481,3.481,0,0,1,2.814-1.178,3.527,3.527,0,0,1,2.841,1.185,5.737,5.737,0,0,1,0,6.491A3.536,3.536,0,0,1,1078.491,1067.5Zm0-8.1a1.623,1.623,0,0,0-1.543.912,6.3,6.3,0,0,0-.46,2.772,6.39,6.39,0,0,0,.453,2.779,1.621,1.621,0,0,0,1.55.905,1.649,1.649,0,0,0,1.57-.9,6.32,6.32,0,0,0,.459-2.779,6.226,6.226,0,0,0-.467-2.773A1.647,1.647,0,0,0,1078.491,1059.392Z" transform="translate(-1067.81 -1058.641)" fill="#fff"/>
          <path id="패스_22238" data-name="패스 22238" d="M1112.717,1067.649a2.977,2.977,0,0,1-2.3-.844,3.42,3.42,0,0,1-.776-2.387v-5.49h1.632V1064a4.23,4.23,0,0,0,.41,2.157,1.453,1.453,0,0,0,1.326.688,1.566,1.566,0,0,0,1.411-.714,4.035,4.035,0,0,0,.444-2.131v-5.071h.913v5.49a3.6,3.6,0,0,1-.719,2.4A2.94,2.94,0,0,1,1112.717,1067.649Z" transform="translate(-1086.587 -1058.794)" fill="#fff"/>
          <rect id="사각형_1601" data-name="사각형 1601" width="1.619" height="8.571" transform="translate(38.77 0.135)" fill="#fff"/>
          <path id="패스_22239" data-name="패스 22239" d="M1155.235,1067.5a3.488,3.488,0,0,1-2.814-1.172,5.82,5.82,0,0,1,0-6.505,3.481,3.481,0,0,1,2.814-1.178,3.528,3.528,0,0,1,2.841,1.185,5.737,5.737,0,0,1,0,6.491A3.536,3.536,0,0,1,1155.235,1067.5Zm0-8.1a1.624,1.624,0,0,0-1.543.912,6.311,6.311,0,0,0-.459,2.772,6.388,6.388,0,0,0,.453,2.779,1.621,1.621,0,0,0,1.55.905,1.649,1.649,0,0,0,1.57-.9,6.316,6.316,0,0,0,.459-2.779,6.224,6.224,0,0,0-.467-2.773A1.647,1.647,0,0,0,1155.235,1059.392Z" transform="translate(-1109.031 -1058.641)" fill="#fff"/>
          <rect id="사각형_1602" data-name="사각형 1602" width="1.619" height="8.571" transform="translate(16.523 0.135)" fill="#fff"/>
          <rect id="사각형_1603" data-name="사각형 1603" width="4.168" height="0.751" transform="translate(17.332 7.956)" fill="#fff"/>
        </g>
        <path id="패스_22240" data-name="패스 22240" d="M1172.275,1061.348v7.434h.926v-5.848Z" transform="translate(-1120.228 -1060.076)" fill="#fff"/>
        <path id="패스_22241" data-name="패스 22241" d="M1177.751,1058.929v6.139l-3.742-6.139h-1.735v0l5.135,8.567h1.269v-8.571Z" transform="translate(-1120.228 -1058.794)" fill="#fff"/>
        <rect id="사각형_1604" data-name="사각형 1604" width="1.632" height="7.138" transform="translate(33.117 1.569)" fill="#fff"/>
        <rect id="사각형_1605" data-name="사각형 1605" width="6.282" height="0.751" transform="translate(30.786 0.135)" fill="#fff"/>
      </g>
    </g>
    <g id="그룹_3553" data-name="그룹 3553" transform="translate(920.231 1032.858)">
      <path id="패스_22242" data-name="패스 22242" d="M980.232,1071.551a.934.934,0,0,0-.615.416c.078-.352.154-.713.248-1.09.013-.061.01-.09-.016-.09a.319.319,0,0,0-.09.023,2.074,2.074,0,0,1-.362.075l-.018.081c.026,0,.076,0,.106.007.089.008.109.015.085.134-.088.438-.18.848-.257,1.244-.056.287-.016.4.048.468a.262.262,0,0,0,.2.08.809.809,0,0,0,.434-.161,1.084,1.084,0,0,0,.447-.858c0-.135-.041-.327-.212-.327m-.533,1.212c-.121,0-.208-.1-.161-.375a.757.757,0,0,1,.139-.352c.168-.224.307-.3.395-.3s.111.081.111.19c0,.324-.2.839-.484.839" transform="translate(-951.95 -1054.533)" fill="#1a1818"/>
      <path id="패스_22243" data-name="패스 22243" d="M982.672,1072.414a.2.2,0,0,0-.141.08.082.082,0,0,0-.012.094.377.377,0,0,1,.044.149,2.128,2.128,0,0,1-.4.8c-.011-.182-.021-.437-.042-.684s-.053-.436-.16-.436-.274.153-.368.292l.047.078c.071-.087.143-.15.174-.15s.058.061.076.242c.027.27.062.692.064.917a2.622,2.622,0,0,1-.647.6l.027.069.311-.08a9.372,9.372,0,0,0,1.032-1.462.767.767,0,0,0,.1-.338c0-.1-.044-.165-.112-.165" transform="translate(-953.039 -1055.396)" fill="#1a1818"/>
      <path id="패스_22244" data-name="패스 22244" d="M993.538,1071.594c-.024,0-.11.011-.265.011-.171,0-.241-.011-.283-.011a.051.051,0,0,0-.043.021l-.011.036a.051.051,0,0,0,.017.037,1.02,1.02,0,0,0,.171.067.167.167,0,0,1,.115.163v.837a.443.443,0,0,1,0,.067l0,.01a.311.311,0,0,1-.064-.059l-1-1.108a.305.305,0,0,1-.032-.05l-.026-.016a.162.162,0,0,0-.045,0c-.132,0-.2.011-.261.011-.046,0-.089-.01-.139-.011a.056.056,0,0,0-.043.017.058.058,0,0,0-.013.039.065.065,0,0,0,.053.066.31.31,0,0,1,.141.065.42.42,0,0,1,.084.309v.956a.2.2,0,0,1-.112.2c-.028.016-.059.028-.082.042a.078.078,0,0,0-.044.067.041.041,0,0,0,.02.039l.036.007h.036c.069,0,.136-.011.213-.011s.17.011.292.011h.013a.24.24,0,0,0,.056-.006.044.044,0,0,0,.038-.042.053.053,0,0,0-.018-.044.18.18,0,0,0-.08-.028.251.251,0,0,1-.143-.071.42.42,0,0,1-.076-.288v-.854l0-.023,0,0s.018.007.033.028h0l1.193,1.308a.086.086,0,0,0,.074.039.036.036,0,0,0,.04-.027.238.238,0,0,0,0-.063v-1.41c0-.127.048-.171.1-.2.024-.013.05-.02.072-.031a.055.055,0,0,0,.04-.051l-.009-.028a.062.062,0,0,0-.051-.019" transform="translate(-958.57 -1054.961)" fill="#1a1818"/>
      <path id="패스_22245" data-name="패스 22245" d="M1003.777,1071.669a.18.18,0,0,0-.009-.044.046.046,0,0,0-.045-.03c-.231,0-.4.01-.759.01s-.527-.01-.758-.01a.047.047,0,0,0-.045.03.179.179,0,0,0-.009.044l-.039.331a.3.3,0,0,0-.007.049.061.061,0,0,0,.011.038.05.05,0,0,0,.042.017.079.079,0,0,0,.07-.06,1.358,1.358,0,0,1,.066-.172.19.19,0,0,1,.182-.1h.208c.051,0,.079,0,.092.017s.021.041.021.1v1.166c0,.145-.063.18-.131.2-.033.009-.068.012-.1.02a.086.086,0,0,0-.037.017.05.05,0,0,0-.017.039.058.058,0,0,0,.032.059.14.14,0,0,0,.06.009h.009c.1,0,.181-.01.347-.01s.247.01.348.01h.039a.135.135,0,0,0,.066-.01.057.057,0,0,0,.031-.057.039.039,0,0,0-.021-.033.3.3,0,0,0-.077-.025.353.353,0,0,1-.145-.061.225.225,0,0,1-.075-.188v-1.137c0-.06.007-.089.021-.1s.04-.017.092-.017h.226a.183.183,0,0,1,.2.125c.013.032.021.066.033.093a.067.067,0,0,0,.061.051.051.051,0,0,0,.045-.023.092.092,0,0,0,.011-.047.358.358,0,0,0-.01-.074Z" transform="translate(-964.208 -1054.962)" fill="#1a1818"/>
      <path id="패스_22246" data-name="패스 22246" d="M1012.9,1073.291a.254.254,0,0,1-.125-.043.21.21,0,0,1-.064-.177v-1.2c0-.116.042-.142.084-.161.022-.008.044-.013.064-.021a.054.054,0,0,0,.038-.053l0-.024a.042.042,0,0,0-.033-.022.458.458,0,0,0-.063,0c-.142,0-.232.011-.32.011s-.183-.011-.28-.011h-.023a.114.114,0,0,0-.046.007.045.045,0,0,0-.03.043.05.05,0,0,0,.017.037c.035.03.1.032.158.056a.147.147,0,0,1,.1.153v1.207c0,.115-.041.15-.081.174-.021.012-.043.019-.062.03a.063.063,0,0,0-.034.057l.007.028a.04.04,0,0,0,.034.016c.066,0,.172-.01.278-.01.193,0,.284.01.376.01a.149.149,0,0,0,.068-.01.044.044,0,0,0,.026-.042.04.04,0,0,0-.018-.034.2.2,0,0,0-.07-.019" transform="translate(-969.572 -1054.958)" fill="#1a1818"/>
      <path id="패스_22247" data-name="패스 22247" d="M1020.463,1073.3a.261.261,0,0,1-.125-.043.211.211,0,0,1-.065-.178v-1.2c0-.116.042-.144.084-.161.021-.009.044-.013.064-.021a.052.052,0,0,0,.038-.052l0-.025a.043.043,0,0,0-.034-.021.348.348,0,0,0-.062,0c-.142,0-.232.01-.319.01s-.183-.01-.28-.01h-.025a.113.113,0,0,0-.045.008.044.044,0,0,0-.029.043.049.049,0,0,0,.016.037.74.74,0,0,0,.159.056.146.146,0,0,1,.105.152v1.207c0,.116-.041.151-.082.174-.021.012-.043.019-.062.031a.063.063,0,0,0-.035.057l.008.028a.04.04,0,0,0,.034.017c.065,0,.172-.01.278-.01.192,0,.284.01.375.01a.155.155,0,0,0,.068-.01.044.044,0,0,0,.027-.042.041.041,0,0,0-.018-.034.2.2,0,0,0-.07-.018" transform="translate(-973.636 -1054.961)" fill="#1a1818"/>
      <path id="패스_22248" data-name="패스 22248" d="M1024.306,1071.892l-.027-.23a.158.158,0,0,0-.008-.044.047.047,0,0,0-.046-.03c-.232,0-.4.011-.759.011s-.528-.011-.758-.011a.048.048,0,0,0-.046.03.178.178,0,0,0-.008.044l-.039.331a.349.349,0,0,0-.006.049.058.058,0,0,0,.011.038.052.052,0,0,0,.042.017c.036,0,.057-.028.07-.06a1.127,1.127,0,0,1,.065-.172.19.19,0,0,1,.182-.1h.208c.051,0,.079,0,.091.017s.021.042.021.1v1.166c0,.145-.063.18-.129.2-.034.009-.068.013-.1.021a.123.123,0,0,0-.038.017.05.05,0,0,0-.017.039.06.06,0,0,0,.03.058.13.13,0,0,0,.058.009h.012c.1,0,.182-.01.347-.01s.247.01.348.01h.039a.157.157,0,0,0,.066-.01.059.059,0,0,0,.03-.058.04.04,0,0,0-.02-.033c-.038-.022-.11-.024-.176-.056a.213.213,0,0,1-.121-.218v-1.136c0-.06.007-.089.021-.1s.041-.017.091-.017h.225a.183.183,0,0,1,.2.126c.013.032.021.066.032.093a.069.069,0,0,0,.062.051.051.051,0,0,0,.046-.023.089.089,0,0,0,.011-.048.43.43,0,0,0-.01-.075" transform="translate(-975.22 -1054.958)" fill="#1a1818"/>
      <path id="패스_22249" data-name="패스 22249" d="M998.95,1071.592h0c-.123.006-.2.011-.281.011s-.136-.005-.207-.011h0l-.038,0-.033.008a.04.04,0,0,0-.017.036.048.048,0,0,0,.018.038,1.221,1.221,0,0,0,.171.062.2.2,0,0,1,.116.2v.4l0,.221c0,.022,0,.043,0,.063a.667.667,0,0,1-.168.512.494.494,0,0,1-.343.117h-.032a.458.458,0,0,1-.44-.2.989.989,0,0,1-.09-.49v-.545c0-.2.051-.266.1-.292a.362.362,0,0,1,.068-.025l.029-.014a.045.045,0,0,0,.013-.033l-.007-.031a.039.039,0,0,0-.035-.019c-.048,0-.223.011-.349.011s-.309-.011-.343-.011a.08.08,0,0,0-.04.01.051.051,0,0,0-.026.045.065.065,0,0,0,.05.059,1.264,1.264,0,0,1,.135.042.13.13,0,0,1,.074.13v.819a.659.659,0,0,0,.24.547.946.946,0,0,0,.592.173.746.746,0,0,0,.536-.181.754.754,0,0,0,.2-.539v-.37l0,0v-.425c0-.14.04-.18.078-.2a.387.387,0,0,1,.059-.02l.025-.014.012-.029a.041.041,0,0,0-.018-.039.071.071,0,0,0-.041-.009" transform="translate(-961.472 -1054.959)" fill="#1a1818"/>
      <path id="패스_22250" data-name="패스 22250" d="M1008.831,1073.372a.52.52,0,0,1-.06-.009c-.084-.02-.236-.186-.375-.354-.069-.085-.137-.17-.195-.239a1.307,1.307,0,0,0-.113-.124.525.525,0,0,0,.459-.542v-.035a.516.516,0,0,0-.1-.277.6.6,0,0,0-.51-.205c-.166,0-.55.01-.716.01s-.175-.01-.29-.01a.084.084,0,0,0-.046.012.046.046,0,0,0-.023.041.05.05,0,0,0,.017.037c.034.028.1.027.152.054s.1.068.1.188v1.1c0,.156-.048.205-.093.233a.613.613,0,0,1-.068.03.055.055,0,0,0-.04.052.051.051,0,0,0,.026.048.085.085,0,0,0,.045.009h.023c.125,0,.249-.01.381-.01.1,0,.169.01.213.01a.147.147,0,0,0,.066-.012.043.043,0,0,0,.025-.04.063.063,0,0,0-.048-.057.607.607,0,0,1-.128-.049.162.162,0,0,1-.073-.156v-1.2c0-.073.018-.1.043-.119a.222.222,0,0,1,.112-.016h.06a.889.889,0,0,1,.372.055.352.352,0,0,1,.2.341v.007a.382.382,0,0,1-.085.226.411.411,0,0,1-.336.142h-.019a.426.426,0,0,0-.088.01.224.224,0,0,0-.04.014.051.051,0,0,0-.026.024l-.006.027a.048.048,0,0,0,.019.039.187.187,0,0,0,.053.029.507.507,0,0,1,.141.138c.069.084.161.209.281.383a.622.622,0,0,0,.511.311h.008a.947.947,0,0,0,.131-.01.376.376,0,0,0,.064-.017c.018-.008.034-.018.034-.039v0a.062.062,0,0,0-.014-.036.073.073,0,0,0-.047-.016" transform="translate(-966.764 -1054.957)" fill="#1a1818"/>
      <path id="패스_22251" data-name="패스 22251" d="M1017.107,1072.916c-.031,0-.051.024-.071.05-.06.081-.147.239-.6.271-.064,0-.117.007-.16.007a.447.447,0,0,1-.125-.013.074.074,0,0,1-.061-.064,1.257,1.257,0,0,1-.007-.155v-1.177a.128.128,0,0,1,.025-.088.147.147,0,0,1,.085-.038.121.121,0,0,0,.044-.018.058.058,0,0,0,.022-.049.039.039,0,0,0-.021-.04.149.149,0,0,0-.058-.007c-.042,0-.068.01-.28.01-.094,0-.237-.01-.337-.01a.133.133,0,0,0-.066.015.048.048,0,0,0-.01.079.619.619,0,0,0,.158.054.138.138,0,0,1,.1.142v1.188c0,.151-.044.184-.086.2-.021.009-.045.012-.066.022a.064.064,0,0,0-.038.064.036.036,0,0,0,.018.031.079.079,0,0,0,.043.01c.138,0,.243-.01.318-.01h.14c.153,0,.387,0,.709.011h.009a.4.4,0,0,0,.355-.416.1.1,0,0,0-.012-.054Z" transform="translate(-971.383 -1054.961)" fill="#1a1818"/>
      <path id="패스_22252" data-name="패스 22252" d="M1028.88,1072.906a.059.059,0,0,0-.041.018,1.042,1.042,0,0,1-.143.18.739.739,0,0,1-.491.131.644.644,0,0,1-.362-.062c-.048-.037-.051-.091-.051-.17v-.379a.157.157,0,0,1,.012-.086c.008-.012.03-.018.077-.018h.4a.176.176,0,0,1,.188.125c.012.032.019.065.028.092a.094.094,0,0,0,.017.034.046.046,0,0,0,.035.017.055.055,0,0,0,.05-.032.133.133,0,0,0,.01-.055c0-.021,0-.042,0-.053l-.018-.446a.1.1,0,0,0-.018-.063.047.047,0,0,0-.036-.014h-.007a.035.035,0,0,0-.028.015c-.044.055-.067.217-.243.217h-.374c-.053,0-.075-.005-.082-.016s-.011-.041-.011-.095v-.355a.327.327,0,0,1,.007-.094.062.062,0,0,1,.031-.035,1.555,1.555,0,0,1,.486-.03c.237,0,.3.071.323.138a.6.6,0,0,1,.02.1.092.092,0,0,0,.017.04.052.052,0,0,0,.042.018.052.052,0,0,0,.049-.03.136.136,0,0,0,.01-.055.393.393,0,0,0,0-.047l-.01-.248a.062.062,0,0,0-.064-.062c-.218,0-.617.01-.793.01-.38,0-.557-.01-.659-.01a.073.073,0,0,0-.05.016.052.052,0,0,0-.019.04.067.067,0,0,0,.053.063c.043.017.1.023.147.046a.138.138,0,0,1,.081.138v1.177c0,.151-.044.184-.086.2-.022.009-.045.011-.066.021a.062.062,0,0,0-.037.063.038.038,0,0,0,.017.032.086.086,0,0,0,.043.01c.138,0,.242-.01.318-.01.124,0,.527.015.9.015a.411.411,0,0,0,.369-.42.1.1,0,0,0-.013-.054Z" transform="translate(-977.675 -1054.956)" fill="#1a1818"/>
      <path id="패스_22253" data-name="패스 22253" d="M988.377,1071.63h-1.76v1.786h1.763v-1.786h0Zm-.222.455h0a.5.5,0,0,1-.191.281.472.472,0,0,1-.313.045l-.017,0c-.075.063-.147.13-.21.189l-.017.016h0a.25.25,0,0,1,.064-.016.481.481,0,0,1,.322-.068.5.5,0,0,1,.274.206.491.491,0,0,1-.334.075.472.472,0,0,1-.257-.183l-.008-.01a.221.221,0,0,0-.1.038l-.006,0-.005,0h0a2.915,2.915,0,0,1-.231.2l.041-.008h0l.035-.02a.452.452,0,0,1,.279-.053.5.5,0,0,1,.28.2.492.492,0,0,1-.331.085.466.466,0,0,1-.259-.171l-.016-.019-.009,0h0a.277.277,0,0,0-.062.017.479.479,0,0,1-.234.094h-.007v-.016h.007a.413.413,0,0,0,.175-.059v0l.006,0a.133.133,0,0,0,.067-.086.417.417,0,1,1,.18-.3.513.513,0,0,1-.165.306.249.249,0,0,1-.019.043,2.626,2.626,0,0,0,.263-.228l.006-.005a.2.2,0,0,0,.046-.089l-.014-.019a.5.5,0,0,1-.081-.308.189.189,0,1,1,.28.04.482.482,0,0,1-.17.28.337.337,0,0,1-.016.053c.053-.05.111-.1.168-.152l.025-.021.026-.025,0,0v0a.545.545,0,0,1,.019-.054.457.457,0,0,1,.167-.212.372.372,0,0,1,.121-.045h0a.55.55,0,0,1,.216.006Z" transform="translate(-955.888 -1054.98)" fill="#1a1818"/>
      <path id="패스_22254" data-name="패스 22254" d="M988.36,1072.72a1.63,1.63,0,0,1,.052-.4l0,.007a1.291,1.291,0,0,0-.064.4,1.321,1.321,0,0,1-.013.166.083.083,0,0,0,.018-.028,1.243,1.243,0,0,0,.01-.136" transform="translate(-956.81 -1055.343)" fill="#1a1818"/>
      <path id="패스_22255" data-name="패스 22255" d="M989.053,1073.794a1.8,1.8,0,0,0-.319-.109.869.869,0,0,0-.194-.022l-.029.014,0,0a1.421,1.421,0,0,1,.543.113" transform="translate(-956.905 -1056.058)" fill="#1a1818"/>
      <path id="패스_22256" data-name="패스 22256" d="M988.386,1074.357a1.6,1.6,0,0,0-.517-.124l-.024.007,0,0a1.752,1.752,0,0,1,.551.116Z" transform="translate(-956.546 -1056.36)" fill="#1a1818"/>
      <path id="패스_22257" data-name="패스 22257" d="M988.86,1072.9l.045-.036a1.8,1.8,0,0,1,.429-.255h0a1.519,1.519,0,0,0-.458.264Z" transform="translate(-957.093 -1055.497)" fill="#1a1818"/>
      <path id="패스_22258" data-name="패스 22258" d="M987.77,1072.883v.006l0-.014Z" transform="translate(-956.507 -1055.641)" fill="#1a1818"/>
      <path id="패스_22259" data-name="패스 22259" d="M987.674,1073.516a1.091,1.091,0,0,0,.01-.177,1.651,1.651,0,0,1,.019-.333,1.49,1.49,0,0,0-.034.333c0,.056,0,.107-.005.152,0,.009.005.018.006.026Z" transform="translate(-956.451 -1055.71)" fill="#1a1818"/>
      <path id="패스_22260" data-name="패스 22260" d="M987.749,1072.953c0-.016,0-.032.009-.049,0,.009-.006.025-.009.049" transform="translate(-956.496 -1055.656)" fill="#1a1818"/>
      <path id="패스_22261" data-name="패스 22261" d="M1031.039,1071.628h.094v.244h.058v-.244h.094v-.049h-.246Z" transform="translate(-979.749 -1054.953)" fill="#1a1818"/>
      <path id="패스_22262" data-name="패스 22262" d="M1031.908,1071.579l-.074.21-.074-.21h-.083v.294h.053v-.237l.081.237h.046l.081-.237v.237h.053v-.294Z" transform="translate(-980.091 -1054.953)" fill="#1a1818"/>
      <path id="패스_22263" data-name="패스 22263" d="M932.047,1052.289c-.22.269-.4.355-.518.289-.15-.084-.128-.291-.008-.789.278-1.316.536-2.526.833-3.8.518-2.355.049-2.758-.6-2.758-1,0-2.713,1.223-4.216,3.593l.14-.626c.568-2.644.052-2.966-.585-2.966-1.054,0-2.666,1.238-4.112,3.432l.247-1.042c.368-1.747.175-2.39-.441-2.39-.7,0-1.607.752-2.477,1.847l.152.229a2.335,2.335,0,0,1,1.1-.769c.2,0,.234.223.095.865-.467,2.153-.96,4.2-1.421,6.257l.1.109a10.3,10.3,0,0,1,1.645-.358c.146-.75.342-1.718.53-2.527a6.044,6.044,0,0,1,.7-1.894c.814-1.376,2.017-2.605,2.687-2.605.466,0,.461.488.153,1.948-.342,1.574-.8,3.526-1.232,5.341l.107.1a8.325,8.325,0,0,1,1.671-.358c.146-.75.366-1.718.554-2.527a5.807,5.807,0,0,1,.686-1.859c.8-1.355,2.048-2.64,2.679-2.64.425,0,.487.359.266,1.4-.322,1.389-.617,2.679-.94,4.129-.335,1.423-.152,1.845.41,1.913.379.047.869-.1,1.859-1.3Z" transform="translate(-920.231 -1040.992)" fill="#1a1818"/>
      <path id="패스_22264" data-name="패스 22264" d="M952.877,1045.231a1.391,1.391,0,0,0-.847.473.534.534,0,0,0-.143.529,3.975,3.975,0,0,1,.377,1.239c.006,1.3-1.7,3.948-2.425,5.036-.058-1.428-.166-3.489-.3-4.726-.158-1.622-.379-2.5-1.029-2.549-.853-.064-1.525.585-2.081,1.427l.17.212c.41-.546.658-.423.786-.305.162.15.388.51.545,1.709.227,1.81.449,5.075.431,6.1a25.249,25.249,0,0,1-3.4,3.022l.088.242,2.009-.569a66.451,66.451,0,0,0,5.815-8.6,4.648,4.648,0,0,0,.678-2.2c-.025-.652-.264-1.036-.679-1.036" transform="translate(-933.516 -1040.987)" fill="#1a1818"/>
      <rect id="사각형_1606" data-name="사각형 1606" width="0.26" height="14.444" transform="translate(22.682)" fill="#1a1818"/>
      <path id="패스_22265" data-name="패스 22265" d="M980.947,1051.231h5.29v-.9h-5.29v-10.28h-1.623v11.181h1.623Z" transform="translate(-951.971 -1038.243)" fill="#1a1818"/>
      <path id="패스_22266" data-name="패스 22266" d="M1000.177,1040.05h-1.725l-2.056,6.284-.229.7-1.374,4.2h1.154l1.009-3.055.733-2.259,1.4-4.4,1.757,5.521h-2.72l-.259.782h3.228l1.088,3.416h1.674l-3.58-11.145Z" transform="translate(-960.28 -1038.243)" fill="#1a1818"/>
      <path id="패스_22267" data-name="패스 22267" d="M1016.643,1051.231h3.051c2.639,0,4.034-1.1,4.034-3.183a2.675,2.675,0,0,0-2.04-2.689,2.766,2.766,0,0,0,1.526-2.5c0-1.731-1.355-2.807-3.536-2.807h-.614v.833h.475a1.913,1.913,0,0,1,2.1,2.06c0,1.737-1.152,2.128-1.555,2.128h-1.82v-5.02h-1.623v11.181Zm1.623-5.379h1.886a1.9,1.9,0,0,1,1.97,2.145c0,1.593-.863,2.4-2.567,2.4h-1.289Z" transform="translate(-972.016 -1038.243)" fill="#1a1818"/>
    </g>
  </g>
</svg>
