<svg xmlns="http://www.w3.org/2000/svg" xmlns:xlink="http://www.w3.org/1999/xlink" width="45" height="45" viewBox="0 0 45 45">
  <defs>
    <clipPath id="clip-path">
      <circle id="base" cx="22.5" cy="22.5" r="22.5" fill="#ff9595"/>
    </clipPath>
  </defs>
  <g id="member_woman_adult" clip-path="url(#clip-path)">
    <g id="그룹_52" data-name="그룹 52" transform="translate(-3.623 5.4)">
      <path id="패스_2898" data-name="패스 2898" d="M751.538,99.5a9.232,9.232,0,0,1,8.641,2.065,13.274,13.274,0,0,1,4.121,8.107,24.055,24.055,0,0,1-.7,9.2,17.443,17.443,0,0,0-.669,3.476,4.581,4.581,0,0,0,1.032,3.3,12.811,12.811,0,0,1-13.99-.7" transform="translate(-723.165 -98.149)" fill="#5c3c35"/>
      <path id="패스_2899" data-name="패스 2899" d="M736.2,351.85c.715-10.014.185-46.425-.933-56.772l-14.73-1.958-14.73,1.958c-.947,11.908-1.048,45.805-.939,57.23C711.143,355.34,728.8,355.895,736.2,351.85Z" transform="translate(-694.639 -220.75)" fill="#a55e5b"/>
      <path id="패스_2900" data-name="패스 2900" d="M723.039,335.573c-.317,15.185-.518,30.184-.357,42.21" transform="translate(-705.884 -247.581)" fill="none" stroke="#894747" stroke-miterlimit="10" stroke-width="0.5"/>
      <path id="패스_2901" data-name="패스 2901" d="M772.187,335.573c.317,15.185.518,30.184.357,42.21" transform="translate(-737.208 -247.581)" fill="none" stroke="#894747" stroke-miterlimit="10" stroke-width="0.5"/>
      <path id="패스_2902" data-name="패스 2902" d="M731.006,190.174a55.531,55.531,0,0,0,2.907,12.033c.324.886.572,1.812.952,2.671a11.572,11.572,0,0,1,1.078,2.245c.453,2.2-.279,5.023-.3,7.271a43.642,43.642,0,0,1-.4,8.451c-.252,1.231-1.05,2.177-1.175,3.432-.115,1.15.414,2.984.011,4.027-.565,1.461-4.114,1.068-5.222,1.126-2.7.142-5.393.249-8.092.255-3.219.008-6.493-.123-9.676.185-2.156.209-4.309.442-6.466.448-1.067,0-1.328.25-1.55-.861-.3-1.516.188-3.3-.3-4.748-.183-.539-.571-1.02-.717-1.554a8.624,8.624,0,0,1-.075-2.233c.023-1.585.186-3.164.364-4.738a42.245,42.245,0,0,0,.454-9.093,28.385,28.385,0,0,1-.361-3.915,10.069,10.069,0,0,1,.814-3.255c.314-.84.412-1.721.714-2.582a63.484,63.484,0,0,0,2.126-9.005c.359-1.852.482-3.973,2.107-4.9a16.284,16.284,0,0,1,5.389-1.7,46.952,46.952,0,0,1,8.094-.662,18.026,18.026,0,0,1,5.246,1.149,5.971,5.971,0,0,1,3.284,1.8C731.1,187.154,730.82,188.718,731.006,190.174Z" transform="translate(-692.81 -151.201)" fill="#fef3cf"/>
      <path id="패스_2903" data-name="패스 2903" d="M784.5,192.51c3.3,2.1,4.9,5.643,6.478,9.143q1.99,4.4,3.892,8.848c2.181,5.1,3.417,11.6.365,16.6-2.059,3.372-6.942,7.108-11.014,6.108" transform="translate(-744.813 -157.161)" fill="#f5978e"/>
      <path id="패스_2904" data-name="패스 2904" d="M689.669,193.738c-3.3,2.1-4.889,5.643-6.468,9.143q-1.987,4.4-3.887,8.848c-2.178,5.1-3.411,11.6-.364,16.6,2.056,3.372,6.931,7.108,11,6.108" transform="translate(-677.128 -157.938)" fill="#f5978e"/>
      <path id="패스_2905" data-name="패스 2905" d="M737.025,170.558a11.256,11.256,0,0,1,0,4.649c2.2,1.678,6.192,1.305,8.522-.249a35.7,35.7,0,0,1-.775-5.174" transform="translate(-714.985 -142.797)" fill="#f2c1b6"/>
      <g id="그룹_47" data-name="그룹 47" transform="translate(8.748 13.494)">
        <path id="패스_2906" data-name="패스 2906" d="M711.691,138.512a5.394,5.394,0,1,1-5.394-5.394A5.394,5.394,0,0,1,711.691,138.512Z" transform="translate(-700.903 -133.118)" fill="#f2c1b6"/>
        <line id="선_10" data-name="선 10" x2="2.397" transform="translate(2.597 5.394)" fill="none" stroke="#a66d68" stroke-linecap="round" stroke-linejoin="round" stroke-width="1"/>
      </g>
      <g id="그룹_48" data-name="그룹 48" transform="translate(32.862 13.494)">
        <path id="패스_2907" data-name="패스 2907" d="M766.435,138.512a5.394,5.394,0,1,0,5.394-5.394A5.394,5.394,0,0,0,766.435,138.512Z" transform="translate(-766.435 -133.118)" fill="#f2c1b6"/>
        <line id="선_11" data-name="선 11" x1="2.397" transform="translate(5.794 5.394)" fill="none" stroke="#a66d68" stroke-linecap="round" stroke-linejoin="round" stroke-width="1"/>
      </g>
      <path id="패스_2908" data-name="패스 2908" d="M738.788,117.044A13.29,13.29,0,1,1,725.5,103.459,13.438,13.438,0,0,1,738.788,117.044Z" transform="translate(-699.303 -100.879)" fill="#f8d4c9"/>
      <path id="패스_2909" data-name="패스 2909" d="M733.978,143.884c0,.639-.358,1.157-.8,1.157s-.8-.518-.8-1.157.359-1.157.8-1.157S733.978,143.245,733.978,143.884Z" transform="translate(-712.049 -125.697)" fill="#70544f"/>
      <path id="패스_2910" data-name="패스 2910" d="M757.589,143.884c0,.639-.358,1.157-.8,1.157s-.8-.518-.8-1.157.357-1.157.8-1.157S757.589,143.245,757.589,143.884Z" transform="translate(-726.972 -125.697)" fill="#70544f"/>
      <path id="패스_2911" data-name="패스 2911" d="M733.227,137.557c-.871-.871-2.3-.4-3.247.317" transform="translate(-710.532 -122.132)" fill="none" stroke="#413939" stroke-miterlimit="10" stroke-width="0.5"/>
      <path id="패스_2912" data-name="패스 2912" d="M754.565,137.557c.871-.871,2.3-.4,3.247.317" transform="translate(-726.07 -122.132)" fill="none" stroke="#413939" stroke-miterlimit="10" stroke-width="0.5"/>
      <path id="패스_2913" data-name="패스 2913" d="M735.376,107.552a14.092,14.092,0,0,0-8.487-9.862,5.835,5.835,0,0,0-.788-.217c-3.247-2.007-8.011-.7-11.2.778a14.738,14.738,0,0,0-8.56,10.764,5.417,5.417,0,0,0,.12,3.169A2.393,2.393,0,0,0,709,113.709a3.647,3.647,0,0,0,1.809-1.383c2.741-3.225,5.517-5.932,9.643-7.308a4.416,4.416,0,0,1,3.464-.059,4.655,4.655,0,0,0,.852.46c1.346.4,1.63-.222,2.292,1.059a17.333,17.333,0,0,0,1.765,3.116A13.2,13.2,0,0,0,732.9,112.8a3.2,3.2,0,0,0,1.466.5C736.406,113.315,735.655,108.854,735.376,107.552Z" transform="translate(-695.479 -96.447)" fill="#5c3c35"/>
      <path id="패스_2914" data-name="패스 2914" d="M741.491,144.812a.886.886,0,0,0-1.045,1.412,1.78,1.78,0,0,0,.561.32" transform="translate(-716.094 -126.948)" fill="none" stroke="#a66d68" stroke-linecap="round" stroke-linejoin="round" stroke-width="0.5"/>
      <g id="그룹_49" data-name="그룹 49" transform="translate(7.909 31.455)">
        <path id="패스_2915" data-name="패스 2915" d="M712.919,202.079c0,1.689.031,3.377.043,5.066.058,7.6-.053,15.4-.549,23.068-.255,3.938-.611,7.871-1.1,11.787-.173,1.394-.05,3.044-1.122,4.043-1.132,1.056-2.848,1.1-4.3,1.068-1.821-.04-5.512,0-6.784-1.619a3.712,3.712,0,0,1-.467-2.551l1.047-17.554c.327-5.477.759-10.79.1-16.256-.737-6.073-3.246-18.719,3.053-22.9,2.017-1.338,10.08-4.3,10.08-4.3s-.059,8.969-.047,11.012Q712.9,197.511,712.919,202.079Z" transform="translate(-698.622 -181.93)" fill="#f5978e"/>
        <path id="패스_2916" data-name="패스 2916" d="M726.54,282.047a1.249,1.249,0,1,0,1.244-1.359A1.305,1.305,0,0,0,726.54,282.047Z" transform="translate(-716.267 -244.348)" fill="#fff"/>
      </g>
      <g id="그룹_50" data-name="그룹 50" transform="translate(30.054 31.455)">
        <path id="패스_2917" data-name="패스 2917" d="M759.06,202.079c-.03,13.138-.644,26.292.136,39.411.092,1.544.309,3.283,1.546,4.212a4.714,4.714,0,0,0,2.249.76c2.522.333,7.974.563,9.52-2.071a5.513,5.513,0,0,0,.438-3.124c-.478-8.563-.824-17.143-1.189-25.65a39.747,39.747,0,0,1,.43-6.486c.737-6.073,3.246-18.719-3.053-22.9-2.017-1.338-10.08-4.3-10.08-4.3s.06,8.969.048,11.012Q759.078,197.511,759.06,202.079Z" transform="translate(-758.803 -181.93)" fill="#f5978e"/>
        <path id="패스_2918" data-name="패스 2918" d="M766.167,282.047a1.249,1.249,0,1,1-1.244-1.359A1.305,1.305,0,0,1,766.167,282.047Z" transform="translate(-761.884 -244.348)" fill="#fff"/>
      </g>
      <path id="패스_2919" data-name="패스 2919" d="M739.141,156.507c-.144-.037-.285-.079-.422-.125a3.293,3.293,0,0,1-2.145-2.073.709.709,0,0,1,.093-.719.733.733,0,0,1,.35-.152,9.066,9.066,0,0,1,1.85-.156l2.946-.045a1.558,1.558,0,0,1,1.094.261,1.2,1.2,0,0,1,.332.725,2.156,2.156,0,0,1-1.522,2.246A4.484,4.484,0,0,1,739.141,156.507Z" transform="translate(-714.667 -132.339)" fill="#ca6f63"/>
      <g id="그룹_51" data-name="그룹 51" transform="translate(35.186 66.534)">
        <path id="패스_2920" data-name="패스 2920" d="M779.18,287.729a7.01,7.01,0,0,0,2.638-4.59l0-.018a7.89,7.89,0,0,0-.059-2.978c.988-6.286-12.243-.57-7.076,1.023-1.533.728-2.7,2.129-.607,3.119-1.709.462-1.861,2.4.071,2.622-.857-.1-.595,1.49-.19,1.8.53.406,1.952.16,2.556.075A5.854,5.854,0,0,0,779.18,287.729Z" transform="translate(-772.749 -277.26)" fill="#edc8bd"/>
        <path id="패스_2921" data-name="패스 2921" d="M782.668,285.178a6.924,6.924,0,0,0-2.6.764" transform="translate(-777.374 -282.264)" fill="none" stroke="#a66d68" stroke-linecap="round" stroke-linejoin="round" stroke-width="0.5"/>
        <path id="패스_2922" data-name="패스 2922" d="M781.872,293.782a6.661,6.661,0,0,0-3.048.67" transform="translate(-776.589 -287.702)" fill="none" stroke="#a66d68" stroke-linecap="round" stroke-linejoin="round" stroke-width="0.5"/>
        <path id="패스_2923" data-name="패스 2923" d="M781.46,301.166c-.926.167-1.772.4-2.617.625" transform="translate(-776.6 -292.369)" fill="none" stroke="#a66d68" stroke-linecap="round" stroke-linejoin="round" stroke-width="0.5"/>
      </g>
      <path id="패스_2924" data-name="패스 2924" d="M793.232,214.68q-.468,6.332-1.071,12.652" transform="translate(-749.833 -171.173)" fill="none" stroke="#bf736f" stroke-miterlimit="10" stroke-width="0.5"/>
      <path id="패스_2925" data-name="패스 2925" d="M796.431,254.577c1.012-.418,2.239-.814,3.125-.162a3.351,3.351,0,0,1,.914,1.3.573.573,0,0,1,.079.447c-.073.182-.3.229-.493.24a5.265,5.265,0,0,1-2.421-.444" transform="translate(-752.531 -196.069)" fill="none" stroke="#bf736f" stroke-miterlimit="10" stroke-width="0.5"/>
      <path id="패스_2926" data-name="패스 2926" d="M799.858,265.564c-.117-.013.057-.164.166-.118a5.909,5.909,0,0,1,2.354,1.824" transform="translate(-754.673 -203.254)" fill="none" stroke="#bf736f" stroke-miterlimit="10" stroke-width="0.5"/>
      <path id="패스_2927" data-name="패스 2927" d="M699.321,218.69a57.95,57.95,0,0,1,1.424,9.7" transform="translate(-691.155 -173.708)" fill="none" stroke="#bf736f" stroke-miterlimit="10" stroke-width="0.5"/>
      <path id="패스_2928" data-name="패스 2928" d="M798.848,274.66l-.663,1.266" transform="translate(-753.639 -209.083)" fill="none" stroke="#bf736f" stroke-miterlimit="10" stroke-width="0.5"/>
      <path id="패스_2929" data-name="패스 2929" d="M801.655,280.717a2.607,2.607,0,0,1-1.276,1.435" transform="translate(-755.026 -212.911)" fill="none" stroke="#bf736f" stroke-miterlimit="10" stroke-width="0.5"/>
      <path id="패스_2930" data-name="패스 2930" d="M801.737,286.367A6.891,6.891,0,0,1,800,287.992" transform="translate(-754.784 -216.482)" fill="none" stroke="#bf736f" stroke-miterlimit="10" stroke-width="0.5"/>
      <path id="패스_2931" data-name="패스 2931" d="M727.811,192.659a4.325,4.325,0,0,0,1.768.1" transform="translate(-709.161 -157.256)" fill="none" stroke="#bf736f" stroke-miterlimit="10" stroke-width="0.5"/>
      <path id="패스_2932" data-name="패스 2932" d="M726.106,203.836h2.238" transform="translate(-708.084 -164.32)" fill="none" stroke="#bf736f" stroke-miterlimit="10" stroke-width="0.5"/>
      <path id="패스_2933" data-name="패스 2933" d="M726.962,217.735a2.007,2.007,0,0,0,1.6-.018" transform="translate(-708.625 -173.093)" fill="none" stroke="#bf736f" stroke-miterlimit="10" stroke-width="0.5"/>
      <path id="패스_2934" data-name="패스 2934" d="M727.843,230.768h1.279" transform="translate(-709.181 -181.342)" fill="none" stroke="#bf736f" stroke-miterlimit="10" stroke-width="0.5"/>
      <path id="패스_2935" data-name="패스 2935" d="M727.409,246.406h.959" transform="translate(-708.907 -191.225)" fill="none" stroke="#bf736f" stroke-miterlimit="10" stroke-width="0.5"/>
      <path id="패스_2936" data-name="패스 2936" d="M763.076,190.5l2.053.323" transform="translate(-731.45 -155.892)" fill="none" stroke="#bf736f" stroke-miterlimit="10" stroke-width="0.5"/>
      <path id="패스_2937" data-name="패스 2937" d="M763.44,200.83a2.051,2.051,0,0,0,1.6.293" transform="translate(-731.68 -162.42)" fill="none" stroke="#bf736f" stroke-miterlimit="10" stroke-width="0.5"/>
      <path id="패스_2938" data-name="패스 2938" d="M763.846,212.211a1.882,1.882,0,0,0,1.135.1" transform="translate(-731.936 -169.613)" fill="none" stroke="#bf736f" stroke-miterlimit="10" stroke-width="0.5"/>
      <path id="패스_2939" data-name="패스 2939" d="M763.844,226.958a1.353,1.353,0,0,0,.975.111" transform="translate(-731.935 -178.934)" fill="none" stroke="#bf736f" stroke-miterlimit="10" stroke-width="0.5"/>
      <path id="패스_2940" data-name="패스 2940" d="M764.715,241.269a.955.955,0,0,0,.814.118" transform="translate(-732.486 -187.979)" fill="none" stroke="#bf736f" stroke-miterlimit="10" stroke-width="0.5"/>
      <path id="패스_2941" data-name="패스 2941" d="M763.463,254.225h1.279" transform="translate(-731.694 -196.167)" fill="none" stroke="#bf736f" stroke-miterlimit="10" stroke-width="0.5"/>
      <path id="패스_2942" data-name="패스 2942" d="M726.921,310.361a1.353,1.353,0,0,0,.976.111" transform="translate(-708.599 -231.647)" fill="none" stroke="#bf736f" stroke-miterlimit="10" stroke-width="0.5"/>
      <path id="패스_2943" data-name="패스 2943" d="M726.54,321.555h.959" transform="translate(-708.358 -238.721)" fill="none" stroke="#bf736f" stroke-miterlimit="10" stroke-width="0.5"/>
      <path id="패스_2944" data-name="패스 2944" d="M724.281,334.641a1,1,0,0,0,.988.443" transform="translate(-706.93 -246.992)" fill="none" stroke="#bf736f" stroke-miterlimit="10" stroke-width="0.5"/>
      <path id="패스_2945" data-name="패스 2945" d="M763.463,308.958H764.9" transform="translate(-731.694 -230.76)" fill="none" stroke="#bf736f" stroke-miterlimit="10" stroke-width="0.5"/>
      <path id="패스_2946" data-name="패스 2946" d="M764.338,323.688l1.273.2" transform="translate(-732.247 -240.07)" fill="none" stroke="#bf736f" stroke-miterlimit="10" stroke-width="0.5"/>
      <path id="패스_2947" data-name="패스 2947" d="M765.2,336.324h.8" transform="translate(-732.793 -248.056)" fill="none" stroke="#bf736f" stroke-miterlimit="10" stroke-width="0.5"/>
    </g>
  </g>
</svg>
