<svg xmlns="http://www.w3.org/2000/svg" xmlns:xlink="http://www.w3.org/1999/xlink" width="45" height="45" viewBox="0 0 45 45">
  <defs>
    <clipPath id="clip-path">
      <circle id="base" cx="22.5" cy="22.5" r="22.5" fill="#608adf"/>
    </clipPath>
  </defs>
  <g id="member_woman_infant" clip-path="url(#clip-path)">
    <g id="그룹_80" data-name="그룹 80" transform="translate(-1.2 6.229)">
      <g id="그룹_63" data-name="그룹 63" transform="translate(29.271 0.528)">
        <g id="그룹_59" data-name="그룹 59" transform="translate(0.372 0.373)">
          <g id="그룹_58" data-name="그룹 58">
            <path id="패스_2977" data-name="패스 2977" d="M1485.8,1085.268a8.939,8.939,0,0,0,3.459,6.322,3.705,3.705,0,0,0,2.1.877,1.749,1.749,0,0,0,1.764-1.2,3.132,3.132,0,0,0,1.391.2,1.073,1.073,0,0,0,.945-.907c.026-.588-.564-.979-.965-1.409a3.84,3.84,0,0,1-.874-2.661c0-.956.21-1.9.3-2.852a10.276,10.276,0,0,0-.482-4.317,4.462,4.462,0,0,0-2.156-2.724,5.178,5.178,0,0,0-4.96.179,4.19,4.19,0,0,0-1.7,2.726,8.305,8.305,0,0,0,.176,2.752" transform="translate(-1484.558 -1076.052)" fill="#5b4242"/>
          </g>
        </g>
        <g id="그룹_62" data-name="그룹 62" transform="translate(0 0)">
          <g id="그룹_61" data-name="그룹 61">
            <g id="그룹_60" data-name="그룹 60">
              <path id="패스_2978" data-name="패스 2978" d="M1483.534,1083.371a9.309,9.309,0,0,0,1.724,4.676,9.082,9.082,0,0,0,1.73,1.821,4.151,4.151,0,0,0,2.539,1.075,2.12,2.12,0,0,0,2.059-1.477l-.459.26a3.089,3.089,0,0,0,1.738.166,1.486,1.486,0,0,0,1.026-.948c.308-1.025-.808-1.551-1.271-2.269a4.42,4.42,0,0,1-.484-2.83,29.232,29.232,0,0,0,.307-3.431,10,10,0,0,0-.622-3.313,5.244,5.244,0,0,0-1.613-2.338,5.394,5.394,0,0,0-2.7-.948,5.084,5.084,0,0,0-2.808.461,4.405,4.405,0,0,0-1.962,2.046,4.666,4.666,0,0,0-.415,1.459,7.036,7.036,0,0,0,.072,1.807c.041.289.092.577.143.865a.376.376,0,0,0,.459.261.382.382,0,0,0,.261-.459,6.676,6.676,0,0,1-.066-3.042,3.793,3.793,0,0,1,1.4-2,3.938,3.938,0,0,1,2.34-.684,5.4,5.4,0,0,1,2.411.563,3.794,3.794,0,0,1,1.589,1.816,8.418,8.418,0,0,1,.724,2.817,13.748,13.748,0,0,1-.147,3.132,8.113,8.113,0,0,0-.008,3.069,3.616,3.616,0,0,0,.57,1.268c.26.355.6.621.891.95a1,1,0,0,1,.219.389c.01.041.005.011,0,0a.506.506,0,0,1,0,.062c0,.021-.01.122,0,.09a.427.427,0,0,1-.1.213.886.886,0,0,1-.361.254,1.37,1.37,0,0,1-.646.045,5.176,5.176,0,0,1-.757-.191.377.377,0,0,0-.459.26,1.1,1.1,0,0,1-.487.666,1.617,1.617,0,0,1-.831.263,3.363,3.363,0,0,1-2.071-.886,8.557,8.557,0,0,1-3.2-5.94.383.383,0,0,0-.373-.373.376.376,0,0,0-.373.373Z" transform="translate(-1482.293 -1073.782)" fill="#5b4242"/>
            </g>
          </g>
        </g>
      </g>
      <g id="그룹_69" data-name="그룹 69" transform="translate(22.286 0)">
        <g id="그룹_65" data-name="그룹 65" transform="translate(0 0)">
          <g id="그룹_64" data-name="그룹 64">
            <path id="패스_2979" data-name="패스 2979" d="M1445.143,1076.351c-1.143-.307-2.254-.69-3.369-1.085a2.466,2.466,0,0,1-1.839-2.019,2.275,2.275,0,0,1-.117-1.151.987.987,0,0,1,.763-.792,1.46,1.46,0,0,1,.98.361,20.165,20.165,0,0,1,1.943,1.54,10.829,10.829,0,0,1,1.7-1.8c.728-.611,1.772-1.138,2.586-.647a2.454,2.454,0,0,1,.786,2.344c-.055.872-.02,2.741-.725,3.369S1445.913,1076.558,1445.143,1076.351Z" transform="translate(-1439.784 -1070.568)" fill="#f9cd50"/>
          </g>
        </g>
      </g>
      <path id="패스_2981" data-name="패스 2981" d="M13.435,0C10.593,1.57,6.1,7.249,4.672,8.893c-2.41,2.738-5.149,7.449-4.6,11.392.876,6.682,10.188,3.834,13.364.876h0" transform="translate(0 35.353) rotate(-13)" fill="#f9cd50"/>
      <path id="패스_2982" data-name="패스 2982" d="M0,0C2.842,1.57,7.339,7.249,8.763,8.893c2.41,2.738,5.149,7.449,4.6,11.392C12.488,26.967,3.176,24.119,0,21.161H0" transform="translate(33.109 33.458) rotate(13)" fill="#f9cd50"/>
      <g id="그룹_73" data-name="그룹 73" transform="translate(5.939 6.281)">
        <g id="그룹_72" data-name="그룹 72" transform="translate(0 0)">
          <path id="패스_2983" data-name="패스 2983" d="M1353.719,1272.621v-15.706a14.427,14.427,0,0,1,14.427-14.427h0a14.427,14.427,0,0,1,14.426,14.427v15.706Z" transform="translate(-1351.514 -1220.52)" fill="#f9cd50"/>
          <path id="패스_2984" data-name="패스 2984" d="M1425.016,1223.028a4.039,4.039,0,0,1-4.039,4.039h0a4.039,4.039,0,0,1-4.039-4.039v-.828a4.039,4.039,0,0,1,4.039-4.039h0a4.039,4.039,0,0,1,4.039,4.039Z" transform="translate(-1404.345 -1200.19)" fill="#edc5b7"/>
          <path id="패스_2985" data-name="패스 2985" d="M1407.131,1245.3c.958,1.576,1.505,3.665,3.832,4.217,2.4.473,4.311-1.97,5.269-4.256,3.969,3.783-2.345,8.883-4.672,4.469C1410.4,1254.088,1402.683,1250.974,1407.131,1245.3Z" transform="translate(-1395.006 -1222.836)" fill="#fff"/>
          <g id="그룹_70" data-name="그룹 70" transform="translate(0 7.856)">
            <path id="패스_2986" data-name="패스 2986" d="M1349.34,1161.124a4.519,4.519,0,1,1-4.52-4.52A4.52,4.52,0,0,1,1349.34,1161.124Z" transform="translate(-1340.301 -1156.604)" fill="#edc5b7"/>
            <line id="선_14" data-name="선 14" x2="2.631" transform="translate(2.24 4.52)" fill="none" stroke="#d19e8c" stroke-linecap="round" stroke-linejoin="round" stroke-width="1"/>
          </g>
          <g id="그룹_71" data-name="그룹 71" transform="translate(23.673 7.856)">
            <path id="패스_2987" data-name="패스 2987" d="M1484.369,1161.124a4.52,4.52,0,1,0,4.52-4.52A4.52,4.52,0,0,0,1484.369,1161.124Z" transform="translate(-1484.369 -1156.604)" fill="#edc5b7"/>
            <line id="선_15" data-name="선 15" x1="2.631" transform="translate(4.168 4.52)" fill="none" stroke="#d19e8c" stroke-linecap="round" stroke-linejoin="round" stroke-width="1"/>
          </g>
          <path id="패스_2988" data-name="패스 2988" d="M1389.274,1121.167a12.376,12.376,0,1,1-12.376-12.376A12.376,12.376,0,0,1,1389.274,1121.167Z" transform="translate(-1360.542 -1108.791)" fill="#ffd9ca"/>
          <path id="패스_2989" data-name="패스 2989" d="M1405.469,1168.53c0,.743-.353,1.346-.787,1.346s-.786-.6-.786-1.346.352-1.346.786-1.346S1405.469,1167.786,1405.469,1168.53Z" transform="translate(-1393.446 -1157.589)" fill="#5b4242"/>
          <path id="패스_2990" data-name="패스 2990" d="M1464.379,1168.53c0,.743-.352,1.346-.787,1.346s-.787-.6-.787-1.346.352-1.346.787-1.346S1464.379,1167.786,1464.379,1168.53Z" transform="translate(-1442.676 -1157.589)" fill="#5b4242"/>
        </g>
        <path id="패스_2991" data-name="패스 2991" d="M1379.531,1185.5a2.924,2.924,0,1,1-2.923-2.923A2.924,2.924,0,0,1,1379.531,1185.5Z" transform="translate(-1368.198 -1170.454)" fill="#ffb9a4"/>
        <path id="패스_2992" data-name="패스 2992" d="M1472.427,1185.5a2.923,2.923,0,1,1-2.924-2.923A2.924,2.924,0,0,1,1472.427,1185.5Z" transform="translate(-1445.83 -1170.454)" fill="#ffb9a4"/>
        <path id="패스_2993" data-name="패스 2993" d="M1429.418,1183.225a2.248,2.248,0,0,1,2.958-.082" transform="translate(-1414.775 -1170.496)" fill="none" stroke="#d19e8c" stroke-linecap="round" stroke-linejoin="round" stroke-width="1"/>
      </g>
      <path id="패스_2994" data-name="패스 2994" d="M1366.161,1306.254c0,3.853.094,8.562-.093,11.559" transform="translate(-1355.019 -1267.308)" fill="none" stroke="#b49034" stroke-miterlimit="10" stroke-width="1"/>
      <path id="패스_2995" data-name="패스 2995" d="M1510.586,1307.588c0,3.453,0,7.481.219,10.933" transform="translate(-1476.666 -1268.642)" fill="none" stroke="#b49034" stroke-miterlimit="10" stroke-width="1"/>
      <path id="패스_2996" data-name="패스 2996" d="M1377.052,1093.8a14.516,14.516,0,0,1-3.015,6.527c-.812.985-4.407,4.556-4.524,1.355-2.2.985-4.755,4.433-7.655,3.571-2.2-.739-1.59-6.1-.43-8.074,2.088-4.064,10.872-8.507,15.783-4.6C1377.545,1092.84,1376.7,1093.427,1377.052,1093.8Z" transform="translate(-1351.142 -1087.696)" fill="#5b4242"/>
      <path id="패스_2997" data-name="패스 2997" d="M1444.194,1102.141a18.148,18.148,0,0,0,7.239,8.662c3.361,1.939,5.947.9,5.43-3.1-.646-4.912-7.886-11.247-12.539-6.722" transform="translate(-1421.183 -1094.685)" fill="#5b4242"/>
      <path id="패스_2998" data-name="패스 2998" d="M1421.083,1194.541c-2.625.273-5.776.085-8.321.423C1412.644,1200.209,1421.652,1200.009,1421.083,1194.541Z" transform="translate(-1394.915 -1174.17)" fill="#ca6f63"/>
      <g id="그룹_76" data-name="그룹 76" transform="translate(21.235 37.022)">
        <g id="그룹_74" data-name="그룹 74" transform="translate(0.501 0.501)">
          <circle id="타원_1" data-name="타원 1" cx="0.929" cy="0.929" r="0.929" fill="#fff"/>
        </g>
        <g id="그룹_75" data-name="그룹 75" transform="translate(0 0)">
          <path id="패스_2999" data-name="패스 2999" d="M1435.158,1298.7a1.43,1.43,0,0,1-.773-2.752,1.43,1.43,0,1,1,.863,2.727C1435.218,1298.683,1435.188,1298.692,1435.158,1298.7Zm-.444-1.8-.027.007a.429.429,0,1,0,.027-.007Z" transform="translate(-1433.386 -1295.88)" fill="#fff"/>
        </g>
      </g>
      <g id="그룹_79" data-name="그룹 79" transform="translate(21.045 42.308)">
        <g id="그룹_77" data-name="그룹 77" transform="translate(0.501 0.501)">
          <circle id="타원_2" data-name="타원 2" cx="0.929" cy="0.929" r="0.929" fill="#fff"/>
        </g>
        <g id="그룹_78" data-name="그룹 78" transform="translate(0 0)">
          <path id="패스_3000" data-name="패스 3000" d="M1434,1330.864a1.43,1.43,0,0,1-1.7-.957,1.43,1.43,0,1,1,1.795.932C1434.064,1330.848,1434.035,1330.857,1434,1330.864Zm-.444-1.8-.027.007a.429.429,0,0,0-.279.537.428.428,0,0,0,.816-.258A.428.428,0,0,0,1433.56,1329.06Z" transform="translate(-1432.233 -1328.045)" fill="#fff"/>
        </g>
      </g>
    </g>
  </g>
</svg>
