<svg xmlns="http://www.w3.org/2000/svg" xmlns:xlink="http://www.w3.org/1999/xlink" width="60" height="60" viewBox="0 0 60 60">
  <defs>
    <clipPath id="clip-path">
      <circle id="base" cx="30" cy="30" r="30" transform="translate(-0.333 -0.333)" fill="#ff9595"/>
    </clipPath>
  </defs>
  <g id="member_default" transform="translate(-46 -371)">
    <circle id="base-2" data-name="base" cx="30" cy="30" r="30" transform="translate(46 371)" fill="#e7e9f1"/>
    <g id="마스크_그룹_7" data-name="마스크 그룹 7" transform="translate(46.333 371.333)" clip-path="url(#clip-path)">
      <g id="그룹_52" data-name="그룹 52" transform="translate(-5.967 5.37)">
        <path id="패스_2899" data-name="패스 2899" d="M747.82,373.607c.98-13.723.254-63.623-1.279-77.8l-20.186-2.683L706.168,295.8c-1.3,16.32-1.436,62.774-1.286,78.431C713.481,378.391,737.676,379.15,747.82,373.607Z" transform="translate(-690.862 -193.94)" fill="#a55e5b"/>
        <path id="패스_2900" data-name="패스 2900" d="M723.193,335.573c-.435,20.811-.71,41.365-.489,57.847" transform="translate(-699.682 -214.984)" fill="none" stroke="#894747" stroke-miterlimit="10" stroke-width="0.5"/>
        <path id="패스_2901" data-name="패스 2901" d="M772.187,335.573c.435,20.811.71,41.365.489,57.847" transform="translate(-724.25 -214.984)" fill="none" stroke="#894747" stroke-miterlimit="10" stroke-width="0.5"/>
        <path id="합치기_6" data-name="합치기 6" d="M-1413.393-12.375c-2.495-.055-7.555,0-9.3-2.219a5.094,5.094,0,0,1-.641-3.5l1.435-24.057c.077-1.3.159-2.585.236-3.87.007-.173.013-.341.015-.5.018-1.271.1-2.54.218-3.806a84.505,84.505,0,0,0-.339-14.1c-1.01-8.323-4.45-25.655,4.184-31.383,2.764-1.834,13.814-5.9,13.814-5.9s0,.447-.008,1.19a62.961,62.961,0,0,1,9.128-.609,13.3,13.3,0,0,1,1.982.173c0-.479,0-.754,0-.754s11.051,4.062,13.814,5.9c8.633,5.729,5.195,23.06,4.185,31.383a54.378,54.378,0,0,0-.59,8.888c.5,11.659.975,23.417,1.63,35.151a7.555,7.555,0,0,1-.6,4.282c-1.458,2.483-5.45,3.109-8.924,3.109a32.385,32.385,0,0,1-4.123-.271,6.463,6.463,0,0,1-3.082-1.041c-1.695-1.272-1.993-3.656-2.119-5.772-.286-4.82-.435-9.642-.5-14.467q-1.459.03-2.919.034c-1.057,0-2.118-.006-3.18-.014-1.818-.014-3.642-.028-5.455.012-.344,5.056-.811,10.1-1.436,15.134-.237,1.911-.068,4.171-1.537,5.541-1.364,1.273-3.349,1.472-5.158,1.472C-1412.911-12.366-1413.154-12.37-1413.393-12.375Z" transform="translate(1434.206 144.812)" fill="#a4aab2" stroke="rgba(0,0,0,0)" stroke-miterlimit="10" stroke-width="1"/>
        <path id="패스_2903" data-name="패스 2903" d="M784.6,192.51c4.524,2.879,6.71,7.734,8.878,12.53q2.728,6.034,5.334,12.126c2.989,6.985,4.683,15.9.5,22.749-2.822,4.621-9.514,9.741-15.094,8.37" transform="translate(-730.214 -144.066)" fill="#f5978e"/>
        <path id="패스_2904" data-name="패스 2904" d="M694.315,193.738c-4.517,2.88-6.7,7.734-8.864,12.53q-2.723,6.035-5.326,12.126c-2.985,6.985-4.675,15.9-.5,22.749,2.818,4.621,9.5,9.741,15.072,8.37" transform="translate(-677.129 -144.675)" fill="#f5978e"/>
        <path id="패스_2905" data-name="패스 2905" d="M737.025,170.845a15.426,15.426,0,0,1,0,6.371c3.008,2.3,8.486,1.789,11.679-.341-.355-2.655-1.062-4.437-1.062-7.091" transform="translate(-706.82 -132.648)" fill="#fbdacc"/>
        <g id="그룹_47" data-name="그룹 47" transform="translate(11.989 18.646)">
          <path id="패스_2906" data-name="패스 2906" d="M715.687,140.511a7.392,7.392,0,1,1-7.392-7.393A7.392,7.392,0,0,1,715.687,140.511Z" transform="translate(-700.903 -133.118)" fill="#fbdacc"/>
          <line id="선_10" data-name="선 10" x2="3.285" transform="translate(3.559 7.393)" fill="none" stroke="#deab95" stroke-linecap="round" stroke-linejoin="round" stroke-width="1"/>
        </g>
        <g id="그룹_48" data-name="그룹 48" transform="translate(45.036 18.493)">
          <path id="패스_2907" data-name="패스 2907" d="M766.435,140.511a7.392,7.392,0,1,0,7.393-7.393A7.392,7.392,0,0,0,766.435,140.511Z" transform="translate(-766.435 -132.965)" fill="#fbdacc"/>
          <line id="선_11" data-name="선 11" x1="3.285" transform="translate(7.94 7.393)" fill="none" stroke="#deab95" stroke-linecap="round" stroke-linejoin="round" stroke-width="1"/>
        </g>
        <path id="패스_2908" data-name="패스 2908" d="M748.633,122.077a18.214,18.214,0,1,1-18.209-18.618A18.416,18.416,0,0,1,748.633,122.077Z" transform="translate(-694.521 -99.923)" fill="#ffe7dc"/>
        <path id="패스_2909" data-name="패스 2909" d="M734.57,144.313c0,.875-.49,1.585-1.1,1.585s-1.095-.71-1.095-1.585.491-1.586,1.095-1.586S734.57,143.438,734.57,144.313Z" transform="translate(-704.517 -119.388)" fill="#656f7e"/>
        <path id="패스_2910" data-name="패스 2910" d="M758.181,144.313c0,.875-.49,1.585-1.1,1.585s-1.095-.71-1.095-1.585.49-1.586,1.095-1.586S758.181,143.438,758.181,144.313Z" transform="translate(-716.222 -119.388)" fill="#656f7e"/>
        <path id="패스_2911" data-name="패스 2911" d="M734.43,137.731c-1.194-1.194-3.148-.543-4.45.434" transform="translate(-703.327 -116.592)" fill="none" stroke="#8f969f" stroke-miterlimit="10" stroke-width="0.5"/>
        <path id="패스_2912" data-name="패스 2912" d="M754.565,137.731c1.194-1.194,3.148-.543,4.45.434" transform="translate(-715.515 -116.592)" fill="none" stroke="#8f969f" stroke-miterlimit="10" stroke-width="0.5"/>
        <path id="패스_2913" data-name="패스 2913" d="M746.2,111.667c-1.23-5.724-5.907-11.487-11.63-13.516a7.994,7.994,0,0,0-1.08-.3c-4.449-2.751-10.979-.958-15.351,1.066a20.2,20.2,0,0,0-11.732,14.752,7.425,7.425,0,0,0,.164,4.342,3.28,3.28,0,0,0,3.486,2.09,5,5,0,0,0,2.48-1.9c3.756-4.42,7.56-8.13,13.215-10.015,1.546-.515,3.317-.861,4.748-.081a6.375,6.375,0,0,0,1.167.63c1.844.55,4.74-.122,7.74,4.93,1.521,1.883,1.275,4.023,3.4,5.188a4.379,4.379,0,0,0,2.01.683C747.61,119.564,746.581,113.451,746.2,111.667Z" transform="translate(-691.521 -96.447)" fill="#a4aab2"/>
        <path id="패스_2914" data-name="패스 2914" d="M741.976,144.851a1.214,1.214,0,0,0-1.433,1.935,2.44,2.44,0,0,0,.77.439" transform="translate(-707.171 -120.37)" fill="none" stroke="#deab95" stroke-linecap="round" stroke-linejoin="round" stroke-width="0.5"/>
        <g id="그룹_51" data-name="그룹 51" transform="translate(48.22 91.182)">
          <path id="패스_2920" data-name="패스 2920" d="M781.563,291.607a9.607,9.607,0,0,0,3.616-6.29l0-.025a10.815,10.815,0,0,0-.081-4.081c1.354-8.614-16.778-.781-9.7,1.4-2.1,1-3.7,2.918-.832,4.274-2.342.634-2.55,3.285.1,3.593-1.175-.137-.815,2.041-.261,2.465.726.556,2.675.219,3.5.1A8.023,8.023,0,0,0,781.563,291.607Z" transform="translate(-772.749 -277.26)" fill="#edc8bd"/>
          <path id="패스_2921" data-name="패스 2921" d="M783.632,285.178a9.491,9.491,0,0,0-3.566,1.046" transform="translate(-776.376 -281.185)" fill="none" stroke="#a66d68" stroke-linecap="round" stroke-linejoin="round" stroke-width="0.5"/>
          <path id="패스_2922" data-name="패스 2922" d="M783,293.782a9.129,9.129,0,0,0-4.178.918" transform="translate(-775.76 -285.45)" fill="none" stroke="#a66d68" stroke-linecap="round" stroke-linejoin="round" stroke-width="0.5"/>
          <path id="패스_2923" data-name="패스 2923" d="M782.43,301.166c-1.269.229-2.428.543-3.587.857" transform="translate(-775.77 -289.111)" fill="none" stroke="#a66d68" stroke-linecap="round" stroke-linejoin="round" stroke-width="0.5"/>
        </g>
        <path id="패스_2924" data-name="패스 2924" d="M793.629,214.68q-.641,8.677-1.467,17.339" transform="translate(-734.152 -155.056)" fill="none" stroke="#bf736f" stroke-miterlimit="10" stroke-width="0.5"/>
        <path id="패스_2925" data-name="패스 2925" d="M796.431,254.765c1.387-.572,3.068-1.116,4.282-.222a4.594,4.594,0,0,1,1.253,1.788.786.786,0,0,1,.108.613c-.1.25-.412.314-.676.329a7.214,7.214,0,0,1-3.317-.609" transform="translate(-736.268 -174.582)" fill="none" stroke="#bf736f" stroke-miterlimit="10" stroke-width="0.5"/>
        <path id="패스_2926" data-name="패스 2926" d="M799.873,265.611c-.16-.018.079-.225.228-.162a8.1,8.1,0,0,1,3.226,2.5" transform="translate(-737.948 -180.217)" fill="none" stroke="#bf736f" stroke-miterlimit="10" stroke-width="0.5"/>
        <path id="패스_2927" data-name="패스 2927" d="M699.321,218.69a79.423,79.423,0,0,1,1.951,13.295" transform="translate(-688.13 -157.044)" fill="none" stroke="#bf736f" stroke-miterlimit="10" stroke-width="0.5"/>
        <path id="패스_2928" data-name="패스 2928" d="M799.094,274.66l-.909,1.735" transform="translate(-737.137 -184.789)" fill="none" stroke="#bf736f" stroke-miterlimit="10" stroke-width="0.5"/>
        <path id="패스_2929" data-name="패스 2929" d="M802.128,280.717a3.573,3.573,0,0,1-1.749,1.967" transform="translate(-738.225 -187.791)" fill="none" stroke="#bf736f" stroke-miterlimit="10" stroke-width="0.5"/>
        <path id="패스_2930" data-name="패스 2930" d="M802.381,286.367A9.445,9.445,0,0,1,800,288.593" transform="translate(-738.035 -190.592)" fill="none" stroke="#bf736f" stroke-miterlimit="10" stroke-width="0.5"/>
        <path id="패스_2934" data-name="패스 2934" d="M727.843,230.768H729.6" transform="translate(-702.268 -163.031)" fill="none" stroke="#bf736f" stroke-miterlimit="10" stroke-width="0.5"/>
        <path id="패스_2935" data-name="패스 2935" d="M727.409,246.406h1.314" transform="translate(-702.053 -170.783)" fill="none" stroke="#bf736f" stroke-miterlimit="10" stroke-width="0.5"/>
        <path id="패스_2939" data-name="패스 2939" d="M763.844,226.958a1.854,1.854,0,0,0,1.337.153" transform="translate(-720.114 -161.143)" fill="none" stroke="#bf736f" stroke-miterlimit="10" stroke-width="0.5"/>
        <path id="패스_2940" data-name="패스 2940" d="M764.715,241.269a1.309,1.309,0,0,0,1.115.161" transform="translate(-720.546 -168.237)" fill="none" stroke="#bf736f" stroke-miterlimit="10" stroke-width="0.5"/>
        <path id="패스_2941" data-name="패스 2941" d="M763.463,254.225h1.752" transform="translate(-719.925 -174.659)" fill="none" stroke="#bf736f" stroke-miterlimit="10" stroke-width="0.5"/>
        <path id="패스_2942" data-name="패스 2942" d="M726.921,310.361a1.854,1.854,0,0,0,1.337.152" transform="translate(-701.811 -202.486)" fill="none" stroke="#bf736f" stroke-miterlimit="10" stroke-width="0.5"/>
        <path id="패스_2943" data-name="패스 2943" d="M726.54,321.555h1.314" transform="translate(-701.622 -208.035)" fill="none" stroke="#bf736f" stroke-miterlimit="10" stroke-width="0.5"/>
        <path id="패스_2944" data-name="패스 2944" d="M724.281,334.641a1.368,1.368,0,0,0,1.355.608" transform="translate(-700.503 -214.522)" fill="none" stroke="#bf736f" stroke-miterlimit="10" stroke-width="0.5"/>
        <path id="패스_2945" data-name="패스 2945" d="M763.463,308.958h1.971" transform="translate(-719.925 -201.791)" fill="none" stroke="#bf736f" stroke-miterlimit="10" stroke-width="0.5"/>
        <path id="패스_2946" data-name="패스 2946" d="M764.338,323.688l1.744.274" transform="translate(-720.359 -209.093)" fill="none" stroke="#bf736f" stroke-miterlimit="10" stroke-width="0.5"/>
        <path id="패스_2947" data-name="패스 2947" d="M765.2,336.324H766.3" transform="translate(-720.787 -215.356)" fill="none" stroke="#bf736f" stroke-miterlimit="10" stroke-width="0.5"/>
        <path id="패스_22209" data-name="패스 22209" d="M31.919,30.868s3.571,2.286,6.857,0" fill="none" stroke="#c79588" stroke-linecap="round" stroke-width="1"/>
      </g>
    </g>
  </g>
</svg>
