<svg xmlns="http://www.w3.org/2000/svg" xmlns:xlink="http://www.w3.org/1999/xlink" width="45" height="45" viewBox="0 0 45 45">
  <defs>
    <clipPath id="clip-path">
      <circle id="base" cx="22.5" cy="22.5" r="22.5" fill="#608adf"/>
    </clipPath>
  </defs>
  <g id="member_man_young" clip-path="url(#clip-path)">
    <g id="그룹_131" data-name="그룹 131" transform="translate(1.62 5.591)">
      <path id="패스_21980" data-name="패스 21980" d="M712.175,213.694c2.258-.619,2.3-3.259,2.075-5.278a4.713,4.713,0,0,0-2.007-3.552c-1.435-.879-3.281-.616-4.89-1.107a7.4,7.4,0,0,1-4.471-4.812,26.288,26.288,0,0,1-1.02-6.719,16.385,16.385,0,0,0-1.539-6.589c-8.568,1.629-12.617,13.331-12.961,20.923a13.463,13.463,0,0,0,.234,3.583,10.273,10.273,0,0,0,6.455,7.044,14.62,14.62,0,0,0,9.758-.075C706.666,216.146,709.267,214.49,712.175,213.694Z" transform="translate(-687.339 -151.538)" fill="#4e617a"/>
      <path id="패스_21981" data-name="패스 21981" d="M752.927,382.03c.653,12.711,1.306,25.145,1.633,37.856,6.857.276,7.471.654,8.777-4.6a87.561,87.561,0,0,0,1.346-16.128c0-6.908-.653-14.093-.653-21" transform="translate(-729.915 -276.516)" fill="#edc8bd"/>
      <path id="패스_21982" data-name="패스 21982" d="M766.6,447.428a181.467,181.467,0,0,1-1.133,18.213c-3.147,0-6.866,1.206-9.869-.3l.01-17.912Z" transform="translate(-731.65 -321.479)" fill="#4e617a"/>
      <g id="그룹_126" data-name="그룹 126" transform="translate(21.947 141.526)">
        <path id="패스_21983" data-name="패스 21983" d="M752.256,494.08c-1.12-.515-1.365,1.571-1.4,2.186-.143,2.242-1.47,4.419-.747,6.561a4.647,4.647,0,0,0,3.367,2.785c2.9.848,7.484.819,9.849-1.372s-.277-7.263-1.036-10.235a.645.645,0,0,0-.983-.381,1.1,1.1,0,0,1-.928.231c-.913-.228-1.134-1.628-1.974-1.965-.606-.243-.836.239-.823.8-.47.1-1.169.324-1.15-.143.021-.5-.276-.686-1.015-.5-.892.222-1.3.956-1.781,1.663-.2.3-.163.566-.628.622A2.528,2.528,0,0,1,752.256,494.08Z" transform="translate(-749.892 -491.826)" fill="#dfdfdf"/>
        <path id="패스_21984" data-name="패스 21984" d="M752.535,520.516c.829,2.072,4.007,2.279,6.01,2.418a10.261,10.261,0,0,0,6.77-1.934" transform="translate(-751.607 -510.45)" fill="none" stroke="#9c9c9c" stroke-miterlimit="10" stroke-width="0.5"/>
        <path id="패스_21985" data-name="패스 21985" d="M753.126,510.377c2.141-.76,3.523-2.211,6.01-2.349a16.188,16.188,0,0,1,3.178.069,15.475,15.475,0,0,0,2.625.76" transform="translate(-751.991 -502.314)" fill="none" stroke="#9c9c9c" stroke-miterlimit="10" stroke-width="0.5"/>
        <path id="패스_21986" data-name="패스 21986" d="M768.3,496.259c.415,1.416.65,2.673,1.168,4.02a11.165,11.165,0,0,0,.4-4.02" transform="translate(-761.845 -494.704)" fill="none" stroke="#9c9c9c" stroke-miterlimit="10" stroke-width="0.5"/>
      </g>
      <path id="패스_21987" data-name="패스 21987" d="M720.783,382.03c-.653,12.711-1.306,25.145-1.632,37.856-6.857.276-7.471.654-8.777-4.6a87.572,87.572,0,0,1-1.346-16.128c0-6.908.653-14.093.653-21" transform="translate(-701.418 -276.516)" fill="#edc8bd"/>
      <path id="패스_21988" data-name="패스 21988" d="M708.5,447.487a181.463,181.463,0,0,0,1.132,18.153c3.147,0,6.866,1.206,9.869-.3v-1.96c-.151-4.97-.125-10.429-.011-15.952Z" transform="translate(-701.078 -321.479)" fill="#4e617a"/>
      <g id="그룹_127" data-name="그룹 127" transform="translate(6.041 141.526)">
        <path id="패스_21989" data-name="패스 21989" d="M716.581,494.08c1.12-.515,1.364,1.571,1.4,2.186.143,2.242,1.47,4.419.747,6.561a4.648,4.648,0,0,1-3.367,2.785c-2.9.848-7.484.819-9.85-1.372s.277-7.263,1.036-10.235a.645.645,0,0,1,.983-.381,1.1,1.1,0,0,0,.928.231c.913-.228,1.134-1.628,1.975-1.965.606-.243.836.239.823.8.47.1,1.169.324,1.15-.143-.021-.5.276-.686,1.016-.5.892.222,1.3.956,1.781,1.663.2.3.164.566.628.622A2.531,2.531,0,0,0,716.581,494.08Z" transform="translate(-704.558 -491.826)" fill="#dfdfdf"/>
        <path id="패스_21990" data-name="패스 21990" d="M719.279,520.516c-.829,2.072-4.007,2.279-6.01,2.418A10.26,10.26,0,0,1,706.5,521" transform="translate(-705.818 -510.45)" fill="none" stroke="#9c9c9c" stroke-miterlimit="10" stroke-width="0.5"/>
        <path id="패스_21991" data-name="패스 21991" d="M720.477,510.377c-2.141-.76-3.523-2.211-6.01-2.349a16.185,16.185,0,0,0-3.177.069,15.478,15.478,0,0,1-2.625.76" transform="translate(-707.224 -502.314)" fill="none" stroke="#9c9c9c" stroke-miterlimit="10" stroke-width="0.5"/>
        <path id="패스_21992" data-name="패스 21992" d="M724.245,496.259c-.414,1.416-.649,2.673-1.168,4.02a11.159,11.159,0,0,1-.4-4.02" transform="translate(-716.318 -494.704)" fill="none" stroke="#9c9c9c" stroke-miterlimit="10" stroke-width="0.5"/>
      </g>
      <path id="패스_21993" data-name="패스 21993" d="M733.851,289.517l-14.044-1.269-14.045,1.269c-.9,7.718-1,29.688-.9,37.092a46.2,46.2,0,0,0,13.988.381,26.568,26.568,0,0,0,.952-4.744,26.493,26.493,0,0,0,.877,4.752,31.25,31.25,0,0,0,14.057-.686C735.422,319.822,734.917,296.224,733.851,289.517Z" transform="translate(-698.695 -218.148)" fill="#7d8085"/>
      <path id="패스_21994" data-name="패스 21994" d="M746.589,325.514l.731,19.193" transform="translate(-725.801 -242.339)" fill="none" stroke="#606366" stroke-miterlimit="10" stroke-width="0.5"/>
      <path id="패스_21995" data-name="패스 21995" d="M777.454,308.072a26.132,26.132,0,0,0,2.933,3.613" transform="translate(-745.837 -231.017)" fill="none" stroke="#606366" stroke-miterlimit="10" stroke-width="0.5"/>
      <path id="패스_21996" data-name="패스 21996" d="M711.323,309.532a31.171,31.171,0,0,0-3.126,3.9" transform="translate(-700.879 -231.964)" fill="none" stroke="#606366" stroke-miterlimit="10" stroke-width="0.5"/>
      <path id="패스_21997" data-name="패스 21997" d="M738.939,309.963a16.967,16.967,0,0,0,1.945,3.132" transform="translate(-720.835 -232.244)" fill="none" stroke="#606366" stroke-miterlimit="10" stroke-width="0.5"/>
      <path id="패스_21998" data-name="패스 21998" d="M724.829,319.417l-.109,17.833" transform="translate(-711.605 -238.381)" fill="none" stroke="#606366" stroke-miterlimit="10" stroke-width="0.5"/>
      <path id="패스_21999" data-name="패스 21999" d="M724.173,381.126a13.086,13.086,0,0,0-.051,4.107" transform="translate(-711.127 -278.44)" fill="none" stroke="#606366" stroke-miterlimit="10" stroke-width="0.5"/>
      <path id="패스_22000" data-name="패스 22000" d="M768.552,316.79q1.012,13.311.753,26.678" transform="translate(-740.058 -236.676)" fill="none" stroke="#606366" stroke-miterlimit="10" stroke-width="0.5"/>
      <path id="패스_22001" data-name="패스 22001" d="M728.222,187.371a50.721,50.721,0,0,0,2.772,11.206c.309.825.545,1.687.908,2.488a10.678,10.678,0,0,1,1.028,2.091c.432,2.046-.266,4.678-.288,6.772a39.7,39.7,0,0,1-.381,7.871c-.24,1.147-1,2.028-1.12,3.2-.11,1.071.4,2.779.011,3.75-.539,1.361-3.922.995-4.979,1.049-2.57.132-5.142.232-7.716.238-3.07.007-6.191-.114-9.226.173-2.056.194-4.109.412-6.165.417-1.017,0-1.267.233-1.478-.8-.289-1.413.179-3.073-.289-4.422a11.43,11.43,0,0,1-.834-2.24c-.206-1.4-.244-2.877-.356-4.3-.175-2.229-.243-4.466-.265-6.7-.016-1.558-.31-3.555.151-5.052.4-1.3,1.1-2.511,1.492-3.846.327-1.109.561-2.267.951-3.352a57.98,57.98,0,0,0,2.027-8.387c.342-1.724.459-3.7,2.009-4.56a15.789,15.789,0,0,1,5.138-1.58,45.828,45.828,0,0,1,7.717-.617,17.53,17.53,0,0,1,5,1.07,5.729,5.729,0,0,1,3.131,1.678C728.312,184.558,728.044,186.015,728.222,187.371Z" transform="translate(-695.386 -148.374)" fill="#4e617a"/>
      <path id="패스_22002" data-name="패스 22002" d="M737.025,168.522a10.736,10.736,0,0,1,0,4.432c2.093,1.6,5.909,1.231,8.126.246a40.816,40.816,0,0,1-.739-5.417" transform="translate(-719.593 -139.948)" fill="#ecbaaa"/>
      <g id="그룹_128" data-name="그룹 128" transform="translate(3.102 13.984)">
        <path id="패스_22003" data-name="패스 22003" d="M707.361,133.9a5.59,5.59,0,1,1-5.59-5.59A5.59,5.59,0,0,1,707.361,133.9Z" transform="translate(-696.181 -128.306)" fill="#ecbaaa"/>
        <line id="선_33" data-name="선 33" x2="2.484" transform="translate(2.692 5.59)" fill="none" stroke="#a66d68" stroke-linecap="round" stroke-linejoin="round" stroke-width="1"/>
      </g>
      <g id="그룹_129" data-name="그룹 129" transform="translate(28.092 13.984)">
        <path id="패스_22004" data-name="패스 22004" d="M767.408,133.9a5.59,5.59,0,1,0,5.59-5.59A5.59,5.59,0,0,0,767.408,133.9Z" transform="translate(-767.408 -128.306)" fill="#ecbaaa"/>
        <line id="선_34" data-name="선 34" x1="2.484" transform="translate(6.004 5.59)" fill="none" stroke="#a66d68" stroke-linecap="round" stroke-linejoin="round" stroke-width="1"/>
      </g>
      <path id="패스_22005" data-name="패스 22005" d="M733.539,183.837s1.547,13.862,4.957,15.244c3.807-2.164,5-15.244,5-15.244l-6.051.23Z" transform="translate(-717.33 -150.37)" fill="#95b7be"/>
      <path id="패스_22006" data-name="패스 22006" d="M736.015,110.148a13.773,13.773,0,1,1-13.769-14.079A13.927,13.927,0,0,1,736.015,110.148Z" transform="translate(-701.059 -93.395)" fill="#fbcbbd"/>
      <g id="그룹_130" data-name="그룹 130" transform="translate(15.375 17.648)">
        <path id="패스_22007" data-name="패스 22007" d="M732.818,139.949c0,.662-.371,1.2-.828,1.2s-.828-.537-.828-1.2.371-1.2.828-1.2S732.818,139.287,732.818,139.949Z" transform="translate(-731.162 -138.75)" fill="#70544f"/>
        <path id="패스_22008" data-name="패스 22008" d="M759.48,139.949c0,.662-.371,1.2-.828,1.2s-.828-.537-.828-1.2.37-1.2.828-1.2S759.48,139.287,759.48,139.949Z" transform="translate(-748.47 -138.75)" fill="#70544f"/>
      </g>
      <path id="패스_22009" data-name="패스 22009" d="M755.389,129.8c.9-.848,2.38-.385,3.365.308" transform="translate(-731.514 -114.992)" fill="none" stroke="#413939" stroke-miterlimit="10" stroke-width="0.5"/>
      <path id="패스_22010" data-name="패스 22010" d="M731.15,133.106c-.9-.9-2.38-.411-3.365.328" transform="translate(-713.594 -117.121)" fill="none" stroke="#413939" stroke-miterlimit="10" stroke-width="0.5"/>
      <path id="패스_22011" data-name="패스 22011" d="M740.983,185.442l1.059,3.73-1.619,6.275s.79,3.028,2.542,3.811c1.84-.967,2.606-3.839,2.606-3.839l-1.123-6.177,1.095-4.076-2.288-1.055Z" transform="translate(-721.798 -150.548)" fill="#fff"/>
      <path id="패스_22012" data-name="패스 22012" d="M733.607,177.346c3.8,3.362,6.261,1.8,8.787-.276,2.505,4.329-2.087,8.826-4.284,2.47-.6,5.647-8.457,2.5-4.5-2.194" transform="translate(-716.655 -145.977)" fill="#a8cad5"/>
      <path id="패스_22013" data-name="패스 22013" d="M712.222,298.709v3.623" transform="translate(-703.492 -224.939)" fill="none" stroke="#3c4a5b" stroke-miterlimit="10" stroke-width="0.5"/>
      <path id="패스_22014" data-name="패스 22014" d="M720.163,299.282a12.532,12.532,0,0,0,0,3.22" transform="translate(-708.577 -225.311)" fill="none" stroke="#3c4a5b" stroke-miterlimit="10" stroke-width="0.5"/>
      <path id="패스_22015" data-name="패스 22015" d="M730.36,298.421a7.555,7.555,0,0,0,.092,3.22" transform="translate(-715.183 -224.752)" fill="none" stroke="#3c4a5b" stroke-miterlimit="10" stroke-width="0.5"/>
      <path id="패스_22016" data-name="패스 22016" d="M742.891,299a9.636,9.636,0,0,0,0,2.818" transform="translate(-723.332 -225.125)" fill="none" stroke="#3c4a5b" stroke-miterlimit="10" stroke-width="0.5"/>
      <path id="패스_22017" data-name="패스 22017" d="M753.306,298.564c.092,1.007.185,2.113.276,3.12" transform="translate(-730.161 -224.845)" fill="none" stroke="#3c4a5b" stroke-miterlimit="10" stroke-width="0.5"/>
      <path id="패스_22018" data-name="패스 22018" d="M761.576,298.134c.092.7.184,2.214.276,3.22" transform="translate(-735.53 -224.565)" fill="none" stroke="#3c4a5b" stroke-miterlimit="10" stroke-width="0.5"/>
      <path id="패스_22019" data-name="패스 22019" d="M771.775,297.99c0,1.006-.092,2.013-.092,3.019" transform="translate(-742.091 -224.472)" fill="none" stroke="#3c4a5b" stroke-miterlimit="10" stroke-width="0.5"/>
      <path id="패스_22020" data-name="패스 22020" d="M733.6,99.957A14.6,14.6,0,0,0,724.8,89.737a5.982,5.982,0,0,0-.817-.225c-3.365-2.081-8.3-.725-11.608.806A12.459,12.459,0,0,0,707.3,93.9a16.438,16.438,0,0,0-3.1,8.216c-.139,1.636-.309,3.6.767,4.928.85,1.05,1.809-4.322,2.334-4.928.795-.916,2.021.114,2.806-.819,1.52-1.807,2.346-1.659,3.383-3.78a3.192,3.192,0,0,0,1.289,2.632,1.61,1.61,0,0,0,2.359-1.084,2.479,2.479,0,0,0,1.9,1.539,1.66,1.66,0,0,0,1.826-1.394,1.849,1.849,0,0,0,2.424,1.056,2.868,2.868,0,0,0,1.628-2.335c.144,1.671.027,1.083,1.894,3.366s2.075-.1,3.943,1.245c.474.26,1.261,3.362,1.8,3.366C734.664,105.929,733.886,101.306,733.6,99.957Z" transform="translate(-698.215 -88.448)" fill="#5c3c35"/>
      <path id="패스_22021" data-name="패스 22021" d="M781.449,298.787a17.608,17.608,0,0,0,.138,2.763" transform="translate(-748.43 -224.989)" fill="none" stroke="#3c4a5b" stroke-miterlimit="10" stroke-width="0.5"/>
      <path id="패스_22022" data-name="패스 22022" d="M714.9,283.539a19.318,19.318,0,0,1,9.256-4.835" transform="translate(-705.229 -211.953)" fill="none" stroke="#3c4a5b" stroke-miterlimit="10" stroke-width="0.5"/>
      <path id="패스_22023" data-name="패스 22023" d="M706.264,208.807a69.5,69.5,0,0,1-1.431,10.086" transform="translate(-698.695 -166.579)" fill="none" stroke="#3c4a5b" stroke-miterlimit="10" stroke-width="0.5"/>
      <path id="패스_22024" data-name="패스 22024" d="M767.943,208.807a69.564,69.564,0,0,1-1.43,10.086" transform="translate(-738.735 -166.579)" fill="none" stroke="#3c4a5b" stroke-miterlimit="10" stroke-width="0.5"/>
      <path id="패스_22025" data-name="패스 22025" d="M743.951,141.01a.918.918,0,0,0-1.083,1.464,1.84,1.84,0,0,0,.582.332" transform="translate(-723.207 -122.498)" fill="none" stroke="#a66d68" stroke-linecap="round" stroke-linejoin="round" stroke-width="0.5"/>
      <path id="패스_22026" data-name="패스 22026" d="M731.573,212.369c-2.258-.619-2.3-3.259-2.075-5.278a4.712,4.712,0,0,1,2.007-3.552c1.435-.878,3.28-.616,4.889-1.107a7.4,7.4,0,0,0,4.471-4.812,26.288,26.288,0,0,0,1.02-6.719,16.389,16.389,0,0,1,1.539-6.589c8.568,1.629,12.617,13.331,12.961,20.923a13.468,13.468,0,0,1-.233,3.583,10.275,10.275,0,0,1-6.455,7.045,14.622,14.622,0,0,1-9.758-.075C737.082,214.821,734.482,213.165,731.573,212.369Z" transform="translate(-714.649 -150.678)" fill="#4e617a"/>
      <path id="패스_22027" data-name="패스 22027" d="M785.158,219.024c-.468-3.339-.993-6.669-1.543-9.778" transform="translate(-749.836 -166.864)" fill="none" stroke="#3c4a5b" stroke-miterlimit="10" stroke-width="0.5"/>
      <path id="패스_22028" data-name="패스 22028" d="M737.949,153.751a6.309,6.309,0,0,0,5.973.1" transform="translate(-720.193 -130.839)" fill="none" stroke="#a66d68" stroke-linecap="round" stroke-linejoin="round" stroke-width="0.5"/>
    </g>
  </g>
</svg>
